%TF.GenerationSoftware,KiCad,Pcbnew,5.1.9-73d0e3b20d~88~ubuntu20.04.1*%
%TF.CreationDate,2022-04-15T22:34:28-04:00*%
%TF.ProjectId,ring,72696e67-2e6b-4696-9361-645f70636258,rev?*%
%TF.SameCoordinates,Original*%
%TF.FileFunction,Paste,Top*%
%TF.FilePolarity,Positive*%
%FSLAX46Y46*%
G04 Gerber Fmt 4.6, Leading zero omitted, Abs format (unit mm)*
G04 Created by KiCad (PCBNEW 5.1.9-73d0e3b20d~88~ubuntu20.04.1) date 2022-04-15 22:34:28*
%MOMM*%
%LPD*%
G01*
G04 APERTURE LIST*
%ADD10C,0.150000*%
%ADD11C,0.330000*%
%ADD12R,0.736600X0.304800*%
%ADD13R,0.300000X0.203200*%
%ADD14R,0.812800X0.254000*%
%ADD15R,0.850000X0.280000*%
%ADD16R,0.750000X0.280000*%
%ADD17R,0.576580X0.351536*%
%ADD18R,0.351536X0.576580*%
%ADD19R,0.750000X0.650000*%
%ADD20R,0.203200X0.203200*%
G04 APERTURE END LIST*
D10*
%TO.C,U1*%
G36*
X74214000Y-28540000D02*
G01*
X72434000Y-28540000D01*
X72434000Y-26760000D01*
X74214000Y-26760000D01*
X74214000Y-28540000D01*
G37*
X74214000Y-28540000D02*
X72434000Y-28540000D01*
X72434000Y-26760000D01*
X74214000Y-26760000D01*
X74214000Y-28540000D01*
G36*
X77014000Y-28540000D02*
G01*
X75234000Y-28540000D01*
X75234000Y-26760000D01*
X77014000Y-26760000D01*
X77014000Y-28540000D01*
G37*
X77014000Y-28540000D02*
X75234000Y-28540000D01*
X75234000Y-26760000D01*
X77014000Y-26760000D01*
X77014000Y-28540000D01*
G36*
X74214000Y-31340000D02*
G01*
X72434000Y-31340000D01*
X72434000Y-29560000D01*
X74214000Y-29560000D01*
X74214000Y-31340000D01*
G37*
X74214000Y-31340000D02*
X72434000Y-31340000D01*
X72434000Y-29560000D01*
X74214000Y-29560000D01*
X74214000Y-31340000D01*
G36*
X77014000Y-31340000D02*
G01*
X75234000Y-31340000D01*
X75234000Y-29560000D01*
X77014000Y-29560000D01*
X77014000Y-31340000D01*
G37*
X77014000Y-31340000D02*
X75234000Y-31340000D01*
X75234000Y-29560000D01*
X77014000Y-29560000D01*
X77014000Y-31340000D01*
%TD*%
%TO.C,C13*%
G36*
G01*
X70147000Y-30661000D02*
X69807000Y-30661000D01*
G75*
G02*
X69667000Y-30521000I0J140000D01*
G01*
X69667000Y-30241000D01*
G75*
G02*
X69807000Y-30101000I140000J0D01*
G01*
X70147000Y-30101000D01*
G75*
G02*
X70287000Y-30241000I0J-140000D01*
G01*
X70287000Y-30521000D01*
G75*
G02*
X70147000Y-30661000I-140000J0D01*
G01*
G37*
G36*
G01*
X70147000Y-31621000D02*
X69807000Y-31621000D01*
G75*
G02*
X69667000Y-31481000I0J140000D01*
G01*
X69667000Y-31201000D01*
G75*
G02*
X69807000Y-31061000I140000J0D01*
G01*
X70147000Y-31061000D01*
G75*
G02*
X70287000Y-31201000I0J-140000D01*
G01*
X70287000Y-31481000D01*
G75*
G02*
X70147000Y-31621000I-140000J0D01*
G01*
G37*
%TD*%
%TO.C,C2*%
G36*
G01*
X71982500Y-23588400D02*
X71781500Y-23588400D01*
G75*
G02*
X71702000Y-23508900I0J79500D01*
G01*
X71702000Y-23349900D01*
G75*
G02*
X71781500Y-23270400I79500J0D01*
G01*
X71982500Y-23270400D01*
G75*
G02*
X72062000Y-23349900I0J-79500D01*
G01*
X72062000Y-23508900D01*
G75*
G02*
X71982500Y-23588400I-79500J0D01*
G01*
G37*
G36*
G01*
X71982500Y-24278400D02*
X71781500Y-24278400D01*
G75*
G02*
X71702000Y-24198900I0J79500D01*
G01*
X71702000Y-24039900D01*
G75*
G02*
X71781500Y-23960400I79500J0D01*
G01*
X71982500Y-23960400D01*
G75*
G02*
X72062000Y-24039900I0J-79500D01*
G01*
X72062000Y-24198900D01*
G75*
G02*
X71982500Y-24278400I-79500J0D01*
G01*
G37*
%TD*%
%TO.C,C7*%
G36*
G01*
X72642900Y-23944000D02*
X72441900Y-23944000D01*
G75*
G02*
X72362400Y-23864500I0J79500D01*
G01*
X72362400Y-23705500D01*
G75*
G02*
X72441900Y-23626000I79500J0D01*
G01*
X72642900Y-23626000D01*
G75*
G02*
X72722400Y-23705500I0J-79500D01*
G01*
X72722400Y-23864500D01*
G75*
G02*
X72642900Y-23944000I-79500J0D01*
G01*
G37*
G36*
G01*
X72642900Y-24634000D02*
X72441900Y-24634000D01*
G75*
G02*
X72362400Y-24554500I0J79500D01*
G01*
X72362400Y-24395500D01*
G75*
G02*
X72441900Y-24316000I79500J0D01*
G01*
X72642900Y-24316000D01*
G75*
G02*
X72722400Y-24395500I0J-79500D01*
G01*
X72722400Y-24554500D01*
G75*
G02*
X72642900Y-24634000I-79500J0D01*
G01*
G37*
%TD*%
D11*
%TO.C,Q1*%
X70012800Y-37780080D03*
X70012800Y-38430080D03*
X70662800Y-37780080D03*
X70662800Y-38430080D03*
%TD*%
%TO.C,R4*%
G36*
G01*
X79585400Y-26277600D02*
X79215400Y-26277600D01*
G75*
G02*
X79080400Y-26142600I0J135000D01*
G01*
X79080400Y-25872600D01*
G75*
G02*
X79215400Y-25737600I135000J0D01*
G01*
X79585400Y-25737600D01*
G75*
G02*
X79720400Y-25872600I0J-135000D01*
G01*
X79720400Y-26142600D01*
G75*
G02*
X79585400Y-26277600I-135000J0D01*
G01*
G37*
G36*
G01*
X79585400Y-27297600D02*
X79215400Y-27297600D01*
G75*
G02*
X79080400Y-27162600I0J135000D01*
G01*
X79080400Y-26892600D01*
G75*
G02*
X79215400Y-26757600I135000J0D01*
G01*
X79585400Y-26757600D01*
G75*
G02*
X79720400Y-26892600I0J-135000D01*
G01*
X79720400Y-27162600D01*
G75*
G02*
X79585400Y-27297600I-135000J0D01*
G01*
G37*
%TD*%
%TO.C,R3*%
G36*
G01*
X80231400Y-26757600D02*
X80601400Y-26757600D01*
G75*
G02*
X80736400Y-26892600I0J-135000D01*
G01*
X80736400Y-27162600D01*
G75*
G02*
X80601400Y-27297600I-135000J0D01*
G01*
X80231400Y-27297600D01*
G75*
G02*
X80096400Y-27162600I0J135000D01*
G01*
X80096400Y-26892600D01*
G75*
G02*
X80231400Y-26757600I135000J0D01*
G01*
G37*
G36*
G01*
X80231400Y-25737600D02*
X80601400Y-25737600D01*
G75*
G02*
X80736400Y-25872600I0J-135000D01*
G01*
X80736400Y-26142600D01*
G75*
G02*
X80601400Y-26277600I-135000J0D01*
G01*
X80231400Y-26277600D01*
G75*
G02*
X80096400Y-26142600I0J135000D01*
G01*
X80096400Y-25872600D01*
G75*
G02*
X80231400Y-25737600I135000J0D01*
G01*
G37*
%TD*%
D12*
%TO.C,U3*%
X70205600Y-19659999D03*
D13*
X69990589Y-20150000D03*
X69990589Y-20550000D03*
D12*
X70205600Y-21040001D03*
D13*
X70420611Y-20550000D03*
X70420611Y-20150000D03*
%TD*%
%TO.C,C12*%
G36*
G01*
X73591600Y-36649000D02*
X73931600Y-36649000D01*
G75*
G02*
X74071600Y-36789000I0J-140000D01*
G01*
X74071600Y-37069000D01*
G75*
G02*
X73931600Y-37209000I-140000J0D01*
G01*
X73591600Y-37209000D01*
G75*
G02*
X73451600Y-37069000I0J140000D01*
G01*
X73451600Y-36789000D01*
G75*
G02*
X73591600Y-36649000I140000J0D01*
G01*
G37*
G36*
G01*
X73591600Y-35689000D02*
X73931600Y-35689000D01*
G75*
G02*
X74071600Y-35829000I0J-140000D01*
G01*
X74071600Y-36109000D01*
G75*
G02*
X73931600Y-36249000I-140000J0D01*
G01*
X73591600Y-36249000D01*
G75*
G02*
X73451600Y-36109000I0J140000D01*
G01*
X73451600Y-35829000D01*
G75*
G02*
X73591600Y-35689000I140000J0D01*
G01*
G37*
%TD*%
%TO.C,R2*%
G36*
G01*
X72172800Y-34881400D02*
X72172800Y-34511400D01*
G75*
G02*
X72307800Y-34376400I135000J0D01*
G01*
X72577800Y-34376400D01*
G75*
G02*
X72712800Y-34511400I0J-135000D01*
G01*
X72712800Y-34881400D01*
G75*
G02*
X72577800Y-35016400I-135000J0D01*
G01*
X72307800Y-35016400D01*
G75*
G02*
X72172800Y-34881400I0J135000D01*
G01*
G37*
G36*
G01*
X71152800Y-34881400D02*
X71152800Y-34511400D01*
G75*
G02*
X71287800Y-34376400I135000J0D01*
G01*
X71557800Y-34376400D01*
G75*
G02*
X71692800Y-34511400I0J-135000D01*
G01*
X71692800Y-34881400D01*
G75*
G02*
X71557800Y-35016400I-135000J0D01*
G01*
X71287800Y-35016400D01*
G75*
G02*
X71152800Y-34881400I0J135000D01*
G01*
G37*
%TD*%
%TO.C,R1*%
G36*
G01*
X74484200Y-35186200D02*
X74484200Y-34816200D01*
G75*
G02*
X74619200Y-34681200I135000J0D01*
G01*
X74889200Y-34681200D01*
G75*
G02*
X75024200Y-34816200I0J-135000D01*
G01*
X75024200Y-35186200D01*
G75*
G02*
X74889200Y-35321200I-135000J0D01*
G01*
X74619200Y-35321200D01*
G75*
G02*
X74484200Y-35186200I0J135000D01*
G01*
G37*
G36*
G01*
X73464200Y-35186200D02*
X73464200Y-34816200D01*
G75*
G02*
X73599200Y-34681200I135000J0D01*
G01*
X73869200Y-34681200D01*
G75*
G02*
X74004200Y-34816200I0J-135000D01*
G01*
X74004200Y-35186200D01*
G75*
G02*
X73869200Y-35321200I-135000J0D01*
G01*
X73599200Y-35321200D01*
G75*
G02*
X73464200Y-35186200I0J135000D01*
G01*
G37*
%TD*%
%TO.C,C4*%
G36*
G01*
X77778000Y-34628000D02*
X77778000Y-34968000D01*
G75*
G02*
X77638000Y-35108000I-140000J0D01*
G01*
X77358000Y-35108000D01*
G75*
G02*
X77218000Y-34968000I0J140000D01*
G01*
X77218000Y-34628000D01*
G75*
G02*
X77358000Y-34488000I140000J0D01*
G01*
X77638000Y-34488000D01*
G75*
G02*
X77778000Y-34628000I0J-140000D01*
G01*
G37*
G36*
G01*
X78738000Y-34628000D02*
X78738000Y-34968000D01*
G75*
G02*
X78598000Y-35108000I-140000J0D01*
G01*
X78318000Y-35108000D01*
G75*
G02*
X78178000Y-34968000I0J140000D01*
G01*
X78178000Y-34628000D01*
G75*
G02*
X78318000Y-34488000I140000J0D01*
G01*
X78598000Y-34488000D01*
G75*
G02*
X78738000Y-34628000I0J-140000D01*
G01*
G37*
%TD*%
D14*
%TO.C,U5*%
X76771500Y-36587999D03*
X76771500Y-37088000D03*
X76771500Y-37588000D03*
X76771500Y-38088001D03*
X78168500Y-38088001D03*
X78168500Y-37588000D03*
X78168500Y-37088000D03*
X78168500Y-36587999D03*
%TD*%
%TO.C,L3*%
G36*
G01*
X80360001Y-35443000D02*
X79659999Y-35443000D01*
G75*
G02*
X79410000Y-35193001I0J249999D01*
G01*
X79410000Y-34642999D01*
G75*
G02*
X79659999Y-34393000I249999J0D01*
G01*
X80360001Y-34393000D01*
G75*
G02*
X80610000Y-34642999I0J-249999D01*
G01*
X80610000Y-35193001D01*
G75*
G02*
X80360001Y-35443000I-249999J0D01*
G01*
G37*
G36*
G01*
X80360001Y-37743000D02*
X79659999Y-37743000D01*
G75*
G02*
X79410000Y-37493001I0J249999D01*
G01*
X79410000Y-36942999D01*
G75*
G02*
X79659999Y-36693000I249999J0D01*
G01*
X80360001Y-36693000D01*
G75*
G02*
X80610000Y-36942999I0J-249999D01*
G01*
X80610000Y-37493001D01*
G75*
G02*
X80360001Y-37743000I-249999J0D01*
G01*
G37*
%TD*%
%TO.C,C3*%
G36*
G01*
X74069600Y-37803000D02*
X74069600Y-38143000D01*
G75*
G02*
X73929600Y-38283000I-140000J0D01*
G01*
X73649600Y-38283000D01*
G75*
G02*
X73509600Y-38143000I0J140000D01*
G01*
X73509600Y-37803000D01*
G75*
G02*
X73649600Y-37663000I140000J0D01*
G01*
X73929600Y-37663000D01*
G75*
G02*
X74069600Y-37803000I0J-140000D01*
G01*
G37*
G36*
G01*
X75029600Y-37803000D02*
X75029600Y-38143000D01*
G75*
G02*
X74889600Y-38283000I-140000J0D01*
G01*
X74609600Y-38283000D01*
G75*
G02*
X74469600Y-38143000I0J140000D01*
G01*
X74469600Y-37803000D01*
G75*
G02*
X74609600Y-37663000I140000J0D01*
G01*
X74889600Y-37663000D01*
G75*
G02*
X75029600Y-37803000I0J-140000D01*
G01*
G37*
%TD*%
D15*
%TO.C,U4*%
X71484000Y-35796600D03*
D16*
X71434000Y-36296600D03*
X71434000Y-36796600D03*
X72584000Y-36796600D03*
X72584000Y-36296600D03*
X72584000Y-35796600D03*
%TD*%
%TO.C,C11*%
G36*
G01*
X78794000Y-19388000D02*
X78794000Y-19728000D01*
G75*
G02*
X78654000Y-19868000I-140000J0D01*
G01*
X78374000Y-19868000D01*
G75*
G02*
X78234000Y-19728000I0J140000D01*
G01*
X78234000Y-19388000D01*
G75*
G02*
X78374000Y-19248000I140000J0D01*
G01*
X78654000Y-19248000D01*
G75*
G02*
X78794000Y-19388000I0J-140000D01*
G01*
G37*
G36*
G01*
X79754000Y-19388000D02*
X79754000Y-19728000D01*
G75*
G02*
X79614000Y-19868000I-140000J0D01*
G01*
X79334000Y-19868000D01*
G75*
G02*
X79194000Y-19728000I0J140000D01*
G01*
X79194000Y-19388000D01*
G75*
G02*
X79334000Y-19248000I140000J0D01*
G01*
X79614000Y-19248000D01*
G75*
G02*
X79754000Y-19388000I0J-140000D01*
G01*
G37*
%TD*%
%TO.C,C10*%
G36*
G01*
X76878000Y-20120000D02*
X76538000Y-20120000D01*
G75*
G02*
X76398000Y-19980000I0J140000D01*
G01*
X76398000Y-19700000D01*
G75*
G02*
X76538000Y-19560000I140000J0D01*
G01*
X76878000Y-19560000D01*
G75*
G02*
X77018000Y-19700000I0J-140000D01*
G01*
X77018000Y-19980000D01*
G75*
G02*
X76878000Y-20120000I-140000J0D01*
G01*
G37*
G36*
G01*
X76878000Y-21080000D02*
X76538000Y-21080000D01*
G75*
G02*
X76398000Y-20940000I0J140000D01*
G01*
X76398000Y-20660000D01*
G75*
G02*
X76538000Y-20520000I140000J0D01*
G01*
X76878000Y-20520000D01*
G75*
G02*
X77018000Y-20660000I0J-140000D01*
G01*
X77018000Y-20940000D01*
G75*
G02*
X76878000Y-21080000I-140000J0D01*
G01*
G37*
%TD*%
%TO.C,C6*%
G36*
G01*
X75354000Y-23676000D02*
X75014000Y-23676000D01*
G75*
G02*
X74874000Y-23536000I0J140000D01*
G01*
X74874000Y-23256000D01*
G75*
G02*
X75014000Y-23116000I140000J0D01*
G01*
X75354000Y-23116000D01*
G75*
G02*
X75494000Y-23256000I0J-140000D01*
G01*
X75494000Y-23536000D01*
G75*
G02*
X75354000Y-23676000I-140000J0D01*
G01*
G37*
G36*
G01*
X75354000Y-24636000D02*
X75014000Y-24636000D01*
G75*
G02*
X74874000Y-24496000I0J140000D01*
G01*
X74874000Y-24216000D01*
G75*
G02*
X75014000Y-24076000I140000J0D01*
G01*
X75354000Y-24076000D01*
G75*
G02*
X75494000Y-24216000I0J-140000D01*
G01*
X75494000Y-24496000D01*
G75*
G02*
X75354000Y-24636000I-140000J0D01*
G01*
G37*
%TD*%
%TO.C,C5*%
G36*
G01*
X78178000Y-33926600D02*
X78178000Y-33586600D01*
G75*
G02*
X78318000Y-33446600I140000J0D01*
G01*
X78598000Y-33446600D01*
G75*
G02*
X78738000Y-33586600I0J-140000D01*
G01*
X78738000Y-33926600D01*
G75*
G02*
X78598000Y-34066600I-140000J0D01*
G01*
X78318000Y-34066600D01*
G75*
G02*
X78178000Y-33926600I0J140000D01*
G01*
G37*
G36*
G01*
X77218000Y-33926600D02*
X77218000Y-33586600D01*
G75*
G02*
X77358000Y-33446600I140000J0D01*
G01*
X77638000Y-33446600D01*
G75*
G02*
X77778000Y-33586600I0J-140000D01*
G01*
X77778000Y-33926600D01*
G75*
G02*
X77638000Y-34066600I-140000J0D01*
G01*
X77358000Y-34066600D01*
G75*
G02*
X77218000Y-33926600I0J140000D01*
G01*
G37*
%TD*%
%TO.C,C1*%
G36*
G01*
X79255800Y-32483400D02*
X79595800Y-32483400D01*
G75*
G02*
X79735800Y-32623400I0J-140000D01*
G01*
X79735800Y-32903400D01*
G75*
G02*
X79595800Y-33043400I-140000J0D01*
G01*
X79255800Y-33043400D01*
G75*
G02*
X79115800Y-32903400I0J140000D01*
G01*
X79115800Y-32623400D01*
G75*
G02*
X79255800Y-32483400I140000J0D01*
G01*
G37*
G36*
G01*
X79255800Y-31523400D02*
X79595800Y-31523400D01*
G75*
G02*
X79735800Y-31663400I0J-140000D01*
G01*
X79735800Y-31943400D01*
G75*
G02*
X79595800Y-32083400I-140000J0D01*
G01*
X79255800Y-32083400D01*
G75*
G02*
X79115800Y-31943400I0J140000D01*
G01*
X79115800Y-31663400D01*
G75*
G02*
X79255800Y-31523400I140000J0D01*
G01*
G37*
%TD*%
D17*
%TO.C,U2*%
X80204300Y-22340001D03*
X80204300Y-21840000D03*
X80204300Y-21340000D03*
X80204300Y-20839999D03*
D18*
X79493999Y-20633700D03*
X78994000Y-20633700D03*
X78494001Y-20633700D03*
D17*
X77783700Y-20839999D03*
X77783700Y-21340000D03*
X77783700Y-21840000D03*
X77783700Y-22340001D03*
D18*
X78494001Y-22546300D03*
X78994000Y-22546300D03*
X79493999Y-22546300D03*
%TD*%
D19*
%TO.C,Y1*%
X69629800Y-24364600D03*
X70679800Y-24364600D03*
X69629800Y-25114600D03*
X70679800Y-25114600D03*
%TD*%
D20*
%TO.C,AE1*%
X73470000Y-23035001D03*
X73470000Y-23622000D03*
X73470000Y-24208999D03*
X73978000Y-24208999D03*
X73978000Y-23622000D03*
X73978000Y-23035001D03*
%TD*%
%TO.C,U1*%
G36*
G01*
X77347100Y-25185000D02*
X77600900Y-25185000D01*
G75*
G02*
X77609000Y-25193100I0J-8100D01*
G01*
X77609000Y-26036900D01*
G75*
G02*
X77600900Y-26045000I-8100J0D01*
G01*
X77347100Y-26045000D01*
G75*
G02*
X77339000Y-26036900I0J8100D01*
G01*
X77339000Y-25193100D01*
G75*
G02*
X77347100Y-25185000I8100J0D01*
G01*
G37*
G36*
G01*
X76847100Y-25185000D02*
X77100900Y-25185000D01*
G75*
G02*
X77109000Y-25193100I0J-8100D01*
G01*
X77109000Y-26036900D01*
G75*
G02*
X77100900Y-26045000I-8100J0D01*
G01*
X76847100Y-26045000D01*
G75*
G02*
X76839000Y-26036900I0J8100D01*
G01*
X76839000Y-25193100D01*
G75*
G02*
X76847100Y-25185000I8100J0D01*
G01*
G37*
G36*
G01*
X76347100Y-25185000D02*
X76600900Y-25185000D01*
G75*
G02*
X76609000Y-25193100I0J-8100D01*
G01*
X76609000Y-26036900D01*
G75*
G02*
X76600900Y-26045000I-8100J0D01*
G01*
X76347100Y-26045000D01*
G75*
G02*
X76339000Y-26036900I0J8100D01*
G01*
X76339000Y-25193100D01*
G75*
G02*
X76347100Y-25185000I8100J0D01*
G01*
G37*
G36*
G01*
X75847100Y-25185000D02*
X76100900Y-25185000D01*
G75*
G02*
X76109000Y-25193100I0J-8100D01*
G01*
X76109000Y-26036900D01*
G75*
G02*
X76100900Y-26045000I-8100J0D01*
G01*
X75847100Y-26045000D01*
G75*
G02*
X75839000Y-26036900I0J8100D01*
G01*
X75839000Y-25193100D01*
G75*
G02*
X75847100Y-25185000I8100J0D01*
G01*
G37*
G36*
G01*
X75347100Y-25185000D02*
X75600900Y-25185000D01*
G75*
G02*
X75609000Y-25193100I0J-8100D01*
G01*
X75609000Y-26036900D01*
G75*
G02*
X75600900Y-26045000I-8100J0D01*
G01*
X75347100Y-26045000D01*
G75*
G02*
X75339000Y-26036900I0J8100D01*
G01*
X75339000Y-25193100D01*
G75*
G02*
X75347100Y-25185000I8100J0D01*
G01*
G37*
G36*
G01*
X74847100Y-25185000D02*
X75100900Y-25185000D01*
G75*
G02*
X75109000Y-25193100I0J-8100D01*
G01*
X75109000Y-26036900D01*
G75*
G02*
X75100900Y-26045000I-8100J0D01*
G01*
X74847100Y-26045000D01*
G75*
G02*
X74839000Y-26036900I0J8100D01*
G01*
X74839000Y-25193100D01*
G75*
G02*
X74847100Y-25185000I8100J0D01*
G01*
G37*
G36*
G01*
X74347100Y-25185000D02*
X74600900Y-25185000D01*
G75*
G02*
X74609000Y-25193100I0J-8100D01*
G01*
X74609000Y-26036900D01*
G75*
G02*
X74600900Y-26045000I-8100J0D01*
G01*
X74347100Y-26045000D01*
G75*
G02*
X74339000Y-26036900I0J8100D01*
G01*
X74339000Y-25193100D01*
G75*
G02*
X74347100Y-25185000I8100J0D01*
G01*
G37*
G36*
G01*
X73847100Y-25185000D02*
X74100900Y-25185000D01*
G75*
G02*
X74109000Y-25193100I0J-8100D01*
G01*
X74109000Y-26036900D01*
G75*
G02*
X74100900Y-26045000I-8100J0D01*
G01*
X73847100Y-26045000D01*
G75*
G02*
X73839000Y-26036900I0J8100D01*
G01*
X73839000Y-25193100D01*
G75*
G02*
X73847100Y-25185000I8100J0D01*
G01*
G37*
G36*
G01*
X73347100Y-25185000D02*
X73600900Y-25185000D01*
G75*
G02*
X73609000Y-25193100I0J-8100D01*
G01*
X73609000Y-26036900D01*
G75*
G02*
X73600900Y-26045000I-8100J0D01*
G01*
X73347100Y-26045000D01*
G75*
G02*
X73339000Y-26036900I0J8100D01*
G01*
X73339000Y-25193100D01*
G75*
G02*
X73347100Y-25185000I8100J0D01*
G01*
G37*
G36*
G01*
X72847100Y-25185000D02*
X73100900Y-25185000D01*
G75*
G02*
X73109000Y-25193100I0J-8100D01*
G01*
X73109000Y-26036900D01*
G75*
G02*
X73100900Y-26045000I-8100J0D01*
G01*
X72847100Y-26045000D01*
G75*
G02*
X72839000Y-26036900I0J8100D01*
G01*
X72839000Y-25193100D01*
G75*
G02*
X72847100Y-25185000I8100J0D01*
G01*
G37*
G36*
G01*
X72347100Y-25185000D02*
X72600900Y-25185000D01*
G75*
G02*
X72609000Y-25193100I0J-8100D01*
G01*
X72609000Y-26036900D01*
G75*
G02*
X72600900Y-26045000I-8100J0D01*
G01*
X72347100Y-26045000D01*
G75*
G02*
X72339000Y-26036900I0J8100D01*
G01*
X72339000Y-25193100D01*
G75*
G02*
X72347100Y-25185000I8100J0D01*
G01*
G37*
G36*
G01*
X71847100Y-25185000D02*
X72100900Y-25185000D01*
G75*
G02*
X72109000Y-25193100I0J-8100D01*
G01*
X72109000Y-26036900D01*
G75*
G02*
X72100900Y-26045000I-8100J0D01*
G01*
X71847100Y-26045000D01*
G75*
G02*
X71839000Y-26036900I0J8100D01*
G01*
X71839000Y-25193100D01*
G75*
G02*
X71847100Y-25185000I8100J0D01*
G01*
G37*
G36*
G01*
X71847100Y-32055000D02*
X72100900Y-32055000D01*
G75*
G02*
X72109000Y-32063100I0J-8100D01*
G01*
X72109000Y-32906900D01*
G75*
G02*
X72100900Y-32915000I-8100J0D01*
G01*
X71847100Y-32915000D01*
G75*
G02*
X71839000Y-32906900I0J8100D01*
G01*
X71839000Y-32063100D01*
G75*
G02*
X71847100Y-32055000I8100J0D01*
G01*
G37*
G36*
G01*
X72347100Y-32055000D02*
X72600900Y-32055000D01*
G75*
G02*
X72609000Y-32063100I0J-8100D01*
G01*
X72609000Y-32906900D01*
G75*
G02*
X72600900Y-32915000I-8100J0D01*
G01*
X72347100Y-32915000D01*
G75*
G02*
X72339000Y-32906900I0J8100D01*
G01*
X72339000Y-32063100D01*
G75*
G02*
X72347100Y-32055000I8100J0D01*
G01*
G37*
G36*
G01*
X72847100Y-32055000D02*
X73100900Y-32055000D01*
G75*
G02*
X73109000Y-32063100I0J-8100D01*
G01*
X73109000Y-32906900D01*
G75*
G02*
X73100900Y-32915000I-8100J0D01*
G01*
X72847100Y-32915000D01*
G75*
G02*
X72839000Y-32906900I0J8100D01*
G01*
X72839000Y-32063100D01*
G75*
G02*
X72847100Y-32055000I8100J0D01*
G01*
G37*
G36*
G01*
X73347100Y-32055000D02*
X73600900Y-32055000D01*
G75*
G02*
X73609000Y-32063100I0J-8100D01*
G01*
X73609000Y-32906900D01*
G75*
G02*
X73600900Y-32915000I-8100J0D01*
G01*
X73347100Y-32915000D01*
G75*
G02*
X73339000Y-32906900I0J8100D01*
G01*
X73339000Y-32063100D01*
G75*
G02*
X73347100Y-32055000I8100J0D01*
G01*
G37*
G36*
G01*
X73847100Y-32055000D02*
X74100900Y-32055000D01*
G75*
G02*
X74109000Y-32063100I0J-8100D01*
G01*
X74109000Y-32906900D01*
G75*
G02*
X74100900Y-32915000I-8100J0D01*
G01*
X73847100Y-32915000D01*
G75*
G02*
X73839000Y-32906900I0J8100D01*
G01*
X73839000Y-32063100D01*
G75*
G02*
X73847100Y-32055000I8100J0D01*
G01*
G37*
G36*
G01*
X74347100Y-32055000D02*
X74600900Y-32055000D01*
G75*
G02*
X74609000Y-32063100I0J-8100D01*
G01*
X74609000Y-32906900D01*
G75*
G02*
X74600900Y-32915000I-8100J0D01*
G01*
X74347100Y-32915000D01*
G75*
G02*
X74339000Y-32906900I0J8100D01*
G01*
X74339000Y-32063100D01*
G75*
G02*
X74347100Y-32055000I8100J0D01*
G01*
G37*
G36*
G01*
X74847100Y-32055000D02*
X75100900Y-32055000D01*
G75*
G02*
X75109000Y-32063100I0J-8100D01*
G01*
X75109000Y-32906900D01*
G75*
G02*
X75100900Y-32915000I-8100J0D01*
G01*
X74847100Y-32915000D01*
G75*
G02*
X74839000Y-32906900I0J8100D01*
G01*
X74839000Y-32063100D01*
G75*
G02*
X74847100Y-32055000I8100J0D01*
G01*
G37*
G36*
G01*
X75347100Y-32055000D02*
X75600900Y-32055000D01*
G75*
G02*
X75609000Y-32063100I0J-8100D01*
G01*
X75609000Y-32906900D01*
G75*
G02*
X75600900Y-32915000I-8100J0D01*
G01*
X75347100Y-32915000D01*
G75*
G02*
X75339000Y-32906900I0J8100D01*
G01*
X75339000Y-32063100D01*
G75*
G02*
X75347100Y-32055000I8100J0D01*
G01*
G37*
G36*
G01*
X75847100Y-32055000D02*
X76100900Y-32055000D01*
G75*
G02*
X76109000Y-32063100I0J-8100D01*
G01*
X76109000Y-32906900D01*
G75*
G02*
X76100900Y-32915000I-8100J0D01*
G01*
X75847100Y-32915000D01*
G75*
G02*
X75839000Y-32906900I0J8100D01*
G01*
X75839000Y-32063100D01*
G75*
G02*
X75847100Y-32055000I8100J0D01*
G01*
G37*
G36*
G01*
X76347100Y-32055000D02*
X76600900Y-32055000D01*
G75*
G02*
X76609000Y-32063100I0J-8100D01*
G01*
X76609000Y-32906900D01*
G75*
G02*
X76600900Y-32915000I-8100J0D01*
G01*
X76347100Y-32915000D01*
G75*
G02*
X76339000Y-32906900I0J8100D01*
G01*
X76339000Y-32063100D01*
G75*
G02*
X76347100Y-32055000I8100J0D01*
G01*
G37*
G36*
G01*
X76847100Y-32055000D02*
X77100900Y-32055000D01*
G75*
G02*
X77109000Y-32063100I0J-8100D01*
G01*
X77109000Y-32906900D01*
G75*
G02*
X77100900Y-32915000I-8100J0D01*
G01*
X76847100Y-32915000D01*
G75*
G02*
X76839000Y-32906900I0J8100D01*
G01*
X76839000Y-32063100D01*
G75*
G02*
X76847100Y-32055000I8100J0D01*
G01*
G37*
G36*
G01*
X77347100Y-32055000D02*
X77600900Y-32055000D01*
G75*
G02*
X77609000Y-32063100I0J-8100D01*
G01*
X77609000Y-32906900D01*
G75*
G02*
X77600900Y-32915000I-8100J0D01*
G01*
X77347100Y-32915000D01*
G75*
G02*
X77339000Y-32906900I0J8100D01*
G01*
X77339000Y-32063100D01*
G75*
G02*
X77347100Y-32055000I8100J0D01*
G01*
G37*
G36*
G01*
X78589000Y-31673100D02*
X78589000Y-31926900D01*
G75*
G02*
X78580900Y-31935000I-8100J0D01*
G01*
X77737100Y-31935000D01*
G75*
G02*
X77729000Y-31926900I0J8100D01*
G01*
X77729000Y-31673100D01*
G75*
G02*
X77737100Y-31665000I8100J0D01*
G01*
X78580900Y-31665000D01*
G75*
G02*
X78589000Y-31673100I0J-8100D01*
G01*
G37*
G36*
G01*
X78589000Y-31173100D02*
X78589000Y-31426900D01*
G75*
G02*
X78580900Y-31435000I-8100J0D01*
G01*
X77737100Y-31435000D01*
G75*
G02*
X77729000Y-31426900I0J8100D01*
G01*
X77729000Y-31173100D01*
G75*
G02*
X77737100Y-31165000I8100J0D01*
G01*
X78580900Y-31165000D01*
G75*
G02*
X78589000Y-31173100I0J-8100D01*
G01*
G37*
G36*
G01*
X78589000Y-30673100D02*
X78589000Y-30926900D01*
G75*
G02*
X78580900Y-30935000I-8100J0D01*
G01*
X77737100Y-30935000D01*
G75*
G02*
X77729000Y-30926900I0J8100D01*
G01*
X77729000Y-30673100D01*
G75*
G02*
X77737100Y-30665000I8100J0D01*
G01*
X78580900Y-30665000D01*
G75*
G02*
X78589000Y-30673100I0J-8100D01*
G01*
G37*
G36*
G01*
X78589000Y-30173100D02*
X78589000Y-30426900D01*
G75*
G02*
X78580900Y-30435000I-8100J0D01*
G01*
X77737100Y-30435000D01*
G75*
G02*
X77729000Y-30426900I0J8100D01*
G01*
X77729000Y-30173100D01*
G75*
G02*
X77737100Y-30165000I8100J0D01*
G01*
X78580900Y-30165000D01*
G75*
G02*
X78589000Y-30173100I0J-8100D01*
G01*
G37*
G36*
G01*
X78589000Y-29673100D02*
X78589000Y-29926900D01*
G75*
G02*
X78580900Y-29935000I-8100J0D01*
G01*
X77737100Y-29935000D01*
G75*
G02*
X77729000Y-29926900I0J8100D01*
G01*
X77729000Y-29673100D01*
G75*
G02*
X77737100Y-29665000I8100J0D01*
G01*
X78580900Y-29665000D01*
G75*
G02*
X78589000Y-29673100I0J-8100D01*
G01*
G37*
G36*
G01*
X78589000Y-29173100D02*
X78589000Y-29426900D01*
G75*
G02*
X78580900Y-29435000I-8100J0D01*
G01*
X77737100Y-29435000D01*
G75*
G02*
X77729000Y-29426900I0J8100D01*
G01*
X77729000Y-29173100D01*
G75*
G02*
X77737100Y-29165000I8100J0D01*
G01*
X78580900Y-29165000D01*
G75*
G02*
X78589000Y-29173100I0J-8100D01*
G01*
G37*
G36*
G01*
X78589000Y-28673100D02*
X78589000Y-28926900D01*
G75*
G02*
X78580900Y-28935000I-8100J0D01*
G01*
X77737100Y-28935000D01*
G75*
G02*
X77729000Y-28926900I0J8100D01*
G01*
X77729000Y-28673100D01*
G75*
G02*
X77737100Y-28665000I8100J0D01*
G01*
X78580900Y-28665000D01*
G75*
G02*
X78589000Y-28673100I0J-8100D01*
G01*
G37*
G36*
G01*
X78589000Y-28173100D02*
X78589000Y-28426900D01*
G75*
G02*
X78580900Y-28435000I-8100J0D01*
G01*
X77737100Y-28435000D01*
G75*
G02*
X77729000Y-28426900I0J8100D01*
G01*
X77729000Y-28173100D01*
G75*
G02*
X77737100Y-28165000I8100J0D01*
G01*
X78580900Y-28165000D01*
G75*
G02*
X78589000Y-28173100I0J-8100D01*
G01*
G37*
G36*
G01*
X78589000Y-27673100D02*
X78589000Y-27926900D01*
G75*
G02*
X78580900Y-27935000I-8100J0D01*
G01*
X77737100Y-27935000D01*
G75*
G02*
X77729000Y-27926900I0J8100D01*
G01*
X77729000Y-27673100D01*
G75*
G02*
X77737100Y-27665000I8100J0D01*
G01*
X78580900Y-27665000D01*
G75*
G02*
X78589000Y-27673100I0J-8100D01*
G01*
G37*
G36*
G01*
X78589000Y-27173100D02*
X78589000Y-27426900D01*
G75*
G02*
X78580900Y-27435000I-8100J0D01*
G01*
X77737100Y-27435000D01*
G75*
G02*
X77729000Y-27426900I0J8100D01*
G01*
X77729000Y-27173100D01*
G75*
G02*
X77737100Y-27165000I8100J0D01*
G01*
X78580900Y-27165000D01*
G75*
G02*
X78589000Y-27173100I0J-8100D01*
G01*
G37*
G36*
G01*
X78589000Y-26673100D02*
X78589000Y-26926900D01*
G75*
G02*
X78580900Y-26935000I-8100J0D01*
G01*
X77737100Y-26935000D01*
G75*
G02*
X77729000Y-26926900I0J8100D01*
G01*
X77729000Y-26673100D01*
G75*
G02*
X77737100Y-26665000I8100J0D01*
G01*
X78580900Y-26665000D01*
G75*
G02*
X78589000Y-26673100I0J-8100D01*
G01*
G37*
G36*
G01*
X78589000Y-26173100D02*
X78589000Y-26426900D01*
G75*
G02*
X78580900Y-26435000I-8100J0D01*
G01*
X77737100Y-26435000D01*
G75*
G02*
X77729000Y-26426900I0J8100D01*
G01*
X77729000Y-26173100D01*
G75*
G02*
X77737100Y-26165000I8100J0D01*
G01*
X78580900Y-26165000D01*
G75*
G02*
X78589000Y-26173100I0J-8100D01*
G01*
G37*
G36*
G01*
X71719000Y-26173100D02*
X71719000Y-26426900D01*
G75*
G02*
X71710900Y-26435000I-8100J0D01*
G01*
X70867100Y-26435000D01*
G75*
G02*
X70859000Y-26426900I0J8100D01*
G01*
X70859000Y-26173100D01*
G75*
G02*
X70867100Y-26165000I8100J0D01*
G01*
X71710900Y-26165000D01*
G75*
G02*
X71719000Y-26173100I0J-8100D01*
G01*
G37*
G36*
G01*
X71719000Y-26673100D02*
X71719000Y-26926900D01*
G75*
G02*
X71710900Y-26935000I-8100J0D01*
G01*
X70867100Y-26935000D01*
G75*
G02*
X70859000Y-26926900I0J8100D01*
G01*
X70859000Y-26673100D01*
G75*
G02*
X70867100Y-26665000I8100J0D01*
G01*
X71710900Y-26665000D01*
G75*
G02*
X71719000Y-26673100I0J-8100D01*
G01*
G37*
G36*
G01*
X71719000Y-27173100D02*
X71719000Y-27426900D01*
G75*
G02*
X71710900Y-27435000I-8100J0D01*
G01*
X70867100Y-27435000D01*
G75*
G02*
X70859000Y-27426900I0J8100D01*
G01*
X70859000Y-27173100D01*
G75*
G02*
X70867100Y-27165000I8100J0D01*
G01*
X71710900Y-27165000D01*
G75*
G02*
X71719000Y-27173100I0J-8100D01*
G01*
G37*
G36*
G01*
X71719000Y-27673100D02*
X71719000Y-27926900D01*
G75*
G02*
X71710900Y-27935000I-8100J0D01*
G01*
X70867100Y-27935000D01*
G75*
G02*
X70859000Y-27926900I0J8100D01*
G01*
X70859000Y-27673100D01*
G75*
G02*
X70867100Y-27665000I8100J0D01*
G01*
X71710900Y-27665000D01*
G75*
G02*
X71719000Y-27673100I0J-8100D01*
G01*
G37*
G36*
G01*
X71719000Y-28173100D02*
X71719000Y-28426900D01*
G75*
G02*
X71710900Y-28435000I-8100J0D01*
G01*
X70867100Y-28435000D01*
G75*
G02*
X70859000Y-28426900I0J8100D01*
G01*
X70859000Y-28173100D01*
G75*
G02*
X70867100Y-28165000I8100J0D01*
G01*
X71710900Y-28165000D01*
G75*
G02*
X71719000Y-28173100I0J-8100D01*
G01*
G37*
G36*
G01*
X71719000Y-28673100D02*
X71719000Y-28926900D01*
G75*
G02*
X71710900Y-28935000I-8100J0D01*
G01*
X70867100Y-28935000D01*
G75*
G02*
X70859000Y-28926900I0J8100D01*
G01*
X70859000Y-28673100D01*
G75*
G02*
X70867100Y-28665000I8100J0D01*
G01*
X71710900Y-28665000D01*
G75*
G02*
X71719000Y-28673100I0J-8100D01*
G01*
G37*
G36*
G01*
X71719000Y-29173100D02*
X71719000Y-29426900D01*
G75*
G02*
X71710900Y-29435000I-8100J0D01*
G01*
X70867100Y-29435000D01*
G75*
G02*
X70859000Y-29426900I0J8100D01*
G01*
X70859000Y-29173100D01*
G75*
G02*
X70867100Y-29165000I8100J0D01*
G01*
X71710900Y-29165000D01*
G75*
G02*
X71719000Y-29173100I0J-8100D01*
G01*
G37*
G36*
G01*
X71719000Y-29673100D02*
X71719000Y-29926900D01*
G75*
G02*
X71710900Y-29935000I-8100J0D01*
G01*
X70867100Y-29935000D01*
G75*
G02*
X70859000Y-29926900I0J8100D01*
G01*
X70859000Y-29673100D01*
G75*
G02*
X70867100Y-29665000I8100J0D01*
G01*
X71710900Y-29665000D01*
G75*
G02*
X71719000Y-29673100I0J-8100D01*
G01*
G37*
G36*
G01*
X71719000Y-30173100D02*
X71719000Y-30426900D01*
G75*
G02*
X71710900Y-30435000I-8100J0D01*
G01*
X70867100Y-30435000D01*
G75*
G02*
X70859000Y-30426900I0J8100D01*
G01*
X70859000Y-30173100D01*
G75*
G02*
X70867100Y-30165000I8100J0D01*
G01*
X71710900Y-30165000D01*
G75*
G02*
X71719000Y-30173100I0J-8100D01*
G01*
G37*
G36*
G01*
X71719000Y-30673100D02*
X71719000Y-30926900D01*
G75*
G02*
X71710900Y-30935000I-8100J0D01*
G01*
X70867100Y-30935000D01*
G75*
G02*
X70859000Y-30926900I0J8100D01*
G01*
X70859000Y-30673100D01*
G75*
G02*
X70867100Y-30665000I8100J0D01*
G01*
X71710900Y-30665000D01*
G75*
G02*
X71719000Y-30673100I0J-8100D01*
G01*
G37*
G36*
G01*
X71719000Y-31173100D02*
X71719000Y-31426900D01*
G75*
G02*
X71710900Y-31435000I-8100J0D01*
G01*
X70867100Y-31435000D01*
G75*
G02*
X70859000Y-31426900I0J8100D01*
G01*
X70859000Y-31173100D01*
G75*
G02*
X70867100Y-31165000I8100J0D01*
G01*
X71710900Y-31165000D01*
G75*
G02*
X71719000Y-31173100I0J-8100D01*
G01*
G37*
G36*
G01*
X71719000Y-31673100D02*
X71719000Y-31926900D01*
G75*
G02*
X71710900Y-31935000I-8100J0D01*
G01*
X70867100Y-31935000D01*
G75*
G02*
X70859000Y-31926900I0J8100D01*
G01*
X70859000Y-31673100D01*
G75*
G02*
X70867100Y-31665000I8100J0D01*
G01*
X71710900Y-31665000D01*
G75*
G02*
X71719000Y-31673100I0J-8100D01*
G01*
G37*
%TD*%
M02*
