%TF.GenerationSoftware,KiCad,Pcbnew,5.1.9-73d0e3b20d~88~ubuntu20.04.1*%
%TF.CreationDate,2022-04-15T22:34:28-04:00*%
%TF.ProjectId,ring,72696e67-2e6b-4696-9361-645f70636258,rev?*%
%TF.SameCoordinates,Original*%
%TF.FileFunction,Copper,L4,Bot*%
%TF.FilePolarity,Positive*%
%FSLAX46Y46*%
G04 Gerber Fmt 4.6, Leading zero omitted, Abs format (unit mm)*
G04 Created by KiCad (PCBNEW 5.1.9-73d0e3b20d~88~ubuntu20.04.1) date 2022-04-15 22:34:28*
%MOMM*%
%LPD*%
G01*
G04 APERTURE LIST*
%TA.AperFunction,SMDPad,CuDef*%
%ADD10R,1.000000X1.000000*%
%TD*%
%TA.AperFunction,SMDPad,CuDef*%
%ADD11R,1.500000X1.500000*%
%TD*%
%TA.AperFunction,ViaPad*%
%ADD12C,0.400000*%
%TD*%
%TA.AperFunction,ViaPad*%
%ADD13C,0.800000*%
%TD*%
%TA.AperFunction,Conductor*%
%ADD14C,0.150000*%
%TD*%
%TA.AperFunction,Conductor*%
%ADD15C,0.400000*%
%TD*%
%TA.AperFunction,Conductor*%
%ADD16C,0.293370*%
%TD*%
%TA.AperFunction,Conductor*%
%ADD17C,0.200000*%
%TD*%
%TA.AperFunction,Conductor*%
%ADD18C,0.250000*%
%TD*%
%TA.AperFunction,Conductor*%
%ADD19C,0.090000*%
%TD*%
%TA.AperFunction,Conductor*%
%ADD20C,0.100000*%
%TD*%
G04 APERTURE END LIST*
D10*
%TO.P,TP13,1*%
%TO.N,+1V8*%
X79044800Y-25400000D03*
%TD*%
%TO.P,TP12,1*%
%TO.N,/BTN_3*%
X73609200Y-27940000D03*
%TD*%
%TO.P,TP11,1*%
%TO.N,/BTN_2*%
X73609200Y-29514800D03*
%TD*%
%TO.P,TP10,1*%
%TO.N,/BTN_1*%
X75996800Y-27940000D03*
%TD*%
%TO.P,TP9,1*%
%TO.N,/BTN_0*%
X75996800Y-29514800D03*
%TD*%
%TO.P,R5,2*%
%TO.N,GND*%
%TA.AperFunction,SMDPad,CuDef*%
G36*
G01*
X78199400Y-28942000D02*
X78569400Y-28942000D01*
G75*
G02*
X78704400Y-29077000I0J-135000D01*
G01*
X78704400Y-29347000D01*
G75*
G02*
X78569400Y-29482000I-135000J0D01*
G01*
X78199400Y-29482000D01*
G75*
G02*
X78064400Y-29347000I0J135000D01*
G01*
X78064400Y-29077000D01*
G75*
G02*
X78199400Y-28942000I135000J0D01*
G01*
G37*
%TD.AperFunction*%
%TO.P,R5,1*%
%TO.N,Net-(D1-Pad1)*%
%TA.AperFunction,SMDPad,CuDef*%
G36*
G01*
X78199400Y-27922000D02*
X78569400Y-27922000D01*
G75*
G02*
X78704400Y-28057000I0J-135000D01*
G01*
X78704400Y-28327000D01*
G75*
G02*
X78569400Y-28462000I-135000J0D01*
G01*
X78199400Y-28462000D01*
G75*
G02*
X78064400Y-28327000I0J135000D01*
G01*
X78064400Y-28057000D01*
G75*
G02*
X78199400Y-27922000I135000J0D01*
G01*
G37*
%TD.AperFunction*%
%TD*%
%TO.P,D1,2*%
%TO.N,/LED_1*%
%TA.AperFunction,SMDPad,CuDef*%
G36*
G01*
X79227900Y-28892000D02*
X79572900Y-28892000D01*
G75*
G02*
X79720400Y-29039500I0J-147500D01*
G01*
X79720400Y-29334500D01*
G75*
G02*
X79572900Y-29482000I-147500J0D01*
G01*
X79227900Y-29482000D01*
G75*
G02*
X79080400Y-29334500I0J147500D01*
G01*
X79080400Y-29039500D01*
G75*
G02*
X79227900Y-28892000I147500J0D01*
G01*
G37*
%TD.AperFunction*%
%TO.P,D1,1*%
%TO.N,Net-(D1-Pad1)*%
%TA.AperFunction,SMDPad,CuDef*%
G36*
G01*
X79227900Y-27922000D02*
X79572900Y-27922000D01*
G75*
G02*
X79720400Y-28069500I0J-147500D01*
G01*
X79720400Y-28364500D01*
G75*
G02*
X79572900Y-28512000I-147500J0D01*
G01*
X79227900Y-28512000D01*
G75*
G02*
X79080400Y-28364500I0J147500D01*
G01*
X79080400Y-28069500D01*
G75*
G02*
X79227900Y-27922000I147500J0D01*
G01*
G37*
%TD.AperFunction*%
%TD*%
D11*
%TO.P,TP8,1*%
%TO.N,+BATT*%
X76758800Y-37287200D03*
%TD*%
%TO.P,TP7,1*%
%TO.N,/CELL-*%
X73253600Y-37287200D03*
%TD*%
D10*
%TO.P,TP4,1*%
%TO.N,/NRST*%
X70053200Y-34493200D03*
%TD*%
%TO.P,TP6,1*%
%TO.N,+1V8*%
X70053200Y-29311600D03*
%TD*%
%TO.P,TP5,1*%
%TO.N,GND*%
X70053200Y-31038800D03*
%TD*%
%TO.P,TP3,1*%
%TO.N,/BOOT0*%
X70053200Y-32766000D03*
%TD*%
%TO.P,TP2,1*%
%TO.N,/SWCLK*%
X70053200Y-37947600D03*
%TD*%
%TO.P,TP1,1*%
%TO.N,/SWDIO*%
X70053200Y-36220400D03*
%TD*%
D12*
%TO.N,*%
X76657200Y-23469600D03*
%TO.N,GND*%
X74275200Y-22301200D03*
X74834000Y-22707600D03*
X69342000Y-26263600D03*
X69342000Y-26958800D03*
X69342000Y-27958800D03*
X80619600Y-24841200D03*
X76657200Y-22656800D03*
X76660000Y-21844000D03*
X77673200Y-23469600D03*
X69342000Y-23571200D03*
X69342000Y-21691600D03*
X71275200Y-21691600D03*
X75237600Y-19304000D03*
X78943200Y-33274000D03*
X69342000Y-22860000D03*
X70291200Y-22860000D03*
X72491600Y-22860000D03*
X75237600Y-20304000D03*
X69425000Y-30327600D03*
X72275200Y-21691600D03*
X73275200Y-21691600D03*
X74275200Y-21691600D03*
X75275200Y-21691600D03*
X70916800Y-25755600D03*
X76237600Y-19304000D03*
X77237600Y-19304000D03*
X73237600Y-26568400D03*
X74237600Y-26568400D03*
X75237600Y-26568400D03*
X76237600Y-26568400D03*
X77237600Y-26568400D03*
X72237600Y-27568400D03*
X72237600Y-28568400D03*
X72237600Y-29568400D03*
X72237600Y-30568400D03*
X72237600Y-31546800D03*
X72237600Y-26568400D03*
X73237600Y-31568400D03*
X74237600Y-31568400D03*
X75057000Y-31568400D03*
X77237600Y-27568400D03*
X77237600Y-29159200D03*
X73304400Y-38506400D03*
X78798302Y-38524298D03*
X71120000Y-22860000D03*
X69425000Y-31887099D03*
%TO.N,+BATT*%
X80517999Y-25432536D03*
X75488800Y-34975800D03*
X80518000Y-32537400D03*
X75234800Y-36830000D03*
X75255966Y-37318418D03*
%TO.N,/LSM_INT1*%
X80213200Y-20269200D03*
X80517999Y-23850600D03*
%TO.N,/LSM_INT2*%
X70256400Y-28313000D03*
X77142343Y-21476229D03*
%TO.N,/CS*%
X78494001Y-23579199D03*
X74474021Y-33679202D03*
%TO.N,/SCK*%
X79051550Y-23189095D03*
X74973990Y-33259345D03*
%TO.N,/MISO*%
X80051561Y-23264306D03*
X75539600Y-33832800D03*
%TO.N,/MOSI*%
X79509359Y-23576942D03*
X75985067Y-33188212D03*
%TO.N,/SWDIO*%
X72796400Y-33731200D03*
%TO.N,/SWCLK*%
X73926920Y-33348531D03*
%TO.N,/BOOT0*%
X79029961Y-30560928D03*
%TO.N,+1V8*%
X80264000Y-19558000D03*
X75946000Y-20828000D03*
X75806259Y-24244259D03*
X69646800Y-28549600D03*
X73474010Y-33742088D03*
X80122261Y-31836861D03*
D13*
X80365600Y-33883600D03*
D12*
X76809600Y-33782000D03*
X80574978Y-27746389D03*
X77927198Y-24180798D03*
X71170800Y-32766000D03*
X71956363Y-24602240D03*
%TO.N,/TPS_MODE*%
X75488802Y-37871400D03*
X71727561Y-33779961D03*
%TO.N,/TPS_STOP*%
X72339200Y-33324800D03*
X79668130Y-38161096D03*
D13*
%TO.N,/CELL-*%
X71583501Y-37750701D03*
D12*
%TO.N,/NRST*%
X80574980Y-28346400D03*
%TO.N,/RAD_PLANE*%
X69392800Y-19405600D03*
X73964800Y-19405600D03*
%TO.N,/LED_1*%
X79508632Y-30080232D03*
%TO.N,/BTN_0*%
X77994001Y-25603200D03*
%TO.N,/BTN_1*%
X77112820Y-24741147D03*
%TO.N,/BTN_2*%
X76512824Y-24745463D03*
%TO.N,/BTN_3*%
X75927017Y-24875252D03*
%TD*%
D14*
%TO.N,GND*%
X77290400Y-29212000D02*
X77237600Y-29159200D01*
X78384400Y-29212000D02*
X77290400Y-29212000D01*
D15*
X70053200Y-30955800D02*
X69425000Y-30327600D01*
X70053200Y-31038800D02*
X70053200Y-30955800D01*
X70053200Y-31258899D02*
X69425000Y-31887099D01*
X70053200Y-31038800D02*
X70053200Y-31258899D01*
D16*
%TO.N,+BATT*%
X76758800Y-37287200D02*
X75692000Y-37287200D01*
X75439584Y-37134800D02*
X75255966Y-37318418D01*
X75539600Y-37134800D02*
X75439584Y-37134800D01*
X75692000Y-37287200D02*
X75539600Y-37134800D01*
X75539600Y-37134800D02*
X75234800Y-36830000D01*
D14*
%TO.N,/LSM_INT1*%
X80213200Y-20269200D02*
X80526562Y-20582562D01*
X80526562Y-23842037D02*
X80517999Y-23850600D01*
X80526562Y-20582562D02*
X80526562Y-23842037D01*
D17*
%TO.N,/SWDIO*%
X70307200Y-36220400D02*
X72796400Y-33731200D01*
X70053200Y-36220400D02*
X70307200Y-36220400D01*
%TO.N,/SWCLK*%
X73974011Y-33395622D02*
X73926920Y-33348531D01*
X70053200Y-37947600D02*
X73974011Y-34026789D01*
X73974011Y-34026789D02*
X73974011Y-33395622D01*
D14*
%TO.N,/BOOT0*%
X78562432Y-30093399D02*
X79029961Y-30560928D01*
X77009599Y-30093399D02*
X78562432Y-30093399D01*
X76359609Y-30743389D02*
X77009599Y-30093399D01*
X72864621Y-30743389D02*
X76359609Y-30743389D01*
X72569210Y-31038800D02*
X72864621Y-30743389D01*
X72465601Y-31043401D02*
X72470202Y-31038800D01*
X72059597Y-31043401D02*
X72465601Y-31043401D01*
X72470202Y-31038800D02*
X72569210Y-31038800D01*
X70753200Y-32349798D02*
X72059597Y-31043401D01*
X70469402Y-32349798D02*
X70753200Y-32349798D01*
X70053200Y-32766000D02*
X70469402Y-32349798D01*
D17*
%TO.N,+1V8*%
X70053200Y-29311600D02*
X70053200Y-28956000D01*
X70053200Y-28956000D02*
X69646800Y-28549600D01*
D18*
X80574978Y-26930178D02*
X79044800Y-25400000D01*
X80574978Y-27746389D02*
X80574978Y-26930178D01*
X79044800Y-25400000D02*
X79044800Y-24650000D01*
X79044800Y-24650000D02*
X78575598Y-24180798D01*
X78575598Y-24180798D02*
X77927198Y-24180798D01*
D15*
%TO.N,/CELL-*%
X72047002Y-37287200D02*
X71583501Y-37750701D01*
X73253600Y-37287200D02*
X72047002Y-37287200D01*
D17*
%TO.N,/NRST*%
X80574980Y-30575410D02*
X80574980Y-28346400D01*
D14*
X80056991Y-31093399D02*
X80574980Y-30575410D01*
X73009599Y-31093399D02*
X80056991Y-31093399D01*
X72745600Y-31357398D02*
X73009599Y-31093399D01*
X72745600Y-31750000D02*
X72745600Y-31357398D01*
D17*
X70307200Y-34493200D02*
X72745600Y-32054800D01*
X70053200Y-34493200D02*
X70307200Y-34493200D01*
X72745600Y-32054800D02*
X72745600Y-31750000D01*
D14*
%TO.N,/LED_1*%
X79508632Y-29295232D02*
X79400400Y-29187000D01*
X79508632Y-30080232D02*
X79508632Y-29295232D01*
%TO.N,Net-(D1-Pad1)*%
X78409400Y-28217000D02*
X78384400Y-28192000D01*
X79400400Y-28217000D02*
X78409400Y-28217000D01*
%TO.N,/BTN_0*%
X75996800Y-29514800D02*
X76468199Y-29043401D01*
X77789390Y-25807811D02*
X77789390Y-25922590D01*
X77994001Y-25603200D02*
X77789390Y-25807811D01*
X77789390Y-27722210D02*
X77789390Y-27294190D01*
X75996800Y-29514800D02*
X77789390Y-27722210D01*
X77789390Y-27294190D02*
X77789390Y-25922590D01*
%TO.N,/BTN_1*%
X76762599Y-25374210D02*
X77112820Y-25023989D01*
X77112820Y-25023989D02*
X77112820Y-24741147D01*
X75996800Y-27940000D02*
X76762599Y-27174201D01*
X76762599Y-27174201D02*
X76762599Y-25374210D01*
%TO.N,/BTN_2*%
X76512824Y-25028305D02*
X76512824Y-24745463D01*
X75762599Y-26751801D02*
X75762599Y-25778530D01*
X73609200Y-29514800D02*
X75221799Y-27902201D01*
X75762599Y-25778530D02*
X76512824Y-25028305D01*
X75221799Y-27292601D02*
X75762599Y-26751801D01*
X75221799Y-27902201D02*
X75221799Y-27292601D01*
%TO.N,/BTN_3*%
X74712601Y-26836599D02*
X74712601Y-26089668D01*
X73609200Y-27940000D02*
X74712601Y-26836599D01*
X74712601Y-26089668D02*
X75927017Y-24875252D01*
%TD*%
D19*
%TO.N,GND*%
X79911475Y-31442507D02*
X79838590Y-31491207D01*
X79776607Y-31553190D01*
X79727907Y-31626075D01*
X79694362Y-31707059D01*
X79677261Y-31793032D01*
X79677261Y-31880690D01*
X79694362Y-31966663D01*
X79727907Y-32047647D01*
X79776607Y-32120532D01*
X79838590Y-32182515D01*
X79911475Y-32231215D01*
X79992459Y-32264760D01*
X80078432Y-32281861D01*
X80153549Y-32281861D01*
X80123646Y-32326614D01*
X80090101Y-32407598D01*
X80073000Y-32493571D01*
X80073000Y-32581229D01*
X80090101Y-32667202D01*
X80123646Y-32748186D01*
X80172346Y-32821071D01*
X80234329Y-32883054D01*
X80307214Y-32931754D01*
X80388198Y-32965299D01*
X80474171Y-32982400D01*
X80561829Y-32982400D01*
X80647802Y-32965299D01*
X80728786Y-32931754D01*
X80801671Y-32883054D01*
X80840001Y-32844724D01*
X80840001Y-33445833D01*
X80776764Y-33382596D01*
X80671122Y-33312008D01*
X80553740Y-33263387D01*
X80429127Y-33238600D01*
X80302073Y-33238600D01*
X80177460Y-33263387D01*
X80060078Y-33312008D01*
X79954436Y-33382596D01*
X79864596Y-33472436D01*
X79794008Y-33578078D01*
X79745387Y-33695460D01*
X79720600Y-33820073D01*
X79720600Y-33947127D01*
X79745387Y-34071740D01*
X79794008Y-34189122D01*
X79864596Y-34294764D01*
X79954436Y-34384604D01*
X80060078Y-34455192D01*
X80177460Y-34503813D01*
X80302073Y-34528600D01*
X80429127Y-34528600D01*
X80553740Y-34503813D01*
X80671122Y-34455192D01*
X80776764Y-34384604D01*
X80840001Y-34321367D01*
X80840001Y-38840000D01*
X69160000Y-38840000D01*
X69160000Y-31931383D01*
X69160278Y-31931722D01*
X69244483Y-32000828D01*
X69340552Y-32052178D01*
X69404070Y-32071446D01*
X69379121Y-32091921D01*
X69348505Y-32129227D01*
X69325755Y-32171789D01*
X69311745Y-32217972D01*
X69307015Y-32266000D01*
X69307015Y-33266000D01*
X69311745Y-33314028D01*
X69325755Y-33360211D01*
X69348505Y-33402773D01*
X69379121Y-33440079D01*
X69416427Y-33470695D01*
X69458989Y-33493445D01*
X69505172Y-33507455D01*
X69553200Y-33512185D01*
X70553200Y-33512185D01*
X70601228Y-33507455D01*
X70647411Y-33493445D01*
X70689973Y-33470695D01*
X70727279Y-33440079D01*
X70757895Y-33402773D01*
X70780645Y-33360211D01*
X70794655Y-33314028D01*
X70799385Y-33266000D01*
X70799385Y-33011117D01*
X70825146Y-33049671D01*
X70887129Y-33111654D01*
X70960014Y-33160354D01*
X71040998Y-33193899D01*
X71105723Y-33206774D01*
X70564381Y-33748116D01*
X70553200Y-33747015D01*
X69553200Y-33747015D01*
X69505172Y-33751745D01*
X69458989Y-33765755D01*
X69416427Y-33788505D01*
X69379121Y-33819121D01*
X69348505Y-33856427D01*
X69325755Y-33898989D01*
X69311745Y-33945172D01*
X69307015Y-33993200D01*
X69307015Y-34993200D01*
X69311745Y-35041228D01*
X69325755Y-35087411D01*
X69348505Y-35129973D01*
X69379121Y-35167279D01*
X69416427Y-35197895D01*
X69458989Y-35220645D01*
X69505172Y-35234655D01*
X69553200Y-35239385D01*
X70553200Y-35239385D01*
X70601228Y-35234655D01*
X70647411Y-35220645D01*
X70689973Y-35197895D01*
X70727279Y-35167279D01*
X70757895Y-35129973D01*
X70780645Y-35087411D01*
X70794655Y-35041228D01*
X70799385Y-34993200D01*
X70799385Y-34488918D01*
X71322765Y-33965538D01*
X71333207Y-33990747D01*
X71381907Y-34063632D01*
X71443890Y-34125615D01*
X71516775Y-34174315D01*
X71597759Y-34207860D01*
X71683732Y-34224961D01*
X71771390Y-34224961D01*
X71825498Y-34214198D01*
X70564381Y-35475316D01*
X70553200Y-35474215D01*
X69553200Y-35474215D01*
X69505172Y-35478945D01*
X69458989Y-35492955D01*
X69416427Y-35515705D01*
X69379121Y-35546321D01*
X69348505Y-35583627D01*
X69325755Y-35626189D01*
X69311745Y-35672372D01*
X69307015Y-35720400D01*
X69307015Y-36720400D01*
X69311745Y-36768428D01*
X69325755Y-36814611D01*
X69348505Y-36857173D01*
X69379121Y-36894479D01*
X69416427Y-36925095D01*
X69458989Y-36947845D01*
X69505172Y-36961855D01*
X69553200Y-36966585D01*
X70546312Y-36966585D01*
X70311482Y-37201415D01*
X69553200Y-37201415D01*
X69505172Y-37206145D01*
X69458989Y-37220155D01*
X69416427Y-37242905D01*
X69379121Y-37273521D01*
X69348505Y-37310827D01*
X69325755Y-37353389D01*
X69311745Y-37399572D01*
X69307015Y-37447600D01*
X69307015Y-38447600D01*
X69311745Y-38495628D01*
X69325755Y-38541811D01*
X69348505Y-38584373D01*
X69379121Y-38621679D01*
X69416427Y-38652295D01*
X69458989Y-38675045D01*
X69505172Y-38689055D01*
X69553200Y-38693785D01*
X70553200Y-38693785D01*
X70601228Y-38689055D01*
X70647411Y-38675045D01*
X70689973Y-38652295D01*
X70727279Y-38621679D01*
X70757895Y-38584373D01*
X70780645Y-38541811D01*
X70794655Y-38495628D01*
X70799385Y-38447600D01*
X70799385Y-37689318D01*
X70989554Y-37499149D01*
X70963288Y-37562561D01*
X70938501Y-37687174D01*
X70938501Y-37814228D01*
X70963288Y-37938841D01*
X71011909Y-38056223D01*
X71082497Y-38161865D01*
X71172337Y-38251705D01*
X71277979Y-38322293D01*
X71395361Y-38370914D01*
X71519974Y-38395701D01*
X71647028Y-38395701D01*
X71771641Y-38370914D01*
X71889023Y-38322293D01*
X71994665Y-38251705D01*
X72084505Y-38161865D01*
X72155093Y-38056223D01*
X72203714Y-37938841D01*
X72228501Y-37814228D01*
X72228501Y-37735026D01*
X72231327Y-37732200D01*
X72257415Y-37732200D01*
X72257415Y-38037200D01*
X72262145Y-38085228D01*
X72276155Y-38131411D01*
X72298905Y-38173973D01*
X72329521Y-38211279D01*
X72366827Y-38241895D01*
X72409389Y-38264645D01*
X72455572Y-38278655D01*
X72503600Y-38283385D01*
X74003600Y-38283385D01*
X74051628Y-38278655D01*
X74097811Y-38264645D01*
X74140373Y-38241895D01*
X74177679Y-38211279D01*
X74208295Y-38173973D01*
X74231045Y-38131411D01*
X74245055Y-38085228D01*
X74249785Y-38037200D01*
X74249785Y-36786171D01*
X74789800Y-36786171D01*
X74789800Y-36873829D01*
X74806901Y-36959802D01*
X74840446Y-37040786D01*
X74873361Y-37090048D01*
X74861612Y-37107632D01*
X74828067Y-37188616D01*
X74810966Y-37274589D01*
X74810966Y-37362247D01*
X74828067Y-37448220D01*
X74861612Y-37529204D01*
X74910312Y-37602089D01*
X74972295Y-37664072D01*
X75045180Y-37712772D01*
X75068792Y-37722552D01*
X75060903Y-37741598D01*
X75043802Y-37827571D01*
X75043802Y-37915229D01*
X75060903Y-38001202D01*
X75094448Y-38082186D01*
X75143148Y-38155071D01*
X75205131Y-38217054D01*
X75278016Y-38265754D01*
X75359000Y-38299299D01*
X75444973Y-38316400D01*
X75532631Y-38316400D01*
X75618604Y-38299299D01*
X75699588Y-38265754D01*
X75772473Y-38217054D01*
X75809266Y-38180261D01*
X75834721Y-38211279D01*
X75872027Y-38241895D01*
X75914589Y-38264645D01*
X75960772Y-38278655D01*
X76008800Y-38283385D01*
X77508800Y-38283385D01*
X77556828Y-38278655D01*
X77603011Y-38264645D01*
X77645573Y-38241895D01*
X77682879Y-38211279D01*
X77713495Y-38173973D01*
X77736245Y-38131411D01*
X77740535Y-38117267D01*
X79223130Y-38117267D01*
X79223130Y-38204925D01*
X79240231Y-38290898D01*
X79273776Y-38371882D01*
X79322476Y-38444767D01*
X79384459Y-38506750D01*
X79457344Y-38555450D01*
X79538328Y-38588995D01*
X79624301Y-38606096D01*
X79711959Y-38606096D01*
X79797932Y-38588995D01*
X79878916Y-38555450D01*
X79951801Y-38506750D01*
X80013784Y-38444767D01*
X80062484Y-38371882D01*
X80096029Y-38290898D01*
X80113130Y-38204925D01*
X80113130Y-38117267D01*
X80096029Y-38031294D01*
X80062484Y-37950310D01*
X80013784Y-37877425D01*
X79951801Y-37815442D01*
X79878916Y-37766742D01*
X79797932Y-37733197D01*
X79711959Y-37716096D01*
X79624301Y-37716096D01*
X79538328Y-37733197D01*
X79457344Y-37766742D01*
X79384459Y-37815442D01*
X79322476Y-37877425D01*
X79273776Y-37950310D01*
X79240231Y-38031294D01*
X79223130Y-38117267D01*
X77740535Y-38117267D01*
X77750255Y-38085228D01*
X77754985Y-38037200D01*
X77754985Y-36537200D01*
X77750255Y-36489172D01*
X77736245Y-36442989D01*
X77713495Y-36400427D01*
X77682879Y-36363121D01*
X77645573Y-36332505D01*
X77603011Y-36309755D01*
X77556828Y-36295745D01*
X77508800Y-36291015D01*
X76008800Y-36291015D01*
X75960772Y-36295745D01*
X75914589Y-36309755D01*
X75872027Y-36332505D01*
X75834721Y-36363121D01*
X75804105Y-36400427D01*
X75781355Y-36442989D01*
X75767345Y-36489172D01*
X75762615Y-36537200D01*
X75762615Y-36803889D01*
X75663636Y-36704910D01*
X75662699Y-36700198D01*
X75629154Y-36619214D01*
X75580454Y-36546329D01*
X75518471Y-36484346D01*
X75445586Y-36435646D01*
X75364602Y-36402101D01*
X75278629Y-36385000D01*
X75190971Y-36385000D01*
X75104998Y-36402101D01*
X75024014Y-36435646D01*
X74951129Y-36484346D01*
X74889146Y-36546329D01*
X74840446Y-36619214D01*
X74806901Y-36700198D01*
X74789800Y-36786171D01*
X74249785Y-36786171D01*
X74249785Y-36537200D01*
X74245055Y-36489172D01*
X74231045Y-36442989D01*
X74208295Y-36400427D01*
X74177679Y-36363121D01*
X74140373Y-36332505D01*
X74097811Y-36309755D01*
X74051628Y-36295745D01*
X74003600Y-36291015D01*
X72503600Y-36291015D01*
X72455572Y-36295745D01*
X72409389Y-36309755D01*
X72366827Y-36332505D01*
X72329521Y-36363121D01*
X72298905Y-36400427D01*
X72276155Y-36442989D01*
X72262145Y-36489172D01*
X72257415Y-36537200D01*
X72257415Y-36842200D01*
X72068850Y-36842200D01*
X72047001Y-36840048D01*
X72025152Y-36842200D01*
X72025142Y-36842200D01*
X71959767Y-36848639D01*
X71875884Y-36874084D01*
X71798577Y-36915406D01*
X71730817Y-36971015D01*
X71716881Y-36987996D01*
X71599176Y-37105701D01*
X71519974Y-37105701D01*
X71395361Y-37130488D01*
X71331949Y-37156754D01*
X73556732Y-34931971D01*
X75043800Y-34931971D01*
X75043800Y-35019629D01*
X75060901Y-35105602D01*
X75094446Y-35186586D01*
X75143146Y-35259471D01*
X75205129Y-35321454D01*
X75278014Y-35370154D01*
X75358998Y-35403699D01*
X75444971Y-35420800D01*
X75532629Y-35420800D01*
X75618602Y-35403699D01*
X75699586Y-35370154D01*
X75772471Y-35321454D01*
X75834454Y-35259471D01*
X75883154Y-35186586D01*
X75916699Y-35105602D01*
X75933800Y-35019629D01*
X75933800Y-34931971D01*
X75916699Y-34845998D01*
X75883154Y-34765014D01*
X75834454Y-34692129D01*
X75772471Y-34630146D01*
X75699586Y-34581446D01*
X75618602Y-34547901D01*
X75532629Y-34530800D01*
X75444971Y-34530800D01*
X75358998Y-34547901D01*
X75278014Y-34581446D01*
X75205129Y-34630146D01*
X75143146Y-34692129D01*
X75094446Y-34765014D01*
X75060901Y-34845998D01*
X75043800Y-34931971D01*
X73556732Y-34931971D01*
X74205986Y-34282718D01*
X74219142Y-34271921D01*
X74229940Y-34258764D01*
X74229945Y-34258759D01*
X74255882Y-34227154D01*
X74262256Y-34219388D01*
X74294291Y-34159453D01*
X74313973Y-34094573D01*
X74344219Y-34107101D01*
X74430192Y-34124202D01*
X74517850Y-34124202D01*
X74603823Y-34107101D01*
X74684807Y-34073556D01*
X74757692Y-34024856D01*
X74819675Y-33962873D01*
X74868375Y-33889988D01*
X74901920Y-33809004D01*
X74919021Y-33723031D01*
X74919021Y-33702129D01*
X74930161Y-33704345D01*
X75017819Y-33704345D01*
X75103792Y-33687244D01*
X75121216Y-33680027D01*
X75111701Y-33702998D01*
X75094600Y-33788971D01*
X75094600Y-33876629D01*
X75111701Y-33962602D01*
X75145246Y-34043586D01*
X75193946Y-34116471D01*
X75255929Y-34178454D01*
X75328814Y-34227154D01*
X75409798Y-34260699D01*
X75495771Y-34277800D01*
X75583429Y-34277800D01*
X75669402Y-34260699D01*
X75750386Y-34227154D01*
X75823271Y-34178454D01*
X75885254Y-34116471D01*
X75933954Y-34043586D01*
X75967499Y-33962602D01*
X75984600Y-33876629D01*
X75984600Y-33788971D01*
X75974496Y-33738171D01*
X76364600Y-33738171D01*
X76364600Y-33825829D01*
X76381701Y-33911802D01*
X76415246Y-33992786D01*
X76463946Y-34065671D01*
X76525929Y-34127654D01*
X76598814Y-34176354D01*
X76679798Y-34209899D01*
X76765771Y-34227000D01*
X76853429Y-34227000D01*
X76939402Y-34209899D01*
X77020386Y-34176354D01*
X77093271Y-34127654D01*
X77155254Y-34065671D01*
X77203954Y-33992786D01*
X77237499Y-33911802D01*
X77254600Y-33825829D01*
X77254600Y-33738171D01*
X77237499Y-33652198D01*
X77203954Y-33571214D01*
X77155254Y-33498329D01*
X77093271Y-33436346D01*
X77020386Y-33387646D01*
X76939402Y-33354101D01*
X76853429Y-33337000D01*
X76765771Y-33337000D01*
X76679798Y-33354101D01*
X76598814Y-33387646D01*
X76525929Y-33436346D01*
X76463946Y-33498329D01*
X76415246Y-33571214D01*
X76381701Y-33652198D01*
X76364600Y-33738171D01*
X75974496Y-33738171D01*
X75967499Y-33702998D01*
X75938355Y-33632639D01*
X75941238Y-33633212D01*
X76028896Y-33633212D01*
X76114869Y-33616111D01*
X76195853Y-33582566D01*
X76268738Y-33533866D01*
X76330721Y-33471883D01*
X76379421Y-33398998D01*
X76412966Y-33318014D01*
X76430067Y-33232041D01*
X76430067Y-33144383D01*
X76412966Y-33058410D01*
X76379421Y-32977426D01*
X76330721Y-32904541D01*
X76268738Y-32842558D01*
X76195853Y-32793858D01*
X76114869Y-32760313D01*
X76028896Y-32743212D01*
X75941238Y-32743212D01*
X75855265Y-32760313D01*
X75774281Y-32793858D01*
X75701396Y-32842558D01*
X75639413Y-32904541D01*
X75590713Y-32977426D01*
X75557168Y-33058410D01*
X75540067Y-33144383D01*
X75540067Y-33232041D01*
X75557168Y-33318014D01*
X75586312Y-33388373D01*
X75583429Y-33387800D01*
X75495771Y-33387800D01*
X75409798Y-33404901D01*
X75392374Y-33412118D01*
X75401889Y-33389147D01*
X75418990Y-33303174D01*
X75418990Y-33215516D01*
X75401889Y-33129543D01*
X75368344Y-33048559D01*
X75319644Y-32975674D01*
X75257661Y-32913691D01*
X75184776Y-32864991D01*
X75103792Y-32831446D01*
X75017819Y-32814345D01*
X74930161Y-32814345D01*
X74844188Y-32831446D01*
X74763204Y-32864991D01*
X74690319Y-32913691D01*
X74628336Y-32975674D01*
X74579636Y-33048559D01*
X74546091Y-33129543D01*
X74528990Y-33215516D01*
X74528990Y-33236418D01*
X74517850Y-33234202D01*
X74430192Y-33234202D01*
X74360648Y-33248035D01*
X74354819Y-33218729D01*
X74321274Y-33137745D01*
X74272574Y-33064860D01*
X74210591Y-33002877D01*
X74137706Y-32954177D01*
X74056722Y-32920632D01*
X73970749Y-32903531D01*
X73883091Y-32903531D01*
X73797118Y-32920632D01*
X73716134Y-32954177D01*
X73643249Y-33002877D01*
X73581266Y-33064860D01*
X73532566Y-33137745D01*
X73499021Y-33218729D01*
X73483435Y-33297088D01*
X73430181Y-33297088D01*
X73344208Y-33314189D01*
X73263224Y-33347734D01*
X73190339Y-33396434D01*
X73140649Y-33446124D01*
X73080071Y-33385546D01*
X73007186Y-33336846D01*
X72926202Y-33303301D01*
X72840229Y-33286200D01*
X72784200Y-33286200D01*
X72784200Y-33280971D01*
X72767099Y-33194998D01*
X72733554Y-33114014D01*
X72684854Y-33041129D01*
X72622871Y-32979146D01*
X72549986Y-32930446D01*
X72469002Y-32896901D01*
X72404277Y-32884027D01*
X72977575Y-32310729D01*
X72990731Y-32299932D01*
X73001529Y-32286775D01*
X73001534Y-32286770D01*
X73033844Y-32247400D01*
X73033845Y-32247399D01*
X73065880Y-32187464D01*
X73085608Y-32122432D01*
X73090600Y-32071746D01*
X73090600Y-32071737D01*
X73092268Y-32054801D01*
X73090600Y-32037865D01*
X73090600Y-31733054D01*
X73085608Y-31682368D01*
X73065880Y-31617336D01*
X73065600Y-31616812D01*
X73065600Y-31489945D01*
X73142147Y-31413399D01*
X79981747Y-31413399D01*
X79911475Y-31442507D01*
%TA.AperFunction,Conductor*%
D20*
G36*
X79911475Y-31442507D02*
G01*
X79838590Y-31491207D01*
X79776607Y-31553190D01*
X79727907Y-31626075D01*
X79694362Y-31707059D01*
X79677261Y-31793032D01*
X79677261Y-31880690D01*
X79694362Y-31966663D01*
X79727907Y-32047647D01*
X79776607Y-32120532D01*
X79838590Y-32182515D01*
X79911475Y-32231215D01*
X79992459Y-32264760D01*
X80078432Y-32281861D01*
X80153549Y-32281861D01*
X80123646Y-32326614D01*
X80090101Y-32407598D01*
X80073000Y-32493571D01*
X80073000Y-32581229D01*
X80090101Y-32667202D01*
X80123646Y-32748186D01*
X80172346Y-32821071D01*
X80234329Y-32883054D01*
X80307214Y-32931754D01*
X80388198Y-32965299D01*
X80474171Y-32982400D01*
X80561829Y-32982400D01*
X80647802Y-32965299D01*
X80728786Y-32931754D01*
X80801671Y-32883054D01*
X80840001Y-32844724D01*
X80840001Y-33445833D01*
X80776764Y-33382596D01*
X80671122Y-33312008D01*
X80553740Y-33263387D01*
X80429127Y-33238600D01*
X80302073Y-33238600D01*
X80177460Y-33263387D01*
X80060078Y-33312008D01*
X79954436Y-33382596D01*
X79864596Y-33472436D01*
X79794008Y-33578078D01*
X79745387Y-33695460D01*
X79720600Y-33820073D01*
X79720600Y-33947127D01*
X79745387Y-34071740D01*
X79794008Y-34189122D01*
X79864596Y-34294764D01*
X79954436Y-34384604D01*
X80060078Y-34455192D01*
X80177460Y-34503813D01*
X80302073Y-34528600D01*
X80429127Y-34528600D01*
X80553740Y-34503813D01*
X80671122Y-34455192D01*
X80776764Y-34384604D01*
X80840001Y-34321367D01*
X80840001Y-38840000D01*
X69160000Y-38840000D01*
X69160000Y-31931383D01*
X69160278Y-31931722D01*
X69244483Y-32000828D01*
X69340552Y-32052178D01*
X69404070Y-32071446D01*
X69379121Y-32091921D01*
X69348505Y-32129227D01*
X69325755Y-32171789D01*
X69311745Y-32217972D01*
X69307015Y-32266000D01*
X69307015Y-33266000D01*
X69311745Y-33314028D01*
X69325755Y-33360211D01*
X69348505Y-33402773D01*
X69379121Y-33440079D01*
X69416427Y-33470695D01*
X69458989Y-33493445D01*
X69505172Y-33507455D01*
X69553200Y-33512185D01*
X70553200Y-33512185D01*
X70601228Y-33507455D01*
X70647411Y-33493445D01*
X70689973Y-33470695D01*
X70727279Y-33440079D01*
X70757895Y-33402773D01*
X70780645Y-33360211D01*
X70794655Y-33314028D01*
X70799385Y-33266000D01*
X70799385Y-33011117D01*
X70825146Y-33049671D01*
X70887129Y-33111654D01*
X70960014Y-33160354D01*
X71040998Y-33193899D01*
X71105723Y-33206774D01*
X70564381Y-33748116D01*
X70553200Y-33747015D01*
X69553200Y-33747015D01*
X69505172Y-33751745D01*
X69458989Y-33765755D01*
X69416427Y-33788505D01*
X69379121Y-33819121D01*
X69348505Y-33856427D01*
X69325755Y-33898989D01*
X69311745Y-33945172D01*
X69307015Y-33993200D01*
X69307015Y-34993200D01*
X69311745Y-35041228D01*
X69325755Y-35087411D01*
X69348505Y-35129973D01*
X69379121Y-35167279D01*
X69416427Y-35197895D01*
X69458989Y-35220645D01*
X69505172Y-35234655D01*
X69553200Y-35239385D01*
X70553200Y-35239385D01*
X70601228Y-35234655D01*
X70647411Y-35220645D01*
X70689973Y-35197895D01*
X70727279Y-35167279D01*
X70757895Y-35129973D01*
X70780645Y-35087411D01*
X70794655Y-35041228D01*
X70799385Y-34993200D01*
X70799385Y-34488918D01*
X71322765Y-33965538D01*
X71333207Y-33990747D01*
X71381907Y-34063632D01*
X71443890Y-34125615D01*
X71516775Y-34174315D01*
X71597759Y-34207860D01*
X71683732Y-34224961D01*
X71771390Y-34224961D01*
X71825498Y-34214198D01*
X70564381Y-35475316D01*
X70553200Y-35474215D01*
X69553200Y-35474215D01*
X69505172Y-35478945D01*
X69458989Y-35492955D01*
X69416427Y-35515705D01*
X69379121Y-35546321D01*
X69348505Y-35583627D01*
X69325755Y-35626189D01*
X69311745Y-35672372D01*
X69307015Y-35720400D01*
X69307015Y-36720400D01*
X69311745Y-36768428D01*
X69325755Y-36814611D01*
X69348505Y-36857173D01*
X69379121Y-36894479D01*
X69416427Y-36925095D01*
X69458989Y-36947845D01*
X69505172Y-36961855D01*
X69553200Y-36966585D01*
X70546312Y-36966585D01*
X70311482Y-37201415D01*
X69553200Y-37201415D01*
X69505172Y-37206145D01*
X69458989Y-37220155D01*
X69416427Y-37242905D01*
X69379121Y-37273521D01*
X69348505Y-37310827D01*
X69325755Y-37353389D01*
X69311745Y-37399572D01*
X69307015Y-37447600D01*
X69307015Y-38447600D01*
X69311745Y-38495628D01*
X69325755Y-38541811D01*
X69348505Y-38584373D01*
X69379121Y-38621679D01*
X69416427Y-38652295D01*
X69458989Y-38675045D01*
X69505172Y-38689055D01*
X69553200Y-38693785D01*
X70553200Y-38693785D01*
X70601228Y-38689055D01*
X70647411Y-38675045D01*
X70689973Y-38652295D01*
X70727279Y-38621679D01*
X70757895Y-38584373D01*
X70780645Y-38541811D01*
X70794655Y-38495628D01*
X70799385Y-38447600D01*
X70799385Y-37689318D01*
X70989554Y-37499149D01*
X70963288Y-37562561D01*
X70938501Y-37687174D01*
X70938501Y-37814228D01*
X70963288Y-37938841D01*
X71011909Y-38056223D01*
X71082497Y-38161865D01*
X71172337Y-38251705D01*
X71277979Y-38322293D01*
X71395361Y-38370914D01*
X71519974Y-38395701D01*
X71647028Y-38395701D01*
X71771641Y-38370914D01*
X71889023Y-38322293D01*
X71994665Y-38251705D01*
X72084505Y-38161865D01*
X72155093Y-38056223D01*
X72203714Y-37938841D01*
X72228501Y-37814228D01*
X72228501Y-37735026D01*
X72231327Y-37732200D01*
X72257415Y-37732200D01*
X72257415Y-38037200D01*
X72262145Y-38085228D01*
X72276155Y-38131411D01*
X72298905Y-38173973D01*
X72329521Y-38211279D01*
X72366827Y-38241895D01*
X72409389Y-38264645D01*
X72455572Y-38278655D01*
X72503600Y-38283385D01*
X74003600Y-38283385D01*
X74051628Y-38278655D01*
X74097811Y-38264645D01*
X74140373Y-38241895D01*
X74177679Y-38211279D01*
X74208295Y-38173973D01*
X74231045Y-38131411D01*
X74245055Y-38085228D01*
X74249785Y-38037200D01*
X74249785Y-36786171D01*
X74789800Y-36786171D01*
X74789800Y-36873829D01*
X74806901Y-36959802D01*
X74840446Y-37040786D01*
X74873361Y-37090048D01*
X74861612Y-37107632D01*
X74828067Y-37188616D01*
X74810966Y-37274589D01*
X74810966Y-37362247D01*
X74828067Y-37448220D01*
X74861612Y-37529204D01*
X74910312Y-37602089D01*
X74972295Y-37664072D01*
X75045180Y-37712772D01*
X75068792Y-37722552D01*
X75060903Y-37741598D01*
X75043802Y-37827571D01*
X75043802Y-37915229D01*
X75060903Y-38001202D01*
X75094448Y-38082186D01*
X75143148Y-38155071D01*
X75205131Y-38217054D01*
X75278016Y-38265754D01*
X75359000Y-38299299D01*
X75444973Y-38316400D01*
X75532631Y-38316400D01*
X75618604Y-38299299D01*
X75699588Y-38265754D01*
X75772473Y-38217054D01*
X75809266Y-38180261D01*
X75834721Y-38211279D01*
X75872027Y-38241895D01*
X75914589Y-38264645D01*
X75960772Y-38278655D01*
X76008800Y-38283385D01*
X77508800Y-38283385D01*
X77556828Y-38278655D01*
X77603011Y-38264645D01*
X77645573Y-38241895D01*
X77682879Y-38211279D01*
X77713495Y-38173973D01*
X77736245Y-38131411D01*
X77740535Y-38117267D01*
X79223130Y-38117267D01*
X79223130Y-38204925D01*
X79240231Y-38290898D01*
X79273776Y-38371882D01*
X79322476Y-38444767D01*
X79384459Y-38506750D01*
X79457344Y-38555450D01*
X79538328Y-38588995D01*
X79624301Y-38606096D01*
X79711959Y-38606096D01*
X79797932Y-38588995D01*
X79878916Y-38555450D01*
X79951801Y-38506750D01*
X80013784Y-38444767D01*
X80062484Y-38371882D01*
X80096029Y-38290898D01*
X80113130Y-38204925D01*
X80113130Y-38117267D01*
X80096029Y-38031294D01*
X80062484Y-37950310D01*
X80013784Y-37877425D01*
X79951801Y-37815442D01*
X79878916Y-37766742D01*
X79797932Y-37733197D01*
X79711959Y-37716096D01*
X79624301Y-37716096D01*
X79538328Y-37733197D01*
X79457344Y-37766742D01*
X79384459Y-37815442D01*
X79322476Y-37877425D01*
X79273776Y-37950310D01*
X79240231Y-38031294D01*
X79223130Y-38117267D01*
X77740535Y-38117267D01*
X77750255Y-38085228D01*
X77754985Y-38037200D01*
X77754985Y-36537200D01*
X77750255Y-36489172D01*
X77736245Y-36442989D01*
X77713495Y-36400427D01*
X77682879Y-36363121D01*
X77645573Y-36332505D01*
X77603011Y-36309755D01*
X77556828Y-36295745D01*
X77508800Y-36291015D01*
X76008800Y-36291015D01*
X75960772Y-36295745D01*
X75914589Y-36309755D01*
X75872027Y-36332505D01*
X75834721Y-36363121D01*
X75804105Y-36400427D01*
X75781355Y-36442989D01*
X75767345Y-36489172D01*
X75762615Y-36537200D01*
X75762615Y-36803889D01*
X75663636Y-36704910D01*
X75662699Y-36700198D01*
X75629154Y-36619214D01*
X75580454Y-36546329D01*
X75518471Y-36484346D01*
X75445586Y-36435646D01*
X75364602Y-36402101D01*
X75278629Y-36385000D01*
X75190971Y-36385000D01*
X75104998Y-36402101D01*
X75024014Y-36435646D01*
X74951129Y-36484346D01*
X74889146Y-36546329D01*
X74840446Y-36619214D01*
X74806901Y-36700198D01*
X74789800Y-36786171D01*
X74249785Y-36786171D01*
X74249785Y-36537200D01*
X74245055Y-36489172D01*
X74231045Y-36442989D01*
X74208295Y-36400427D01*
X74177679Y-36363121D01*
X74140373Y-36332505D01*
X74097811Y-36309755D01*
X74051628Y-36295745D01*
X74003600Y-36291015D01*
X72503600Y-36291015D01*
X72455572Y-36295745D01*
X72409389Y-36309755D01*
X72366827Y-36332505D01*
X72329521Y-36363121D01*
X72298905Y-36400427D01*
X72276155Y-36442989D01*
X72262145Y-36489172D01*
X72257415Y-36537200D01*
X72257415Y-36842200D01*
X72068850Y-36842200D01*
X72047001Y-36840048D01*
X72025152Y-36842200D01*
X72025142Y-36842200D01*
X71959767Y-36848639D01*
X71875884Y-36874084D01*
X71798577Y-36915406D01*
X71730817Y-36971015D01*
X71716881Y-36987996D01*
X71599176Y-37105701D01*
X71519974Y-37105701D01*
X71395361Y-37130488D01*
X71331949Y-37156754D01*
X73556732Y-34931971D01*
X75043800Y-34931971D01*
X75043800Y-35019629D01*
X75060901Y-35105602D01*
X75094446Y-35186586D01*
X75143146Y-35259471D01*
X75205129Y-35321454D01*
X75278014Y-35370154D01*
X75358998Y-35403699D01*
X75444971Y-35420800D01*
X75532629Y-35420800D01*
X75618602Y-35403699D01*
X75699586Y-35370154D01*
X75772471Y-35321454D01*
X75834454Y-35259471D01*
X75883154Y-35186586D01*
X75916699Y-35105602D01*
X75933800Y-35019629D01*
X75933800Y-34931971D01*
X75916699Y-34845998D01*
X75883154Y-34765014D01*
X75834454Y-34692129D01*
X75772471Y-34630146D01*
X75699586Y-34581446D01*
X75618602Y-34547901D01*
X75532629Y-34530800D01*
X75444971Y-34530800D01*
X75358998Y-34547901D01*
X75278014Y-34581446D01*
X75205129Y-34630146D01*
X75143146Y-34692129D01*
X75094446Y-34765014D01*
X75060901Y-34845998D01*
X75043800Y-34931971D01*
X73556732Y-34931971D01*
X74205986Y-34282718D01*
X74219142Y-34271921D01*
X74229940Y-34258764D01*
X74229945Y-34258759D01*
X74255882Y-34227154D01*
X74262256Y-34219388D01*
X74294291Y-34159453D01*
X74313973Y-34094573D01*
X74344219Y-34107101D01*
X74430192Y-34124202D01*
X74517850Y-34124202D01*
X74603823Y-34107101D01*
X74684807Y-34073556D01*
X74757692Y-34024856D01*
X74819675Y-33962873D01*
X74868375Y-33889988D01*
X74901920Y-33809004D01*
X74919021Y-33723031D01*
X74919021Y-33702129D01*
X74930161Y-33704345D01*
X75017819Y-33704345D01*
X75103792Y-33687244D01*
X75121216Y-33680027D01*
X75111701Y-33702998D01*
X75094600Y-33788971D01*
X75094600Y-33876629D01*
X75111701Y-33962602D01*
X75145246Y-34043586D01*
X75193946Y-34116471D01*
X75255929Y-34178454D01*
X75328814Y-34227154D01*
X75409798Y-34260699D01*
X75495771Y-34277800D01*
X75583429Y-34277800D01*
X75669402Y-34260699D01*
X75750386Y-34227154D01*
X75823271Y-34178454D01*
X75885254Y-34116471D01*
X75933954Y-34043586D01*
X75967499Y-33962602D01*
X75984600Y-33876629D01*
X75984600Y-33788971D01*
X75974496Y-33738171D01*
X76364600Y-33738171D01*
X76364600Y-33825829D01*
X76381701Y-33911802D01*
X76415246Y-33992786D01*
X76463946Y-34065671D01*
X76525929Y-34127654D01*
X76598814Y-34176354D01*
X76679798Y-34209899D01*
X76765771Y-34227000D01*
X76853429Y-34227000D01*
X76939402Y-34209899D01*
X77020386Y-34176354D01*
X77093271Y-34127654D01*
X77155254Y-34065671D01*
X77203954Y-33992786D01*
X77237499Y-33911802D01*
X77254600Y-33825829D01*
X77254600Y-33738171D01*
X77237499Y-33652198D01*
X77203954Y-33571214D01*
X77155254Y-33498329D01*
X77093271Y-33436346D01*
X77020386Y-33387646D01*
X76939402Y-33354101D01*
X76853429Y-33337000D01*
X76765771Y-33337000D01*
X76679798Y-33354101D01*
X76598814Y-33387646D01*
X76525929Y-33436346D01*
X76463946Y-33498329D01*
X76415246Y-33571214D01*
X76381701Y-33652198D01*
X76364600Y-33738171D01*
X75974496Y-33738171D01*
X75967499Y-33702998D01*
X75938355Y-33632639D01*
X75941238Y-33633212D01*
X76028896Y-33633212D01*
X76114869Y-33616111D01*
X76195853Y-33582566D01*
X76268738Y-33533866D01*
X76330721Y-33471883D01*
X76379421Y-33398998D01*
X76412966Y-33318014D01*
X76430067Y-33232041D01*
X76430067Y-33144383D01*
X76412966Y-33058410D01*
X76379421Y-32977426D01*
X76330721Y-32904541D01*
X76268738Y-32842558D01*
X76195853Y-32793858D01*
X76114869Y-32760313D01*
X76028896Y-32743212D01*
X75941238Y-32743212D01*
X75855265Y-32760313D01*
X75774281Y-32793858D01*
X75701396Y-32842558D01*
X75639413Y-32904541D01*
X75590713Y-32977426D01*
X75557168Y-33058410D01*
X75540067Y-33144383D01*
X75540067Y-33232041D01*
X75557168Y-33318014D01*
X75586312Y-33388373D01*
X75583429Y-33387800D01*
X75495771Y-33387800D01*
X75409798Y-33404901D01*
X75392374Y-33412118D01*
X75401889Y-33389147D01*
X75418990Y-33303174D01*
X75418990Y-33215516D01*
X75401889Y-33129543D01*
X75368344Y-33048559D01*
X75319644Y-32975674D01*
X75257661Y-32913691D01*
X75184776Y-32864991D01*
X75103792Y-32831446D01*
X75017819Y-32814345D01*
X74930161Y-32814345D01*
X74844188Y-32831446D01*
X74763204Y-32864991D01*
X74690319Y-32913691D01*
X74628336Y-32975674D01*
X74579636Y-33048559D01*
X74546091Y-33129543D01*
X74528990Y-33215516D01*
X74528990Y-33236418D01*
X74517850Y-33234202D01*
X74430192Y-33234202D01*
X74360648Y-33248035D01*
X74354819Y-33218729D01*
X74321274Y-33137745D01*
X74272574Y-33064860D01*
X74210591Y-33002877D01*
X74137706Y-32954177D01*
X74056722Y-32920632D01*
X73970749Y-32903531D01*
X73883091Y-32903531D01*
X73797118Y-32920632D01*
X73716134Y-32954177D01*
X73643249Y-33002877D01*
X73581266Y-33064860D01*
X73532566Y-33137745D01*
X73499021Y-33218729D01*
X73483435Y-33297088D01*
X73430181Y-33297088D01*
X73344208Y-33314189D01*
X73263224Y-33347734D01*
X73190339Y-33396434D01*
X73140649Y-33446124D01*
X73080071Y-33385546D01*
X73007186Y-33336846D01*
X72926202Y-33303301D01*
X72840229Y-33286200D01*
X72784200Y-33286200D01*
X72784200Y-33280971D01*
X72767099Y-33194998D01*
X72733554Y-33114014D01*
X72684854Y-33041129D01*
X72622871Y-32979146D01*
X72549986Y-32930446D01*
X72469002Y-32896901D01*
X72404277Y-32884027D01*
X72977575Y-32310729D01*
X72990731Y-32299932D01*
X73001529Y-32286775D01*
X73001534Y-32286770D01*
X73033844Y-32247400D01*
X73033845Y-32247399D01*
X73065880Y-32187464D01*
X73085608Y-32122432D01*
X73090600Y-32071746D01*
X73090600Y-32071737D01*
X73092268Y-32054801D01*
X73090600Y-32037865D01*
X73090600Y-31733054D01*
X73085608Y-31682368D01*
X73065880Y-31617336D01*
X73065600Y-31616812D01*
X73065600Y-31489945D01*
X73142147Y-31413399D01*
X79981747Y-31413399D01*
X79911475Y-31442507D01*
G37*
%TD.AperFunction*%
D19*
X72425600Y-31373111D02*
X72425600Y-31616812D01*
X72425320Y-31617336D01*
X72405592Y-31682368D01*
X72400600Y-31733054D01*
X72400600Y-31911896D01*
X71611574Y-32700923D01*
X71598699Y-32636198D01*
X71565154Y-32555214D01*
X71516454Y-32482329D01*
X71454471Y-32420346D01*
X71381586Y-32371646D01*
X71300602Y-32338101D01*
X71231241Y-32324304D01*
X72192146Y-31363401D01*
X72424643Y-31363401D01*
X72425600Y-31373111D01*
%TA.AperFunction,Conductor*%
D20*
G36*
X72425600Y-31373111D02*
G01*
X72425600Y-31616812D01*
X72425320Y-31617336D01*
X72405592Y-31682368D01*
X72400600Y-31733054D01*
X72400600Y-31911896D01*
X71611574Y-32700923D01*
X71598699Y-32636198D01*
X71565154Y-32555214D01*
X71516454Y-32482329D01*
X71454471Y-32420346D01*
X71381586Y-32371646D01*
X71300602Y-32338101D01*
X71231241Y-32324304D01*
X72192146Y-31363401D01*
X72424643Y-31363401D01*
X72425600Y-31373111D01*
G37*
%TD.AperFunction*%
D19*
X80053214Y-19163646D02*
X79980329Y-19212346D01*
X79918346Y-19274329D01*
X79869646Y-19347214D01*
X79836101Y-19428198D01*
X79819000Y-19514171D01*
X79819000Y-19601829D01*
X79836101Y-19687802D01*
X79869646Y-19768786D01*
X79918346Y-19841671D01*
X79971906Y-19895231D01*
X79929529Y-19923546D01*
X79867546Y-19985529D01*
X79818846Y-20058414D01*
X79785301Y-20139398D01*
X79768200Y-20225371D01*
X79768200Y-20313029D01*
X79785301Y-20399002D01*
X79818846Y-20479986D01*
X79867546Y-20552871D01*
X79929529Y-20614854D01*
X80002414Y-20663554D01*
X80083398Y-20697099D01*
X80169371Y-20714200D01*
X80205652Y-20714200D01*
X80206562Y-20715110D01*
X80206563Y-22846845D01*
X80181363Y-22836407D01*
X80095390Y-22819306D01*
X80007732Y-22819306D01*
X79921759Y-22836407D01*
X79840775Y-22869952D01*
X79767890Y-22918652D01*
X79705907Y-22980635D01*
X79657207Y-23053520D01*
X79623662Y-23134504D01*
X79621470Y-23145524D01*
X79553188Y-23131942D01*
X79493900Y-23131942D01*
X79479449Y-23059293D01*
X79445904Y-22978309D01*
X79397204Y-22905424D01*
X79335221Y-22843441D01*
X79262336Y-22794741D01*
X79181352Y-22761196D01*
X79095379Y-22744095D01*
X79007721Y-22744095D01*
X78921748Y-22761196D01*
X78840764Y-22794741D01*
X78767879Y-22843441D01*
X78705896Y-22905424D01*
X78657196Y-22978309D01*
X78623651Y-23059293D01*
X78606550Y-23145266D01*
X78606550Y-23147868D01*
X78537830Y-23134199D01*
X78450172Y-23134199D01*
X78364199Y-23151300D01*
X78283215Y-23184845D01*
X78210330Y-23233545D01*
X78148347Y-23295528D01*
X78099647Y-23368413D01*
X78066102Y-23449397D01*
X78049001Y-23535370D01*
X78049001Y-23623028D01*
X78066102Y-23709001D01*
X78089936Y-23766542D01*
X78057000Y-23752899D01*
X77971027Y-23735798D01*
X77883369Y-23735798D01*
X77797396Y-23752899D01*
X77716412Y-23786444D01*
X77643527Y-23835144D01*
X77581544Y-23897127D01*
X77532844Y-23970012D01*
X77499299Y-24050996D01*
X77482198Y-24136969D01*
X77482198Y-24224627D01*
X77499299Y-24310600D01*
X77532844Y-24391584D01*
X77581544Y-24464469D01*
X77643527Y-24526452D01*
X77716412Y-24575152D01*
X77797396Y-24608697D01*
X77883369Y-24625798D01*
X77971027Y-24625798D01*
X78057000Y-24608697D01*
X78137984Y-24575152D01*
X78174432Y-24550798D01*
X78422340Y-24550798D01*
X78527100Y-24655558D01*
X78496772Y-24658545D01*
X78450589Y-24672555D01*
X78408027Y-24695305D01*
X78370721Y-24725921D01*
X78340105Y-24763227D01*
X78317355Y-24805789D01*
X78303345Y-24851972D01*
X78298615Y-24900000D01*
X78298615Y-25278489D01*
X78277672Y-25257546D01*
X78204787Y-25208846D01*
X78123803Y-25175301D01*
X78037830Y-25158200D01*
X77950172Y-25158200D01*
X77864199Y-25175301D01*
X77783215Y-25208846D01*
X77710330Y-25257546D01*
X77648347Y-25319529D01*
X77599647Y-25392414D01*
X77566102Y-25473398D01*
X77549001Y-25559371D01*
X77549001Y-25596308D01*
X77543345Y-25603200D01*
X77522033Y-25629169D01*
X77515406Y-25641567D01*
X77492318Y-25684761D01*
X77474020Y-25745081D01*
X77470400Y-25781843D01*
X77467842Y-25807811D01*
X77469390Y-25823524D01*
X77469390Y-25938308D01*
X77469391Y-25938318D01*
X77469390Y-27278472D01*
X77469390Y-27589662D01*
X76742985Y-28316067D01*
X76742985Y-27646363D01*
X76977763Y-27411586D01*
X76989968Y-27401570D01*
X76999987Y-27389362D01*
X77029956Y-27352844D01*
X77052906Y-27309908D01*
X77059671Y-27297252D01*
X77077969Y-27236932D01*
X77082599Y-27189919D01*
X77082599Y-27189915D01*
X77084147Y-27174202D01*
X77082599Y-27158489D01*
X77082599Y-25506758D01*
X77327984Y-25261374D01*
X77340189Y-25251358D01*
X77350208Y-25239150D01*
X77380177Y-25202632D01*
X77403540Y-25158923D01*
X77409892Y-25147040D01*
X77428190Y-25086720D01*
X77431644Y-25051648D01*
X77458474Y-25024818D01*
X77507174Y-24951933D01*
X77540719Y-24870949D01*
X77557820Y-24784976D01*
X77557820Y-24697318D01*
X77540719Y-24611345D01*
X77507174Y-24530361D01*
X77458474Y-24457476D01*
X77396491Y-24395493D01*
X77323606Y-24346793D01*
X77242622Y-24313248D01*
X77156649Y-24296147D01*
X77068991Y-24296147D01*
X76983018Y-24313248D01*
X76902034Y-24346793D01*
X76829149Y-24395493D01*
X76810664Y-24413978D01*
X76796495Y-24399809D01*
X76723610Y-24351109D01*
X76642626Y-24317564D01*
X76556653Y-24300463D01*
X76468995Y-24300463D01*
X76383022Y-24317564D01*
X76302038Y-24351109D01*
X76229153Y-24399809D01*
X76219490Y-24409472D01*
X76234158Y-24374061D01*
X76251259Y-24288088D01*
X76251259Y-24200430D01*
X76234158Y-24114457D01*
X76200613Y-24033473D01*
X76151913Y-23960588D01*
X76089930Y-23898605D01*
X76017045Y-23849905D01*
X75936061Y-23816360D01*
X75850088Y-23799259D01*
X75762430Y-23799259D01*
X75676457Y-23816360D01*
X75595473Y-23849905D01*
X75522588Y-23898605D01*
X75460605Y-23960588D01*
X75411905Y-24033473D01*
X75378360Y-24114457D01*
X75361259Y-24200430D01*
X75361259Y-24288088D01*
X75378360Y-24374061D01*
X75411905Y-24455045D01*
X75460605Y-24527930D01*
X75522588Y-24589913D01*
X75563992Y-24617578D01*
X75532663Y-24664466D01*
X75499118Y-24745450D01*
X75482017Y-24831423D01*
X75482017Y-24867704D01*
X74497444Y-25852278D01*
X74485233Y-25862299D01*
X74475213Y-25874509D01*
X74445244Y-25911026D01*
X74415530Y-25966617D01*
X74397232Y-26026937D01*
X74395390Y-26045641D01*
X74391053Y-26089668D01*
X74392602Y-26105391D01*
X74392601Y-26704051D01*
X73902838Y-27193815D01*
X73109200Y-27193815D01*
X73061172Y-27198545D01*
X73014989Y-27212555D01*
X72972427Y-27235305D01*
X72935121Y-27265921D01*
X72904505Y-27303227D01*
X72881755Y-27345789D01*
X72867745Y-27391972D01*
X72863015Y-27440000D01*
X72863015Y-28440000D01*
X72867745Y-28488028D01*
X72881755Y-28534211D01*
X72904505Y-28576773D01*
X72935121Y-28614079D01*
X72972427Y-28644695D01*
X73014989Y-28667445D01*
X73061172Y-28681455D01*
X73109200Y-28686185D01*
X73985267Y-28686185D01*
X73902837Y-28768615D01*
X73109200Y-28768615D01*
X73061172Y-28773345D01*
X73014989Y-28787355D01*
X72972427Y-28810105D01*
X72935121Y-28840721D01*
X72904505Y-28878027D01*
X72881755Y-28920589D01*
X72867745Y-28966772D01*
X72863015Y-29014800D01*
X72863015Y-30014800D01*
X72867745Y-30062828D01*
X72881755Y-30109011D01*
X72904505Y-30151573D01*
X72935121Y-30188879D01*
X72972427Y-30219495D01*
X73014989Y-30242245D01*
X73061172Y-30256255D01*
X73109200Y-30260985D01*
X74109200Y-30260985D01*
X74157228Y-30256255D01*
X74203411Y-30242245D01*
X74245973Y-30219495D01*
X74283279Y-30188879D01*
X74313895Y-30151573D01*
X74336645Y-30109011D01*
X74350655Y-30062828D01*
X74355385Y-30014800D01*
X74355385Y-29221163D01*
X75250615Y-28325934D01*
X75250615Y-28440000D01*
X75255345Y-28488028D01*
X75269355Y-28534211D01*
X75292105Y-28576773D01*
X75322721Y-28614079D01*
X75360027Y-28644695D01*
X75402589Y-28667445D01*
X75448772Y-28681455D01*
X75496800Y-28686185D01*
X76372868Y-28686185D01*
X76290438Y-28768615D01*
X75496800Y-28768615D01*
X75448772Y-28773345D01*
X75402589Y-28787355D01*
X75360027Y-28810105D01*
X75322721Y-28840721D01*
X75292105Y-28878027D01*
X75269355Y-28920589D01*
X75255345Y-28966772D01*
X75250615Y-29014800D01*
X75250615Y-30014800D01*
X75255345Y-30062828D01*
X75269355Y-30109011D01*
X75292105Y-30151573D01*
X75322721Y-30188879D01*
X75360027Y-30219495D01*
X75402589Y-30242245D01*
X75448772Y-30256255D01*
X75496800Y-30260985D01*
X76389466Y-30260985D01*
X76227062Y-30423389D01*
X72880333Y-30423389D01*
X72864620Y-30421841D01*
X72848907Y-30423389D01*
X72848903Y-30423389D01*
X72801890Y-30428019D01*
X72741570Y-30446317D01*
X72730267Y-30452359D01*
X72685978Y-30476032D01*
X72649460Y-30506001D01*
X72649457Y-30506004D01*
X72637252Y-30516020D01*
X72627235Y-30528226D01*
X72434715Y-30720747D01*
X72407765Y-30723401D01*
X72075309Y-30723401D01*
X72059596Y-30721853D01*
X72043883Y-30723401D01*
X72043879Y-30723401D01*
X71996866Y-30728031D01*
X71936546Y-30746329D01*
X71922096Y-30754053D01*
X71880953Y-30776044D01*
X71844436Y-30806013D01*
X71844433Y-30806016D01*
X71832228Y-30816032D01*
X71822211Y-30828238D01*
X71108573Y-31541877D01*
X71108876Y-31538800D01*
X71106200Y-31386050D01*
X70967950Y-31247800D01*
X70262200Y-31247800D01*
X70262200Y-31267800D01*
X69844200Y-31267800D01*
X69844200Y-31247800D01*
X69824200Y-31247800D01*
X69824200Y-30829800D01*
X69844200Y-30829800D01*
X69844200Y-30809800D01*
X70262200Y-30809800D01*
X70262200Y-30829800D01*
X70967950Y-30829800D01*
X71106200Y-30691550D01*
X71108876Y-30538800D01*
X71098199Y-30430393D01*
X71066578Y-30326152D01*
X71015228Y-30230083D01*
X70946122Y-30145878D01*
X70861917Y-30076772D01*
X70765848Y-30025422D01*
X70702330Y-30006154D01*
X70727279Y-29985679D01*
X70757895Y-29948373D01*
X70780645Y-29905811D01*
X70794655Y-29859628D01*
X70799385Y-29811600D01*
X70799385Y-28811600D01*
X70794655Y-28763572D01*
X70780645Y-28717389D01*
X70757895Y-28674827D01*
X70727279Y-28637521D01*
X70689973Y-28606905D01*
X70647411Y-28584155D01*
X70616652Y-28574824D01*
X70650754Y-28523786D01*
X70684299Y-28442802D01*
X70701400Y-28356829D01*
X70701400Y-28269171D01*
X70684299Y-28183198D01*
X70650754Y-28102214D01*
X70602054Y-28029329D01*
X70540071Y-27967346D01*
X70467186Y-27918646D01*
X70386202Y-27885101D01*
X70300229Y-27868000D01*
X70212571Y-27868000D01*
X70126598Y-27885101D01*
X70045614Y-27918646D01*
X69972729Y-27967346D01*
X69910746Y-28029329D01*
X69862046Y-28102214D01*
X69842643Y-28149056D01*
X69776602Y-28121701D01*
X69690629Y-28104600D01*
X69602971Y-28104600D01*
X69516998Y-28121701D01*
X69436014Y-28155246D01*
X69363129Y-28203946D01*
X69301146Y-28265929D01*
X69252446Y-28338814D01*
X69218901Y-28419798D01*
X69201800Y-28505771D01*
X69201800Y-28593429D01*
X69218901Y-28679402D01*
X69252446Y-28760386D01*
X69301146Y-28833271D01*
X69307015Y-28839140D01*
X69307015Y-29811600D01*
X69311745Y-29859628D01*
X69325755Y-29905811D01*
X69348505Y-29948373D01*
X69379121Y-29985679D01*
X69404070Y-30006154D01*
X69340552Y-30025422D01*
X69244483Y-30076772D01*
X69160278Y-30145878D01*
X69160000Y-30146217D01*
X69160000Y-24558411D01*
X71511363Y-24558411D01*
X71511363Y-24646069D01*
X71528464Y-24732042D01*
X71562009Y-24813026D01*
X71610709Y-24885911D01*
X71672692Y-24947894D01*
X71745577Y-24996594D01*
X71826561Y-25030139D01*
X71912534Y-25047240D01*
X72000192Y-25047240D01*
X72086165Y-25030139D01*
X72167149Y-24996594D01*
X72240034Y-24947894D01*
X72302017Y-24885911D01*
X72350717Y-24813026D01*
X72384262Y-24732042D01*
X72401363Y-24646069D01*
X72401363Y-24558411D01*
X72384262Y-24472438D01*
X72350717Y-24391454D01*
X72302017Y-24318569D01*
X72240034Y-24256586D01*
X72167149Y-24207886D01*
X72086165Y-24174341D01*
X72000192Y-24157240D01*
X71912534Y-24157240D01*
X71826561Y-24174341D01*
X71745577Y-24207886D01*
X71672692Y-24256586D01*
X71610709Y-24318569D01*
X71562009Y-24391454D01*
X71528464Y-24472438D01*
X71511363Y-24558411D01*
X69160000Y-24558411D01*
X69160000Y-23425771D01*
X76212200Y-23425771D01*
X76212200Y-23513429D01*
X76229301Y-23599402D01*
X76262846Y-23680386D01*
X76311546Y-23753271D01*
X76373529Y-23815254D01*
X76446414Y-23863954D01*
X76527398Y-23897499D01*
X76613371Y-23914600D01*
X76701029Y-23914600D01*
X76787002Y-23897499D01*
X76867986Y-23863954D01*
X76940871Y-23815254D01*
X77002854Y-23753271D01*
X77051554Y-23680386D01*
X77085099Y-23599402D01*
X77102200Y-23513429D01*
X77102200Y-23425771D01*
X77085099Y-23339798D01*
X77051554Y-23258814D01*
X77002854Y-23185929D01*
X76940871Y-23123946D01*
X76867986Y-23075246D01*
X76787002Y-23041701D01*
X76701029Y-23024600D01*
X76613371Y-23024600D01*
X76527398Y-23041701D01*
X76446414Y-23075246D01*
X76373529Y-23123946D01*
X76311546Y-23185929D01*
X76262846Y-23258814D01*
X76229301Y-23339798D01*
X76212200Y-23425771D01*
X69160000Y-23425771D01*
X69160000Y-21533400D01*
X75031600Y-21533400D01*
X75040379Y-21532535D01*
X75048821Y-21529975D01*
X75056601Y-21525816D01*
X75063420Y-21520220D01*
X75069016Y-21513401D01*
X75073175Y-21505621D01*
X75075735Y-21497179D01*
X75076598Y-21488825D01*
X75077130Y-21432400D01*
X76697343Y-21432400D01*
X76697343Y-21520058D01*
X76714444Y-21606031D01*
X76747989Y-21687015D01*
X76796689Y-21759900D01*
X76858672Y-21821883D01*
X76931557Y-21870583D01*
X77012541Y-21904128D01*
X77098514Y-21921229D01*
X77186172Y-21921229D01*
X77272145Y-21904128D01*
X77353129Y-21870583D01*
X77426014Y-21821883D01*
X77487997Y-21759900D01*
X77536697Y-21687015D01*
X77570242Y-21606031D01*
X77587343Y-21520058D01*
X77587343Y-21432400D01*
X77570242Y-21346427D01*
X77536697Y-21265443D01*
X77487997Y-21192558D01*
X77426014Y-21130575D01*
X77353129Y-21081875D01*
X77272145Y-21048330D01*
X77186172Y-21031229D01*
X77098514Y-21031229D01*
X77012541Y-21048330D01*
X76931557Y-21081875D01*
X76858672Y-21130575D01*
X76796689Y-21192558D01*
X76747989Y-21265443D01*
X76714444Y-21346427D01*
X76697343Y-21432400D01*
X75077130Y-21432400D01*
X75083245Y-20784171D01*
X75501000Y-20784171D01*
X75501000Y-20871829D01*
X75518101Y-20957802D01*
X75551646Y-21038786D01*
X75600346Y-21111671D01*
X75662329Y-21173654D01*
X75735214Y-21222354D01*
X75816198Y-21255899D01*
X75902171Y-21273000D01*
X75989829Y-21273000D01*
X76075802Y-21255899D01*
X76156786Y-21222354D01*
X76229671Y-21173654D01*
X76291654Y-21111671D01*
X76340354Y-21038786D01*
X76373899Y-20957802D01*
X76391000Y-20871829D01*
X76391000Y-20784171D01*
X76373899Y-20698198D01*
X76340354Y-20617214D01*
X76291654Y-20544329D01*
X76229671Y-20482346D01*
X76156786Y-20433646D01*
X76075802Y-20400101D01*
X75989829Y-20383000D01*
X75902171Y-20383000D01*
X75816198Y-20400101D01*
X75735214Y-20433646D01*
X75662329Y-20482346D01*
X75600346Y-20544329D01*
X75551646Y-20617214D01*
X75518101Y-20698198D01*
X75501000Y-20784171D01*
X75083245Y-20784171D01*
X75098568Y-19160000D01*
X80062016Y-19160000D01*
X80053214Y-19163646D01*
%TA.AperFunction,Conductor*%
D20*
G36*
X80053214Y-19163646D02*
G01*
X79980329Y-19212346D01*
X79918346Y-19274329D01*
X79869646Y-19347214D01*
X79836101Y-19428198D01*
X79819000Y-19514171D01*
X79819000Y-19601829D01*
X79836101Y-19687802D01*
X79869646Y-19768786D01*
X79918346Y-19841671D01*
X79971906Y-19895231D01*
X79929529Y-19923546D01*
X79867546Y-19985529D01*
X79818846Y-20058414D01*
X79785301Y-20139398D01*
X79768200Y-20225371D01*
X79768200Y-20313029D01*
X79785301Y-20399002D01*
X79818846Y-20479986D01*
X79867546Y-20552871D01*
X79929529Y-20614854D01*
X80002414Y-20663554D01*
X80083398Y-20697099D01*
X80169371Y-20714200D01*
X80205652Y-20714200D01*
X80206562Y-20715110D01*
X80206563Y-22846845D01*
X80181363Y-22836407D01*
X80095390Y-22819306D01*
X80007732Y-22819306D01*
X79921759Y-22836407D01*
X79840775Y-22869952D01*
X79767890Y-22918652D01*
X79705907Y-22980635D01*
X79657207Y-23053520D01*
X79623662Y-23134504D01*
X79621470Y-23145524D01*
X79553188Y-23131942D01*
X79493900Y-23131942D01*
X79479449Y-23059293D01*
X79445904Y-22978309D01*
X79397204Y-22905424D01*
X79335221Y-22843441D01*
X79262336Y-22794741D01*
X79181352Y-22761196D01*
X79095379Y-22744095D01*
X79007721Y-22744095D01*
X78921748Y-22761196D01*
X78840764Y-22794741D01*
X78767879Y-22843441D01*
X78705896Y-22905424D01*
X78657196Y-22978309D01*
X78623651Y-23059293D01*
X78606550Y-23145266D01*
X78606550Y-23147868D01*
X78537830Y-23134199D01*
X78450172Y-23134199D01*
X78364199Y-23151300D01*
X78283215Y-23184845D01*
X78210330Y-23233545D01*
X78148347Y-23295528D01*
X78099647Y-23368413D01*
X78066102Y-23449397D01*
X78049001Y-23535370D01*
X78049001Y-23623028D01*
X78066102Y-23709001D01*
X78089936Y-23766542D01*
X78057000Y-23752899D01*
X77971027Y-23735798D01*
X77883369Y-23735798D01*
X77797396Y-23752899D01*
X77716412Y-23786444D01*
X77643527Y-23835144D01*
X77581544Y-23897127D01*
X77532844Y-23970012D01*
X77499299Y-24050996D01*
X77482198Y-24136969D01*
X77482198Y-24224627D01*
X77499299Y-24310600D01*
X77532844Y-24391584D01*
X77581544Y-24464469D01*
X77643527Y-24526452D01*
X77716412Y-24575152D01*
X77797396Y-24608697D01*
X77883369Y-24625798D01*
X77971027Y-24625798D01*
X78057000Y-24608697D01*
X78137984Y-24575152D01*
X78174432Y-24550798D01*
X78422340Y-24550798D01*
X78527100Y-24655558D01*
X78496772Y-24658545D01*
X78450589Y-24672555D01*
X78408027Y-24695305D01*
X78370721Y-24725921D01*
X78340105Y-24763227D01*
X78317355Y-24805789D01*
X78303345Y-24851972D01*
X78298615Y-24900000D01*
X78298615Y-25278489D01*
X78277672Y-25257546D01*
X78204787Y-25208846D01*
X78123803Y-25175301D01*
X78037830Y-25158200D01*
X77950172Y-25158200D01*
X77864199Y-25175301D01*
X77783215Y-25208846D01*
X77710330Y-25257546D01*
X77648347Y-25319529D01*
X77599647Y-25392414D01*
X77566102Y-25473398D01*
X77549001Y-25559371D01*
X77549001Y-25596308D01*
X77543345Y-25603200D01*
X77522033Y-25629169D01*
X77515406Y-25641567D01*
X77492318Y-25684761D01*
X77474020Y-25745081D01*
X77470400Y-25781843D01*
X77467842Y-25807811D01*
X77469390Y-25823524D01*
X77469390Y-25938308D01*
X77469391Y-25938318D01*
X77469390Y-27278472D01*
X77469390Y-27589662D01*
X76742985Y-28316067D01*
X76742985Y-27646363D01*
X76977763Y-27411586D01*
X76989968Y-27401570D01*
X76999987Y-27389362D01*
X77029956Y-27352844D01*
X77052906Y-27309908D01*
X77059671Y-27297252D01*
X77077969Y-27236932D01*
X77082599Y-27189919D01*
X77082599Y-27189915D01*
X77084147Y-27174202D01*
X77082599Y-27158489D01*
X77082599Y-25506758D01*
X77327984Y-25261374D01*
X77340189Y-25251358D01*
X77350208Y-25239150D01*
X77380177Y-25202632D01*
X77403540Y-25158923D01*
X77409892Y-25147040D01*
X77428190Y-25086720D01*
X77431644Y-25051648D01*
X77458474Y-25024818D01*
X77507174Y-24951933D01*
X77540719Y-24870949D01*
X77557820Y-24784976D01*
X77557820Y-24697318D01*
X77540719Y-24611345D01*
X77507174Y-24530361D01*
X77458474Y-24457476D01*
X77396491Y-24395493D01*
X77323606Y-24346793D01*
X77242622Y-24313248D01*
X77156649Y-24296147D01*
X77068991Y-24296147D01*
X76983018Y-24313248D01*
X76902034Y-24346793D01*
X76829149Y-24395493D01*
X76810664Y-24413978D01*
X76796495Y-24399809D01*
X76723610Y-24351109D01*
X76642626Y-24317564D01*
X76556653Y-24300463D01*
X76468995Y-24300463D01*
X76383022Y-24317564D01*
X76302038Y-24351109D01*
X76229153Y-24399809D01*
X76219490Y-24409472D01*
X76234158Y-24374061D01*
X76251259Y-24288088D01*
X76251259Y-24200430D01*
X76234158Y-24114457D01*
X76200613Y-24033473D01*
X76151913Y-23960588D01*
X76089930Y-23898605D01*
X76017045Y-23849905D01*
X75936061Y-23816360D01*
X75850088Y-23799259D01*
X75762430Y-23799259D01*
X75676457Y-23816360D01*
X75595473Y-23849905D01*
X75522588Y-23898605D01*
X75460605Y-23960588D01*
X75411905Y-24033473D01*
X75378360Y-24114457D01*
X75361259Y-24200430D01*
X75361259Y-24288088D01*
X75378360Y-24374061D01*
X75411905Y-24455045D01*
X75460605Y-24527930D01*
X75522588Y-24589913D01*
X75563992Y-24617578D01*
X75532663Y-24664466D01*
X75499118Y-24745450D01*
X75482017Y-24831423D01*
X75482017Y-24867704D01*
X74497444Y-25852278D01*
X74485233Y-25862299D01*
X74475213Y-25874509D01*
X74445244Y-25911026D01*
X74415530Y-25966617D01*
X74397232Y-26026937D01*
X74395390Y-26045641D01*
X74391053Y-26089668D01*
X74392602Y-26105391D01*
X74392601Y-26704051D01*
X73902838Y-27193815D01*
X73109200Y-27193815D01*
X73061172Y-27198545D01*
X73014989Y-27212555D01*
X72972427Y-27235305D01*
X72935121Y-27265921D01*
X72904505Y-27303227D01*
X72881755Y-27345789D01*
X72867745Y-27391972D01*
X72863015Y-27440000D01*
X72863015Y-28440000D01*
X72867745Y-28488028D01*
X72881755Y-28534211D01*
X72904505Y-28576773D01*
X72935121Y-28614079D01*
X72972427Y-28644695D01*
X73014989Y-28667445D01*
X73061172Y-28681455D01*
X73109200Y-28686185D01*
X73985267Y-28686185D01*
X73902837Y-28768615D01*
X73109200Y-28768615D01*
X73061172Y-28773345D01*
X73014989Y-28787355D01*
X72972427Y-28810105D01*
X72935121Y-28840721D01*
X72904505Y-28878027D01*
X72881755Y-28920589D01*
X72867745Y-28966772D01*
X72863015Y-29014800D01*
X72863015Y-30014800D01*
X72867745Y-30062828D01*
X72881755Y-30109011D01*
X72904505Y-30151573D01*
X72935121Y-30188879D01*
X72972427Y-30219495D01*
X73014989Y-30242245D01*
X73061172Y-30256255D01*
X73109200Y-30260985D01*
X74109200Y-30260985D01*
X74157228Y-30256255D01*
X74203411Y-30242245D01*
X74245973Y-30219495D01*
X74283279Y-30188879D01*
X74313895Y-30151573D01*
X74336645Y-30109011D01*
X74350655Y-30062828D01*
X74355385Y-30014800D01*
X74355385Y-29221163D01*
X75250615Y-28325934D01*
X75250615Y-28440000D01*
X75255345Y-28488028D01*
X75269355Y-28534211D01*
X75292105Y-28576773D01*
X75322721Y-28614079D01*
X75360027Y-28644695D01*
X75402589Y-28667445D01*
X75448772Y-28681455D01*
X75496800Y-28686185D01*
X76372868Y-28686185D01*
X76290438Y-28768615D01*
X75496800Y-28768615D01*
X75448772Y-28773345D01*
X75402589Y-28787355D01*
X75360027Y-28810105D01*
X75322721Y-28840721D01*
X75292105Y-28878027D01*
X75269355Y-28920589D01*
X75255345Y-28966772D01*
X75250615Y-29014800D01*
X75250615Y-30014800D01*
X75255345Y-30062828D01*
X75269355Y-30109011D01*
X75292105Y-30151573D01*
X75322721Y-30188879D01*
X75360027Y-30219495D01*
X75402589Y-30242245D01*
X75448772Y-30256255D01*
X75496800Y-30260985D01*
X76389466Y-30260985D01*
X76227062Y-30423389D01*
X72880333Y-30423389D01*
X72864620Y-30421841D01*
X72848907Y-30423389D01*
X72848903Y-30423389D01*
X72801890Y-30428019D01*
X72741570Y-30446317D01*
X72730267Y-30452359D01*
X72685978Y-30476032D01*
X72649460Y-30506001D01*
X72649457Y-30506004D01*
X72637252Y-30516020D01*
X72627235Y-30528226D01*
X72434715Y-30720747D01*
X72407765Y-30723401D01*
X72075309Y-30723401D01*
X72059596Y-30721853D01*
X72043883Y-30723401D01*
X72043879Y-30723401D01*
X71996866Y-30728031D01*
X71936546Y-30746329D01*
X71922096Y-30754053D01*
X71880953Y-30776044D01*
X71844436Y-30806013D01*
X71844433Y-30806016D01*
X71832228Y-30816032D01*
X71822211Y-30828238D01*
X71108573Y-31541877D01*
X71108876Y-31538800D01*
X71106200Y-31386050D01*
X70967950Y-31247800D01*
X70262200Y-31247800D01*
X70262200Y-31267800D01*
X69844200Y-31267800D01*
X69844200Y-31247800D01*
X69824200Y-31247800D01*
X69824200Y-30829800D01*
X69844200Y-30829800D01*
X69844200Y-30809800D01*
X70262200Y-30809800D01*
X70262200Y-30829800D01*
X70967950Y-30829800D01*
X71106200Y-30691550D01*
X71108876Y-30538800D01*
X71098199Y-30430393D01*
X71066578Y-30326152D01*
X71015228Y-30230083D01*
X70946122Y-30145878D01*
X70861917Y-30076772D01*
X70765848Y-30025422D01*
X70702330Y-30006154D01*
X70727279Y-29985679D01*
X70757895Y-29948373D01*
X70780645Y-29905811D01*
X70794655Y-29859628D01*
X70799385Y-29811600D01*
X70799385Y-28811600D01*
X70794655Y-28763572D01*
X70780645Y-28717389D01*
X70757895Y-28674827D01*
X70727279Y-28637521D01*
X70689973Y-28606905D01*
X70647411Y-28584155D01*
X70616652Y-28574824D01*
X70650754Y-28523786D01*
X70684299Y-28442802D01*
X70701400Y-28356829D01*
X70701400Y-28269171D01*
X70684299Y-28183198D01*
X70650754Y-28102214D01*
X70602054Y-28029329D01*
X70540071Y-27967346D01*
X70467186Y-27918646D01*
X70386202Y-27885101D01*
X70300229Y-27868000D01*
X70212571Y-27868000D01*
X70126598Y-27885101D01*
X70045614Y-27918646D01*
X69972729Y-27967346D01*
X69910746Y-28029329D01*
X69862046Y-28102214D01*
X69842643Y-28149056D01*
X69776602Y-28121701D01*
X69690629Y-28104600D01*
X69602971Y-28104600D01*
X69516998Y-28121701D01*
X69436014Y-28155246D01*
X69363129Y-28203946D01*
X69301146Y-28265929D01*
X69252446Y-28338814D01*
X69218901Y-28419798D01*
X69201800Y-28505771D01*
X69201800Y-28593429D01*
X69218901Y-28679402D01*
X69252446Y-28760386D01*
X69301146Y-28833271D01*
X69307015Y-28839140D01*
X69307015Y-29811600D01*
X69311745Y-29859628D01*
X69325755Y-29905811D01*
X69348505Y-29948373D01*
X69379121Y-29985679D01*
X69404070Y-30006154D01*
X69340552Y-30025422D01*
X69244483Y-30076772D01*
X69160278Y-30145878D01*
X69160000Y-30146217D01*
X69160000Y-24558411D01*
X71511363Y-24558411D01*
X71511363Y-24646069D01*
X71528464Y-24732042D01*
X71562009Y-24813026D01*
X71610709Y-24885911D01*
X71672692Y-24947894D01*
X71745577Y-24996594D01*
X71826561Y-25030139D01*
X71912534Y-25047240D01*
X72000192Y-25047240D01*
X72086165Y-25030139D01*
X72167149Y-24996594D01*
X72240034Y-24947894D01*
X72302017Y-24885911D01*
X72350717Y-24813026D01*
X72384262Y-24732042D01*
X72401363Y-24646069D01*
X72401363Y-24558411D01*
X72384262Y-24472438D01*
X72350717Y-24391454D01*
X72302017Y-24318569D01*
X72240034Y-24256586D01*
X72167149Y-24207886D01*
X72086165Y-24174341D01*
X72000192Y-24157240D01*
X71912534Y-24157240D01*
X71826561Y-24174341D01*
X71745577Y-24207886D01*
X71672692Y-24256586D01*
X71610709Y-24318569D01*
X71562009Y-24391454D01*
X71528464Y-24472438D01*
X71511363Y-24558411D01*
X69160000Y-24558411D01*
X69160000Y-23425771D01*
X76212200Y-23425771D01*
X76212200Y-23513429D01*
X76229301Y-23599402D01*
X76262846Y-23680386D01*
X76311546Y-23753271D01*
X76373529Y-23815254D01*
X76446414Y-23863954D01*
X76527398Y-23897499D01*
X76613371Y-23914600D01*
X76701029Y-23914600D01*
X76787002Y-23897499D01*
X76867986Y-23863954D01*
X76940871Y-23815254D01*
X77002854Y-23753271D01*
X77051554Y-23680386D01*
X77085099Y-23599402D01*
X77102200Y-23513429D01*
X77102200Y-23425771D01*
X77085099Y-23339798D01*
X77051554Y-23258814D01*
X77002854Y-23185929D01*
X76940871Y-23123946D01*
X76867986Y-23075246D01*
X76787002Y-23041701D01*
X76701029Y-23024600D01*
X76613371Y-23024600D01*
X76527398Y-23041701D01*
X76446414Y-23075246D01*
X76373529Y-23123946D01*
X76311546Y-23185929D01*
X76262846Y-23258814D01*
X76229301Y-23339798D01*
X76212200Y-23425771D01*
X69160000Y-23425771D01*
X69160000Y-21533400D01*
X75031600Y-21533400D01*
X75040379Y-21532535D01*
X75048821Y-21529975D01*
X75056601Y-21525816D01*
X75063420Y-21520220D01*
X75069016Y-21513401D01*
X75073175Y-21505621D01*
X75075735Y-21497179D01*
X75076598Y-21488825D01*
X75077130Y-21432400D01*
X76697343Y-21432400D01*
X76697343Y-21520058D01*
X76714444Y-21606031D01*
X76747989Y-21687015D01*
X76796689Y-21759900D01*
X76858672Y-21821883D01*
X76931557Y-21870583D01*
X77012541Y-21904128D01*
X77098514Y-21921229D01*
X77186172Y-21921229D01*
X77272145Y-21904128D01*
X77353129Y-21870583D01*
X77426014Y-21821883D01*
X77487997Y-21759900D01*
X77536697Y-21687015D01*
X77570242Y-21606031D01*
X77587343Y-21520058D01*
X77587343Y-21432400D01*
X77570242Y-21346427D01*
X77536697Y-21265443D01*
X77487997Y-21192558D01*
X77426014Y-21130575D01*
X77353129Y-21081875D01*
X77272145Y-21048330D01*
X77186172Y-21031229D01*
X77098514Y-21031229D01*
X77012541Y-21048330D01*
X76931557Y-21081875D01*
X76858672Y-21130575D01*
X76796689Y-21192558D01*
X76747989Y-21265443D01*
X76714444Y-21346427D01*
X76697343Y-21432400D01*
X75077130Y-21432400D01*
X75083245Y-20784171D01*
X75501000Y-20784171D01*
X75501000Y-20871829D01*
X75518101Y-20957802D01*
X75551646Y-21038786D01*
X75600346Y-21111671D01*
X75662329Y-21173654D01*
X75735214Y-21222354D01*
X75816198Y-21255899D01*
X75902171Y-21273000D01*
X75989829Y-21273000D01*
X76075802Y-21255899D01*
X76156786Y-21222354D01*
X76229671Y-21173654D01*
X76291654Y-21111671D01*
X76340354Y-21038786D01*
X76373899Y-20957802D01*
X76391000Y-20871829D01*
X76391000Y-20784171D01*
X76373899Y-20698198D01*
X76340354Y-20617214D01*
X76291654Y-20544329D01*
X76229671Y-20482346D01*
X76156786Y-20433646D01*
X76075802Y-20400101D01*
X75989829Y-20383000D01*
X75902171Y-20383000D01*
X75816198Y-20400101D01*
X75735214Y-20433646D01*
X75662329Y-20482346D01*
X75600346Y-20544329D01*
X75551646Y-20617214D01*
X75518101Y-20698198D01*
X75501000Y-20784171D01*
X75083245Y-20784171D01*
X75098568Y-19160000D01*
X80062016Y-19160000D01*
X80053214Y-19163646D01*
G37*
%TD.AperFunction*%
D19*
X77818215Y-28327000D02*
X77825539Y-28401366D01*
X77836672Y-28438065D01*
X77786183Y-28460989D01*
X77697689Y-28524509D01*
X77623286Y-28604073D01*
X77565836Y-28696623D01*
X77527545Y-28798603D01*
X77511400Y-28864750D01*
X77649650Y-29003000D01*
X78175400Y-29003000D01*
X78175400Y-28983000D01*
X78593400Y-28983000D01*
X78593400Y-29003000D01*
X78613400Y-29003000D01*
X78613400Y-29421000D01*
X78593400Y-29421000D01*
X78593400Y-29441000D01*
X78175400Y-29441000D01*
X78175400Y-29421000D01*
X77649650Y-29421000D01*
X77511400Y-29559250D01*
X77527545Y-29625397D01*
X77565836Y-29727377D01*
X77594404Y-29773399D01*
X77025315Y-29773399D01*
X77009599Y-29771851D01*
X76993883Y-29773399D01*
X76993881Y-29773399D01*
X76946868Y-29778029D01*
X76900586Y-29792068D01*
X76886547Y-29796327D01*
X76830956Y-29826041D01*
X76800507Y-29851031D01*
X76782230Y-29866030D01*
X76772209Y-29878241D01*
X76742985Y-29907465D01*
X76742985Y-29221162D01*
X77818215Y-28145933D01*
X77818215Y-28327000D01*
%TA.AperFunction,Conductor*%
D20*
G36*
X77818215Y-28327000D02*
G01*
X77825539Y-28401366D01*
X77836672Y-28438065D01*
X77786183Y-28460989D01*
X77697689Y-28524509D01*
X77623286Y-28604073D01*
X77565836Y-28696623D01*
X77527545Y-28798603D01*
X77511400Y-28864750D01*
X77649650Y-29003000D01*
X78175400Y-29003000D01*
X78175400Y-28983000D01*
X78593400Y-28983000D01*
X78593400Y-29003000D01*
X78613400Y-29003000D01*
X78613400Y-29421000D01*
X78593400Y-29421000D01*
X78593400Y-29441000D01*
X78175400Y-29441000D01*
X78175400Y-29421000D01*
X77649650Y-29421000D01*
X77511400Y-29559250D01*
X77527545Y-29625397D01*
X77565836Y-29727377D01*
X77594404Y-29773399D01*
X77025315Y-29773399D01*
X77009599Y-29771851D01*
X76993883Y-29773399D01*
X76993881Y-29773399D01*
X76946868Y-29778029D01*
X76900586Y-29792068D01*
X76886547Y-29796327D01*
X76830956Y-29826041D01*
X76800507Y-29851031D01*
X76782230Y-29866030D01*
X76772209Y-29878241D01*
X76742985Y-29907465D01*
X76742985Y-29221162D01*
X77818215Y-28145933D01*
X77818215Y-28327000D01*
G37*
%TD.AperFunction*%
D19*
X75442599Y-26619253D02*
X75006642Y-27055211D01*
X74994431Y-27065232D01*
X74984411Y-27077442D01*
X74954442Y-27113959D01*
X74930823Y-27158147D01*
X74924728Y-27169550D01*
X74906430Y-27229870D01*
X74903253Y-27262125D01*
X74900251Y-27292601D01*
X74901800Y-27308324D01*
X74901799Y-27769652D01*
X74355385Y-28316067D01*
X74355385Y-27646362D01*
X74927760Y-27073988D01*
X74939970Y-27063968D01*
X74954969Y-27045691D01*
X74979959Y-27015242D01*
X75009673Y-26959651D01*
X75013932Y-26945612D01*
X75027971Y-26899330D01*
X75032601Y-26852317D01*
X75032601Y-26852315D01*
X75034149Y-26836599D01*
X75032601Y-26820883D01*
X75032601Y-26222215D01*
X75442600Y-25812216D01*
X75442599Y-26619253D01*
%TA.AperFunction,Conductor*%
D20*
G36*
X75442599Y-26619253D02*
G01*
X75006642Y-27055211D01*
X74994431Y-27065232D01*
X74984411Y-27077442D01*
X74954442Y-27113959D01*
X74930823Y-27158147D01*
X74924728Y-27169550D01*
X74906430Y-27229870D01*
X74903253Y-27262125D01*
X74900251Y-27292601D01*
X74901800Y-27308324D01*
X74901799Y-27769652D01*
X74355385Y-28316067D01*
X74355385Y-27646362D01*
X74927760Y-27073988D01*
X74939970Y-27063968D01*
X74954969Y-27045691D01*
X74979959Y-27015242D01*
X75009673Y-26959651D01*
X75013932Y-26945612D01*
X75027971Y-26899330D01*
X75032601Y-26852317D01*
X75032601Y-26852315D01*
X75034149Y-26836599D01*
X75032601Y-26820883D01*
X75032601Y-26222215D01*
X75442600Y-25812216D01*
X75442599Y-26619253D01*
G37*
%TD.AperFunction*%
D19*
X76442599Y-27041652D02*
X76290437Y-27193815D01*
X75773133Y-27193815D01*
X75977758Y-26989190D01*
X75989968Y-26979170D01*
X76009175Y-26955766D01*
X76029956Y-26930444D01*
X76059671Y-26874853D01*
X76066507Y-26852316D01*
X76077969Y-26814532D01*
X76082599Y-26767519D01*
X76082599Y-26767517D01*
X76084147Y-26751801D01*
X76082599Y-26736085D01*
X76082599Y-25911077D01*
X76442600Y-25551077D01*
X76442599Y-27041652D01*
%TA.AperFunction,Conductor*%
D20*
G36*
X76442599Y-27041652D02*
G01*
X76290437Y-27193815D01*
X75773133Y-27193815D01*
X75977758Y-26989190D01*
X75989968Y-26979170D01*
X76009175Y-26955766D01*
X76029956Y-26930444D01*
X76059671Y-26874853D01*
X76066507Y-26852316D01*
X76077969Y-26814532D01*
X76082599Y-26767519D01*
X76082599Y-26767517D01*
X76084147Y-26751801D01*
X76082599Y-26736085D01*
X76082599Y-25911077D01*
X76442600Y-25551077D01*
X76442599Y-27041652D01*
G37*
%TD.AperFunction*%
D19*
X79007721Y-23634095D02*
X79067009Y-23634095D01*
X79081460Y-23706744D01*
X79115005Y-23787728D01*
X79163705Y-23860613D01*
X79225688Y-23922596D01*
X79298573Y-23971296D01*
X79379557Y-24004841D01*
X79465530Y-24021942D01*
X79553188Y-24021942D01*
X79639161Y-24004841D01*
X79720145Y-23971296D01*
X79793030Y-23922596D01*
X79855013Y-23860613D01*
X79903713Y-23787728D01*
X79937258Y-23706744D01*
X79939450Y-23695724D01*
X80007732Y-23709306D01*
X80094860Y-23709306D01*
X80090100Y-23720798D01*
X80072999Y-23806771D01*
X80072999Y-23894429D01*
X80090100Y-23980402D01*
X80123645Y-24061386D01*
X80172345Y-24134271D01*
X80234328Y-24196254D01*
X80307213Y-24244954D01*
X80388197Y-24278499D01*
X80474170Y-24295600D01*
X80561828Y-24295600D01*
X80647801Y-24278499D01*
X80728785Y-24244954D01*
X80801670Y-24196254D01*
X80840000Y-24157924D01*
X80840000Y-25125212D01*
X80801670Y-25086882D01*
X80728785Y-25038182D01*
X80647801Y-25004637D01*
X80561828Y-24987536D01*
X80474170Y-24987536D01*
X80388197Y-25004637D01*
X80307213Y-25038182D01*
X80234328Y-25086882D01*
X80172345Y-25148865D01*
X80123645Y-25221750D01*
X80090100Y-25302734D01*
X80072999Y-25388707D01*
X80072999Y-25476365D01*
X80090100Y-25562338D01*
X80123645Y-25643322D01*
X80172345Y-25716207D01*
X80234328Y-25778190D01*
X80307213Y-25826890D01*
X80388197Y-25860435D01*
X80474170Y-25877536D01*
X80561828Y-25877536D01*
X80647801Y-25860435D01*
X80728785Y-25826890D01*
X80801670Y-25778190D01*
X80840000Y-25739860D01*
X80840000Y-26669875D01*
X80837873Y-26667283D01*
X80823759Y-26655700D01*
X79790985Y-25622927D01*
X79790985Y-24900000D01*
X79786255Y-24851972D01*
X79772245Y-24805789D01*
X79749495Y-24763227D01*
X79718879Y-24725921D01*
X79681573Y-24695305D01*
X79639011Y-24672555D01*
X79592828Y-24658545D01*
X79544800Y-24653815D01*
X79416213Y-24653815D01*
X79416589Y-24650000D01*
X79414800Y-24631836D01*
X79414800Y-24631826D01*
X79409446Y-24577467D01*
X79388289Y-24507722D01*
X79353932Y-24443445D01*
X79307695Y-24387105D01*
X79293580Y-24375521D01*
X78850081Y-23932023D01*
X78838493Y-23917903D01*
X78808905Y-23893620D01*
X78839655Y-23862870D01*
X78888355Y-23789985D01*
X78921900Y-23709001D01*
X78939001Y-23623028D01*
X78939001Y-23620426D01*
X79007721Y-23634095D01*
%TA.AperFunction,Conductor*%
D20*
G36*
X79007721Y-23634095D02*
G01*
X79067009Y-23634095D01*
X79081460Y-23706744D01*
X79115005Y-23787728D01*
X79163705Y-23860613D01*
X79225688Y-23922596D01*
X79298573Y-23971296D01*
X79379557Y-24004841D01*
X79465530Y-24021942D01*
X79553188Y-24021942D01*
X79639161Y-24004841D01*
X79720145Y-23971296D01*
X79793030Y-23922596D01*
X79855013Y-23860613D01*
X79903713Y-23787728D01*
X79937258Y-23706744D01*
X79939450Y-23695724D01*
X80007732Y-23709306D01*
X80094860Y-23709306D01*
X80090100Y-23720798D01*
X80072999Y-23806771D01*
X80072999Y-23894429D01*
X80090100Y-23980402D01*
X80123645Y-24061386D01*
X80172345Y-24134271D01*
X80234328Y-24196254D01*
X80307213Y-24244954D01*
X80388197Y-24278499D01*
X80474170Y-24295600D01*
X80561828Y-24295600D01*
X80647801Y-24278499D01*
X80728785Y-24244954D01*
X80801670Y-24196254D01*
X80840000Y-24157924D01*
X80840000Y-25125212D01*
X80801670Y-25086882D01*
X80728785Y-25038182D01*
X80647801Y-25004637D01*
X80561828Y-24987536D01*
X80474170Y-24987536D01*
X80388197Y-25004637D01*
X80307213Y-25038182D01*
X80234328Y-25086882D01*
X80172345Y-25148865D01*
X80123645Y-25221750D01*
X80090100Y-25302734D01*
X80072999Y-25388707D01*
X80072999Y-25476365D01*
X80090100Y-25562338D01*
X80123645Y-25643322D01*
X80172345Y-25716207D01*
X80234328Y-25778190D01*
X80307213Y-25826890D01*
X80388197Y-25860435D01*
X80474170Y-25877536D01*
X80561828Y-25877536D01*
X80647801Y-25860435D01*
X80728785Y-25826890D01*
X80801670Y-25778190D01*
X80840000Y-25739860D01*
X80840000Y-26669875D01*
X80837873Y-26667283D01*
X80823759Y-26655700D01*
X79790985Y-25622927D01*
X79790985Y-24900000D01*
X79786255Y-24851972D01*
X79772245Y-24805789D01*
X79749495Y-24763227D01*
X79718879Y-24725921D01*
X79681573Y-24695305D01*
X79639011Y-24672555D01*
X79592828Y-24658545D01*
X79544800Y-24653815D01*
X79416213Y-24653815D01*
X79416589Y-24650000D01*
X79414800Y-24631836D01*
X79414800Y-24631826D01*
X79409446Y-24577467D01*
X79388289Y-24507722D01*
X79353932Y-24443445D01*
X79307695Y-24387105D01*
X79293580Y-24375521D01*
X78850081Y-23932023D01*
X78838493Y-23917903D01*
X78808905Y-23893620D01*
X78839655Y-23862870D01*
X78888355Y-23789985D01*
X78921900Y-23709001D01*
X78939001Y-23623028D01*
X78939001Y-23620426D01*
X79007721Y-23634095D01*
G37*
%TD.AperFunction*%
%TD*%
D19*
%TO.N,/RAD_PLANE*%
X74224600Y-19767000D02*
X69160000Y-19767000D01*
X69160000Y-19160000D01*
X74224600Y-19160000D01*
X74224600Y-19767000D01*
%TA.AperFunction,Conductor*%
D20*
G36*
X74224600Y-19767000D02*
G01*
X69160000Y-19767000D01*
X69160000Y-19160000D01*
X74224600Y-19160000D01*
X74224600Y-19767000D01*
G37*
%TD.AperFunction*%
%TD*%
M02*
