%TF.GenerationSoftware,KiCad,Pcbnew,5.1.9-73d0e3b20d~88~ubuntu20.04.1*%
%TF.CreationDate,2022-04-15T22:34:28-04:00*%
%TF.ProjectId,ring,72696e67-2e6b-4696-9361-645f70636258,rev?*%
%TF.SameCoordinates,Original*%
%TF.FileFunction,Copper,L1,Top*%
%TF.FilePolarity,Positive*%
%FSLAX46Y46*%
G04 Gerber Fmt 4.6, Leading zero omitted, Abs format (unit mm)*
G04 Created by KiCad (PCBNEW 5.1.9-73d0e3b20d~88~ubuntu20.04.1) date 2022-04-15 22:34:28*
%MOMM*%
%LPD*%
G01*
G04 APERTURE LIST*
%TA.AperFunction,SMDPad,CuDef*%
%ADD10C,0.330000*%
%TD*%
%TA.AperFunction,SMDPad,CuDef*%
%ADD11R,0.736600X0.304800*%
%TD*%
%TA.AperFunction,SMDPad,CuDef*%
%ADD12R,0.300000X0.203200*%
%TD*%
%TA.AperFunction,SMDPad,CuDef*%
%ADD13R,0.812800X0.254000*%
%TD*%
%TA.AperFunction,SMDPad,CuDef*%
%ADD14R,0.850000X0.280000*%
%TD*%
%TA.AperFunction,SMDPad,CuDef*%
%ADD15R,0.750000X0.280000*%
%TD*%
%TA.AperFunction,SMDPad,CuDef*%
%ADD16R,0.576580X0.351536*%
%TD*%
%TA.AperFunction,SMDPad,CuDef*%
%ADD17R,0.351536X0.576580*%
%TD*%
%TA.AperFunction,SMDPad,CuDef*%
%ADD18R,0.750000X0.650000*%
%TD*%
%TA.AperFunction,SMDPad,CuDef*%
%ADD19R,0.203200X0.203200*%
%TD*%
%TA.AperFunction,SMDPad,CuDef*%
%ADD20R,5.600000X5.600000*%
%TD*%
%TA.AperFunction,ViaPad*%
%ADD21C,0.400000*%
%TD*%
%TA.AperFunction,ViaPad*%
%ADD22C,0.800000*%
%TD*%
%TA.AperFunction,Conductor*%
%ADD23C,0.200000*%
%TD*%
%TA.AperFunction,Conductor*%
%ADD24C,0.293370*%
%TD*%
%TA.AperFunction,Conductor*%
%ADD25C,0.150000*%
%TD*%
%TA.AperFunction,Conductor*%
%ADD26C,0.254000*%
%TD*%
%TA.AperFunction,Conductor*%
%ADD27C,0.400000*%
%TD*%
%TA.AperFunction,Conductor*%
%ADD28C,0.250000*%
%TD*%
%TA.AperFunction,Conductor*%
%ADD29C,0.090000*%
%TD*%
%TA.AperFunction,Conductor*%
%ADD30C,0.100000*%
%TD*%
G04 APERTURE END LIST*
%TO.P,C13,2*%
%TO.N,GND*%
%TA.AperFunction,SMDPad,CuDef*%
G36*
G01*
X70147000Y-30661000D02*
X69807000Y-30661000D01*
G75*
G02*
X69667000Y-30521000I0J140000D01*
G01*
X69667000Y-30241000D01*
G75*
G02*
X69807000Y-30101000I140000J0D01*
G01*
X70147000Y-30101000D01*
G75*
G02*
X70287000Y-30241000I0J-140000D01*
G01*
X70287000Y-30521000D01*
G75*
G02*
X70147000Y-30661000I-140000J0D01*
G01*
G37*
%TD.AperFunction*%
%TO.P,C13,1*%
%TO.N,+1V8*%
%TA.AperFunction,SMDPad,CuDef*%
G36*
G01*
X70147000Y-31621000D02*
X69807000Y-31621000D01*
G75*
G02*
X69667000Y-31481000I0J140000D01*
G01*
X69667000Y-31201000D01*
G75*
G02*
X69807000Y-31061000I140000J0D01*
G01*
X70147000Y-31061000D01*
G75*
G02*
X70287000Y-31201000I0J-140000D01*
G01*
X70287000Y-31481000D01*
G75*
G02*
X70147000Y-31621000I-140000J0D01*
G01*
G37*
%TD.AperFunction*%
%TD*%
%TO.P,C2,2*%
%TO.N,GND*%
%TA.AperFunction,SMDPad,CuDef*%
G36*
G01*
X71982000Y-23684400D02*
X71782000Y-23684400D01*
G75*
G02*
X71682000Y-23584400I0J100000D01*
G01*
X71682000Y-23324400D01*
G75*
G02*
X71782000Y-23224400I100000J0D01*
G01*
X71982000Y-23224400D01*
G75*
G02*
X72082000Y-23324400I0J-100000D01*
G01*
X72082000Y-23584400D01*
G75*
G02*
X71982000Y-23684400I-100000J0D01*
G01*
G37*
%TD.AperFunction*%
%TO.P,C2,1*%
%TO.N,+1V8*%
%TA.AperFunction,SMDPad,CuDef*%
G36*
G01*
X71982000Y-24324400D02*
X71782000Y-24324400D01*
G75*
G02*
X71682000Y-24224400I0J100000D01*
G01*
X71682000Y-23964400D01*
G75*
G02*
X71782000Y-23864400I100000J0D01*
G01*
X71982000Y-23864400D01*
G75*
G02*
X72082000Y-23964400I0J-100000D01*
G01*
X72082000Y-24224400D01*
G75*
G02*
X71982000Y-24324400I-100000J0D01*
G01*
G37*
%TD.AperFunction*%
%TD*%
%TO.P,C7,2*%
%TO.N,GND*%
%TA.AperFunction,SMDPad,CuDef*%
G36*
G01*
X72642400Y-24040000D02*
X72442400Y-24040000D01*
G75*
G02*
X72342400Y-23940000I0J100000D01*
G01*
X72342400Y-23680000D01*
G75*
G02*
X72442400Y-23580000I100000J0D01*
G01*
X72642400Y-23580000D01*
G75*
G02*
X72742400Y-23680000I0J-100000D01*
G01*
X72742400Y-23940000D01*
G75*
G02*
X72642400Y-24040000I-100000J0D01*
G01*
G37*
%TD.AperFunction*%
%TO.P,C7,1*%
%TO.N,+1V8*%
%TA.AperFunction,SMDPad,CuDef*%
G36*
G01*
X72642400Y-24680000D02*
X72442400Y-24680000D01*
G75*
G02*
X72342400Y-24580000I0J100000D01*
G01*
X72342400Y-24320000D01*
G75*
G02*
X72442400Y-24220000I100000J0D01*
G01*
X72642400Y-24220000D01*
G75*
G02*
X72742400Y-24320000I0J-100000D01*
G01*
X72742400Y-24580000D01*
G75*
G02*
X72642400Y-24680000I-100000J0D01*
G01*
G37*
%TD.AperFunction*%
%TD*%
D10*
%TO.P,Q1,3*%
%TO.N,/C_gate*%
X70012800Y-37780080D03*
%TO.P,Q1,2*%
%TO.N,GND*%
X70012800Y-38430080D03*
%TO.P,Q1,4*%
%TO.N,/D_gate*%
X70662800Y-37780080D03*
%TO.P,Q1,1*%
%TO.N,/CELL-*%
X70662800Y-38430080D03*
%TD*%
%TO.P,R4,2*%
%TO.N,GND*%
%TA.AperFunction,SMDPad,CuDef*%
G36*
G01*
X79585400Y-26277600D02*
X79215400Y-26277600D01*
G75*
G02*
X79080400Y-26142600I0J135000D01*
G01*
X79080400Y-25872600D01*
G75*
G02*
X79215400Y-25737600I135000J0D01*
G01*
X79585400Y-25737600D01*
G75*
G02*
X79720400Y-25872600I0J-135000D01*
G01*
X79720400Y-26142600D01*
G75*
G02*
X79585400Y-26277600I-135000J0D01*
G01*
G37*
%TD.AperFunction*%
%TO.P,R4,1*%
%TO.N,/BATT_LVL*%
%TA.AperFunction,SMDPad,CuDef*%
G36*
G01*
X79585400Y-27297600D02*
X79215400Y-27297600D01*
G75*
G02*
X79080400Y-27162600I0J135000D01*
G01*
X79080400Y-26892600D01*
G75*
G02*
X79215400Y-26757600I135000J0D01*
G01*
X79585400Y-26757600D01*
G75*
G02*
X79720400Y-26892600I0J-135000D01*
G01*
X79720400Y-27162600D01*
G75*
G02*
X79585400Y-27297600I-135000J0D01*
G01*
G37*
%TD.AperFunction*%
%TD*%
%TO.P,R3,2*%
%TO.N,/BATT_LVL*%
%TA.AperFunction,SMDPad,CuDef*%
G36*
G01*
X80231400Y-26757600D02*
X80601400Y-26757600D01*
G75*
G02*
X80736400Y-26892600I0J-135000D01*
G01*
X80736400Y-27162600D01*
G75*
G02*
X80601400Y-27297600I-135000J0D01*
G01*
X80231400Y-27297600D01*
G75*
G02*
X80096400Y-27162600I0J135000D01*
G01*
X80096400Y-26892600D01*
G75*
G02*
X80231400Y-26757600I135000J0D01*
G01*
G37*
%TD.AperFunction*%
%TO.P,R3,1*%
%TO.N,+BATT*%
%TA.AperFunction,SMDPad,CuDef*%
G36*
G01*
X80231400Y-25737600D02*
X80601400Y-25737600D01*
G75*
G02*
X80736400Y-25872600I0J-135000D01*
G01*
X80736400Y-26142600D01*
G75*
G02*
X80601400Y-26277600I-135000J0D01*
G01*
X80231400Y-26277600D01*
G75*
G02*
X80096400Y-26142600I0J135000D01*
G01*
X80096400Y-25872600D01*
G75*
G02*
X80231400Y-25737600I135000J0D01*
G01*
G37*
%TD.AperFunction*%
%TD*%
D11*
%TO.P,U3,1*%
%TO.N,/RAD_PLANE*%
X70205600Y-19659999D03*
D12*
%TO.P,U3,2*%
%TO.N,Net-(U3-Pad2)*%
X69990589Y-20150000D03*
%TO.P,U3,3*%
%TO.N,Net-(U3-Pad3)*%
X69990589Y-20550000D03*
D11*
%TO.P,U3,4*%
%TO.N,Net-(AE1-Pad1)*%
X70205600Y-21040001D03*
D12*
%TO.P,U3,5*%
%TO.N,Net-(U3-Pad5)*%
X70420611Y-20550000D03*
%TO.P,U3,6*%
%TO.N,Net-(U3-Pad6)*%
X70420611Y-20150000D03*
%TD*%
%TO.P,C12,2*%
%TO.N,/CELL-*%
%TA.AperFunction,SMDPad,CuDef*%
G36*
G01*
X73591600Y-36649000D02*
X73931600Y-36649000D01*
G75*
G02*
X74071600Y-36789000I0J-140000D01*
G01*
X74071600Y-37069000D01*
G75*
G02*
X73931600Y-37209000I-140000J0D01*
G01*
X73591600Y-37209000D01*
G75*
G02*
X73451600Y-37069000I0J140000D01*
G01*
X73451600Y-36789000D01*
G75*
G02*
X73591600Y-36649000I140000J0D01*
G01*
G37*
%TD.AperFunction*%
%TO.P,C12,1*%
%TO.N,Net-(C12-Pad1)*%
%TA.AperFunction,SMDPad,CuDef*%
G36*
G01*
X73591600Y-35689000D02*
X73931600Y-35689000D01*
G75*
G02*
X74071600Y-35829000I0J-140000D01*
G01*
X74071600Y-36109000D01*
G75*
G02*
X73931600Y-36249000I-140000J0D01*
G01*
X73591600Y-36249000D01*
G75*
G02*
X73451600Y-36109000I0J140000D01*
G01*
X73451600Y-35829000D01*
G75*
G02*
X73591600Y-35689000I140000J0D01*
G01*
G37*
%TD.AperFunction*%
%TD*%
%TO.P,R2,2*%
%TO.N,Net-(R2-Pad2)*%
%TA.AperFunction,SMDPad,CuDef*%
G36*
G01*
X72172800Y-34881400D02*
X72172800Y-34511400D01*
G75*
G02*
X72307800Y-34376400I135000J0D01*
G01*
X72577800Y-34376400D01*
G75*
G02*
X72712800Y-34511400I0J-135000D01*
G01*
X72712800Y-34881400D01*
G75*
G02*
X72577800Y-35016400I-135000J0D01*
G01*
X72307800Y-35016400D01*
G75*
G02*
X72172800Y-34881400I0J135000D01*
G01*
G37*
%TD.AperFunction*%
%TO.P,R2,1*%
%TO.N,GND*%
%TA.AperFunction,SMDPad,CuDef*%
G36*
G01*
X71152800Y-34881400D02*
X71152800Y-34511400D01*
G75*
G02*
X71287800Y-34376400I135000J0D01*
G01*
X71557800Y-34376400D01*
G75*
G02*
X71692800Y-34511400I0J-135000D01*
G01*
X71692800Y-34881400D01*
G75*
G02*
X71557800Y-35016400I-135000J0D01*
G01*
X71287800Y-35016400D01*
G75*
G02*
X71152800Y-34881400I0J135000D01*
G01*
G37*
%TD.AperFunction*%
%TD*%
%TO.P,R1,2*%
%TO.N,+BATT*%
%TA.AperFunction,SMDPad,CuDef*%
G36*
G01*
X74484200Y-35186200D02*
X74484200Y-34816200D01*
G75*
G02*
X74619200Y-34681200I135000J0D01*
G01*
X74889200Y-34681200D01*
G75*
G02*
X75024200Y-34816200I0J-135000D01*
G01*
X75024200Y-35186200D01*
G75*
G02*
X74889200Y-35321200I-135000J0D01*
G01*
X74619200Y-35321200D01*
G75*
G02*
X74484200Y-35186200I0J135000D01*
G01*
G37*
%TD.AperFunction*%
%TO.P,R1,1*%
%TO.N,Net-(C12-Pad1)*%
%TA.AperFunction,SMDPad,CuDef*%
G36*
G01*
X73464200Y-35186200D02*
X73464200Y-34816200D01*
G75*
G02*
X73599200Y-34681200I135000J0D01*
G01*
X73869200Y-34681200D01*
G75*
G02*
X74004200Y-34816200I0J-135000D01*
G01*
X74004200Y-35186200D01*
G75*
G02*
X73869200Y-35321200I-135000J0D01*
G01*
X73599200Y-35321200D01*
G75*
G02*
X73464200Y-35186200I0J135000D01*
G01*
G37*
%TD.AperFunction*%
%TD*%
%TO.P,C4,2*%
%TO.N,GND*%
%TA.AperFunction,SMDPad,CuDef*%
G36*
G01*
X77778000Y-34628000D02*
X77778000Y-34968000D01*
G75*
G02*
X77638000Y-35108000I-140000J0D01*
G01*
X77358000Y-35108000D01*
G75*
G02*
X77218000Y-34968000I0J140000D01*
G01*
X77218000Y-34628000D01*
G75*
G02*
X77358000Y-34488000I140000J0D01*
G01*
X77638000Y-34488000D01*
G75*
G02*
X77778000Y-34628000I0J-140000D01*
G01*
G37*
%TD.AperFunction*%
%TO.P,C4,1*%
%TO.N,+1V8*%
%TA.AperFunction,SMDPad,CuDef*%
G36*
G01*
X78738000Y-34628000D02*
X78738000Y-34968000D01*
G75*
G02*
X78598000Y-35108000I-140000J0D01*
G01*
X78318000Y-35108000D01*
G75*
G02*
X78178000Y-34968000I0J140000D01*
G01*
X78178000Y-34628000D01*
G75*
G02*
X78318000Y-34488000I140000J0D01*
G01*
X78598000Y-34488000D01*
G75*
G02*
X78738000Y-34628000I0J-140000D01*
G01*
G37*
%TD.AperFunction*%
%TD*%
D13*
%TO.P,U5,1*%
%TO.N,GND*%
X76771500Y-36587999D03*
%TO.P,U5,2*%
%TO.N,+BATT*%
X76771500Y-37088000D03*
%TO.P,U5,3*%
%TO.N,/TPS_MODE*%
X76771500Y-37588000D03*
%TO.P,U5,4*%
%TO.N,+BATT*%
X76771500Y-38088001D03*
%TO.P,U5,5*%
%TO.N,GND*%
X78168500Y-38088001D03*
%TO.P,U5,6*%
%TO.N,/TPS_STOP*%
X78168500Y-37588000D03*
%TO.P,U5,7*%
%TO.N,Net-(L3-Pad1)*%
X78168500Y-37088000D03*
%TO.P,U5,8*%
%TO.N,+1V8*%
X78168500Y-36587999D03*
%TD*%
%TO.P,L3,2*%
%TO.N,+1V8*%
%TA.AperFunction,SMDPad,CuDef*%
G36*
G01*
X80360001Y-35443000D02*
X79659999Y-35443000D01*
G75*
G02*
X79410000Y-35193001I0J249999D01*
G01*
X79410000Y-34642999D01*
G75*
G02*
X79659999Y-34393000I249999J0D01*
G01*
X80360001Y-34393000D01*
G75*
G02*
X80610000Y-34642999I0J-249999D01*
G01*
X80610000Y-35193001D01*
G75*
G02*
X80360001Y-35443000I-249999J0D01*
G01*
G37*
%TD.AperFunction*%
%TO.P,L3,1*%
%TO.N,Net-(L3-Pad1)*%
%TA.AperFunction,SMDPad,CuDef*%
G36*
G01*
X80360001Y-37743000D02*
X79659999Y-37743000D01*
G75*
G02*
X79410000Y-37493001I0J249999D01*
G01*
X79410000Y-36942999D01*
G75*
G02*
X79659999Y-36693000I249999J0D01*
G01*
X80360001Y-36693000D01*
G75*
G02*
X80610000Y-36942999I0J-249999D01*
G01*
X80610000Y-37493001D01*
G75*
G02*
X80360001Y-37743000I-249999J0D01*
G01*
G37*
%TD.AperFunction*%
%TD*%
%TO.P,C3,2*%
%TO.N,GND*%
%TA.AperFunction,SMDPad,CuDef*%
G36*
G01*
X74069600Y-37803000D02*
X74069600Y-38143000D01*
G75*
G02*
X73929600Y-38283000I-140000J0D01*
G01*
X73649600Y-38283000D01*
G75*
G02*
X73509600Y-38143000I0J140000D01*
G01*
X73509600Y-37803000D01*
G75*
G02*
X73649600Y-37663000I140000J0D01*
G01*
X73929600Y-37663000D01*
G75*
G02*
X74069600Y-37803000I0J-140000D01*
G01*
G37*
%TD.AperFunction*%
%TO.P,C3,1*%
%TO.N,+BATT*%
%TA.AperFunction,SMDPad,CuDef*%
G36*
G01*
X75029600Y-37803000D02*
X75029600Y-38143000D01*
G75*
G02*
X74889600Y-38283000I-140000J0D01*
G01*
X74609600Y-38283000D01*
G75*
G02*
X74469600Y-38143000I0J140000D01*
G01*
X74469600Y-37803000D01*
G75*
G02*
X74609600Y-37663000I140000J0D01*
G01*
X74889600Y-37663000D01*
G75*
G02*
X75029600Y-37803000I0J-140000D01*
G01*
G37*
%TD.AperFunction*%
%TD*%
D14*
%TO.P,U4,1*%
%TO.N,Net-(U4-Pad1)*%
X71484000Y-35796600D03*
D15*
%TO.P,U4,2*%
%TO.N,/C_gate*%
X71434000Y-36296600D03*
%TO.P,U4,3*%
%TO.N,/D_gate*%
X71434000Y-36796600D03*
%TO.P,U4,4*%
%TO.N,/CELL-*%
X72584000Y-36796600D03*
%TO.P,U4,5*%
%TO.N,Net-(C12-Pad1)*%
X72584000Y-36296600D03*
%TO.P,U4,6*%
%TO.N,Net-(R2-Pad2)*%
X72584000Y-35796600D03*
%TD*%
%TO.P,C11,2*%
%TO.N,GND*%
%TA.AperFunction,SMDPad,CuDef*%
G36*
G01*
X78794000Y-19388000D02*
X78794000Y-19728000D01*
G75*
G02*
X78654000Y-19868000I-140000J0D01*
G01*
X78374000Y-19868000D01*
G75*
G02*
X78234000Y-19728000I0J140000D01*
G01*
X78234000Y-19388000D01*
G75*
G02*
X78374000Y-19248000I140000J0D01*
G01*
X78654000Y-19248000D01*
G75*
G02*
X78794000Y-19388000I0J-140000D01*
G01*
G37*
%TD.AperFunction*%
%TO.P,C11,1*%
%TO.N,+1V8*%
%TA.AperFunction,SMDPad,CuDef*%
G36*
G01*
X79754000Y-19388000D02*
X79754000Y-19728000D01*
G75*
G02*
X79614000Y-19868000I-140000J0D01*
G01*
X79334000Y-19868000D01*
G75*
G02*
X79194000Y-19728000I0J140000D01*
G01*
X79194000Y-19388000D01*
G75*
G02*
X79334000Y-19248000I140000J0D01*
G01*
X79614000Y-19248000D01*
G75*
G02*
X79754000Y-19388000I0J-140000D01*
G01*
G37*
%TD.AperFunction*%
%TD*%
%TO.P,C10,2*%
%TO.N,GND*%
%TA.AperFunction,SMDPad,CuDef*%
G36*
G01*
X76878000Y-20120000D02*
X76538000Y-20120000D01*
G75*
G02*
X76398000Y-19980000I0J140000D01*
G01*
X76398000Y-19700000D01*
G75*
G02*
X76538000Y-19560000I140000J0D01*
G01*
X76878000Y-19560000D01*
G75*
G02*
X77018000Y-19700000I0J-140000D01*
G01*
X77018000Y-19980000D01*
G75*
G02*
X76878000Y-20120000I-140000J0D01*
G01*
G37*
%TD.AperFunction*%
%TO.P,C10,1*%
%TO.N,+1V8*%
%TA.AperFunction,SMDPad,CuDef*%
G36*
G01*
X76878000Y-21080000D02*
X76538000Y-21080000D01*
G75*
G02*
X76398000Y-20940000I0J140000D01*
G01*
X76398000Y-20660000D01*
G75*
G02*
X76538000Y-20520000I140000J0D01*
G01*
X76878000Y-20520000D01*
G75*
G02*
X77018000Y-20660000I0J-140000D01*
G01*
X77018000Y-20940000D01*
G75*
G02*
X76878000Y-21080000I-140000J0D01*
G01*
G37*
%TD.AperFunction*%
%TD*%
%TO.P,C6,2*%
%TO.N,GND*%
%TA.AperFunction,SMDPad,CuDef*%
G36*
G01*
X75354000Y-23676000D02*
X75014000Y-23676000D01*
G75*
G02*
X74874000Y-23536000I0J140000D01*
G01*
X74874000Y-23256000D01*
G75*
G02*
X75014000Y-23116000I140000J0D01*
G01*
X75354000Y-23116000D01*
G75*
G02*
X75494000Y-23256000I0J-140000D01*
G01*
X75494000Y-23536000D01*
G75*
G02*
X75354000Y-23676000I-140000J0D01*
G01*
G37*
%TD.AperFunction*%
%TO.P,C6,1*%
%TO.N,+1V8*%
%TA.AperFunction,SMDPad,CuDef*%
G36*
G01*
X75354000Y-24636000D02*
X75014000Y-24636000D01*
G75*
G02*
X74874000Y-24496000I0J140000D01*
G01*
X74874000Y-24216000D01*
G75*
G02*
X75014000Y-24076000I140000J0D01*
G01*
X75354000Y-24076000D01*
G75*
G02*
X75494000Y-24216000I0J-140000D01*
G01*
X75494000Y-24496000D01*
G75*
G02*
X75354000Y-24636000I-140000J0D01*
G01*
G37*
%TD.AperFunction*%
%TD*%
%TO.P,C5,2*%
%TO.N,GND*%
%TA.AperFunction,SMDPad,CuDef*%
G36*
G01*
X78178000Y-33926600D02*
X78178000Y-33586600D01*
G75*
G02*
X78318000Y-33446600I140000J0D01*
G01*
X78598000Y-33446600D01*
G75*
G02*
X78738000Y-33586600I0J-140000D01*
G01*
X78738000Y-33926600D01*
G75*
G02*
X78598000Y-34066600I-140000J0D01*
G01*
X78318000Y-34066600D01*
G75*
G02*
X78178000Y-33926600I0J140000D01*
G01*
G37*
%TD.AperFunction*%
%TO.P,C5,1*%
%TO.N,+1V8*%
%TA.AperFunction,SMDPad,CuDef*%
G36*
G01*
X77218000Y-33926600D02*
X77218000Y-33586600D01*
G75*
G02*
X77358000Y-33446600I140000J0D01*
G01*
X77638000Y-33446600D01*
G75*
G02*
X77778000Y-33586600I0J-140000D01*
G01*
X77778000Y-33926600D01*
G75*
G02*
X77638000Y-34066600I-140000J0D01*
G01*
X77358000Y-34066600D01*
G75*
G02*
X77218000Y-33926600I0J140000D01*
G01*
G37*
%TD.AperFunction*%
%TD*%
%TO.P,C1,2*%
%TO.N,GND*%
%TA.AperFunction,SMDPad,CuDef*%
G36*
G01*
X79255800Y-32483400D02*
X79595800Y-32483400D01*
G75*
G02*
X79735800Y-32623400I0J-140000D01*
G01*
X79735800Y-32903400D01*
G75*
G02*
X79595800Y-33043400I-140000J0D01*
G01*
X79255800Y-33043400D01*
G75*
G02*
X79115800Y-32903400I0J140000D01*
G01*
X79115800Y-32623400D01*
G75*
G02*
X79255800Y-32483400I140000J0D01*
G01*
G37*
%TD.AperFunction*%
%TO.P,C1,1*%
%TO.N,+1V8*%
%TA.AperFunction,SMDPad,CuDef*%
G36*
G01*
X79255800Y-31523400D02*
X79595800Y-31523400D01*
G75*
G02*
X79735800Y-31663400I0J-140000D01*
G01*
X79735800Y-31943400D01*
G75*
G02*
X79595800Y-32083400I-140000J0D01*
G01*
X79255800Y-32083400D01*
G75*
G02*
X79115800Y-31943400I0J140000D01*
G01*
X79115800Y-31663400D01*
G75*
G02*
X79255800Y-31523400I140000J0D01*
G01*
G37*
%TD.AperFunction*%
%TD*%
D16*
%TO.P,U2,1*%
%TO.N,/MISO*%
X80204300Y-22340001D03*
%TO.P,U2,2*%
%TO.N,GND*%
X80204300Y-21840000D03*
%TO.P,U2,3*%
X80204300Y-21340000D03*
%TO.P,U2,4*%
%TO.N,/LSM_INT1*%
X80204300Y-20839999D03*
D17*
%TO.P,U2,5*%
%TO.N,+1V8*%
X79493999Y-20633700D03*
%TO.P,U2,6*%
%TO.N,GND*%
X78994000Y-20633700D03*
%TO.P,U2,7*%
X78494001Y-20633700D03*
D16*
%TO.P,U2,8*%
%TO.N,+1V8*%
X77783700Y-20839999D03*
%TO.P,U2,9*%
%TO.N,/LSM_INT2*%
X77783700Y-21340000D03*
%TO.P,U2,10*%
%TO.N,Net-(U2-Pad10)*%
X77783700Y-21840000D03*
%TO.P,U2,11*%
%TO.N,Net-(U2-Pad11)*%
X77783700Y-22340001D03*
D17*
%TO.P,U2,12*%
%TO.N,/CS*%
X78494001Y-22546300D03*
%TO.P,U2,13*%
%TO.N,/SCK*%
X78994000Y-22546300D03*
%TO.P,U2,14*%
%TO.N,/MOSI*%
X79493999Y-22546300D03*
%TD*%
D18*
%TO.P,Y1,4*%
%TO.N,GND*%
X69629800Y-24364600D03*
%TO.P,Y1,3*%
%TO.N,Net-(U1-Pad24)*%
X70679800Y-24364600D03*
%TO.P,Y1,1*%
%TO.N,Net-(U1-Pad25)*%
X69629800Y-25114600D03*
%TO.P,Y1,2*%
%TO.N,GND*%
X70679800Y-25114600D03*
%TD*%
D19*
%TO.P,AE1,1*%
%TO.N,Net-(AE1-Pad1)*%
X73470000Y-23035001D03*
%TO.P,AE1,2*%
%TO.N,GND*%
X73470000Y-23622000D03*
%TO.P,AE1,3*%
%TO.N,/RF1*%
X73470000Y-24208999D03*
%TO.P,AE1,4*%
%TO.N,GND*%
X73978000Y-24208999D03*
%TO.P,AE1,5*%
X73978000Y-23622000D03*
%TO.P,AE1,6*%
X73978000Y-23035001D03*
%TD*%
%TO.P,U1,13*%
%TO.N,/BTN_0*%
%TA.AperFunction,SMDPad,CuDef*%
G36*
G01*
X77347100Y-25185000D02*
X77600900Y-25185000D01*
G75*
G02*
X77609000Y-25193100I0J-8100D01*
G01*
X77609000Y-26036900D01*
G75*
G02*
X77600900Y-26045000I-8100J0D01*
G01*
X77347100Y-26045000D01*
G75*
G02*
X77339000Y-26036900I0J8100D01*
G01*
X77339000Y-25193100D01*
G75*
G02*
X77347100Y-25185000I8100J0D01*
G01*
G37*
%TD.AperFunction*%
%TO.P,U1,14*%
%TO.N,/BTN_1*%
%TA.AperFunction,SMDPad,CuDef*%
G36*
G01*
X76847100Y-25185000D02*
X77100900Y-25185000D01*
G75*
G02*
X77109000Y-25193100I0J-8100D01*
G01*
X77109000Y-26036900D01*
G75*
G02*
X77100900Y-26045000I-8100J0D01*
G01*
X76847100Y-26045000D01*
G75*
G02*
X76839000Y-26036900I0J8100D01*
G01*
X76839000Y-25193100D01*
G75*
G02*
X76847100Y-25185000I8100J0D01*
G01*
G37*
%TD.AperFunction*%
%TO.P,U1,15*%
%TO.N,/BTN_2*%
%TA.AperFunction,SMDPad,CuDef*%
G36*
G01*
X76347100Y-25185000D02*
X76600900Y-25185000D01*
G75*
G02*
X76609000Y-25193100I0J-8100D01*
G01*
X76609000Y-26036900D01*
G75*
G02*
X76600900Y-26045000I-8100J0D01*
G01*
X76347100Y-26045000D01*
G75*
G02*
X76339000Y-26036900I0J8100D01*
G01*
X76339000Y-25193100D01*
G75*
G02*
X76347100Y-25185000I8100J0D01*
G01*
G37*
%TD.AperFunction*%
%TO.P,U1,16*%
%TO.N,/BTN_3*%
%TA.AperFunction,SMDPad,CuDef*%
G36*
G01*
X75847100Y-25185000D02*
X76100900Y-25185000D01*
G75*
G02*
X76109000Y-25193100I0J-8100D01*
G01*
X76109000Y-26036900D01*
G75*
G02*
X76100900Y-26045000I-8100J0D01*
G01*
X75847100Y-26045000D01*
G75*
G02*
X75839000Y-26036900I0J8100D01*
G01*
X75839000Y-25193100D01*
G75*
G02*
X75847100Y-25185000I8100J0D01*
G01*
G37*
%TD.AperFunction*%
%TO.P,U1,17*%
%TO.N,Net-(U1-Pad17)*%
%TA.AperFunction,SMDPad,CuDef*%
G36*
G01*
X75347100Y-25185000D02*
X75600900Y-25185000D01*
G75*
G02*
X75609000Y-25193100I0J-8100D01*
G01*
X75609000Y-26036900D01*
G75*
G02*
X75600900Y-26045000I-8100J0D01*
G01*
X75347100Y-26045000D01*
G75*
G02*
X75339000Y-26036900I0J8100D01*
G01*
X75339000Y-25193100D01*
G75*
G02*
X75347100Y-25185000I8100J0D01*
G01*
G37*
%TD.AperFunction*%
%TO.P,U1,18*%
%TO.N,Net-(U1-Pad18)*%
%TA.AperFunction,SMDPad,CuDef*%
G36*
G01*
X74847100Y-25185000D02*
X75100900Y-25185000D01*
G75*
G02*
X75109000Y-25193100I0J-8100D01*
G01*
X75109000Y-26036900D01*
G75*
G02*
X75100900Y-26045000I-8100J0D01*
G01*
X74847100Y-26045000D01*
G75*
G02*
X74839000Y-26036900I0J8100D01*
G01*
X74839000Y-25193100D01*
G75*
G02*
X74847100Y-25185000I8100J0D01*
G01*
G37*
%TD.AperFunction*%
%TO.P,U1,19*%
%TO.N,Net-(U1-Pad19)*%
%TA.AperFunction,SMDPad,CuDef*%
G36*
G01*
X74347100Y-25185000D02*
X74600900Y-25185000D01*
G75*
G02*
X74609000Y-25193100I0J-8100D01*
G01*
X74609000Y-26036900D01*
G75*
G02*
X74600900Y-26045000I-8100J0D01*
G01*
X74347100Y-26045000D01*
G75*
G02*
X74339000Y-26036900I0J8100D01*
G01*
X74339000Y-25193100D01*
G75*
G02*
X74347100Y-25185000I8100J0D01*
G01*
G37*
%TD.AperFunction*%
%TO.P,U1,20*%
%TO.N,+1V8*%
%TA.AperFunction,SMDPad,CuDef*%
G36*
G01*
X73847100Y-25185000D02*
X74100900Y-25185000D01*
G75*
G02*
X74109000Y-25193100I0J-8100D01*
G01*
X74109000Y-26036900D01*
G75*
G02*
X74100900Y-26045000I-8100J0D01*
G01*
X73847100Y-26045000D01*
G75*
G02*
X73839000Y-26036900I0J8100D01*
G01*
X73839000Y-25193100D01*
G75*
G02*
X73847100Y-25185000I8100J0D01*
G01*
G37*
%TD.AperFunction*%
%TO.P,U1,21*%
%TO.N,/RF1*%
%TA.AperFunction,SMDPad,CuDef*%
G36*
G01*
X73347100Y-25185000D02*
X73600900Y-25185000D01*
G75*
G02*
X73609000Y-25193100I0J-8100D01*
G01*
X73609000Y-26036900D01*
G75*
G02*
X73600900Y-26045000I-8100J0D01*
G01*
X73347100Y-26045000D01*
G75*
G02*
X73339000Y-26036900I0J8100D01*
G01*
X73339000Y-25193100D01*
G75*
G02*
X73347100Y-25185000I8100J0D01*
G01*
G37*
%TD.AperFunction*%
%TO.P,U1,22*%
%TO.N,GND*%
%TA.AperFunction,SMDPad,CuDef*%
G36*
G01*
X72847100Y-25185000D02*
X73100900Y-25185000D01*
G75*
G02*
X73109000Y-25193100I0J-8100D01*
G01*
X73109000Y-26036900D01*
G75*
G02*
X73100900Y-26045000I-8100J0D01*
G01*
X72847100Y-26045000D01*
G75*
G02*
X72839000Y-26036900I0J8100D01*
G01*
X72839000Y-25193100D01*
G75*
G02*
X72847100Y-25185000I8100J0D01*
G01*
G37*
%TD.AperFunction*%
%TO.P,U1,23*%
%TO.N,+1V8*%
%TA.AperFunction,SMDPad,CuDef*%
G36*
G01*
X72347100Y-25185000D02*
X72600900Y-25185000D01*
G75*
G02*
X72609000Y-25193100I0J-8100D01*
G01*
X72609000Y-26036900D01*
G75*
G02*
X72600900Y-26045000I-8100J0D01*
G01*
X72347100Y-26045000D01*
G75*
G02*
X72339000Y-26036900I0J8100D01*
G01*
X72339000Y-25193100D01*
G75*
G02*
X72347100Y-25185000I8100J0D01*
G01*
G37*
%TD.AperFunction*%
%TO.P,U1,24*%
%TO.N,Net-(U1-Pad24)*%
%TA.AperFunction,SMDPad,CuDef*%
G36*
G01*
X71847100Y-25185000D02*
X72100900Y-25185000D01*
G75*
G02*
X72109000Y-25193100I0J-8100D01*
G01*
X72109000Y-26036900D01*
G75*
G02*
X72100900Y-26045000I-8100J0D01*
G01*
X71847100Y-26045000D01*
G75*
G02*
X71839000Y-26036900I0J8100D01*
G01*
X71839000Y-25193100D01*
G75*
G02*
X71847100Y-25185000I8100J0D01*
G01*
G37*
%TD.AperFunction*%
%TO.P,U1,37*%
%TO.N,/TPS_MODE*%
%TA.AperFunction,SMDPad,CuDef*%
G36*
G01*
X71847100Y-32055000D02*
X72100900Y-32055000D01*
G75*
G02*
X72109000Y-32063100I0J-8100D01*
G01*
X72109000Y-32906900D01*
G75*
G02*
X72100900Y-32915000I-8100J0D01*
G01*
X71847100Y-32915000D01*
G75*
G02*
X71839000Y-32906900I0J8100D01*
G01*
X71839000Y-32063100D01*
G75*
G02*
X71847100Y-32055000I8100J0D01*
G01*
G37*
%TD.AperFunction*%
%TO.P,U1,38*%
%TO.N,/TPS_STOP*%
%TA.AperFunction,SMDPad,CuDef*%
G36*
G01*
X72347100Y-32055000D02*
X72600900Y-32055000D01*
G75*
G02*
X72609000Y-32063100I0J-8100D01*
G01*
X72609000Y-32906900D01*
G75*
G02*
X72600900Y-32915000I-8100J0D01*
G01*
X72347100Y-32915000D01*
G75*
G02*
X72339000Y-32906900I0J8100D01*
G01*
X72339000Y-32063100D01*
G75*
G02*
X72347100Y-32055000I8100J0D01*
G01*
G37*
%TD.AperFunction*%
%TO.P,U1,39*%
%TO.N,/SWDIO*%
%TA.AperFunction,SMDPad,CuDef*%
G36*
G01*
X72847100Y-32055000D02*
X73100900Y-32055000D01*
G75*
G02*
X73109000Y-32063100I0J-8100D01*
G01*
X73109000Y-32906900D01*
G75*
G02*
X73100900Y-32915000I-8100J0D01*
G01*
X72847100Y-32915000D01*
G75*
G02*
X72839000Y-32906900I0J8100D01*
G01*
X72839000Y-32063100D01*
G75*
G02*
X72847100Y-32055000I8100J0D01*
G01*
G37*
%TD.AperFunction*%
%TO.P,U1,40*%
%TO.N,+1V8*%
%TA.AperFunction,SMDPad,CuDef*%
G36*
G01*
X73347100Y-32055000D02*
X73600900Y-32055000D01*
G75*
G02*
X73609000Y-32063100I0J-8100D01*
G01*
X73609000Y-32906900D01*
G75*
G02*
X73600900Y-32915000I-8100J0D01*
G01*
X73347100Y-32915000D01*
G75*
G02*
X73339000Y-32906900I0J8100D01*
G01*
X73339000Y-32063100D01*
G75*
G02*
X73347100Y-32055000I8100J0D01*
G01*
G37*
%TD.AperFunction*%
%TO.P,U1,41*%
%TO.N,/SWCLK*%
%TA.AperFunction,SMDPad,CuDef*%
G36*
G01*
X73847100Y-32055000D02*
X74100900Y-32055000D01*
G75*
G02*
X74109000Y-32063100I0J-8100D01*
G01*
X74109000Y-32906900D01*
G75*
G02*
X74100900Y-32915000I-8100J0D01*
G01*
X73847100Y-32915000D01*
G75*
G02*
X73839000Y-32906900I0J8100D01*
G01*
X73839000Y-32063100D01*
G75*
G02*
X73847100Y-32055000I8100J0D01*
G01*
G37*
%TD.AperFunction*%
%TO.P,U1,42*%
%TO.N,/CS*%
%TA.AperFunction,SMDPad,CuDef*%
G36*
G01*
X74347100Y-32055000D02*
X74600900Y-32055000D01*
G75*
G02*
X74609000Y-32063100I0J-8100D01*
G01*
X74609000Y-32906900D01*
G75*
G02*
X74600900Y-32915000I-8100J0D01*
G01*
X74347100Y-32915000D01*
G75*
G02*
X74339000Y-32906900I0J8100D01*
G01*
X74339000Y-32063100D01*
G75*
G02*
X74347100Y-32055000I8100J0D01*
G01*
G37*
%TD.AperFunction*%
%TO.P,U1,43*%
%TO.N,/SCK*%
%TA.AperFunction,SMDPad,CuDef*%
G36*
G01*
X74847100Y-32055000D02*
X75100900Y-32055000D01*
G75*
G02*
X75109000Y-32063100I0J-8100D01*
G01*
X75109000Y-32906900D01*
G75*
G02*
X75100900Y-32915000I-8100J0D01*
G01*
X74847100Y-32915000D01*
G75*
G02*
X74839000Y-32906900I0J8100D01*
G01*
X74839000Y-32063100D01*
G75*
G02*
X74847100Y-32055000I8100J0D01*
G01*
G37*
%TD.AperFunction*%
%TO.P,U1,44*%
%TO.N,/MISO*%
%TA.AperFunction,SMDPad,CuDef*%
G36*
G01*
X75347100Y-32055000D02*
X75600900Y-32055000D01*
G75*
G02*
X75609000Y-32063100I0J-8100D01*
G01*
X75609000Y-32906900D01*
G75*
G02*
X75600900Y-32915000I-8100J0D01*
G01*
X75347100Y-32915000D01*
G75*
G02*
X75339000Y-32906900I0J8100D01*
G01*
X75339000Y-32063100D01*
G75*
G02*
X75347100Y-32055000I8100J0D01*
G01*
G37*
%TD.AperFunction*%
%TO.P,U1,45*%
%TO.N,/MOSI*%
%TA.AperFunction,SMDPad,CuDef*%
G36*
G01*
X75847100Y-32055000D02*
X76100900Y-32055000D01*
G75*
G02*
X76109000Y-32063100I0J-8100D01*
G01*
X76109000Y-32906900D01*
G75*
G02*
X76100900Y-32915000I-8100J0D01*
G01*
X75847100Y-32915000D01*
G75*
G02*
X75839000Y-32906900I0J8100D01*
G01*
X75839000Y-32063100D01*
G75*
G02*
X75847100Y-32055000I8100J0D01*
G01*
G37*
%TD.AperFunction*%
%TO.P,U1,46*%
%TO.N,Net-(U1-Pad46)*%
%TA.AperFunction,SMDPad,CuDef*%
G36*
G01*
X76347100Y-32055000D02*
X76600900Y-32055000D01*
G75*
G02*
X76609000Y-32063100I0J-8100D01*
G01*
X76609000Y-32906900D01*
G75*
G02*
X76600900Y-32915000I-8100J0D01*
G01*
X76347100Y-32915000D01*
G75*
G02*
X76339000Y-32906900I0J8100D01*
G01*
X76339000Y-32063100D01*
G75*
G02*
X76347100Y-32055000I8100J0D01*
G01*
G37*
%TD.AperFunction*%
%TO.P,U1,47*%
%TO.N,Net-(U1-Pad47)*%
%TA.AperFunction,SMDPad,CuDef*%
G36*
G01*
X76847100Y-32055000D02*
X77100900Y-32055000D01*
G75*
G02*
X77109000Y-32063100I0J-8100D01*
G01*
X77109000Y-32906900D01*
G75*
G02*
X77100900Y-32915000I-8100J0D01*
G01*
X76847100Y-32915000D01*
G75*
G02*
X76839000Y-32906900I0J8100D01*
G01*
X76839000Y-32063100D01*
G75*
G02*
X76847100Y-32055000I8100J0D01*
G01*
G37*
%TD.AperFunction*%
%TO.P,U1,48*%
%TO.N,+1V8*%
%TA.AperFunction,SMDPad,CuDef*%
G36*
G01*
X77347100Y-32055000D02*
X77600900Y-32055000D01*
G75*
G02*
X77609000Y-32063100I0J-8100D01*
G01*
X77609000Y-32906900D01*
G75*
G02*
X77600900Y-32915000I-8100J0D01*
G01*
X77347100Y-32915000D01*
G75*
G02*
X77339000Y-32906900I0J8100D01*
G01*
X77339000Y-32063100D01*
G75*
G02*
X77347100Y-32055000I8100J0D01*
G01*
G37*
%TD.AperFunction*%
%TO.P,U1,1*%
%TA.AperFunction,SMDPad,CuDef*%
G36*
G01*
X78589000Y-31673100D02*
X78589000Y-31926900D01*
G75*
G02*
X78580900Y-31935000I-8100J0D01*
G01*
X77737100Y-31935000D01*
G75*
G02*
X77729000Y-31926900I0J8100D01*
G01*
X77729000Y-31673100D01*
G75*
G02*
X77737100Y-31665000I8100J0D01*
G01*
X78580900Y-31665000D01*
G75*
G02*
X78589000Y-31673100I0J-8100D01*
G01*
G37*
%TD.AperFunction*%
%TO.P,U1,2*%
%TO.N,Net-(U1-Pad2)*%
%TA.AperFunction,SMDPad,CuDef*%
G36*
G01*
X78589000Y-31173100D02*
X78589000Y-31426900D01*
G75*
G02*
X78580900Y-31435000I-8100J0D01*
G01*
X77737100Y-31435000D01*
G75*
G02*
X77729000Y-31426900I0J8100D01*
G01*
X77729000Y-31173100D01*
G75*
G02*
X77737100Y-31165000I8100J0D01*
G01*
X78580900Y-31165000D01*
G75*
G02*
X78589000Y-31173100I0J-8100D01*
G01*
G37*
%TD.AperFunction*%
%TO.P,U1,3*%
%TO.N,Net-(U1-Pad3)*%
%TA.AperFunction,SMDPad,CuDef*%
G36*
G01*
X78589000Y-30673100D02*
X78589000Y-30926900D01*
G75*
G02*
X78580900Y-30935000I-8100J0D01*
G01*
X77737100Y-30935000D01*
G75*
G02*
X77729000Y-30926900I0J8100D01*
G01*
X77729000Y-30673100D01*
G75*
G02*
X77737100Y-30665000I8100J0D01*
G01*
X78580900Y-30665000D01*
G75*
G02*
X78589000Y-30673100I0J-8100D01*
G01*
G37*
%TD.AperFunction*%
%TO.P,U1,4*%
%TO.N,/BOOT0*%
%TA.AperFunction,SMDPad,CuDef*%
G36*
G01*
X78589000Y-30173100D02*
X78589000Y-30426900D01*
G75*
G02*
X78580900Y-30435000I-8100J0D01*
G01*
X77737100Y-30435000D01*
G75*
G02*
X77729000Y-30426900I0J8100D01*
G01*
X77729000Y-30173100D01*
G75*
G02*
X77737100Y-30165000I8100J0D01*
G01*
X78580900Y-30165000D01*
G75*
G02*
X78589000Y-30173100I0J-8100D01*
G01*
G37*
%TD.AperFunction*%
%TO.P,U1,5*%
%TO.N,Net-(U1-Pad5)*%
%TA.AperFunction,SMDPad,CuDef*%
G36*
G01*
X78589000Y-29673100D02*
X78589000Y-29926900D01*
G75*
G02*
X78580900Y-29935000I-8100J0D01*
G01*
X77737100Y-29935000D01*
G75*
G02*
X77729000Y-29926900I0J8100D01*
G01*
X77729000Y-29673100D01*
G75*
G02*
X77737100Y-29665000I8100J0D01*
G01*
X78580900Y-29665000D01*
G75*
G02*
X78589000Y-29673100I0J-8100D01*
G01*
G37*
%TD.AperFunction*%
%TO.P,U1,6*%
%TO.N,/LED_1*%
%TA.AperFunction,SMDPad,CuDef*%
G36*
G01*
X78589000Y-29173100D02*
X78589000Y-29426900D01*
G75*
G02*
X78580900Y-29435000I-8100J0D01*
G01*
X77737100Y-29435000D01*
G75*
G02*
X77729000Y-29426900I0J8100D01*
G01*
X77729000Y-29173100D01*
G75*
G02*
X77737100Y-29165000I8100J0D01*
G01*
X78580900Y-29165000D01*
G75*
G02*
X78589000Y-29173100I0J-8100D01*
G01*
G37*
%TD.AperFunction*%
%TO.P,U1,7*%
%TO.N,/NRST*%
%TA.AperFunction,SMDPad,CuDef*%
G36*
G01*
X78589000Y-28673100D02*
X78589000Y-28926900D01*
G75*
G02*
X78580900Y-28935000I-8100J0D01*
G01*
X77737100Y-28935000D01*
G75*
G02*
X77729000Y-28926900I0J8100D01*
G01*
X77729000Y-28673100D01*
G75*
G02*
X77737100Y-28665000I8100J0D01*
G01*
X78580900Y-28665000D01*
G75*
G02*
X78589000Y-28673100I0J-8100D01*
G01*
G37*
%TD.AperFunction*%
%TO.P,U1,8*%
%TO.N,+1V8*%
%TA.AperFunction,SMDPad,CuDef*%
G36*
G01*
X78589000Y-28173100D02*
X78589000Y-28426900D01*
G75*
G02*
X78580900Y-28435000I-8100J0D01*
G01*
X77737100Y-28435000D01*
G75*
G02*
X77729000Y-28426900I0J8100D01*
G01*
X77729000Y-28173100D01*
G75*
G02*
X77737100Y-28165000I8100J0D01*
G01*
X78580900Y-28165000D01*
G75*
G02*
X78589000Y-28173100I0J-8100D01*
G01*
G37*
%TD.AperFunction*%
%TO.P,U1,9*%
%TO.N,/BATT_LVL*%
%TA.AperFunction,SMDPad,CuDef*%
G36*
G01*
X78589000Y-27673100D02*
X78589000Y-27926900D01*
G75*
G02*
X78580900Y-27935000I-8100J0D01*
G01*
X77737100Y-27935000D01*
G75*
G02*
X77729000Y-27926900I0J8100D01*
G01*
X77729000Y-27673100D01*
G75*
G02*
X77737100Y-27665000I8100J0D01*
G01*
X78580900Y-27665000D01*
G75*
G02*
X78589000Y-27673100I0J-8100D01*
G01*
G37*
%TD.AperFunction*%
%TO.P,U1,10*%
%TO.N,Net-(U1-Pad10)*%
%TA.AperFunction,SMDPad,CuDef*%
G36*
G01*
X78589000Y-27173100D02*
X78589000Y-27426900D01*
G75*
G02*
X78580900Y-27435000I-8100J0D01*
G01*
X77737100Y-27435000D01*
G75*
G02*
X77729000Y-27426900I0J8100D01*
G01*
X77729000Y-27173100D01*
G75*
G02*
X77737100Y-27165000I8100J0D01*
G01*
X78580900Y-27165000D01*
G75*
G02*
X78589000Y-27173100I0J-8100D01*
G01*
G37*
%TD.AperFunction*%
%TO.P,U1,11*%
%TO.N,Net-(U1-Pad11)*%
%TA.AperFunction,SMDPad,CuDef*%
G36*
G01*
X78589000Y-26673100D02*
X78589000Y-26926900D01*
G75*
G02*
X78580900Y-26935000I-8100J0D01*
G01*
X77737100Y-26935000D01*
G75*
G02*
X77729000Y-26926900I0J8100D01*
G01*
X77729000Y-26673100D01*
G75*
G02*
X77737100Y-26665000I8100J0D01*
G01*
X78580900Y-26665000D01*
G75*
G02*
X78589000Y-26673100I0J-8100D01*
G01*
G37*
%TD.AperFunction*%
%TO.P,U1,12*%
%TO.N,/LSM_INT1*%
%TA.AperFunction,SMDPad,CuDef*%
G36*
G01*
X78589000Y-26173100D02*
X78589000Y-26426900D01*
G75*
G02*
X78580900Y-26435000I-8100J0D01*
G01*
X77737100Y-26435000D01*
G75*
G02*
X77729000Y-26426900I0J8100D01*
G01*
X77729000Y-26173100D01*
G75*
G02*
X77737100Y-26165000I8100J0D01*
G01*
X78580900Y-26165000D01*
G75*
G02*
X78589000Y-26173100I0J-8100D01*
G01*
G37*
%TD.AperFunction*%
%TO.P,U1,25*%
%TO.N,Net-(U1-Pad25)*%
%TA.AperFunction,SMDPad,CuDef*%
G36*
G01*
X71719000Y-26173100D02*
X71719000Y-26426900D01*
G75*
G02*
X71710900Y-26435000I-8100J0D01*
G01*
X70867100Y-26435000D01*
G75*
G02*
X70859000Y-26426900I0J8100D01*
G01*
X70859000Y-26173100D01*
G75*
G02*
X70867100Y-26165000I8100J0D01*
G01*
X71710900Y-26165000D01*
G75*
G02*
X71719000Y-26173100I0J-8100D01*
G01*
G37*
%TD.AperFunction*%
%TO.P,U1,26*%
%TO.N,Net-(U1-Pad26)*%
%TA.AperFunction,SMDPad,CuDef*%
G36*
G01*
X71719000Y-26673100D02*
X71719000Y-26926900D01*
G75*
G02*
X71710900Y-26935000I-8100J0D01*
G01*
X70867100Y-26935000D01*
G75*
G02*
X70859000Y-26926900I0J8100D01*
G01*
X70859000Y-26673100D01*
G75*
G02*
X70867100Y-26665000I8100J0D01*
G01*
X71710900Y-26665000D01*
G75*
G02*
X71719000Y-26673100I0J-8100D01*
G01*
G37*
%TD.AperFunction*%
%TO.P,U1,27*%
%TO.N,Net-(U1-Pad27)*%
%TA.AperFunction,SMDPad,CuDef*%
G36*
G01*
X71719000Y-27173100D02*
X71719000Y-27426900D01*
G75*
G02*
X71710900Y-27435000I-8100J0D01*
G01*
X70867100Y-27435000D01*
G75*
G02*
X70859000Y-27426900I0J8100D01*
G01*
X70859000Y-27173100D01*
G75*
G02*
X70867100Y-27165000I8100J0D01*
G01*
X71710900Y-27165000D01*
G75*
G02*
X71719000Y-27173100I0J-8100D01*
G01*
G37*
%TD.AperFunction*%
%TO.P,U1,28*%
%TO.N,Net-(U1-Pad28)*%
%TA.AperFunction,SMDPad,CuDef*%
G36*
G01*
X71719000Y-27673100D02*
X71719000Y-27926900D01*
G75*
G02*
X71710900Y-27935000I-8100J0D01*
G01*
X70867100Y-27935000D01*
G75*
G02*
X70859000Y-27926900I0J8100D01*
G01*
X70859000Y-27673100D01*
G75*
G02*
X70867100Y-27665000I8100J0D01*
G01*
X71710900Y-27665000D01*
G75*
G02*
X71719000Y-27673100I0J-8100D01*
G01*
G37*
%TD.AperFunction*%
%TO.P,U1,29*%
%TO.N,/LSM_INT2*%
%TA.AperFunction,SMDPad,CuDef*%
G36*
G01*
X71719000Y-28173100D02*
X71719000Y-28426900D01*
G75*
G02*
X71710900Y-28435000I-8100J0D01*
G01*
X70867100Y-28435000D01*
G75*
G02*
X70859000Y-28426900I0J8100D01*
G01*
X70859000Y-28173100D01*
G75*
G02*
X70867100Y-28165000I8100J0D01*
G01*
X71710900Y-28165000D01*
G75*
G02*
X71719000Y-28173100I0J-8100D01*
G01*
G37*
%TD.AperFunction*%
%TO.P,U1,30*%
%TO.N,Net-(U1-Pad30)*%
%TA.AperFunction,SMDPad,CuDef*%
G36*
G01*
X71719000Y-28673100D02*
X71719000Y-28926900D01*
G75*
G02*
X71710900Y-28935000I-8100J0D01*
G01*
X70867100Y-28935000D01*
G75*
G02*
X70859000Y-28926900I0J8100D01*
G01*
X70859000Y-28673100D01*
G75*
G02*
X70867100Y-28665000I8100J0D01*
G01*
X71710900Y-28665000D01*
G75*
G02*
X71719000Y-28673100I0J-8100D01*
G01*
G37*
%TD.AperFunction*%
%TO.P,U1,31*%
%TO.N,+1V8*%
%TA.AperFunction,SMDPad,CuDef*%
G36*
G01*
X71719000Y-29173100D02*
X71719000Y-29426900D01*
G75*
G02*
X71710900Y-29435000I-8100J0D01*
G01*
X70867100Y-29435000D01*
G75*
G02*
X70859000Y-29426900I0J8100D01*
G01*
X70859000Y-29173100D01*
G75*
G02*
X70867100Y-29165000I8100J0D01*
G01*
X71710900Y-29165000D01*
G75*
G02*
X71719000Y-29173100I0J-8100D01*
G01*
G37*
%TD.AperFunction*%
%TO.P,U1,32*%
%TO.N,GND*%
%TA.AperFunction,SMDPad,CuDef*%
G36*
G01*
X71719000Y-29673100D02*
X71719000Y-29926900D01*
G75*
G02*
X71710900Y-29935000I-8100J0D01*
G01*
X70867100Y-29935000D01*
G75*
G02*
X70859000Y-29926900I0J8100D01*
G01*
X70859000Y-29673100D01*
G75*
G02*
X70867100Y-29665000I8100J0D01*
G01*
X71710900Y-29665000D01*
G75*
G02*
X71719000Y-29673100I0J-8100D01*
G01*
G37*
%TD.AperFunction*%
%TO.P,U1,33*%
%TO.N,+1V8*%
%TA.AperFunction,SMDPad,CuDef*%
G36*
G01*
X71719000Y-30173100D02*
X71719000Y-30426900D01*
G75*
G02*
X71710900Y-30435000I-8100J0D01*
G01*
X70867100Y-30435000D01*
G75*
G02*
X70859000Y-30426900I0J8100D01*
G01*
X70859000Y-30173100D01*
G75*
G02*
X70867100Y-30165000I8100J0D01*
G01*
X71710900Y-30165000D01*
G75*
G02*
X71719000Y-30173100I0J-8100D01*
G01*
G37*
%TD.AperFunction*%
%TO.P,U1,34*%
%TA.AperFunction,SMDPad,CuDef*%
G36*
G01*
X71719000Y-30673100D02*
X71719000Y-30926900D01*
G75*
G02*
X71710900Y-30935000I-8100J0D01*
G01*
X70867100Y-30935000D01*
G75*
G02*
X70859000Y-30926900I0J8100D01*
G01*
X70859000Y-30673100D01*
G75*
G02*
X70867100Y-30665000I8100J0D01*
G01*
X71710900Y-30665000D01*
G75*
G02*
X71719000Y-30673100I0J-8100D01*
G01*
G37*
%TD.AperFunction*%
%TO.P,U1,35*%
%TA.AperFunction,SMDPad,CuDef*%
G36*
G01*
X71719000Y-31173100D02*
X71719000Y-31426900D01*
G75*
G02*
X71710900Y-31435000I-8100J0D01*
G01*
X70867100Y-31435000D01*
G75*
G02*
X70859000Y-31426900I0J8100D01*
G01*
X70859000Y-31173100D01*
G75*
G02*
X70867100Y-31165000I8100J0D01*
G01*
X71710900Y-31165000D01*
G75*
G02*
X71719000Y-31173100I0J-8100D01*
G01*
G37*
%TD.AperFunction*%
%TO.P,U1,36*%
%TO.N,Net-(U1-Pad36)*%
%TA.AperFunction,SMDPad,CuDef*%
G36*
G01*
X71719000Y-31673100D02*
X71719000Y-31926900D01*
G75*
G02*
X71710900Y-31935000I-8100J0D01*
G01*
X70867100Y-31935000D01*
G75*
G02*
X70859000Y-31926900I0J8100D01*
G01*
X70859000Y-31673100D01*
G75*
G02*
X70867100Y-31665000I8100J0D01*
G01*
X71710900Y-31665000D01*
G75*
G02*
X71719000Y-31673100I0J-8100D01*
G01*
G37*
%TD.AperFunction*%
D20*
%TO.P,U1,49*%
%TO.N,GND*%
X74724000Y-29050000D03*
%TD*%
D21*
%TO.N,*%
X76657200Y-23469600D03*
%TO.N,GND*%
X74275200Y-22301200D03*
X74834000Y-22707600D03*
X69342000Y-26263600D03*
X69342000Y-26958800D03*
X69342000Y-27958800D03*
X80619600Y-24841200D03*
X76657200Y-22656800D03*
X76660000Y-21844000D03*
X77673200Y-23469600D03*
X69342000Y-23571200D03*
X69342000Y-21691600D03*
X71275200Y-21691600D03*
X75237600Y-19304000D03*
X78943200Y-33274000D03*
X69342000Y-22860000D03*
X70291200Y-22860000D03*
X72491600Y-22860000D03*
X75237600Y-20304000D03*
X69425000Y-30327600D03*
X72275200Y-21691600D03*
X73275200Y-21691600D03*
X74275200Y-21691600D03*
X75275200Y-21691600D03*
X70916800Y-25755600D03*
X76237600Y-19304000D03*
X77237600Y-19304000D03*
X73237600Y-26568400D03*
X74237600Y-26568400D03*
X75237600Y-26568400D03*
X76237600Y-26568400D03*
X77237600Y-26568400D03*
X72237600Y-27568400D03*
X72237600Y-28568400D03*
X72237600Y-29568400D03*
X72237600Y-30568400D03*
X72237600Y-31546800D03*
X72237600Y-26568400D03*
X73237600Y-31568400D03*
X74237600Y-31568400D03*
X75057000Y-31568400D03*
X77237600Y-27568400D03*
X77237600Y-29159200D03*
X73304400Y-38506400D03*
X78798302Y-38524298D03*
X71120000Y-22860000D03*
X69425000Y-31887099D03*
%TO.N,+BATT*%
X80517999Y-25432536D03*
X75488800Y-34975800D03*
X80518000Y-32537400D03*
X75234800Y-36830000D03*
X75255966Y-37318418D03*
%TO.N,/LSM_INT1*%
X80213200Y-20269200D03*
X80517999Y-23850600D03*
%TO.N,/LSM_INT2*%
X70256400Y-28313000D03*
X77142343Y-21476229D03*
%TO.N,/CS*%
X78494001Y-23579199D03*
X74474021Y-33679202D03*
%TO.N,/SCK*%
X79051550Y-23189095D03*
X74973990Y-33259345D03*
%TO.N,/MISO*%
X80051561Y-23264306D03*
X75539600Y-33832800D03*
%TO.N,/MOSI*%
X79509359Y-23576942D03*
X75985067Y-33188212D03*
%TO.N,/SWDIO*%
X72796400Y-33731200D03*
%TO.N,/SWCLK*%
X73926920Y-33348531D03*
%TO.N,/BOOT0*%
X79029961Y-30560928D03*
%TO.N,+1V8*%
X80264000Y-19558000D03*
X75946000Y-20828000D03*
X75806259Y-24244259D03*
X69646800Y-28549600D03*
X73474010Y-33742088D03*
X80122261Y-31836861D03*
D22*
X80365600Y-33883600D03*
D21*
X76809600Y-33782000D03*
X80574978Y-27746389D03*
X77927198Y-24180798D03*
X71170800Y-32766000D03*
X71956363Y-24602240D03*
%TO.N,/TPS_MODE*%
X75488802Y-37871400D03*
X71727561Y-33779961D03*
%TO.N,/TPS_STOP*%
X72339200Y-33324800D03*
X79668130Y-38161096D03*
D22*
%TO.N,/CELL-*%
X71583501Y-37750701D03*
D21*
%TO.N,/NRST*%
X80574980Y-28346400D03*
%TO.N,/RAD_PLANE*%
X69392800Y-19405600D03*
X73964800Y-19405600D03*
%TO.N,/LED_1*%
X79508632Y-30080232D03*
%TO.N,/BTN_0*%
X77994001Y-25603200D03*
%TO.N,/BTN_1*%
X77112820Y-24741147D03*
%TO.N,/BTN_2*%
X76512824Y-24745463D03*
%TO.N,/BTN_3*%
X75927017Y-24875252D03*
%TD*%
D23*
%TO.N,Net-(AE1-Pad1)*%
X73470000Y-22923001D02*
X73470000Y-22670000D01*
X73470000Y-23035001D02*
X73470000Y-22923001D01*
D24*
X73470000Y-22517600D02*
X73470000Y-22670000D01*
X73253600Y-22301200D02*
X73470000Y-22517600D01*
X70408800Y-22301200D02*
X73253600Y-22301200D01*
X70205600Y-22098000D02*
X70408800Y-22301200D01*
X70205600Y-21040001D02*
X70205600Y-22098000D01*
%TO.N,GND*%
X78494001Y-19577999D02*
X78514000Y-19558000D01*
X78494001Y-20633700D02*
X78494001Y-19577999D01*
D25*
X78994000Y-20633700D02*
X78494001Y-20633700D01*
X80204300Y-21340000D02*
X80204300Y-21840000D01*
X78994000Y-21092761D02*
X78994000Y-20633700D01*
X79241239Y-21340000D02*
X78994000Y-21092761D01*
X80204300Y-21340000D02*
X79241239Y-21340000D01*
D24*
X76771500Y-36587999D02*
X76771500Y-36131500D01*
D26*
X78458000Y-33756600D02*
X78458000Y-33731200D01*
X78967300Y-33249900D02*
X78943200Y-33274000D01*
X78967300Y-33221900D02*
X78967300Y-33249900D01*
X78458000Y-33731200D02*
X78967300Y-33221900D01*
X78967300Y-33221900D02*
X79425800Y-32763400D01*
D23*
X69579000Y-24590000D02*
X69579000Y-24251000D01*
X70679800Y-25518600D02*
X70916800Y-25755600D01*
X70679800Y-25114600D02*
X70679800Y-25518600D01*
X77498000Y-34716600D02*
X78458000Y-33756600D01*
X77498000Y-34798000D02*
X77498000Y-34716600D01*
D27*
X71422800Y-34696400D02*
X69977000Y-34696400D01*
X77498000Y-35405000D02*
X76771500Y-36131500D01*
X77498000Y-34798000D02*
X77498000Y-35405000D01*
D25*
X73789600Y-38021200D02*
X73304400Y-38506400D01*
X73789600Y-37973000D02*
X73789600Y-38021200D01*
D23*
X78168500Y-38088001D02*
X78362005Y-38088001D01*
X78362005Y-38088001D02*
X78798302Y-38524298D01*
%TO.N,/RF1*%
X73470000Y-25611000D02*
X73474000Y-25615000D01*
X73470000Y-24208999D02*
X73470000Y-25611000D01*
%TO.N,Net-(U1-Pad24)*%
X71100600Y-24364600D02*
X70679800Y-24364600D01*
X71475600Y-24739600D02*
X71100600Y-24364600D01*
X71475600Y-25349200D02*
X71475600Y-24739600D01*
X71741400Y-25615000D02*
X71475600Y-25349200D01*
X71974000Y-25615000D02*
X71741400Y-25615000D01*
%TO.N,Net-(U1-Pad25)*%
X69629800Y-25639600D02*
X69629800Y-25114600D01*
X70290200Y-26300000D02*
X69629800Y-25639600D01*
X71289000Y-26300000D02*
X70290200Y-26300000D01*
%TO.N,+BATT*%
X80416400Y-25534135D02*
X80517999Y-25432536D01*
X80416400Y-26007600D02*
X80416400Y-25534135D01*
X74726800Y-35028600D02*
X74754200Y-35001200D01*
X74726800Y-37236400D02*
X74726800Y-35028600D01*
X75463400Y-35001200D02*
X75488800Y-34975800D01*
X74754200Y-35001200D02*
X75463400Y-35001200D01*
D27*
X76744500Y-38115001D02*
X76771500Y-38115001D01*
X76388100Y-38471401D02*
X76744500Y-38115001D01*
X74938001Y-38471401D02*
X76388100Y-38471401D01*
X74749600Y-38283000D02*
X74938001Y-38471401D01*
X74749600Y-37973000D02*
X74749600Y-38283000D01*
D24*
X75255966Y-37318418D02*
X75062818Y-37318418D01*
X75255966Y-36851166D02*
X75234800Y-36830000D01*
X75255966Y-37318418D02*
X75255966Y-36851166D01*
X75255966Y-37318418D02*
X75255966Y-37308366D01*
D23*
%TO.N,/LSM_INT1*%
X80204300Y-20839999D02*
X80204300Y-20278100D01*
X80204300Y-20278100D02*
X80213200Y-20269200D01*
D25*
X78159000Y-26209599D02*
X78159000Y-26300000D01*
X80517999Y-23850600D02*
X78159000Y-26209599D01*
D23*
%TO.N,/LSM_INT2*%
X71276000Y-28313000D02*
X71289000Y-28300000D01*
X70256400Y-28313000D02*
X71276000Y-28313000D01*
D25*
X77278572Y-21340000D02*
X77142343Y-21476229D01*
X77783700Y-21340000D02*
X77278572Y-21340000D01*
D23*
%TO.N,/CS*%
X78494001Y-22546300D02*
X78494001Y-23579199D01*
X74473989Y-33679170D02*
X74474021Y-33679202D01*
X74473989Y-32485011D02*
X74473989Y-33679170D01*
X74474000Y-32485000D02*
X74473989Y-32485011D01*
%TO.N,/SCK*%
X78994000Y-23131545D02*
X79051550Y-23189095D01*
X78994000Y-22546300D02*
X78994000Y-23131545D01*
X74974000Y-33259335D02*
X74973990Y-33259345D01*
X74974000Y-32485000D02*
X74974000Y-33259335D01*
%TO.N,/MISO*%
X80204300Y-22340001D02*
X80204300Y-23111567D01*
X80204300Y-23111567D02*
X80051561Y-23264306D01*
X75474000Y-33767200D02*
X75539600Y-33832800D01*
X75474000Y-32485000D02*
X75474000Y-33767200D01*
%TO.N,/MOSI*%
X79551551Y-23534750D02*
X79509359Y-23576942D01*
X79551551Y-22603852D02*
X79551551Y-23534750D01*
X79493999Y-22546300D02*
X79551551Y-22603852D01*
X75974000Y-32485000D02*
X75974000Y-33177145D01*
X75974000Y-33177145D02*
X75985067Y-33188212D01*
%TO.N,/SWDIO*%
X72974000Y-33553600D02*
X72796400Y-33731200D01*
X72974000Y-32485000D02*
X72974000Y-33553600D01*
D26*
%TO.N,/SWCLK*%
X73974000Y-33301451D02*
X73926920Y-33348531D01*
X73974000Y-32485000D02*
X73974000Y-33301451D01*
%TO.N,/BOOT0*%
X78159000Y-30300000D02*
X78769033Y-30300000D01*
X78769033Y-30300000D02*
X79029961Y-30560928D01*
D27*
%TO.N,+1V8*%
X79890000Y-34798000D02*
X80010000Y-34918000D01*
X78458000Y-34798000D02*
X79890000Y-34798000D01*
D24*
X79516454Y-20068061D02*
X79516454Y-20633700D01*
X79474000Y-20025607D02*
X79516454Y-20068061D01*
X79474000Y-19558000D02*
X79474000Y-20025607D01*
X79474000Y-19558000D02*
X80264000Y-19558000D01*
D26*
X79422400Y-31800000D02*
X79425800Y-31803400D01*
X78159000Y-31800000D02*
X79422400Y-31800000D01*
X77474000Y-33732600D02*
X77498000Y-33756600D01*
X77474000Y-32485000D02*
X77474000Y-33732600D01*
D23*
X77743701Y-20800000D02*
X77783700Y-20839999D01*
X76708000Y-20800000D02*
X77743701Y-20800000D01*
X75974000Y-20800000D02*
X75946000Y-20828000D01*
X76708000Y-20800000D02*
X75974000Y-20800000D01*
X75694518Y-24356000D02*
X75806259Y-24244259D01*
X75184000Y-24356000D02*
X75694518Y-24356000D01*
X71281800Y-31292800D02*
X71289000Y-31300000D01*
X70025200Y-31292800D02*
X71281800Y-31292800D01*
X69977000Y-31341000D02*
X70025200Y-31292800D01*
X75184000Y-24638000D02*
X75184000Y-24356000D01*
X75057000Y-24765000D02*
X75184000Y-24638000D01*
X74168000Y-24765000D02*
X75057000Y-24765000D01*
X73964800Y-24968200D02*
X74168000Y-24765000D01*
X73964800Y-25615000D02*
X73964800Y-24968200D01*
X73974000Y-25615000D02*
X73964800Y-25615000D01*
X73394124Y-33135058D02*
X73394124Y-33662202D01*
X73474000Y-32485000D02*
X73474000Y-33055182D01*
X73474000Y-33055182D02*
X73394124Y-33135058D01*
X73394124Y-33662202D02*
X73474010Y-33742088D01*
D26*
X80088800Y-31803400D02*
X80122261Y-31836861D01*
X79425800Y-31803400D02*
X80088800Y-31803400D01*
X78168500Y-35598100D02*
X78168500Y-35087500D01*
D24*
X78168500Y-36360100D02*
X78168500Y-36587999D01*
D26*
X78168500Y-36360100D02*
X78168500Y-35598100D01*
D24*
X78168500Y-35087500D02*
X78458000Y-34798000D01*
X78168500Y-36587999D02*
X78168500Y-35087500D01*
D28*
X70397200Y-29300000D02*
X69646800Y-28549600D01*
X71289000Y-29300000D02*
X70397200Y-29300000D01*
X71289000Y-31300000D02*
X71289000Y-30300000D01*
D27*
X80010000Y-34239200D02*
X80365600Y-33883600D01*
X80010000Y-34918000D02*
X80010000Y-34239200D01*
D26*
X76835000Y-33756600D02*
X76809600Y-33782000D01*
X77498000Y-33756600D02*
X76835000Y-33756600D01*
D23*
X78159000Y-28300000D02*
X79881386Y-28300000D01*
X79881386Y-28300000D02*
X80434997Y-27746389D01*
X80434997Y-27746389D02*
X80574978Y-27746389D01*
X75869720Y-24180798D02*
X77927198Y-24180798D01*
X75806259Y-24244259D02*
X75869720Y-24180798D01*
D26*
X69977000Y-31572200D02*
X71170800Y-32766000D01*
X69977000Y-31341000D02*
X69977000Y-31572200D01*
D23*
X72474000Y-24518400D02*
X72542400Y-24450000D01*
X72474000Y-25615000D02*
X72474000Y-24518400D01*
X71882000Y-24527877D02*
X71956363Y-24602240D01*
X71882000Y-24094400D02*
X71882000Y-24527877D01*
X72390160Y-24602240D02*
X72542400Y-24450000D01*
X71956363Y-24602240D02*
X72390160Y-24602240D01*
D24*
%TO.N,Net-(L3-Pad1)*%
X79880000Y-37088000D02*
X78168500Y-37088000D01*
X80010000Y-37218000D02*
X79880000Y-37088000D01*
D23*
%TO.N,/TPS_MODE*%
X76771500Y-37588000D02*
X75772202Y-37588000D01*
X75772202Y-37588000D02*
X75488802Y-37871400D01*
X71974000Y-32485000D02*
X71727561Y-32731439D01*
X71727561Y-32731439D02*
X71727561Y-33779961D01*
D24*
%TO.N,/TPS_STOP*%
X72474000Y-33190000D02*
X72339200Y-33324800D01*
X72474000Y-32485000D02*
X72474000Y-33190000D01*
D23*
X78977166Y-37588000D02*
X79550262Y-38161096D01*
X79550262Y-38161096D02*
X79668130Y-38161096D01*
X78168500Y-37588000D02*
X78977166Y-37588000D01*
D26*
%TO.N,/CELL-*%
X72537602Y-36796600D02*
X72584000Y-36796600D01*
X73629200Y-36796600D02*
X73761600Y-36929000D01*
X72584000Y-36796600D02*
X73629200Y-36796600D01*
X71583501Y-37750701D02*
X72537602Y-36796600D01*
D27*
X70909202Y-38425000D02*
X71583501Y-37750701D01*
X70662800Y-38425000D02*
X70909202Y-38425000D01*
D26*
%TO.N,Net-(C12-Pad1)*%
X73434000Y-36296600D02*
X73761600Y-35969000D01*
X72584000Y-36296600D02*
X73434000Y-36296600D01*
X73734200Y-35941600D02*
X73761600Y-35969000D01*
X73734200Y-35001200D02*
X73734200Y-35941600D01*
D23*
%TO.N,Net-(R2-Pad2)*%
X72584000Y-34837600D02*
X72442800Y-34696400D01*
X72584000Y-35796600D02*
X72584000Y-34837600D01*
D26*
%TO.N,/D_gate*%
X70662800Y-37775000D02*
X70662800Y-37084000D01*
X70950200Y-36796600D02*
X71434000Y-36796600D01*
X70662800Y-37084000D02*
X70950200Y-36796600D01*
%TO.N,/C_gate*%
X70805000Y-36296600D02*
X71434000Y-36296600D01*
X70012800Y-37088800D02*
X70805000Y-36296600D01*
X70012800Y-37775000D02*
X70012800Y-37088800D01*
D23*
%TO.N,/BATT_LVL*%
X80416400Y-27027600D02*
X79400400Y-27027600D01*
X79400400Y-27297600D02*
X78898000Y-27800000D01*
X78898000Y-27800000D02*
X78676800Y-27800000D01*
X79400400Y-27027600D02*
X79400400Y-27297600D01*
X78159000Y-27800000D02*
X78676800Y-27800000D01*
%TO.N,/NRST*%
X78159000Y-28800000D02*
X80121380Y-28800000D01*
X80121380Y-28800000D02*
X80574980Y-28346400D01*
%TO.N,/LED_1*%
X78728400Y-29300000D02*
X79508632Y-30080232D01*
X78159000Y-29300000D02*
X78728400Y-29300000D01*
D25*
%TO.N,/BTN_0*%
X77474000Y-25615000D02*
X77474000Y-25573187D01*
X77982201Y-25615000D02*
X77994001Y-25603200D01*
X77474000Y-25615000D02*
X77982201Y-25615000D01*
%TO.N,/BTN_1*%
X76974000Y-25615000D02*
X76974000Y-25642000D01*
X76974000Y-24879967D02*
X77112820Y-24741147D01*
X76974000Y-25615000D02*
X76974000Y-24879967D01*
%TO.N,/BTN_2*%
X76474000Y-24784287D02*
X76512824Y-24745463D01*
X76474000Y-25615000D02*
X76474000Y-24784287D01*
%TO.N,/BTN_3*%
X75974000Y-24922235D02*
X75927017Y-24875252D01*
X75974000Y-25615000D02*
X75974000Y-24922235D01*
%TD*%
D29*
%TO.N,GND*%
X76525929Y-34127654D02*
X76598814Y-34176354D01*
X76679798Y-34209899D01*
X76765771Y-34227000D01*
X76853429Y-34227000D01*
X76939402Y-34209899D01*
X77020386Y-34176354D01*
X77049709Y-34156761D01*
X77084926Y-34199674D01*
X77143447Y-34247701D01*
X77210213Y-34283388D01*
X77282659Y-34305365D01*
X77358000Y-34312785D01*
X77425000Y-34312785D01*
X77425000Y-36581800D01*
X75604155Y-36581800D01*
X75580454Y-36546329D01*
X75518471Y-36484346D01*
X75445586Y-36435646D01*
X75364602Y-36402101D01*
X75356000Y-36400390D01*
X75356000Y-35402457D01*
X75358998Y-35403699D01*
X75444971Y-35420800D01*
X75532629Y-35420800D01*
X75618602Y-35403699D01*
X75699586Y-35370154D01*
X75772471Y-35321454D01*
X75834454Y-35259471D01*
X75883154Y-35186586D01*
X75916699Y-35105602D01*
X75933800Y-35019629D01*
X75933800Y-34931971D01*
X75916699Y-34845998D01*
X75883154Y-34765014D01*
X75834454Y-34692129D01*
X75772471Y-34630146D01*
X75699586Y-34581446D01*
X75618602Y-34547901D01*
X75532629Y-34530800D01*
X75444971Y-34530800D01*
X75358998Y-34547901D01*
X75356000Y-34549143D01*
X75356000Y-34238415D01*
X75409798Y-34260699D01*
X75495771Y-34277800D01*
X75583429Y-34277800D01*
X75669402Y-34260699D01*
X75750386Y-34227154D01*
X75823271Y-34178454D01*
X75885254Y-34116471D01*
X75908955Y-34081000D01*
X76479275Y-34081000D01*
X76525929Y-34127654D01*
%TA.AperFunction,Conductor*%
D30*
G36*
X76525929Y-34127654D02*
G01*
X76598814Y-34176354D01*
X76679798Y-34209899D01*
X76765771Y-34227000D01*
X76853429Y-34227000D01*
X76939402Y-34209899D01*
X77020386Y-34176354D01*
X77049709Y-34156761D01*
X77084926Y-34199674D01*
X77143447Y-34247701D01*
X77210213Y-34283388D01*
X77282659Y-34305365D01*
X77358000Y-34312785D01*
X77425000Y-34312785D01*
X77425000Y-36581800D01*
X75604155Y-36581800D01*
X75580454Y-36546329D01*
X75518471Y-36484346D01*
X75445586Y-36435646D01*
X75364602Y-36402101D01*
X75356000Y-36400390D01*
X75356000Y-35402457D01*
X75358998Y-35403699D01*
X75444971Y-35420800D01*
X75532629Y-35420800D01*
X75618602Y-35403699D01*
X75699586Y-35370154D01*
X75772471Y-35321454D01*
X75834454Y-35259471D01*
X75883154Y-35186586D01*
X75916699Y-35105602D01*
X75933800Y-35019629D01*
X75933800Y-34931971D01*
X75916699Y-34845998D01*
X75883154Y-34765014D01*
X75834454Y-34692129D01*
X75772471Y-34630146D01*
X75699586Y-34581446D01*
X75618602Y-34547901D01*
X75532629Y-34530800D01*
X75444971Y-34530800D01*
X75358998Y-34547901D01*
X75356000Y-34549143D01*
X75356000Y-34238415D01*
X75409798Y-34260699D01*
X75495771Y-34277800D01*
X75583429Y-34277800D01*
X75669402Y-34260699D01*
X75750386Y-34227154D01*
X75823271Y-34178454D01*
X75885254Y-34116471D01*
X75908955Y-34081000D01*
X76479275Y-34081000D01*
X76525929Y-34127654D01*
G37*
%TD.AperFunction*%
%TD*%
D29*
%TO.N,GND*%
X78982726Y-32216474D02*
X79041247Y-32264501D01*
X79108013Y-32300188D01*
X79180459Y-32322165D01*
X79255800Y-32329585D01*
X79595800Y-32329585D01*
X79671141Y-32322165D01*
X79743587Y-32300188D01*
X79810353Y-32264501D01*
X79868874Y-32216474D01*
X79876148Y-32207610D01*
X79911475Y-32231215D01*
X79992459Y-32264760D01*
X80078432Y-32281861D01*
X80153549Y-32281861D01*
X80123646Y-32326614D01*
X80090101Y-32407598D01*
X80073000Y-32493571D01*
X80073000Y-32581229D01*
X80090101Y-32667202D01*
X80123646Y-32748186D01*
X80172346Y-32821071D01*
X80234329Y-32883054D01*
X80307214Y-32931754D01*
X80388198Y-32965299D01*
X80474171Y-32982400D01*
X80561829Y-32982400D01*
X80647802Y-32965299D01*
X80728786Y-32931754D01*
X80801671Y-32883054D01*
X80840001Y-32844724D01*
X80840001Y-33445833D01*
X80776764Y-33382596D01*
X80671122Y-33312008D01*
X80553740Y-33263387D01*
X80429127Y-33238600D01*
X80302073Y-33238600D01*
X80177460Y-33263387D01*
X80060078Y-33312008D01*
X79954436Y-33382596D01*
X79864596Y-33472436D01*
X79794008Y-33578078D01*
X79745387Y-33695460D01*
X79720600Y-33820073D01*
X79720600Y-33864000D01*
X78024185Y-33864000D01*
X78024185Y-33586600D01*
X78016765Y-33511259D01*
X77994788Y-33438813D01*
X77959101Y-33372047D01*
X77911074Y-33313526D01*
X77852553Y-33265499D01*
X77846000Y-33261996D01*
X77846000Y-32970681D01*
X77850299Y-32956509D01*
X77855185Y-32906900D01*
X77855185Y-32181185D01*
X78580900Y-32181185D01*
X78630509Y-32176299D01*
X78644681Y-32172000D01*
X78946227Y-32172000D01*
X78982726Y-32216474D01*
%TA.AperFunction,Conductor*%
D30*
G36*
X78982726Y-32216474D02*
G01*
X79041247Y-32264501D01*
X79108013Y-32300188D01*
X79180459Y-32322165D01*
X79255800Y-32329585D01*
X79595800Y-32329585D01*
X79671141Y-32322165D01*
X79743587Y-32300188D01*
X79810353Y-32264501D01*
X79868874Y-32216474D01*
X79876148Y-32207610D01*
X79911475Y-32231215D01*
X79992459Y-32264760D01*
X80078432Y-32281861D01*
X80153549Y-32281861D01*
X80123646Y-32326614D01*
X80090101Y-32407598D01*
X80073000Y-32493571D01*
X80073000Y-32581229D01*
X80090101Y-32667202D01*
X80123646Y-32748186D01*
X80172346Y-32821071D01*
X80234329Y-32883054D01*
X80307214Y-32931754D01*
X80388198Y-32965299D01*
X80474171Y-32982400D01*
X80561829Y-32982400D01*
X80647802Y-32965299D01*
X80728786Y-32931754D01*
X80801671Y-32883054D01*
X80840001Y-32844724D01*
X80840001Y-33445833D01*
X80776764Y-33382596D01*
X80671122Y-33312008D01*
X80553740Y-33263387D01*
X80429127Y-33238600D01*
X80302073Y-33238600D01*
X80177460Y-33263387D01*
X80060078Y-33312008D01*
X79954436Y-33382596D01*
X79864596Y-33472436D01*
X79794008Y-33578078D01*
X79745387Y-33695460D01*
X79720600Y-33820073D01*
X79720600Y-33864000D01*
X78024185Y-33864000D01*
X78024185Y-33586600D01*
X78016765Y-33511259D01*
X77994788Y-33438813D01*
X77959101Y-33372047D01*
X77911074Y-33313526D01*
X77852553Y-33265499D01*
X77846000Y-33261996D01*
X77846000Y-32970681D01*
X77850299Y-32956509D01*
X77855185Y-32906900D01*
X77855185Y-32181185D01*
X78580900Y-32181185D01*
X78630509Y-32176299D01*
X78644681Y-32172000D01*
X78946227Y-32172000D01*
X78982726Y-32216474D01*
G37*
%TD.AperFunction*%
D29*
X79012899Y-19173447D02*
X78977212Y-19240213D01*
X78955235Y-19312659D01*
X78947815Y-19388000D01*
X78947815Y-19728000D01*
X78955235Y-19803341D01*
X78977212Y-19875787D01*
X79012899Y-19942553D01*
X79060926Y-20001074D01*
X79081199Y-20017711D01*
X79080421Y-20025607D01*
X79087983Y-20102391D01*
X79110379Y-20176223D01*
X79110380Y-20176224D01*
X79122117Y-20198181D01*
X79113536Y-20208637D01*
X79090786Y-20251199D01*
X79076776Y-20297382D01*
X79072046Y-20345410D01*
X79072046Y-20921990D01*
X79076776Y-20970018D01*
X79090786Y-21016201D01*
X79113536Y-21058763D01*
X79144152Y-21096069D01*
X79181458Y-21126685D01*
X79224020Y-21149435D01*
X79270203Y-21163445D01*
X79318231Y-21168175D01*
X79669767Y-21168175D01*
X79717795Y-21163445D01*
X79719772Y-21162845D01*
X79741931Y-21189846D01*
X79779237Y-21220462D01*
X79821799Y-21243212D01*
X79867982Y-21257222D01*
X79916010Y-21261952D01*
X80492590Y-21261952D01*
X80540618Y-21257222D01*
X80586801Y-21243212D01*
X80629363Y-21220462D01*
X80666669Y-21189846D01*
X80697285Y-21152540D01*
X80720035Y-21109978D01*
X80734045Y-21063795D01*
X80738775Y-21015767D01*
X80738775Y-20664231D01*
X80734045Y-20616203D01*
X80720035Y-20570020D01*
X80697285Y-20527458D01*
X80666669Y-20490152D01*
X80629363Y-20459536D01*
X80618443Y-20453699D01*
X80641099Y-20399002D01*
X80658200Y-20313029D01*
X80658200Y-20225371D01*
X80641099Y-20139398D01*
X80607554Y-20058414D01*
X80558854Y-19985529D01*
X80505294Y-19931969D01*
X80547671Y-19903654D01*
X80609654Y-19841671D01*
X80658354Y-19768786D01*
X80691899Y-19687802D01*
X80709000Y-19601829D01*
X80709000Y-19514171D01*
X80691899Y-19428198D01*
X80658354Y-19347214D01*
X80609654Y-19274329D01*
X80547671Y-19212346D01*
X80474786Y-19163646D01*
X80465984Y-19160000D01*
X80840000Y-19160000D01*
X80840000Y-23543276D01*
X80801670Y-23504946D01*
X80728785Y-23456246D01*
X80647801Y-23422701D01*
X80561828Y-23405600D01*
X80474700Y-23405600D01*
X80479460Y-23394108D01*
X80496561Y-23308135D01*
X80496561Y-23296652D01*
X80514543Y-23263009D01*
X80524580Y-23244232D01*
X80544308Y-23179199D01*
X80550969Y-23111567D01*
X80549300Y-23094621D01*
X80549300Y-22754590D01*
X80586801Y-22743214D01*
X80629363Y-22720464D01*
X80666669Y-22689848D01*
X80697285Y-22652542D01*
X80720035Y-22609980D01*
X80734045Y-22563797D01*
X80738775Y-22515769D01*
X80738775Y-22164233D01*
X80734045Y-22116205D01*
X80720035Y-22070022D01*
X80697285Y-22027460D01*
X80666669Y-21990154D01*
X80629363Y-21959538D01*
X80586801Y-21936788D01*
X80540618Y-21922778D01*
X80492590Y-21918048D01*
X79916010Y-21918048D01*
X79867982Y-21922778D01*
X79821799Y-21936788D01*
X79779237Y-21959538D01*
X79741931Y-21990154D01*
X79719772Y-22017155D01*
X79717795Y-22016555D01*
X79669767Y-22011825D01*
X79318231Y-22011825D01*
X79270203Y-22016555D01*
X79244000Y-22024504D01*
X79217796Y-22016555D01*
X79169768Y-22011825D01*
X78818232Y-22011825D01*
X78770204Y-22016555D01*
X78744001Y-22024504D01*
X78717797Y-22016555D01*
X78669769Y-22011825D01*
X78318233Y-22011825D01*
X78318175Y-22011831D01*
X78318175Y-21664232D01*
X78313445Y-21616204D01*
X78305496Y-21590000D01*
X78313445Y-21563796D01*
X78318175Y-21515768D01*
X78318175Y-21164232D01*
X78313445Y-21116204D01*
X78305496Y-21089999D01*
X78313445Y-21063795D01*
X78318175Y-21015767D01*
X78318175Y-20664231D01*
X78313445Y-20616203D01*
X78299435Y-20570020D01*
X78276685Y-20527458D01*
X78246069Y-20490152D01*
X78208763Y-20459536D01*
X78166201Y-20436786D01*
X78120018Y-20422776D01*
X78071990Y-20418046D01*
X77495410Y-20418046D01*
X77447382Y-20422776D01*
X77401199Y-20436786D01*
X77367123Y-20455000D01*
X77204207Y-20455000D01*
X77199101Y-20445447D01*
X77151074Y-20386926D01*
X77092553Y-20338899D01*
X77025787Y-20303212D01*
X76953341Y-20281235D01*
X76878000Y-20273815D01*
X76538000Y-20273815D01*
X76462659Y-20281235D01*
X76390213Y-20303212D01*
X76323447Y-20338899D01*
X76264926Y-20386926D01*
X76216899Y-20445447D01*
X76211793Y-20455000D01*
X76188745Y-20455000D01*
X76156786Y-20433646D01*
X76075802Y-20400101D01*
X75989829Y-20383000D01*
X75902171Y-20383000D01*
X75816198Y-20400101D01*
X75735214Y-20433646D01*
X75662329Y-20482346D01*
X75600346Y-20544329D01*
X75551646Y-20617214D01*
X75518101Y-20698198D01*
X75501000Y-20784171D01*
X75501000Y-20871829D01*
X75518101Y-20957802D01*
X75551646Y-21038786D01*
X75600346Y-21111671D01*
X75662329Y-21173654D01*
X75735214Y-21222354D01*
X75816198Y-21255899D01*
X75902171Y-21273000D01*
X75989829Y-21273000D01*
X76075802Y-21255899D01*
X76156786Y-21222354D01*
X76229671Y-21173654D01*
X76231266Y-21172059D01*
X76264926Y-21213074D01*
X76323447Y-21261101D01*
X76390213Y-21296788D01*
X76462659Y-21318765D01*
X76538000Y-21326185D01*
X76722829Y-21326185D01*
X76714444Y-21346427D01*
X76697343Y-21432400D01*
X76697343Y-21520058D01*
X76714444Y-21606031D01*
X76747989Y-21687015D01*
X76796689Y-21759900D01*
X76858672Y-21821883D01*
X76931557Y-21870583D01*
X77012541Y-21904128D01*
X77098514Y-21921229D01*
X77186172Y-21921229D01*
X77249225Y-21908687D01*
X77249225Y-22015768D01*
X77253955Y-22063796D01*
X77261904Y-22090001D01*
X77253955Y-22116205D01*
X77249225Y-22164233D01*
X77249225Y-22515769D01*
X77253955Y-22563797D01*
X77267965Y-22609980D01*
X77290715Y-22652542D01*
X77321331Y-22689848D01*
X77358637Y-22720464D01*
X77401199Y-22743214D01*
X77447382Y-22757224D01*
X77495410Y-22761954D01*
X78071990Y-22761954D01*
X78072048Y-22761948D01*
X78072048Y-22834590D01*
X78076778Y-22882618D01*
X78090788Y-22928801D01*
X78113538Y-22971363D01*
X78144154Y-23008669D01*
X78149001Y-23012647D01*
X78149002Y-23294873D01*
X78148347Y-23295528D01*
X78099647Y-23368413D01*
X78066102Y-23449397D01*
X78049001Y-23535370D01*
X78049001Y-23623028D01*
X78066102Y-23709001D01*
X78089936Y-23766542D01*
X78057000Y-23752899D01*
X77971027Y-23735798D01*
X77883369Y-23735798D01*
X77797396Y-23752899D01*
X77716412Y-23786444D01*
X77643527Y-23835144D01*
X77642873Y-23835798D01*
X76910125Y-23835798D01*
X76940871Y-23815254D01*
X77002854Y-23753271D01*
X77051554Y-23680386D01*
X77085099Y-23599402D01*
X77102200Y-23513429D01*
X77102200Y-23425771D01*
X77085099Y-23339798D01*
X77051554Y-23258814D01*
X77002854Y-23185929D01*
X76940871Y-23123946D01*
X76867986Y-23075246D01*
X76787002Y-23041701D01*
X76701029Y-23024600D01*
X76613371Y-23024600D01*
X76527398Y-23041701D01*
X76446414Y-23075246D01*
X76373529Y-23123946D01*
X76311546Y-23185929D01*
X76262846Y-23258814D01*
X76229301Y-23339798D01*
X76212200Y-23425771D01*
X76212200Y-23513429D01*
X76229301Y-23599402D01*
X76262846Y-23680386D01*
X76311546Y-23753271D01*
X76373529Y-23815254D01*
X76404275Y-23835798D01*
X75982988Y-23835798D01*
X75936061Y-23816360D01*
X75850088Y-23799259D01*
X75762430Y-23799259D01*
X75676457Y-23816360D01*
X75595473Y-23849905D01*
X75546098Y-23882896D01*
X75501787Y-23859212D01*
X75429341Y-23837235D01*
X75354000Y-23829815D01*
X75014000Y-23829815D01*
X74938659Y-23837235D01*
X74866213Y-23859212D01*
X74799447Y-23894899D01*
X74740926Y-23942926D01*
X74692899Y-24001447D01*
X74657212Y-24068213D01*
X74635235Y-24140659D01*
X74627815Y-24216000D01*
X74627815Y-24420000D01*
X74184935Y-24420000D01*
X74167999Y-24418332D01*
X74151063Y-24420000D01*
X74151054Y-24420000D01*
X74100368Y-24424992D01*
X74035336Y-24444720D01*
X73975401Y-24476755D01*
X73922868Y-24519868D01*
X73912062Y-24533035D01*
X73815000Y-24630097D01*
X73815000Y-24338878D01*
X73817785Y-24310599D01*
X73817785Y-24107399D01*
X73813055Y-24059371D01*
X73799045Y-24013188D01*
X73776295Y-23970626D01*
X73745679Y-23933320D01*
X73708373Y-23902704D01*
X73665811Y-23879954D01*
X73619628Y-23865944D01*
X73571600Y-23861214D01*
X73368400Y-23861214D01*
X73320372Y-23865944D01*
X73274189Y-23879954D01*
X73231627Y-23902704D01*
X73194321Y-23933320D01*
X73163705Y-23970626D01*
X73140955Y-24013188D01*
X73126945Y-24059371D01*
X73122215Y-24107399D01*
X73122215Y-24310599D01*
X73125000Y-24338879D01*
X73125001Y-25071787D01*
X73112171Y-25095789D01*
X73097701Y-25143491D01*
X73092815Y-25193100D01*
X73092815Y-26036900D01*
X73097701Y-26086509D01*
X73112171Y-26134211D01*
X73135670Y-26178173D01*
X73167293Y-26216707D01*
X73205827Y-26248330D01*
X73249789Y-26271829D01*
X73297491Y-26286299D01*
X73347100Y-26291185D01*
X73600900Y-26291185D01*
X73650509Y-26286299D01*
X73698211Y-26271829D01*
X73724000Y-26258044D01*
X73749789Y-26271829D01*
X73797491Y-26286299D01*
X73847100Y-26291185D01*
X74100900Y-26291185D01*
X74150509Y-26286299D01*
X74198211Y-26271829D01*
X74224000Y-26258044D01*
X74249789Y-26271829D01*
X74297491Y-26286299D01*
X74347100Y-26291185D01*
X74600900Y-26291185D01*
X74650509Y-26286299D01*
X74698211Y-26271829D01*
X74724000Y-26258044D01*
X74749789Y-26271829D01*
X74797491Y-26286299D01*
X74847100Y-26291185D01*
X75100900Y-26291185D01*
X75150509Y-26286299D01*
X75198211Y-26271829D01*
X75224000Y-26258044D01*
X75249789Y-26271829D01*
X75297491Y-26286299D01*
X75347100Y-26291185D01*
X75600900Y-26291185D01*
X75650509Y-26286299D01*
X75698211Y-26271829D01*
X75724000Y-26258044D01*
X75749789Y-26271829D01*
X75797491Y-26286299D01*
X75847100Y-26291185D01*
X76100900Y-26291185D01*
X76150509Y-26286299D01*
X76198211Y-26271829D01*
X76224000Y-26258044D01*
X76249789Y-26271829D01*
X76297491Y-26286299D01*
X76347100Y-26291185D01*
X76600900Y-26291185D01*
X76650509Y-26286299D01*
X76698211Y-26271829D01*
X76724000Y-26258044D01*
X76749789Y-26271829D01*
X76797491Y-26286299D01*
X76847100Y-26291185D01*
X77100900Y-26291185D01*
X77150509Y-26286299D01*
X77198211Y-26271829D01*
X77224000Y-26258044D01*
X77249789Y-26271829D01*
X77297491Y-26286299D01*
X77347100Y-26291185D01*
X77482815Y-26291185D01*
X77482815Y-26426900D01*
X77487701Y-26476509D01*
X77502171Y-26524211D01*
X77515956Y-26550000D01*
X77502171Y-26575789D01*
X77487701Y-26623491D01*
X77482815Y-26673100D01*
X77482815Y-26926900D01*
X77487701Y-26976509D01*
X77502171Y-27024211D01*
X77515956Y-27050000D01*
X77502171Y-27075789D01*
X77487701Y-27123491D01*
X77482815Y-27173100D01*
X77482815Y-27426900D01*
X77487701Y-27476509D01*
X77502171Y-27524211D01*
X77515956Y-27550000D01*
X77502171Y-27575789D01*
X77487701Y-27623491D01*
X77482815Y-27673100D01*
X77482815Y-27926900D01*
X77487701Y-27976509D01*
X77502171Y-28024211D01*
X77515956Y-28050000D01*
X77502171Y-28075789D01*
X77487701Y-28123491D01*
X77482815Y-28173100D01*
X77482815Y-28426900D01*
X77487701Y-28476509D01*
X77502171Y-28524211D01*
X77515956Y-28550000D01*
X77502171Y-28575789D01*
X77487701Y-28623491D01*
X77482815Y-28673100D01*
X77482815Y-28926900D01*
X77487701Y-28976509D01*
X77502171Y-29024211D01*
X77515956Y-29050000D01*
X77502171Y-29075789D01*
X77487701Y-29123491D01*
X77482815Y-29173100D01*
X77482815Y-29426900D01*
X77487701Y-29476509D01*
X77502171Y-29524211D01*
X77515956Y-29550000D01*
X77502171Y-29575789D01*
X77487701Y-29623491D01*
X77482815Y-29673100D01*
X77482815Y-29926900D01*
X77487701Y-29976509D01*
X77502171Y-30024211D01*
X77515956Y-30050000D01*
X77502171Y-30075789D01*
X77487701Y-30123491D01*
X77482815Y-30173100D01*
X77482815Y-30426900D01*
X77487701Y-30476509D01*
X77502171Y-30524211D01*
X77515956Y-30550000D01*
X77502171Y-30575789D01*
X77487701Y-30623491D01*
X77482815Y-30673100D01*
X77482815Y-30926900D01*
X77487701Y-30976509D01*
X77502171Y-31024211D01*
X77515956Y-31050000D01*
X77502171Y-31075789D01*
X77487701Y-31123491D01*
X77482815Y-31173100D01*
X77482815Y-31426900D01*
X77487701Y-31476509D01*
X77502171Y-31524211D01*
X77515956Y-31550000D01*
X77502171Y-31575789D01*
X77487701Y-31623491D01*
X77482815Y-31673100D01*
X77482815Y-31808815D01*
X77347100Y-31808815D01*
X77297491Y-31813701D01*
X77249789Y-31828171D01*
X77224000Y-31841956D01*
X77198211Y-31828171D01*
X77150509Y-31813701D01*
X77100900Y-31808815D01*
X76847100Y-31808815D01*
X76797491Y-31813701D01*
X76749789Y-31828171D01*
X76724000Y-31841956D01*
X76698211Y-31828171D01*
X76650509Y-31813701D01*
X76600900Y-31808815D01*
X76347100Y-31808815D01*
X76297491Y-31813701D01*
X76249789Y-31828171D01*
X76224000Y-31841956D01*
X76198211Y-31828171D01*
X76150509Y-31813701D01*
X76100900Y-31808815D01*
X75847100Y-31808815D01*
X75797491Y-31813701D01*
X75749789Y-31828171D01*
X75724000Y-31841956D01*
X75698211Y-31828171D01*
X75650509Y-31813701D01*
X75600900Y-31808815D01*
X75347100Y-31808815D01*
X75297491Y-31813701D01*
X75249789Y-31828171D01*
X75224000Y-31841956D01*
X75198211Y-31828171D01*
X75150509Y-31813701D01*
X75100900Y-31808815D01*
X74847100Y-31808815D01*
X74797491Y-31813701D01*
X74749789Y-31828171D01*
X74724000Y-31841956D01*
X74698211Y-31828171D01*
X74650509Y-31813701D01*
X74600900Y-31808815D01*
X74347100Y-31808815D01*
X74297491Y-31813701D01*
X74249789Y-31828171D01*
X74224000Y-31841956D01*
X74198211Y-31828171D01*
X74150509Y-31813701D01*
X74100900Y-31808815D01*
X73847100Y-31808815D01*
X73797491Y-31813701D01*
X73749789Y-31828171D01*
X73724000Y-31841956D01*
X73698211Y-31828171D01*
X73650509Y-31813701D01*
X73600900Y-31808815D01*
X73347100Y-31808815D01*
X73297491Y-31813701D01*
X73249789Y-31828171D01*
X73224000Y-31841956D01*
X73198211Y-31828171D01*
X73150509Y-31813701D01*
X73100900Y-31808815D01*
X72847100Y-31808815D01*
X72797491Y-31813701D01*
X72749789Y-31828171D01*
X72724000Y-31841956D01*
X72698211Y-31828171D01*
X72650509Y-31813701D01*
X72600900Y-31808815D01*
X72347100Y-31808815D01*
X72297491Y-31813701D01*
X72249789Y-31828171D01*
X72224000Y-31841956D01*
X72198211Y-31828171D01*
X72150509Y-31813701D01*
X72100900Y-31808815D01*
X71965185Y-31808815D01*
X71965185Y-31673100D01*
X71960299Y-31623491D01*
X71945829Y-31575789D01*
X71932044Y-31550000D01*
X71945829Y-31524211D01*
X71960299Y-31476509D01*
X71965185Y-31426900D01*
X71965185Y-31173100D01*
X71960299Y-31123491D01*
X71945829Y-31075789D01*
X71932044Y-31050000D01*
X71945829Y-31024211D01*
X71960299Y-30976509D01*
X71965185Y-30926900D01*
X71965185Y-30673100D01*
X71960299Y-30623491D01*
X71945829Y-30575789D01*
X71932044Y-30550000D01*
X71945829Y-30524211D01*
X71960299Y-30476509D01*
X71965185Y-30426900D01*
X71965185Y-30173100D01*
X71960299Y-30123491D01*
X71945829Y-30075789D01*
X71922330Y-30031827D01*
X71890707Y-29993293D01*
X71852173Y-29961670D01*
X71808211Y-29938171D01*
X71760509Y-29923701D01*
X71710900Y-29918815D01*
X70867100Y-29918815D01*
X70817491Y-29923701D01*
X70769789Y-29938171D01*
X70725827Y-29961670D01*
X70687293Y-29993293D01*
X70655670Y-30031827D01*
X70632171Y-30075789D01*
X70617701Y-30123491D01*
X70612815Y-30173100D01*
X70612815Y-30426900D01*
X70617701Y-30476509D01*
X70632171Y-30524211D01*
X70645956Y-30550000D01*
X70632171Y-30575789D01*
X70617701Y-30623491D01*
X70612815Y-30673100D01*
X70612815Y-30926900D01*
X70614873Y-30947800D01*
X70436384Y-30947800D01*
X70420074Y-30927926D01*
X70361553Y-30879899D01*
X70294787Y-30844212D01*
X70222341Y-30822235D01*
X70147000Y-30814815D01*
X69807000Y-30814815D01*
X69731659Y-30822235D01*
X69659213Y-30844212D01*
X69592447Y-30879899D01*
X69533926Y-30927926D01*
X69485899Y-30986447D01*
X69450212Y-31053213D01*
X69428235Y-31125659D01*
X69420815Y-31201000D01*
X69420815Y-31481000D01*
X69428235Y-31556341D01*
X69450212Y-31628787D01*
X69485899Y-31695553D01*
X69533926Y-31754074D01*
X69592447Y-31802101D01*
X69659213Y-31837788D01*
X69731659Y-31859765D01*
X69739223Y-31860510D01*
X70735051Y-32856339D01*
X70742901Y-32895802D01*
X70776446Y-32976786D01*
X70825146Y-33049671D01*
X70887129Y-33111654D01*
X70960014Y-33160354D01*
X71040998Y-33193899D01*
X71126971Y-33211000D01*
X71214629Y-33211000D01*
X71300602Y-33193899D01*
X71381586Y-33160354D01*
X71382561Y-33159702D01*
X71382562Y-33495635D01*
X71381907Y-33496290D01*
X71333207Y-33569175D01*
X71299662Y-33650159D01*
X71282561Y-33736132D01*
X71282561Y-33823790D01*
X71290559Y-33864000D01*
X69160000Y-33864000D01*
X69160000Y-25666730D01*
X69160589Y-25667045D01*
X69206772Y-25681055D01*
X69254800Y-25685785D01*
X69287680Y-25685785D01*
X69289792Y-25707231D01*
X69309520Y-25772263D01*
X69341555Y-25832198D01*
X69384668Y-25884731D01*
X69397831Y-25895534D01*
X70034262Y-26531965D01*
X70045068Y-26545132D01*
X70097601Y-26588245D01*
X70157535Y-26620280D01*
X70222568Y-26640008D01*
X70290200Y-26646669D01*
X70307146Y-26645000D01*
X70615583Y-26645000D01*
X70612815Y-26673100D01*
X70612815Y-26926900D01*
X70617701Y-26976509D01*
X70632171Y-27024211D01*
X70645956Y-27050000D01*
X70632171Y-27075789D01*
X70617701Y-27123491D01*
X70612815Y-27173100D01*
X70612815Y-27426900D01*
X70617701Y-27476509D01*
X70632171Y-27524211D01*
X70645956Y-27550000D01*
X70632171Y-27575789D01*
X70617701Y-27623491D01*
X70612815Y-27673100D01*
X70612815Y-27926900D01*
X70616863Y-27968000D01*
X70540725Y-27968000D01*
X70540071Y-27967346D01*
X70467186Y-27918646D01*
X70386202Y-27885101D01*
X70300229Y-27868000D01*
X70212571Y-27868000D01*
X70126598Y-27885101D01*
X70045614Y-27918646D01*
X69972729Y-27967346D01*
X69910746Y-28029329D01*
X69862046Y-28102214D01*
X69842643Y-28149056D01*
X69776602Y-28121701D01*
X69690629Y-28104600D01*
X69602971Y-28104600D01*
X69516998Y-28121701D01*
X69436014Y-28155246D01*
X69363129Y-28203946D01*
X69301146Y-28265929D01*
X69252446Y-28338814D01*
X69218901Y-28419798D01*
X69201800Y-28505771D01*
X69201800Y-28593429D01*
X69218901Y-28679402D01*
X69252446Y-28760386D01*
X69301146Y-28833271D01*
X69363129Y-28895254D01*
X69436014Y-28943954D01*
X69516998Y-28977499D01*
X69559993Y-28986051D01*
X70122722Y-29548781D01*
X70134305Y-29562895D01*
X70190645Y-29609132D01*
X70254922Y-29643489D01*
X70324667Y-29664646D01*
X70379026Y-29670000D01*
X70379036Y-29670000D01*
X70397200Y-29671789D01*
X70415363Y-29670000D01*
X70796726Y-29670000D01*
X70817491Y-29676299D01*
X70867100Y-29681185D01*
X71710900Y-29681185D01*
X71760509Y-29676299D01*
X71808211Y-29661829D01*
X71852173Y-29638330D01*
X71890707Y-29606707D01*
X71922330Y-29568173D01*
X71945829Y-29524211D01*
X71960299Y-29476509D01*
X71965185Y-29426900D01*
X71965185Y-29173100D01*
X71960299Y-29123491D01*
X71945829Y-29075789D01*
X71932044Y-29050000D01*
X71945829Y-29024211D01*
X71960299Y-28976509D01*
X71965185Y-28926900D01*
X71965185Y-28673100D01*
X71960299Y-28623491D01*
X71945829Y-28575789D01*
X71932044Y-28550000D01*
X71945829Y-28524211D01*
X71960299Y-28476509D01*
X71965185Y-28426900D01*
X71965185Y-28173100D01*
X71960299Y-28123491D01*
X71945829Y-28075789D01*
X71932044Y-28050000D01*
X71945829Y-28024211D01*
X71960299Y-27976509D01*
X71965185Y-27926900D01*
X71965185Y-27673100D01*
X71960299Y-27623491D01*
X71945829Y-27575789D01*
X71932044Y-27550000D01*
X71945829Y-27524211D01*
X71960299Y-27476509D01*
X71965185Y-27426900D01*
X71965185Y-27173100D01*
X71960299Y-27123491D01*
X71945829Y-27075789D01*
X71932044Y-27050000D01*
X71945829Y-27024211D01*
X71960299Y-26976509D01*
X71965185Y-26926900D01*
X71965185Y-26673100D01*
X71960299Y-26623491D01*
X71945829Y-26575789D01*
X71932044Y-26550000D01*
X71945829Y-26524211D01*
X71960299Y-26476509D01*
X71965185Y-26426900D01*
X71965185Y-26291185D01*
X72100900Y-26291185D01*
X72150509Y-26286299D01*
X72198211Y-26271829D01*
X72224000Y-26258044D01*
X72249789Y-26271829D01*
X72297491Y-26286299D01*
X72347100Y-26291185D01*
X72600900Y-26291185D01*
X72650509Y-26286299D01*
X72698211Y-26271829D01*
X72742173Y-26248330D01*
X72780707Y-26216707D01*
X72812330Y-26178173D01*
X72835829Y-26134211D01*
X72850299Y-26086509D01*
X72855185Y-26036900D01*
X72855185Y-25193100D01*
X72850299Y-25143491D01*
X72835829Y-25095789D01*
X72819000Y-25064305D01*
X72819000Y-24876250D01*
X72834730Y-24867842D01*
X72887190Y-24824790D01*
X72930242Y-24772330D01*
X72962233Y-24712479D01*
X72981933Y-24647537D01*
X72988585Y-24580000D01*
X72988585Y-24320000D01*
X72981933Y-24252463D01*
X72962233Y-24187521D01*
X72930242Y-24127670D01*
X72887190Y-24075210D01*
X72834730Y-24032158D01*
X72774879Y-24000167D01*
X72709937Y-23980467D01*
X72642400Y-23973815D01*
X72442400Y-23973815D01*
X72374863Y-23980467D01*
X72328185Y-23994627D01*
X72328185Y-23964400D01*
X72321533Y-23896863D01*
X72301833Y-23831921D01*
X72269842Y-23772070D01*
X72226790Y-23719610D01*
X72174330Y-23676558D01*
X72114479Y-23644567D01*
X72049537Y-23624867D01*
X71982000Y-23618215D01*
X71782000Y-23618215D01*
X71714463Y-23624867D01*
X71649521Y-23644567D01*
X71589670Y-23676558D01*
X71537210Y-23719610D01*
X71494158Y-23772070D01*
X71462167Y-23831921D01*
X71442467Y-23896863D01*
X71435815Y-23964400D01*
X71435815Y-24211912D01*
X71356537Y-24132634D01*
X71345732Y-24119468D01*
X71300985Y-24082745D01*
X71300985Y-24039600D01*
X71296255Y-23991572D01*
X71282245Y-23945389D01*
X71259495Y-23902827D01*
X71228879Y-23865521D01*
X71191573Y-23834905D01*
X71149011Y-23812155D01*
X71102828Y-23798145D01*
X71054800Y-23793415D01*
X70304800Y-23793415D01*
X70256772Y-23798145D01*
X70210589Y-23812155D01*
X70168027Y-23834905D01*
X70130721Y-23865521D01*
X70100105Y-23902827D01*
X70077355Y-23945389D01*
X70063345Y-23991572D01*
X70058615Y-24039600D01*
X70058615Y-24549901D01*
X70052828Y-24548145D01*
X70004800Y-24543415D01*
X69254800Y-24543415D01*
X69206772Y-24548145D01*
X69160589Y-24562155D01*
X69160000Y-24562470D01*
X69160000Y-21533400D01*
X69813915Y-21533400D01*
X69813916Y-22078759D01*
X69812021Y-22098000D01*
X69819583Y-22174784D01*
X69841979Y-22248616D01*
X69849108Y-22261953D01*
X69878351Y-22316661D01*
X69897430Y-22339908D01*
X69915033Y-22361359D01*
X69915037Y-22361363D01*
X69927298Y-22376303D01*
X69942238Y-22388564D01*
X70118232Y-22564558D01*
X70130497Y-22579503D01*
X70190139Y-22628450D01*
X70258183Y-22664821D01*
X70332015Y-22687217D01*
X70339729Y-22687977D01*
X70389561Y-22692885D01*
X70389567Y-22692885D01*
X70408799Y-22694779D01*
X70428031Y-22692885D01*
X73078674Y-22692885D01*
X73083983Y-22746784D01*
X73106379Y-22820617D01*
X73125000Y-22855454D01*
X73125000Y-22905122D01*
X73122215Y-22933401D01*
X73122215Y-23136601D01*
X73126945Y-23184629D01*
X73140955Y-23230812D01*
X73163705Y-23273374D01*
X73194321Y-23310680D01*
X73231627Y-23341296D01*
X73274189Y-23364046D01*
X73320372Y-23378056D01*
X73368400Y-23382786D01*
X73571600Y-23382786D01*
X73619628Y-23378056D01*
X73665811Y-23364046D01*
X73708373Y-23341296D01*
X73745679Y-23310680D01*
X73776295Y-23273374D01*
X73799045Y-23230812D01*
X73813055Y-23184629D01*
X73817785Y-23136601D01*
X73817785Y-22933401D01*
X73815000Y-22905122D01*
X73815000Y-22855454D01*
X73833621Y-22820617D01*
X73856017Y-22746783D01*
X73861685Y-22689238D01*
X73861685Y-22536839D01*
X73863580Y-22517600D01*
X73856017Y-22440816D01*
X73833621Y-22366983D01*
X73826521Y-22353701D01*
X73797250Y-22298939D01*
X73748303Y-22239297D01*
X73733354Y-22227029D01*
X73544167Y-22037841D01*
X73531903Y-22022897D01*
X73472261Y-21973950D01*
X73404217Y-21937579D01*
X73330384Y-21915183D01*
X73272839Y-21909515D01*
X73272832Y-21909515D01*
X73253600Y-21907621D01*
X73234368Y-21909515D01*
X70597285Y-21909515D01*
X70597285Y-21533400D01*
X75050650Y-21533400D01*
X75059429Y-21532535D01*
X75067871Y-21529975D01*
X75075651Y-21525816D01*
X75082470Y-21520220D01*
X75088066Y-21513401D01*
X75092225Y-21505621D01*
X75094785Y-21497179D01*
X75095649Y-21488082D01*
X75079177Y-19160000D01*
X79023935Y-19160000D01*
X79012899Y-19173447D01*
%TA.AperFunction,Conductor*%
D30*
G36*
X79012899Y-19173447D02*
G01*
X78977212Y-19240213D01*
X78955235Y-19312659D01*
X78947815Y-19388000D01*
X78947815Y-19728000D01*
X78955235Y-19803341D01*
X78977212Y-19875787D01*
X79012899Y-19942553D01*
X79060926Y-20001074D01*
X79081199Y-20017711D01*
X79080421Y-20025607D01*
X79087983Y-20102391D01*
X79110379Y-20176223D01*
X79110380Y-20176224D01*
X79122117Y-20198181D01*
X79113536Y-20208637D01*
X79090786Y-20251199D01*
X79076776Y-20297382D01*
X79072046Y-20345410D01*
X79072046Y-20921990D01*
X79076776Y-20970018D01*
X79090786Y-21016201D01*
X79113536Y-21058763D01*
X79144152Y-21096069D01*
X79181458Y-21126685D01*
X79224020Y-21149435D01*
X79270203Y-21163445D01*
X79318231Y-21168175D01*
X79669767Y-21168175D01*
X79717795Y-21163445D01*
X79719772Y-21162845D01*
X79741931Y-21189846D01*
X79779237Y-21220462D01*
X79821799Y-21243212D01*
X79867982Y-21257222D01*
X79916010Y-21261952D01*
X80492590Y-21261952D01*
X80540618Y-21257222D01*
X80586801Y-21243212D01*
X80629363Y-21220462D01*
X80666669Y-21189846D01*
X80697285Y-21152540D01*
X80720035Y-21109978D01*
X80734045Y-21063795D01*
X80738775Y-21015767D01*
X80738775Y-20664231D01*
X80734045Y-20616203D01*
X80720035Y-20570020D01*
X80697285Y-20527458D01*
X80666669Y-20490152D01*
X80629363Y-20459536D01*
X80618443Y-20453699D01*
X80641099Y-20399002D01*
X80658200Y-20313029D01*
X80658200Y-20225371D01*
X80641099Y-20139398D01*
X80607554Y-20058414D01*
X80558854Y-19985529D01*
X80505294Y-19931969D01*
X80547671Y-19903654D01*
X80609654Y-19841671D01*
X80658354Y-19768786D01*
X80691899Y-19687802D01*
X80709000Y-19601829D01*
X80709000Y-19514171D01*
X80691899Y-19428198D01*
X80658354Y-19347214D01*
X80609654Y-19274329D01*
X80547671Y-19212346D01*
X80474786Y-19163646D01*
X80465984Y-19160000D01*
X80840000Y-19160000D01*
X80840000Y-23543276D01*
X80801670Y-23504946D01*
X80728785Y-23456246D01*
X80647801Y-23422701D01*
X80561828Y-23405600D01*
X80474700Y-23405600D01*
X80479460Y-23394108D01*
X80496561Y-23308135D01*
X80496561Y-23296652D01*
X80514543Y-23263009D01*
X80524580Y-23244232D01*
X80544308Y-23179199D01*
X80550969Y-23111567D01*
X80549300Y-23094621D01*
X80549300Y-22754590D01*
X80586801Y-22743214D01*
X80629363Y-22720464D01*
X80666669Y-22689848D01*
X80697285Y-22652542D01*
X80720035Y-22609980D01*
X80734045Y-22563797D01*
X80738775Y-22515769D01*
X80738775Y-22164233D01*
X80734045Y-22116205D01*
X80720035Y-22070022D01*
X80697285Y-22027460D01*
X80666669Y-21990154D01*
X80629363Y-21959538D01*
X80586801Y-21936788D01*
X80540618Y-21922778D01*
X80492590Y-21918048D01*
X79916010Y-21918048D01*
X79867982Y-21922778D01*
X79821799Y-21936788D01*
X79779237Y-21959538D01*
X79741931Y-21990154D01*
X79719772Y-22017155D01*
X79717795Y-22016555D01*
X79669767Y-22011825D01*
X79318231Y-22011825D01*
X79270203Y-22016555D01*
X79244000Y-22024504D01*
X79217796Y-22016555D01*
X79169768Y-22011825D01*
X78818232Y-22011825D01*
X78770204Y-22016555D01*
X78744001Y-22024504D01*
X78717797Y-22016555D01*
X78669769Y-22011825D01*
X78318233Y-22011825D01*
X78318175Y-22011831D01*
X78318175Y-21664232D01*
X78313445Y-21616204D01*
X78305496Y-21590000D01*
X78313445Y-21563796D01*
X78318175Y-21515768D01*
X78318175Y-21164232D01*
X78313445Y-21116204D01*
X78305496Y-21089999D01*
X78313445Y-21063795D01*
X78318175Y-21015767D01*
X78318175Y-20664231D01*
X78313445Y-20616203D01*
X78299435Y-20570020D01*
X78276685Y-20527458D01*
X78246069Y-20490152D01*
X78208763Y-20459536D01*
X78166201Y-20436786D01*
X78120018Y-20422776D01*
X78071990Y-20418046D01*
X77495410Y-20418046D01*
X77447382Y-20422776D01*
X77401199Y-20436786D01*
X77367123Y-20455000D01*
X77204207Y-20455000D01*
X77199101Y-20445447D01*
X77151074Y-20386926D01*
X77092553Y-20338899D01*
X77025787Y-20303212D01*
X76953341Y-20281235D01*
X76878000Y-20273815D01*
X76538000Y-20273815D01*
X76462659Y-20281235D01*
X76390213Y-20303212D01*
X76323447Y-20338899D01*
X76264926Y-20386926D01*
X76216899Y-20445447D01*
X76211793Y-20455000D01*
X76188745Y-20455000D01*
X76156786Y-20433646D01*
X76075802Y-20400101D01*
X75989829Y-20383000D01*
X75902171Y-20383000D01*
X75816198Y-20400101D01*
X75735214Y-20433646D01*
X75662329Y-20482346D01*
X75600346Y-20544329D01*
X75551646Y-20617214D01*
X75518101Y-20698198D01*
X75501000Y-20784171D01*
X75501000Y-20871829D01*
X75518101Y-20957802D01*
X75551646Y-21038786D01*
X75600346Y-21111671D01*
X75662329Y-21173654D01*
X75735214Y-21222354D01*
X75816198Y-21255899D01*
X75902171Y-21273000D01*
X75989829Y-21273000D01*
X76075802Y-21255899D01*
X76156786Y-21222354D01*
X76229671Y-21173654D01*
X76231266Y-21172059D01*
X76264926Y-21213074D01*
X76323447Y-21261101D01*
X76390213Y-21296788D01*
X76462659Y-21318765D01*
X76538000Y-21326185D01*
X76722829Y-21326185D01*
X76714444Y-21346427D01*
X76697343Y-21432400D01*
X76697343Y-21520058D01*
X76714444Y-21606031D01*
X76747989Y-21687015D01*
X76796689Y-21759900D01*
X76858672Y-21821883D01*
X76931557Y-21870583D01*
X77012541Y-21904128D01*
X77098514Y-21921229D01*
X77186172Y-21921229D01*
X77249225Y-21908687D01*
X77249225Y-22015768D01*
X77253955Y-22063796D01*
X77261904Y-22090001D01*
X77253955Y-22116205D01*
X77249225Y-22164233D01*
X77249225Y-22515769D01*
X77253955Y-22563797D01*
X77267965Y-22609980D01*
X77290715Y-22652542D01*
X77321331Y-22689848D01*
X77358637Y-22720464D01*
X77401199Y-22743214D01*
X77447382Y-22757224D01*
X77495410Y-22761954D01*
X78071990Y-22761954D01*
X78072048Y-22761948D01*
X78072048Y-22834590D01*
X78076778Y-22882618D01*
X78090788Y-22928801D01*
X78113538Y-22971363D01*
X78144154Y-23008669D01*
X78149001Y-23012647D01*
X78149002Y-23294873D01*
X78148347Y-23295528D01*
X78099647Y-23368413D01*
X78066102Y-23449397D01*
X78049001Y-23535370D01*
X78049001Y-23623028D01*
X78066102Y-23709001D01*
X78089936Y-23766542D01*
X78057000Y-23752899D01*
X77971027Y-23735798D01*
X77883369Y-23735798D01*
X77797396Y-23752899D01*
X77716412Y-23786444D01*
X77643527Y-23835144D01*
X77642873Y-23835798D01*
X76910125Y-23835798D01*
X76940871Y-23815254D01*
X77002854Y-23753271D01*
X77051554Y-23680386D01*
X77085099Y-23599402D01*
X77102200Y-23513429D01*
X77102200Y-23425771D01*
X77085099Y-23339798D01*
X77051554Y-23258814D01*
X77002854Y-23185929D01*
X76940871Y-23123946D01*
X76867986Y-23075246D01*
X76787002Y-23041701D01*
X76701029Y-23024600D01*
X76613371Y-23024600D01*
X76527398Y-23041701D01*
X76446414Y-23075246D01*
X76373529Y-23123946D01*
X76311546Y-23185929D01*
X76262846Y-23258814D01*
X76229301Y-23339798D01*
X76212200Y-23425771D01*
X76212200Y-23513429D01*
X76229301Y-23599402D01*
X76262846Y-23680386D01*
X76311546Y-23753271D01*
X76373529Y-23815254D01*
X76404275Y-23835798D01*
X75982988Y-23835798D01*
X75936061Y-23816360D01*
X75850088Y-23799259D01*
X75762430Y-23799259D01*
X75676457Y-23816360D01*
X75595473Y-23849905D01*
X75546098Y-23882896D01*
X75501787Y-23859212D01*
X75429341Y-23837235D01*
X75354000Y-23829815D01*
X75014000Y-23829815D01*
X74938659Y-23837235D01*
X74866213Y-23859212D01*
X74799447Y-23894899D01*
X74740926Y-23942926D01*
X74692899Y-24001447D01*
X74657212Y-24068213D01*
X74635235Y-24140659D01*
X74627815Y-24216000D01*
X74627815Y-24420000D01*
X74184935Y-24420000D01*
X74167999Y-24418332D01*
X74151063Y-24420000D01*
X74151054Y-24420000D01*
X74100368Y-24424992D01*
X74035336Y-24444720D01*
X73975401Y-24476755D01*
X73922868Y-24519868D01*
X73912062Y-24533035D01*
X73815000Y-24630097D01*
X73815000Y-24338878D01*
X73817785Y-24310599D01*
X73817785Y-24107399D01*
X73813055Y-24059371D01*
X73799045Y-24013188D01*
X73776295Y-23970626D01*
X73745679Y-23933320D01*
X73708373Y-23902704D01*
X73665811Y-23879954D01*
X73619628Y-23865944D01*
X73571600Y-23861214D01*
X73368400Y-23861214D01*
X73320372Y-23865944D01*
X73274189Y-23879954D01*
X73231627Y-23902704D01*
X73194321Y-23933320D01*
X73163705Y-23970626D01*
X73140955Y-24013188D01*
X73126945Y-24059371D01*
X73122215Y-24107399D01*
X73122215Y-24310599D01*
X73125000Y-24338879D01*
X73125001Y-25071787D01*
X73112171Y-25095789D01*
X73097701Y-25143491D01*
X73092815Y-25193100D01*
X73092815Y-26036900D01*
X73097701Y-26086509D01*
X73112171Y-26134211D01*
X73135670Y-26178173D01*
X73167293Y-26216707D01*
X73205827Y-26248330D01*
X73249789Y-26271829D01*
X73297491Y-26286299D01*
X73347100Y-26291185D01*
X73600900Y-26291185D01*
X73650509Y-26286299D01*
X73698211Y-26271829D01*
X73724000Y-26258044D01*
X73749789Y-26271829D01*
X73797491Y-26286299D01*
X73847100Y-26291185D01*
X74100900Y-26291185D01*
X74150509Y-26286299D01*
X74198211Y-26271829D01*
X74224000Y-26258044D01*
X74249789Y-26271829D01*
X74297491Y-26286299D01*
X74347100Y-26291185D01*
X74600900Y-26291185D01*
X74650509Y-26286299D01*
X74698211Y-26271829D01*
X74724000Y-26258044D01*
X74749789Y-26271829D01*
X74797491Y-26286299D01*
X74847100Y-26291185D01*
X75100900Y-26291185D01*
X75150509Y-26286299D01*
X75198211Y-26271829D01*
X75224000Y-26258044D01*
X75249789Y-26271829D01*
X75297491Y-26286299D01*
X75347100Y-26291185D01*
X75600900Y-26291185D01*
X75650509Y-26286299D01*
X75698211Y-26271829D01*
X75724000Y-26258044D01*
X75749789Y-26271829D01*
X75797491Y-26286299D01*
X75847100Y-26291185D01*
X76100900Y-26291185D01*
X76150509Y-26286299D01*
X76198211Y-26271829D01*
X76224000Y-26258044D01*
X76249789Y-26271829D01*
X76297491Y-26286299D01*
X76347100Y-26291185D01*
X76600900Y-26291185D01*
X76650509Y-26286299D01*
X76698211Y-26271829D01*
X76724000Y-26258044D01*
X76749789Y-26271829D01*
X76797491Y-26286299D01*
X76847100Y-26291185D01*
X77100900Y-26291185D01*
X77150509Y-26286299D01*
X77198211Y-26271829D01*
X77224000Y-26258044D01*
X77249789Y-26271829D01*
X77297491Y-26286299D01*
X77347100Y-26291185D01*
X77482815Y-26291185D01*
X77482815Y-26426900D01*
X77487701Y-26476509D01*
X77502171Y-26524211D01*
X77515956Y-26550000D01*
X77502171Y-26575789D01*
X77487701Y-26623491D01*
X77482815Y-26673100D01*
X77482815Y-26926900D01*
X77487701Y-26976509D01*
X77502171Y-27024211D01*
X77515956Y-27050000D01*
X77502171Y-27075789D01*
X77487701Y-27123491D01*
X77482815Y-27173100D01*
X77482815Y-27426900D01*
X77487701Y-27476509D01*
X77502171Y-27524211D01*
X77515956Y-27550000D01*
X77502171Y-27575789D01*
X77487701Y-27623491D01*
X77482815Y-27673100D01*
X77482815Y-27926900D01*
X77487701Y-27976509D01*
X77502171Y-28024211D01*
X77515956Y-28050000D01*
X77502171Y-28075789D01*
X77487701Y-28123491D01*
X77482815Y-28173100D01*
X77482815Y-28426900D01*
X77487701Y-28476509D01*
X77502171Y-28524211D01*
X77515956Y-28550000D01*
X77502171Y-28575789D01*
X77487701Y-28623491D01*
X77482815Y-28673100D01*
X77482815Y-28926900D01*
X77487701Y-28976509D01*
X77502171Y-29024211D01*
X77515956Y-29050000D01*
X77502171Y-29075789D01*
X77487701Y-29123491D01*
X77482815Y-29173100D01*
X77482815Y-29426900D01*
X77487701Y-29476509D01*
X77502171Y-29524211D01*
X77515956Y-29550000D01*
X77502171Y-29575789D01*
X77487701Y-29623491D01*
X77482815Y-29673100D01*
X77482815Y-29926900D01*
X77487701Y-29976509D01*
X77502171Y-30024211D01*
X77515956Y-30050000D01*
X77502171Y-30075789D01*
X77487701Y-30123491D01*
X77482815Y-30173100D01*
X77482815Y-30426900D01*
X77487701Y-30476509D01*
X77502171Y-30524211D01*
X77515956Y-30550000D01*
X77502171Y-30575789D01*
X77487701Y-30623491D01*
X77482815Y-30673100D01*
X77482815Y-30926900D01*
X77487701Y-30976509D01*
X77502171Y-31024211D01*
X77515956Y-31050000D01*
X77502171Y-31075789D01*
X77487701Y-31123491D01*
X77482815Y-31173100D01*
X77482815Y-31426900D01*
X77487701Y-31476509D01*
X77502171Y-31524211D01*
X77515956Y-31550000D01*
X77502171Y-31575789D01*
X77487701Y-31623491D01*
X77482815Y-31673100D01*
X77482815Y-31808815D01*
X77347100Y-31808815D01*
X77297491Y-31813701D01*
X77249789Y-31828171D01*
X77224000Y-31841956D01*
X77198211Y-31828171D01*
X77150509Y-31813701D01*
X77100900Y-31808815D01*
X76847100Y-31808815D01*
X76797491Y-31813701D01*
X76749789Y-31828171D01*
X76724000Y-31841956D01*
X76698211Y-31828171D01*
X76650509Y-31813701D01*
X76600900Y-31808815D01*
X76347100Y-31808815D01*
X76297491Y-31813701D01*
X76249789Y-31828171D01*
X76224000Y-31841956D01*
X76198211Y-31828171D01*
X76150509Y-31813701D01*
X76100900Y-31808815D01*
X75847100Y-31808815D01*
X75797491Y-31813701D01*
X75749789Y-31828171D01*
X75724000Y-31841956D01*
X75698211Y-31828171D01*
X75650509Y-31813701D01*
X75600900Y-31808815D01*
X75347100Y-31808815D01*
X75297491Y-31813701D01*
X75249789Y-31828171D01*
X75224000Y-31841956D01*
X75198211Y-31828171D01*
X75150509Y-31813701D01*
X75100900Y-31808815D01*
X74847100Y-31808815D01*
X74797491Y-31813701D01*
X74749789Y-31828171D01*
X74724000Y-31841956D01*
X74698211Y-31828171D01*
X74650509Y-31813701D01*
X74600900Y-31808815D01*
X74347100Y-31808815D01*
X74297491Y-31813701D01*
X74249789Y-31828171D01*
X74224000Y-31841956D01*
X74198211Y-31828171D01*
X74150509Y-31813701D01*
X74100900Y-31808815D01*
X73847100Y-31808815D01*
X73797491Y-31813701D01*
X73749789Y-31828171D01*
X73724000Y-31841956D01*
X73698211Y-31828171D01*
X73650509Y-31813701D01*
X73600900Y-31808815D01*
X73347100Y-31808815D01*
X73297491Y-31813701D01*
X73249789Y-31828171D01*
X73224000Y-31841956D01*
X73198211Y-31828171D01*
X73150509Y-31813701D01*
X73100900Y-31808815D01*
X72847100Y-31808815D01*
X72797491Y-31813701D01*
X72749789Y-31828171D01*
X72724000Y-31841956D01*
X72698211Y-31828171D01*
X72650509Y-31813701D01*
X72600900Y-31808815D01*
X72347100Y-31808815D01*
X72297491Y-31813701D01*
X72249789Y-31828171D01*
X72224000Y-31841956D01*
X72198211Y-31828171D01*
X72150509Y-31813701D01*
X72100900Y-31808815D01*
X71965185Y-31808815D01*
X71965185Y-31673100D01*
X71960299Y-31623491D01*
X71945829Y-31575789D01*
X71932044Y-31550000D01*
X71945829Y-31524211D01*
X71960299Y-31476509D01*
X71965185Y-31426900D01*
X71965185Y-31173100D01*
X71960299Y-31123491D01*
X71945829Y-31075789D01*
X71932044Y-31050000D01*
X71945829Y-31024211D01*
X71960299Y-30976509D01*
X71965185Y-30926900D01*
X71965185Y-30673100D01*
X71960299Y-30623491D01*
X71945829Y-30575789D01*
X71932044Y-30550000D01*
X71945829Y-30524211D01*
X71960299Y-30476509D01*
X71965185Y-30426900D01*
X71965185Y-30173100D01*
X71960299Y-30123491D01*
X71945829Y-30075789D01*
X71922330Y-30031827D01*
X71890707Y-29993293D01*
X71852173Y-29961670D01*
X71808211Y-29938171D01*
X71760509Y-29923701D01*
X71710900Y-29918815D01*
X70867100Y-29918815D01*
X70817491Y-29923701D01*
X70769789Y-29938171D01*
X70725827Y-29961670D01*
X70687293Y-29993293D01*
X70655670Y-30031827D01*
X70632171Y-30075789D01*
X70617701Y-30123491D01*
X70612815Y-30173100D01*
X70612815Y-30426900D01*
X70617701Y-30476509D01*
X70632171Y-30524211D01*
X70645956Y-30550000D01*
X70632171Y-30575789D01*
X70617701Y-30623491D01*
X70612815Y-30673100D01*
X70612815Y-30926900D01*
X70614873Y-30947800D01*
X70436384Y-30947800D01*
X70420074Y-30927926D01*
X70361553Y-30879899D01*
X70294787Y-30844212D01*
X70222341Y-30822235D01*
X70147000Y-30814815D01*
X69807000Y-30814815D01*
X69731659Y-30822235D01*
X69659213Y-30844212D01*
X69592447Y-30879899D01*
X69533926Y-30927926D01*
X69485899Y-30986447D01*
X69450212Y-31053213D01*
X69428235Y-31125659D01*
X69420815Y-31201000D01*
X69420815Y-31481000D01*
X69428235Y-31556341D01*
X69450212Y-31628787D01*
X69485899Y-31695553D01*
X69533926Y-31754074D01*
X69592447Y-31802101D01*
X69659213Y-31837788D01*
X69731659Y-31859765D01*
X69739223Y-31860510D01*
X70735051Y-32856339D01*
X70742901Y-32895802D01*
X70776446Y-32976786D01*
X70825146Y-33049671D01*
X70887129Y-33111654D01*
X70960014Y-33160354D01*
X71040998Y-33193899D01*
X71126971Y-33211000D01*
X71214629Y-33211000D01*
X71300602Y-33193899D01*
X71381586Y-33160354D01*
X71382561Y-33159702D01*
X71382562Y-33495635D01*
X71381907Y-33496290D01*
X71333207Y-33569175D01*
X71299662Y-33650159D01*
X71282561Y-33736132D01*
X71282561Y-33823790D01*
X71290559Y-33864000D01*
X69160000Y-33864000D01*
X69160000Y-25666730D01*
X69160589Y-25667045D01*
X69206772Y-25681055D01*
X69254800Y-25685785D01*
X69287680Y-25685785D01*
X69289792Y-25707231D01*
X69309520Y-25772263D01*
X69341555Y-25832198D01*
X69384668Y-25884731D01*
X69397831Y-25895534D01*
X70034262Y-26531965D01*
X70045068Y-26545132D01*
X70097601Y-26588245D01*
X70157535Y-26620280D01*
X70222568Y-26640008D01*
X70290200Y-26646669D01*
X70307146Y-26645000D01*
X70615583Y-26645000D01*
X70612815Y-26673100D01*
X70612815Y-26926900D01*
X70617701Y-26976509D01*
X70632171Y-27024211D01*
X70645956Y-27050000D01*
X70632171Y-27075789D01*
X70617701Y-27123491D01*
X70612815Y-27173100D01*
X70612815Y-27426900D01*
X70617701Y-27476509D01*
X70632171Y-27524211D01*
X70645956Y-27550000D01*
X70632171Y-27575789D01*
X70617701Y-27623491D01*
X70612815Y-27673100D01*
X70612815Y-27926900D01*
X70616863Y-27968000D01*
X70540725Y-27968000D01*
X70540071Y-27967346D01*
X70467186Y-27918646D01*
X70386202Y-27885101D01*
X70300229Y-27868000D01*
X70212571Y-27868000D01*
X70126598Y-27885101D01*
X70045614Y-27918646D01*
X69972729Y-27967346D01*
X69910746Y-28029329D01*
X69862046Y-28102214D01*
X69842643Y-28149056D01*
X69776602Y-28121701D01*
X69690629Y-28104600D01*
X69602971Y-28104600D01*
X69516998Y-28121701D01*
X69436014Y-28155246D01*
X69363129Y-28203946D01*
X69301146Y-28265929D01*
X69252446Y-28338814D01*
X69218901Y-28419798D01*
X69201800Y-28505771D01*
X69201800Y-28593429D01*
X69218901Y-28679402D01*
X69252446Y-28760386D01*
X69301146Y-28833271D01*
X69363129Y-28895254D01*
X69436014Y-28943954D01*
X69516998Y-28977499D01*
X69559993Y-28986051D01*
X70122722Y-29548781D01*
X70134305Y-29562895D01*
X70190645Y-29609132D01*
X70254922Y-29643489D01*
X70324667Y-29664646D01*
X70379026Y-29670000D01*
X70379036Y-29670000D01*
X70397200Y-29671789D01*
X70415363Y-29670000D01*
X70796726Y-29670000D01*
X70817491Y-29676299D01*
X70867100Y-29681185D01*
X71710900Y-29681185D01*
X71760509Y-29676299D01*
X71808211Y-29661829D01*
X71852173Y-29638330D01*
X71890707Y-29606707D01*
X71922330Y-29568173D01*
X71945829Y-29524211D01*
X71960299Y-29476509D01*
X71965185Y-29426900D01*
X71965185Y-29173100D01*
X71960299Y-29123491D01*
X71945829Y-29075789D01*
X71932044Y-29050000D01*
X71945829Y-29024211D01*
X71960299Y-28976509D01*
X71965185Y-28926900D01*
X71965185Y-28673100D01*
X71960299Y-28623491D01*
X71945829Y-28575789D01*
X71932044Y-28550000D01*
X71945829Y-28524211D01*
X71960299Y-28476509D01*
X71965185Y-28426900D01*
X71965185Y-28173100D01*
X71960299Y-28123491D01*
X71945829Y-28075789D01*
X71932044Y-28050000D01*
X71945829Y-28024211D01*
X71960299Y-27976509D01*
X71965185Y-27926900D01*
X71965185Y-27673100D01*
X71960299Y-27623491D01*
X71945829Y-27575789D01*
X71932044Y-27550000D01*
X71945829Y-27524211D01*
X71960299Y-27476509D01*
X71965185Y-27426900D01*
X71965185Y-27173100D01*
X71960299Y-27123491D01*
X71945829Y-27075789D01*
X71932044Y-27050000D01*
X71945829Y-27024211D01*
X71960299Y-26976509D01*
X71965185Y-26926900D01*
X71965185Y-26673100D01*
X71960299Y-26623491D01*
X71945829Y-26575789D01*
X71932044Y-26550000D01*
X71945829Y-26524211D01*
X71960299Y-26476509D01*
X71965185Y-26426900D01*
X71965185Y-26291185D01*
X72100900Y-26291185D01*
X72150509Y-26286299D01*
X72198211Y-26271829D01*
X72224000Y-26258044D01*
X72249789Y-26271829D01*
X72297491Y-26286299D01*
X72347100Y-26291185D01*
X72600900Y-26291185D01*
X72650509Y-26286299D01*
X72698211Y-26271829D01*
X72742173Y-26248330D01*
X72780707Y-26216707D01*
X72812330Y-26178173D01*
X72835829Y-26134211D01*
X72850299Y-26086509D01*
X72855185Y-26036900D01*
X72855185Y-25193100D01*
X72850299Y-25143491D01*
X72835829Y-25095789D01*
X72819000Y-25064305D01*
X72819000Y-24876250D01*
X72834730Y-24867842D01*
X72887190Y-24824790D01*
X72930242Y-24772330D01*
X72962233Y-24712479D01*
X72981933Y-24647537D01*
X72988585Y-24580000D01*
X72988585Y-24320000D01*
X72981933Y-24252463D01*
X72962233Y-24187521D01*
X72930242Y-24127670D01*
X72887190Y-24075210D01*
X72834730Y-24032158D01*
X72774879Y-24000167D01*
X72709937Y-23980467D01*
X72642400Y-23973815D01*
X72442400Y-23973815D01*
X72374863Y-23980467D01*
X72328185Y-23994627D01*
X72328185Y-23964400D01*
X72321533Y-23896863D01*
X72301833Y-23831921D01*
X72269842Y-23772070D01*
X72226790Y-23719610D01*
X72174330Y-23676558D01*
X72114479Y-23644567D01*
X72049537Y-23624867D01*
X71982000Y-23618215D01*
X71782000Y-23618215D01*
X71714463Y-23624867D01*
X71649521Y-23644567D01*
X71589670Y-23676558D01*
X71537210Y-23719610D01*
X71494158Y-23772070D01*
X71462167Y-23831921D01*
X71442467Y-23896863D01*
X71435815Y-23964400D01*
X71435815Y-24211912D01*
X71356537Y-24132634D01*
X71345732Y-24119468D01*
X71300985Y-24082745D01*
X71300985Y-24039600D01*
X71296255Y-23991572D01*
X71282245Y-23945389D01*
X71259495Y-23902827D01*
X71228879Y-23865521D01*
X71191573Y-23834905D01*
X71149011Y-23812155D01*
X71102828Y-23798145D01*
X71054800Y-23793415D01*
X70304800Y-23793415D01*
X70256772Y-23798145D01*
X70210589Y-23812155D01*
X70168027Y-23834905D01*
X70130721Y-23865521D01*
X70100105Y-23902827D01*
X70077355Y-23945389D01*
X70063345Y-23991572D01*
X70058615Y-24039600D01*
X70058615Y-24549901D01*
X70052828Y-24548145D01*
X70004800Y-24543415D01*
X69254800Y-24543415D01*
X69206772Y-24548145D01*
X69160589Y-24562155D01*
X69160000Y-24562470D01*
X69160000Y-21533400D01*
X69813915Y-21533400D01*
X69813916Y-22078759D01*
X69812021Y-22098000D01*
X69819583Y-22174784D01*
X69841979Y-22248616D01*
X69849108Y-22261953D01*
X69878351Y-22316661D01*
X69897430Y-22339908D01*
X69915033Y-22361359D01*
X69915037Y-22361363D01*
X69927298Y-22376303D01*
X69942238Y-22388564D01*
X70118232Y-22564558D01*
X70130497Y-22579503D01*
X70190139Y-22628450D01*
X70258183Y-22664821D01*
X70332015Y-22687217D01*
X70339729Y-22687977D01*
X70389561Y-22692885D01*
X70389567Y-22692885D01*
X70408799Y-22694779D01*
X70428031Y-22692885D01*
X73078674Y-22692885D01*
X73083983Y-22746784D01*
X73106379Y-22820617D01*
X73125000Y-22855454D01*
X73125000Y-22905122D01*
X73122215Y-22933401D01*
X73122215Y-23136601D01*
X73126945Y-23184629D01*
X73140955Y-23230812D01*
X73163705Y-23273374D01*
X73194321Y-23310680D01*
X73231627Y-23341296D01*
X73274189Y-23364046D01*
X73320372Y-23378056D01*
X73368400Y-23382786D01*
X73571600Y-23382786D01*
X73619628Y-23378056D01*
X73665811Y-23364046D01*
X73708373Y-23341296D01*
X73745679Y-23310680D01*
X73776295Y-23273374D01*
X73799045Y-23230812D01*
X73813055Y-23184629D01*
X73817785Y-23136601D01*
X73817785Y-22933401D01*
X73815000Y-22905122D01*
X73815000Y-22855454D01*
X73833621Y-22820617D01*
X73856017Y-22746783D01*
X73861685Y-22689238D01*
X73861685Y-22536839D01*
X73863580Y-22517600D01*
X73856017Y-22440816D01*
X73833621Y-22366983D01*
X73826521Y-22353701D01*
X73797250Y-22298939D01*
X73748303Y-22239297D01*
X73733354Y-22227029D01*
X73544167Y-22037841D01*
X73531903Y-22022897D01*
X73472261Y-21973950D01*
X73404217Y-21937579D01*
X73330384Y-21915183D01*
X73272839Y-21909515D01*
X73272832Y-21909515D01*
X73253600Y-21907621D01*
X73234368Y-21909515D01*
X70597285Y-21909515D01*
X70597285Y-21533400D01*
X75050650Y-21533400D01*
X75059429Y-21532535D01*
X75067871Y-21529975D01*
X75075651Y-21525816D01*
X75082470Y-21520220D01*
X75088066Y-21513401D01*
X75092225Y-21505621D01*
X75094785Y-21497179D01*
X75095649Y-21488082D01*
X75079177Y-19160000D01*
X79023935Y-19160000D01*
X79012899Y-19173447D01*
G37*
%TD.AperFunction*%
D29*
X80840000Y-25125212D02*
X80801670Y-25086882D01*
X80728785Y-25038182D01*
X80647801Y-25004637D01*
X80561828Y-24987536D01*
X80474170Y-24987536D01*
X80388197Y-25004637D01*
X80307213Y-25038182D01*
X80234328Y-25086882D01*
X80172345Y-25148865D01*
X80123645Y-25221750D01*
X80090100Y-25302734D01*
X80072999Y-25388707D01*
X80072999Y-25476365D01*
X80074619Y-25484509D01*
X80070279Y-25528581D01*
X80019625Y-25555656D01*
X79961862Y-25603062D01*
X79914456Y-25660825D01*
X79879231Y-25726727D01*
X79857539Y-25798234D01*
X79850215Y-25872600D01*
X79850215Y-26142600D01*
X79857539Y-26216966D01*
X79879231Y-26288473D01*
X79914456Y-26354375D01*
X79961862Y-26412138D01*
X80019625Y-26459544D01*
X80085527Y-26494769D01*
X80157034Y-26516461D01*
X80168599Y-26517600D01*
X80157034Y-26518739D01*
X80085527Y-26540431D01*
X80019625Y-26575656D01*
X79961862Y-26623062D01*
X79914456Y-26680825D01*
X79913507Y-26682600D01*
X79903293Y-26682600D01*
X79902344Y-26680825D01*
X79854938Y-26623062D01*
X79797175Y-26575656D01*
X79731273Y-26540431D01*
X79659766Y-26518739D01*
X79585400Y-26511415D01*
X79215400Y-26511415D01*
X79141034Y-26518739D01*
X79069527Y-26540431D01*
X79003625Y-26575656D01*
X78945862Y-26623062D01*
X78898456Y-26680825D01*
X78863231Y-26746727D01*
X78841539Y-26818234D01*
X78835185Y-26882751D01*
X78835185Y-26673100D01*
X78830299Y-26623491D01*
X78815829Y-26575789D01*
X78802044Y-26550000D01*
X78815829Y-26524211D01*
X78830299Y-26476509D01*
X78835185Y-26426900D01*
X78835185Y-26173100D01*
X78830299Y-26123491D01*
X78815829Y-26075789D01*
X78792330Y-26031827D01*
X78790973Y-26030173D01*
X80525548Y-24295600D01*
X80561828Y-24295600D01*
X80647801Y-24278499D01*
X80728785Y-24244954D01*
X80801670Y-24196254D01*
X80840000Y-24157924D01*
X80840000Y-25125212D01*
%TA.AperFunction,Conductor*%
D30*
G36*
X80840000Y-25125212D02*
G01*
X80801670Y-25086882D01*
X80728785Y-25038182D01*
X80647801Y-25004637D01*
X80561828Y-24987536D01*
X80474170Y-24987536D01*
X80388197Y-25004637D01*
X80307213Y-25038182D01*
X80234328Y-25086882D01*
X80172345Y-25148865D01*
X80123645Y-25221750D01*
X80090100Y-25302734D01*
X80072999Y-25388707D01*
X80072999Y-25476365D01*
X80074619Y-25484509D01*
X80070279Y-25528581D01*
X80019625Y-25555656D01*
X79961862Y-25603062D01*
X79914456Y-25660825D01*
X79879231Y-25726727D01*
X79857539Y-25798234D01*
X79850215Y-25872600D01*
X79850215Y-26142600D01*
X79857539Y-26216966D01*
X79879231Y-26288473D01*
X79914456Y-26354375D01*
X79961862Y-26412138D01*
X80019625Y-26459544D01*
X80085527Y-26494769D01*
X80157034Y-26516461D01*
X80168599Y-26517600D01*
X80157034Y-26518739D01*
X80085527Y-26540431D01*
X80019625Y-26575656D01*
X79961862Y-26623062D01*
X79914456Y-26680825D01*
X79913507Y-26682600D01*
X79903293Y-26682600D01*
X79902344Y-26680825D01*
X79854938Y-26623062D01*
X79797175Y-26575656D01*
X79731273Y-26540431D01*
X79659766Y-26518739D01*
X79585400Y-26511415D01*
X79215400Y-26511415D01*
X79141034Y-26518739D01*
X79069527Y-26540431D01*
X79003625Y-26575656D01*
X78945862Y-26623062D01*
X78898456Y-26680825D01*
X78863231Y-26746727D01*
X78841539Y-26818234D01*
X78835185Y-26882751D01*
X78835185Y-26673100D01*
X78830299Y-26623491D01*
X78815829Y-26575789D01*
X78802044Y-26550000D01*
X78815829Y-26524211D01*
X78830299Y-26476509D01*
X78835185Y-26426900D01*
X78835185Y-26173100D01*
X78830299Y-26123491D01*
X78815829Y-26075789D01*
X78792330Y-26031827D01*
X78790973Y-26030173D01*
X80525548Y-24295600D01*
X80561828Y-24295600D01*
X80647801Y-24278499D01*
X80728785Y-24244954D01*
X80801670Y-24196254D01*
X80840000Y-24157924D01*
X80840000Y-25125212D01*
G37*
%TD.AperFunction*%
D29*
X71130600Y-25332261D02*
X71128932Y-25349200D01*
X71130600Y-25366138D01*
X71130600Y-25366145D01*
X71135592Y-25416831D01*
X71155320Y-25481863D01*
X71187355Y-25541798D01*
X71230468Y-25594331D01*
X71243630Y-25605133D01*
X71485466Y-25846970D01*
X71496268Y-25860132D01*
X71509429Y-25870933D01*
X71509430Y-25870934D01*
X71523349Y-25882357D01*
X71548801Y-25903245D01*
X71577931Y-25918815D01*
X70867100Y-25918815D01*
X70817491Y-25923701D01*
X70769789Y-25938171D01*
X70738305Y-25955000D01*
X70433103Y-25955000D01*
X70129077Y-25650974D01*
X70141573Y-25644295D01*
X70178879Y-25613679D01*
X70209495Y-25576373D01*
X70232245Y-25533811D01*
X70246255Y-25487628D01*
X70250985Y-25439600D01*
X70250985Y-24929299D01*
X70256772Y-24931055D01*
X70304800Y-24935785D01*
X71054800Y-24935785D01*
X71102828Y-24931055D01*
X71130601Y-24922630D01*
X71130600Y-25332261D01*
%TA.AperFunction,Conductor*%
D30*
G36*
X71130600Y-25332261D02*
G01*
X71128932Y-25349200D01*
X71130600Y-25366138D01*
X71130600Y-25366145D01*
X71135592Y-25416831D01*
X71155320Y-25481863D01*
X71187355Y-25541798D01*
X71230468Y-25594331D01*
X71243630Y-25605133D01*
X71485466Y-25846970D01*
X71496268Y-25860132D01*
X71509429Y-25870933D01*
X71509430Y-25870934D01*
X71523349Y-25882357D01*
X71548801Y-25903245D01*
X71577931Y-25918815D01*
X70867100Y-25918815D01*
X70817491Y-25923701D01*
X70769789Y-25938171D01*
X70738305Y-25955000D01*
X70433103Y-25955000D01*
X70129077Y-25650974D01*
X70141573Y-25644295D01*
X70178879Y-25613679D01*
X70209495Y-25576373D01*
X70232245Y-25533811D01*
X70246255Y-25487628D01*
X70250985Y-25439600D01*
X70250985Y-24929299D01*
X70256772Y-24931055D01*
X70304800Y-24935785D01*
X71054800Y-24935785D01*
X71102828Y-24931055D01*
X71130601Y-24922630D01*
X71130600Y-25332261D01*
G37*
%TD.AperFunction*%
%TD*%
D29*
%TO.N,/RAD_PLANE*%
X74224600Y-19767000D02*
X69160000Y-19767000D01*
X69160000Y-19160000D01*
X74224600Y-19160000D01*
X74224600Y-19767000D01*
%TA.AperFunction,Conductor*%
D30*
G36*
X74224600Y-19767000D02*
G01*
X69160000Y-19767000D01*
X69160000Y-19160000D01*
X74224600Y-19160000D01*
X74224600Y-19767000D01*
G37*
%TD.AperFunction*%
%TD*%
D29*
%TO.N,+BATT*%
X76123645Y-36763027D02*
X76137655Y-36809210D01*
X76160405Y-36851772D01*
X76191021Y-36889078D01*
X76228327Y-36919694D01*
X76270889Y-36942444D01*
X76317072Y-36956454D01*
X76365100Y-36961184D01*
X76652413Y-36961184D01*
X76694716Y-36974016D01*
X76771500Y-36981579D01*
X76848283Y-36974016D01*
X76890586Y-36961184D01*
X77177900Y-36961184D01*
X77225928Y-36956454D01*
X77272111Y-36942444D01*
X77314673Y-36919694D01*
X77351979Y-36889078D01*
X77382595Y-36851772D01*
X77405345Y-36809210D01*
X77419355Y-36763027D01*
X77423336Y-36722600D01*
X77425000Y-36722600D01*
X77425000Y-38817000D01*
X74314600Y-38817000D01*
X74314600Y-38155032D01*
X74315785Y-38143000D01*
X74315785Y-37827571D01*
X75043802Y-37827571D01*
X75043802Y-37915229D01*
X75060903Y-38001202D01*
X75094448Y-38082186D01*
X75143148Y-38155071D01*
X75205131Y-38217054D01*
X75278016Y-38265754D01*
X75359000Y-38299299D01*
X75444973Y-38316400D01*
X75532631Y-38316400D01*
X75618604Y-38299299D01*
X75699588Y-38265754D01*
X75772473Y-38217054D01*
X75834456Y-38155071D01*
X75883156Y-38082186D01*
X75916701Y-38001202D01*
X75930267Y-37933000D01*
X76253219Y-37933000D01*
X76270889Y-37942445D01*
X76317072Y-37956455D01*
X76365100Y-37961185D01*
X77177900Y-37961185D01*
X77225928Y-37956455D01*
X77272111Y-37942445D01*
X77314673Y-37919695D01*
X77351979Y-37889079D01*
X77382595Y-37851773D01*
X77405345Y-37809211D01*
X77419355Y-37763028D01*
X77424085Y-37715000D01*
X77424085Y-37461000D01*
X77419355Y-37412972D01*
X77405345Y-37366789D01*
X77382595Y-37324227D01*
X77351979Y-37286921D01*
X77314673Y-37256305D01*
X77272111Y-37233555D01*
X77225928Y-37219545D01*
X77177900Y-37214815D01*
X76365100Y-37214815D01*
X76317072Y-37219545D01*
X76270889Y-37233555D01*
X76253219Y-37243000D01*
X75789137Y-37243000D01*
X75772201Y-37241332D01*
X75755265Y-37243000D01*
X75755256Y-37243000D01*
X75704570Y-37247992D01*
X75639538Y-37267720D01*
X75579603Y-37299755D01*
X75527070Y-37342868D01*
X75516269Y-37356030D01*
X75445898Y-37426400D01*
X75444973Y-37426400D01*
X75359000Y-37443501D01*
X75278016Y-37477046D01*
X75205131Y-37525746D01*
X75143148Y-37587729D01*
X75094448Y-37660614D01*
X75060903Y-37741598D01*
X75043802Y-37827571D01*
X74315785Y-37827571D01*
X74315785Y-37803000D01*
X74314600Y-37790968D01*
X74314600Y-37101340D01*
X74317785Y-37069000D01*
X74317785Y-36789000D01*
X74314600Y-36756660D01*
X74314600Y-36722600D01*
X76119664Y-36722600D01*
X76123645Y-36763027D01*
%TA.AperFunction,Conductor*%
D30*
G36*
X76123645Y-36763027D02*
G01*
X76137655Y-36809210D01*
X76160405Y-36851772D01*
X76191021Y-36889078D01*
X76228327Y-36919694D01*
X76270889Y-36942444D01*
X76317072Y-36956454D01*
X76365100Y-36961184D01*
X76652413Y-36961184D01*
X76694716Y-36974016D01*
X76771500Y-36981579D01*
X76848283Y-36974016D01*
X76890586Y-36961184D01*
X77177900Y-36961184D01*
X77225928Y-36956454D01*
X77272111Y-36942444D01*
X77314673Y-36919694D01*
X77351979Y-36889078D01*
X77382595Y-36851772D01*
X77405345Y-36809210D01*
X77419355Y-36763027D01*
X77423336Y-36722600D01*
X77425000Y-36722600D01*
X77425000Y-38817000D01*
X74314600Y-38817000D01*
X74314600Y-38155032D01*
X74315785Y-38143000D01*
X74315785Y-37827571D01*
X75043802Y-37827571D01*
X75043802Y-37915229D01*
X75060903Y-38001202D01*
X75094448Y-38082186D01*
X75143148Y-38155071D01*
X75205131Y-38217054D01*
X75278016Y-38265754D01*
X75359000Y-38299299D01*
X75444973Y-38316400D01*
X75532631Y-38316400D01*
X75618604Y-38299299D01*
X75699588Y-38265754D01*
X75772473Y-38217054D01*
X75834456Y-38155071D01*
X75883156Y-38082186D01*
X75916701Y-38001202D01*
X75930267Y-37933000D01*
X76253219Y-37933000D01*
X76270889Y-37942445D01*
X76317072Y-37956455D01*
X76365100Y-37961185D01*
X77177900Y-37961185D01*
X77225928Y-37956455D01*
X77272111Y-37942445D01*
X77314673Y-37919695D01*
X77351979Y-37889079D01*
X77382595Y-37851773D01*
X77405345Y-37809211D01*
X77419355Y-37763028D01*
X77424085Y-37715000D01*
X77424085Y-37461000D01*
X77419355Y-37412972D01*
X77405345Y-37366789D01*
X77382595Y-37324227D01*
X77351979Y-37286921D01*
X77314673Y-37256305D01*
X77272111Y-37233555D01*
X77225928Y-37219545D01*
X77177900Y-37214815D01*
X76365100Y-37214815D01*
X76317072Y-37219545D01*
X76270889Y-37233555D01*
X76253219Y-37243000D01*
X75789137Y-37243000D01*
X75772201Y-37241332D01*
X75755265Y-37243000D01*
X75755256Y-37243000D01*
X75704570Y-37247992D01*
X75639538Y-37267720D01*
X75579603Y-37299755D01*
X75527070Y-37342868D01*
X75516269Y-37356030D01*
X75445898Y-37426400D01*
X75444973Y-37426400D01*
X75359000Y-37443501D01*
X75278016Y-37477046D01*
X75205131Y-37525746D01*
X75143148Y-37587729D01*
X75094448Y-37660614D01*
X75060903Y-37741598D01*
X75043802Y-37827571D01*
X74315785Y-37827571D01*
X74315785Y-37803000D01*
X74314600Y-37790968D01*
X74314600Y-37101340D01*
X74317785Y-37069000D01*
X74317785Y-36789000D01*
X74314600Y-36756660D01*
X74314600Y-36722600D01*
X76119664Y-36722600D01*
X76123645Y-36763027D01*
G37*
%TD.AperFunction*%
%TD*%
D29*
%TO.N,GND*%
X70211400Y-36364113D02*
X69762672Y-36812841D01*
X69748485Y-36824484D01*
X69736842Y-36838671D01*
X69736840Y-36838673D01*
X69701997Y-36881129D01*
X69667455Y-36945754D01*
X69646183Y-37015876D01*
X69639001Y-37088800D01*
X69640801Y-37107076D01*
X69640800Y-37606785D01*
X69618556Y-37660487D01*
X69602800Y-37739699D01*
X69602800Y-37820461D01*
X69618556Y-37899673D01*
X69649463Y-37974288D01*
X69694332Y-38041440D01*
X69751440Y-38098548D01*
X69818592Y-38143417D01*
X69893207Y-38174324D01*
X69972419Y-38190080D01*
X70053181Y-38190080D01*
X70132393Y-38174324D01*
X70207008Y-38143417D01*
X70211400Y-38140482D01*
X70211400Y-38840000D01*
X69160000Y-38840000D01*
X69160000Y-33877800D01*
X70211400Y-33877800D01*
X70211400Y-36364113D01*
%TA.AperFunction,Conductor*%
D30*
G36*
X70211400Y-36364113D02*
G01*
X69762672Y-36812841D01*
X69748485Y-36824484D01*
X69736842Y-36838671D01*
X69736840Y-36838673D01*
X69701997Y-36881129D01*
X69667455Y-36945754D01*
X69646183Y-37015876D01*
X69639001Y-37088800D01*
X69640801Y-37107076D01*
X69640800Y-37606785D01*
X69618556Y-37660487D01*
X69602800Y-37739699D01*
X69602800Y-37820461D01*
X69618556Y-37899673D01*
X69649463Y-37974288D01*
X69694332Y-38041440D01*
X69751440Y-38098548D01*
X69818592Y-38143417D01*
X69893207Y-38174324D01*
X69972419Y-38190080D01*
X70053181Y-38190080D01*
X70132393Y-38174324D01*
X70207008Y-38143417D01*
X70211400Y-38140482D01*
X70211400Y-38840000D01*
X69160000Y-38840000D01*
X69160000Y-33877800D01*
X70211400Y-33877800D01*
X70211400Y-36364113D01*
G37*
%TD.AperFunction*%
%TD*%
M02*
