%TF.GenerationSoftware,KiCad,Pcbnew,5.1.9-73d0e3b20d~88~ubuntu20.04.1*%
%TF.CreationDate,2022-04-15T22:34:28-04:00*%
%TF.ProjectId,ring,72696e67-2e6b-4696-9361-645f70636258,rev?*%
%TF.SameCoordinates,Original*%
%TF.FileFunction,Copper,L3,Inr*%
%TF.FilePolarity,Positive*%
%FSLAX46Y46*%
G04 Gerber Fmt 4.6, Leading zero omitted, Abs format (unit mm)*
G04 Created by KiCad (PCBNEW 5.1.9-73d0e3b20d~88~ubuntu20.04.1) date 2022-04-15 22:34:28*
%MOMM*%
%LPD*%
G01*
G04 APERTURE LIST*
%TA.AperFunction,ViaPad*%
%ADD10C,0.400000*%
%TD*%
%TA.AperFunction,ViaPad*%
%ADD11C,0.800000*%
%TD*%
%TA.AperFunction,Conductor*%
%ADD12C,0.150000*%
%TD*%
%TA.AperFunction,Conductor*%
%ADD13C,0.200000*%
%TD*%
%TA.AperFunction,Conductor*%
%ADD14C,0.090000*%
%TD*%
%TA.AperFunction,Conductor*%
%ADD15C,0.100000*%
%TD*%
G04 APERTURE END LIST*
D10*
%TO.N,*%
X76657200Y-23469600D03*
%TO.N,GND*%
X74275200Y-22301200D03*
X74834000Y-22707600D03*
X69342000Y-26263600D03*
X69342000Y-26958800D03*
X69342000Y-27958800D03*
X80619600Y-24841200D03*
X76657200Y-22656800D03*
X76660000Y-21844000D03*
X77673200Y-23469600D03*
X69342000Y-23571200D03*
X69342000Y-21691600D03*
X71275200Y-21691600D03*
X75237600Y-19304000D03*
X78943200Y-33274000D03*
X69342000Y-22860000D03*
X70291200Y-22860000D03*
X72491600Y-22860000D03*
X75237600Y-20304000D03*
X69425000Y-30327600D03*
X72275200Y-21691600D03*
X73275200Y-21691600D03*
X74275200Y-21691600D03*
X75275200Y-21691600D03*
X70916800Y-25755600D03*
X76237600Y-19304000D03*
X77237600Y-19304000D03*
X73237600Y-26568400D03*
X74237600Y-26568400D03*
X75237600Y-26568400D03*
X76237600Y-26568400D03*
X77237600Y-26568400D03*
X72237600Y-27568400D03*
X72237600Y-28568400D03*
X72237600Y-29568400D03*
X72237600Y-30568400D03*
X72237600Y-31546800D03*
X72237600Y-26568400D03*
X73237600Y-31568400D03*
X74237600Y-31568400D03*
X75057000Y-31568400D03*
X77237600Y-27568400D03*
X77237600Y-29159200D03*
X73304400Y-38506400D03*
X78798302Y-38524298D03*
X71120000Y-22860000D03*
X69425000Y-31887099D03*
%TO.N,+BATT*%
X80517999Y-25432536D03*
X75488800Y-34975800D03*
X80518000Y-32537400D03*
X75234800Y-36830000D03*
X75255966Y-37318418D03*
%TO.N,/LSM_INT1*%
X80213200Y-20269200D03*
X80517999Y-23850600D03*
%TO.N,/LSM_INT2*%
X70256400Y-28313000D03*
X77142343Y-21476229D03*
%TO.N,/CS*%
X78494001Y-23579199D03*
X74474021Y-33679202D03*
%TO.N,/SCK*%
X79051550Y-23189095D03*
X74973990Y-33259345D03*
%TO.N,/MISO*%
X80051561Y-23264306D03*
X75539600Y-33832800D03*
%TO.N,/MOSI*%
X79509359Y-23576942D03*
X75985067Y-33188212D03*
%TO.N,/SWDIO*%
X72796400Y-33731200D03*
%TO.N,/SWCLK*%
X73926920Y-33348531D03*
%TO.N,/BOOT0*%
X79029961Y-30560928D03*
%TO.N,+1V8*%
X80264000Y-19558000D03*
X75946000Y-20828000D03*
X75806259Y-24244259D03*
X69646800Y-28549600D03*
X73474010Y-33742088D03*
X80122261Y-31836861D03*
D11*
X80365600Y-33883600D03*
D10*
X76809600Y-33782000D03*
X80574978Y-27746389D03*
X77927198Y-24180798D03*
X71170800Y-32766000D03*
X71956363Y-24602240D03*
%TO.N,/TPS_MODE*%
X75488802Y-37871400D03*
X71727561Y-33779961D03*
%TO.N,/TPS_STOP*%
X72339200Y-33324800D03*
X79668130Y-38161096D03*
D11*
%TO.N,/CELL-*%
X71583501Y-37750701D03*
D10*
%TO.N,/NRST*%
X80574980Y-28346400D03*
%TO.N,/RAD_PLANE*%
X69392800Y-19405600D03*
X73964800Y-19405600D03*
%TO.N,/LED_1*%
X79508632Y-30080232D03*
%TO.N,/BTN_0*%
X77994001Y-25603200D03*
%TO.N,/BTN_1*%
X77112820Y-24741147D03*
%TO.N,/BTN_2*%
X76512824Y-24745463D03*
%TO.N,/BTN_3*%
X75927017Y-24875252D03*
%TD*%
D12*
%TO.N,+BATT*%
X78079600Y-34975800D02*
X75488800Y-34975800D01*
X80518000Y-32537400D02*
X78079600Y-34975800D01*
D13*
%TO.N,/LSM_INT2*%
X70273800Y-28295600D02*
X70256400Y-28313000D01*
D12*
X77142343Y-22944655D02*
X77142343Y-21476229D01*
X77142343Y-24074142D02*
X77142343Y-22944655D01*
X77724000Y-24655799D02*
X77142343Y-24074142D01*
X77724000Y-25146000D02*
X77724000Y-24655799D01*
X76762599Y-26107401D02*
X77724000Y-25146000D01*
X75465601Y-28093399D02*
X76762599Y-26796401D01*
X76762599Y-26796401D02*
X76762599Y-26107401D01*
X70476001Y-28093399D02*
X75465601Y-28093399D01*
X70256400Y-28313000D02*
X70476001Y-28093399D01*
D13*
%TO.N,/CS*%
X74473988Y-33679169D02*
X74474021Y-33679202D01*
X74473988Y-33019343D02*
X74473988Y-33679169D01*
X78494001Y-28999330D02*
X74473988Y-33019343D01*
X78494001Y-23579199D02*
X78494001Y-28999330D01*
%TO.N,/SCK*%
X79051550Y-23189095D02*
X78994017Y-23246628D01*
X78994017Y-23246628D02*
X78994017Y-29239318D01*
X78994017Y-29239318D02*
X74973990Y-33259345D01*
%TO.N,/MISO*%
X80017999Y-23297868D02*
X80051561Y-23264306D01*
X80017999Y-30319601D02*
X80017999Y-23297868D01*
X79276671Y-31060929D02*
X80017999Y-30319601D01*
X78819471Y-31060929D02*
X79276671Y-31060929D01*
X76047600Y-33832800D02*
X78819471Y-31060929D01*
X75539600Y-33832800D02*
X76047600Y-33832800D01*
%TO.N,/MOSI*%
X79509359Y-29372398D02*
X75985067Y-32896690D01*
X75985067Y-32896690D02*
X75985067Y-33188212D01*
X79509359Y-23576942D02*
X79509359Y-29372398D01*
%TO.N,/TPS_MODE*%
X75488802Y-37871400D02*
X73760098Y-37871400D01*
X73760098Y-37871400D02*
X71727561Y-35838863D01*
X71727561Y-35838863D02*
X71727561Y-33779961D01*
%TO.N,/TPS_STOP*%
X72296399Y-35842001D02*
X77349035Y-35842001D01*
X77349035Y-35842001D02*
X79668130Y-38161096D01*
X72296399Y-33367601D02*
X72296399Y-35842001D01*
X72339200Y-33324800D02*
X72296399Y-33367601D01*
%TD*%
D14*
%TO.N,+1V8*%
X75809701Y-19174198D02*
X75792600Y-19260171D01*
X75792600Y-19347829D01*
X75809701Y-19433802D01*
X75843246Y-19514786D01*
X75891946Y-19587671D01*
X75953929Y-19649654D01*
X76026814Y-19698354D01*
X76107798Y-19731899D01*
X76193771Y-19749000D01*
X76281429Y-19749000D01*
X76367402Y-19731899D01*
X76448386Y-19698354D01*
X76521271Y-19649654D01*
X76583254Y-19587671D01*
X76631954Y-19514786D01*
X76665499Y-19433802D01*
X76682600Y-19347829D01*
X76682600Y-19260171D01*
X76665499Y-19174198D01*
X76659618Y-19160000D01*
X76815582Y-19160000D01*
X76809701Y-19174198D01*
X76792600Y-19260171D01*
X76792600Y-19347829D01*
X76809701Y-19433802D01*
X76843246Y-19514786D01*
X76891946Y-19587671D01*
X76953929Y-19649654D01*
X77026814Y-19698354D01*
X77107798Y-19731899D01*
X77193771Y-19749000D01*
X77281429Y-19749000D01*
X77367402Y-19731899D01*
X77448386Y-19698354D01*
X77521271Y-19649654D01*
X77583254Y-19587671D01*
X77631954Y-19514786D01*
X77665499Y-19433802D01*
X77682600Y-19347829D01*
X77682600Y-19260171D01*
X77665499Y-19174198D01*
X77659618Y-19160000D01*
X80840000Y-19160000D01*
X80840000Y-23543276D01*
X80801670Y-23504946D01*
X80728785Y-23456246D01*
X80647801Y-23422701D01*
X80561828Y-23405600D01*
X80474700Y-23405600D01*
X80479460Y-23394108D01*
X80496561Y-23308135D01*
X80496561Y-23220477D01*
X80479460Y-23134504D01*
X80445915Y-23053520D01*
X80397215Y-22980635D01*
X80335232Y-22918652D01*
X80262347Y-22869952D01*
X80181363Y-22836407D01*
X80095390Y-22819306D01*
X80007732Y-22819306D01*
X79921759Y-22836407D01*
X79840775Y-22869952D01*
X79767890Y-22918652D01*
X79705907Y-22980635D01*
X79657207Y-23053520D01*
X79623662Y-23134504D01*
X79621470Y-23145524D01*
X79553188Y-23131942D01*
X79493900Y-23131942D01*
X79479449Y-23059293D01*
X79445904Y-22978309D01*
X79397204Y-22905424D01*
X79335221Y-22843441D01*
X79262336Y-22794741D01*
X79181352Y-22761196D01*
X79095379Y-22744095D01*
X79007721Y-22744095D01*
X78921748Y-22761196D01*
X78840764Y-22794741D01*
X78767879Y-22843441D01*
X78705896Y-22905424D01*
X78657196Y-22978309D01*
X78623651Y-23059293D01*
X78606550Y-23145266D01*
X78606550Y-23147868D01*
X78537830Y-23134199D01*
X78450172Y-23134199D01*
X78364199Y-23151300D01*
X78283215Y-23184845D01*
X78210330Y-23233545D01*
X78148347Y-23295528D01*
X78105152Y-23360174D01*
X78101099Y-23339798D01*
X78067554Y-23258814D01*
X78018854Y-23185929D01*
X77956871Y-23123946D01*
X77883986Y-23075246D01*
X77803002Y-23041701D01*
X77717029Y-23024600D01*
X77629371Y-23024600D01*
X77543398Y-23041701D01*
X77462414Y-23075246D01*
X77462343Y-23075293D01*
X77462343Y-21785554D01*
X77487997Y-21759900D01*
X77536697Y-21687015D01*
X77570242Y-21606031D01*
X77587343Y-21520058D01*
X77587343Y-21432400D01*
X77570242Y-21346427D01*
X77536697Y-21265443D01*
X77487997Y-21192558D01*
X77426014Y-21130575D01*
X77353129Y-21081875D01*
X77272145Y-21048330D01*
X77186172Y-21031229D01*
X77098514Y-21031229D01*
X77012541Y-21048330D01*
X76931557Y-21081875D01*
X76858672Y-21130575D01*
X76796689Y-21192558D01*
X76747989Y-21265443D01*
X76714444Y-21346427D01*
X76703981Y-21399030D01*
X76703829Y-21399000D01*
X76616171Y-21399000D01*
X76530198Y-21416101D01*
X76449214Y-21449646D01*
X76376329Y-21498346D01*
X76314346Y-21560329D01*
X76265646Y-21633214D01*
X76232101Y-21714198D01*
X76215000Y-21800171D01*
X76215000Y-21887829D01*
X76232101Y-21973802D01*
X76265646Y-22054786D01*
X76314346Y-22127671D01*
X76376329Y-22189654D01*
X76449214Y-22238354D01*
X76476895Y-22249820D01*
X76446414Y-22262446D01*
X76373529Y-22311146D01*
X76311546Y-22373129D01*
X76262846Y-22446014D01*
X76229301Y-22526998D01*
X76212200Y-22612971D01*
X76212200Y-22700629D01*
X76229301Y-22786602D01*
X76262846Y-22867586D01*
X76311546Y-22940471D01*
X76373529Y-23002454D01*
X76446414Y-23051154D01*
X76475495Y-23063200D01*
X76446414Y-23075246D01*
X76373529Y-23123946D01*
X76311546Y-23185929D01*
X76262846Y-23258814D01*
X76229301Y-23339798D01*
X76212200Y-23425771D01*
X76212200Y-23513429D01*
X76229301Y-23599402D01*
X76262846Y-23680386D01*
X76311546Y-23753271D01*
X76373529Y-23815254D01*
X76446414Y-23863954D01*
X76527398Y-23897499D01*
X76613371Y-23914600D01*
X76701029Y-23914600D01*
X76787002Y-23897499D01*
X76822343Y-23882860D01*
X76822343Y-24058429D01*
X76820795Y-24074142D01*
X76822343Y-24089855D01*
X76822343Y-24089859D01*
X76826973Y-24136872D01*
X76845271Y-24197192D01*
X76845272Y-24197193D01*
X76874986Y-24252784D01*
X76888661Y-24269447D01*
X76914974Y-24301511D01*
X76927190Y-24311536D01*
X76944752Y-24329098D01*
X76902034Y-24346793D01*
X76829149Y-24395493D01*
X76810664Y-24413978D01*
X76796495Y-24399809D01*
X76723610Y-24351109D01*
X76642626Y-24317564D01*
X76556653Y-24300463D01*
X76468995Y-24300463D01*
X76383022Y-24317564D01*
X76302038Y-24351109D01*
X76229153Y-24399809D01*
X76167170Y-24461792D01*
X76149280Y-24488567D01*
X76137803Y-24480898D01*
X76056819Y-24447353D01*
X75970846Y-24430252D01*
X75883188Y-24430252D01*
X75797215Y-24447353D01*
X75716231Y-24480898D01*
X75643346Y-24529598D01*
X75581363Y-24591581D01*
X75532663Y-24664466D01*
X75499118Y-24745450D01*
X75482017Y-24831423D01*
X75482017Y-24919081D01*
X75499118Y-25005054D01*
X75532663Y-25086038D01*
X75581363Y-25158923D01*
X75643346Y-25220906D01*
X75716231Y-25269606D01*
X75797215Y-25303151D01*
X75883188Y-25320252D01*
X75970846Y-25320252D01*
X76056819Y-25303151D01*
X76137803Y-25269606D01*
X76210688Y-25220906D01*
X76272671Y-25158923D01*
X76290561Y-25132148D01*
X76302038Y-25139817D01*
X76383022Y-25173362D01*
X76468995Y-25190463D01*
X76556653Y-25190463D01*
X76642626Y-25173362D01*
X76723610Y-25139817D01*
X76796495Y-25091117D01*
X76814980Y-25072632D01*
X76829149Y-25086801D01*
X76902034Y-25135501D01*
X76983018Y-25169046D01*
X77068991Y-25186147D01*
X77156649Y-25186147D01*
X77242622Y-25169046D01*
X77252495Y-25164956D01*
X76547442Y-25870011D01*
X76535231Y-25880032D01*
X76525211Y-25892242D01*
X76495242Y-25928759D01*
X76475130Y-25966386D01*
X76465528Y-25984350D01*
X76447230Y-26044670D01*
X76444053Y-26076925D01*
X76441051Y-26107401D01*
X76442600Y-26123124D01*
X76442600Y-26171649D01*
X76367402Y-26140501D01*
X76281429Y-26123400D01*
X76193771Y-26123400D01*
X76107798Y-26140501D01*
X76026814Y-26174046D01*
X75953929Y-26222746D01*
X75891946Y-26284729D01*
X75843246Y-26357614D01*
X75809701Y-26438598D01*
X75792600Y-26524571D01*
X75792600Y-26612229D01*
X75809701Y-26698202D01*
X75843246Y-26779186D01*
X75891946Y-26852071D01*
X75953929Y-26914054D01*
X76026814Y-26962754D01*
X76107798Y-26996299D01*
X76109763Y-26996690D01*
X75333054Y-27773399D01*
X72634351Y-27773399D01*
X72665499Y-27698202D01*
X72682600Y-27612229D01*
X72682600Y-27524571D01*
X72665499Y-27438598D01*
X72631954Y-27357614D01*
X72583254Y-27284729D01*
X72521271Y-27222746D01*
X72448386Y-27174046D01*
X72367402Y-27140501D01*
X72281429Y-27123400D01*
X72193771Y-27123400D01*
X72107798Y-27140501D01*
X72026814Y-27174046D01*
X71953929Y-27222746D01*
X71891946Y-27284729D01*
X71843246Y-27357614D01*
X71809701Y-27438598D01*
X71792600Y-27524571D01*
X71792600Y-27612229D01*
X71809701Y-27698202D01*
X71840849Y-27773399D01*
X70491717Y-27773399D01*
X70476001Y-27771851D01*
X70460285Y-27773399D01*
X70460283Y-27773399D01*
X70413270Y-27778029D01*
X70366988Y-27792068D01*
X70352949Y-27796327D01*
X70297358Y-27826042D01*
X70272036Y-27846823D01*
X70248632Y-27866030D01*
X70247015Y-27868000D01*
X70212571Y-27868000D01*
X70126598Y-27885101D01*
X70045614Y-27918646D01*
X69972729Y-27967346D01*
X69910746Y-28029329D01*
X69862046Y-28102214D01*
X69828501Y-28183198D01*
X69811400Y-28269171D01*
X69811400Y-28356829D01*
X69828501Y-28442802D01*
X69862046Y-28523786D01*
X69910746Y-28596671D01*
X69972729Y-28658654D01*
X70045614Y-28707354D01*
X70126598Y-28740899D01*
X70212571Y-28758000D01*
X70300229Y-28758000D01*
X70386202Y-28740899D01*
X70467186Y-28707354D01*
X70540071Y-28658654D01*
X70602054Y-28596671D01*
X70650754Y-28523786D01*
X70684299Y-28442802D01*
X70690148Y-28413399D01*
X71820139Y-28413399D01*
X71809701Y-28438598D01*
X71792600Y-28524571D01*
X71792600Y-28612229D01*
X71809701Y-28698202D01*
X71843246Y-28779186D01*
X71891946Y-28852071D01*
X71953929Y-28914054D01*
X72026814Y-28962754D01*
X72107798Y-28996299D01*
X72193771Y-29013400D01*
X72281429Y-29013400D01*
X72367402Y-28996299D01*
X72448386Y-28962754D01*
X72521271Y-28914054D01*
X72583254Y-28852071D01*
X72631954Y-28779186D01*
X72665499Y-28698202D01*
X72682600Y-28612229D01*
X72682600Y-28524571D01*
X72665499Y-28438598D01*
X72655061Y-28413399D01*
X75449888Y-28413399D01*
X75465601Y-28414947D01*
X75481314Y-28413399D01*
X75481319Y-28413399D01*
X75528332Y-28408769D01*
X75588652Y-28390471D01*
X75644243Y-28360756D01*
X75692970Y-28320768D01*
X75702996Y-28308551D01*
X76486976Y-27524571D01*
X76792600Y-27524571D01*
X76792600Y-27612229D01*
X76809701Y-27698202D01*
X76843246Y-27779186D01*
X76891946Y-27852071D01*
X76953929Y-27914054D01*
X77026814Y-27962754D01*
X77107798Y-27996299D01*
X77193771Y-28013400D01*
X77281429Y-28013400D01*
X77367402Y-27996299D01*
X77448386Y-27962754D01*
X77521271Y-27914054D01*
X77583254Y-27852071D01*
X77631954Y-27779186D01*
X77665499Y-27698202D01*
X77682600Y-27612229D01*
X77682600Y-27524571D01*
X77665499Y-27438598D01*
X77631954Y-27357614D01*
X77583254Y-27284729D01*
X77521271Y-27222746D01*
X77448386Y-27174046D01*
X77367402Y-27140501D01*
X77281429Y-27123400D01*
X77193771Y-27123400D01*
X77107798Y-27140501D01*
X77026814Y-27174046D01*
X76953929Y-27222746D01*
X76891946Y-27284729D01*
X76843246Y-27357614D01*
X76809701Y-27438598D01*
X76792600Y-27524571D01*
X76486976Y-27524571D01*
X76977758Y-27033790D01*
X76989968Y-27023770D01*
X77012512Y-26996299D01*
X77029956Y-26975044D01*
X77034765Y-26966047D01*
X77107798Y-26996299D01*
X77193771Y-27013400D01*
X77281429Y-27013400D01*
X77367402Y-26996299D01*
X77448386Y-26962754D01*
X77521271Y-26914054D01*
X77583254Y-26852071D01*
X77631954Y-26779186D01*
X77665499Y-26698202D01*
X77682600Y-26612229D01*
X77682600Y-26524571D01*
X77665499Y-26438598D01*
X77631954Y-26357614D01*
X77583254Y-26284729D01*
X77521271Y-26222746D01*
X77448386Y-26174046D01*
X77367402Y-26140501D01*
X77281429Y-26123400D01*
X77199147Y-26123400D01*
X77572969Y-25749580D01*
X77599647Y-25813986D01*
X77648347Y-25886871D01*
X77710330Y-25948854D01*
X77783215Y-25997554D01*
X77864199Y-26031099D01*
X77950172Y-26048200D01*
X78037830Y-26048200D01*
X78123803Y-26031099D01*
X78149001Y-26020661D01*
X78149002Y-28856425D01*
X77624932Y-29380495D01*
X77631954Y-29369986D01*
X77665499Y-29289002D01*
X77682600Y-29203029D01*
X77682600Y-29115371D01*
X77665499Y-29029398D01*
X77631954Y-28948414D01*
X77583254Y-28875529D01*
X77521271Y-28813546D01*
X77448386Y-28764846D01*
X77367402Y-28731301D01*
X77281429Y-28714200D01*
X77193771Y-28714200D01*
X77107798Y-28731301D01*
X77026814Y-28764846D01*
X76953929Y-28813546D01*
X76891946Y-28875529D01*
X76843246Y-28948414D01*
X76809701Y-29029398D01*
X76792600Y-29115371D01*
X76792600Y-29203029D01*
X76809701Y-29289002D01*
X76843246Y-29369986D01*
X76891946Y-29442871D01*
X76953929Y-29504854D01*
X77026814Y-29553554D01*
X77107798Y-29587099D01*
X77193771Y-29604200D01*
X77281429Y-29604200D01*
X77367402Y-29587099D01*
X77448386Y-29553554D01*
X77458895Y-29546532D01*
X75498492Y-31506936D01*
X75484899Y-31438598D01*
X75451354Y-31357614D01*
X75402654Y-31284729D01*
X75340671Y-31222746D01*
X75267786Y-31174046D01*
X75186802Y-31140501D01*
X75100829Y-31123400D01*
X75013171Y-31123400D01*
X74927198Y-31140501D01*
X74846214Y-31174046D01*
X74773329Y-31222746D01*
X74711346Y-31284729D01*
X74662646Y-31357614D01*
X74647300Y-31394662D01*
X74631954Y-31357614D01*
X74583254Y-31284729D01*
X74521271Y-31222746D01*
X74448386Y-31174046D01*
X74367402Y-31140501D01*
X74281429Y-31123400D01*
X74193771Y-31123400D01*
X74107798Y-31140501D01*
X74026814Y-31174046D01*
X73953929Y-31222746D01*
X73891946Y-31284729D01*
X73843246Y-31357614D01*
X73809701Y-31438598D01*
X73792600Y-31524571D01*
X73792600Y-31612229D01*
X73809701Y-31698202D01*
X73843246Y-31779186D01*
X73891946Y-31852071D01*
X73953929Y-31914054D01*
X74026814Y-31962754D01*
X74107798Y-31996299D01*
X74193771Y-32013400D01*
X74281429Y-32013400D01*
X74367402Y-31996299D01*
X74448386Y-31962754D01*
X74521271Y-31914054D01*
X74583254Y-31852071D01*
X74631954Y-31779186D01*
X74647300Y-31742138D01*
X74662646Y-31779186D01*
X74711346Y-31852071D01*
X74773329Y-31914054D01*
X74846214Y-31962754D01*
X74927198Y-31996299D01*
X74995536Y-32009892D01*
X74242018Y-32763409D01*
X74228856Y-32774212D01*
X74185743Y-32826745D01*
X74153708Y-32886680D01*
X74133980Y-32951712D01*
X74133893Y-32952598D01*
X74056722Y-32920632D01*
X73970749Y-32903531D01*
X73883091Y-32903531D01*
X73797118Y-32920632D01*
X73716134Y-32954177D01*
X73643249Y-33002877D01*
X73581266Y-33064860D01*
X73532566Y-33137745D01*
X73499021Y-33218729D01*
X73481920Y-33304702D01*
X73481920Y-33392360D01*
X73499021Y-33478333D01*
X73532566Y-33559317D01*
X73581266Y-33632202D01*
X73643249Y-33694185D01*
X73716134Y-33742885D01*
X73797118Y-33776430D01*
X73883091Y-33793531D01*
X73970749Y-33793531D01*
X74040293Y-33779698D01*
X74046122Y-33809004D01*
X74079667Y-33889988D01*
X74128367Y-33962873D01*
X74190350Y-34024856D01*
X74263235Y-34073556D01*
X74344219Y-34107101D01*
X74430192Y-34124202D01*
X74517850Y-34124202D01*
X74603823Y-34107101D01*
X74684807Y-34073556D01*
X74757692Y-34024856D01*
X74819675Y-33962873D01*
X74868375Y-33889988D01*
X74901920Y-33809004D01*
X74919021Y-33723031D01*
X74919021Y-33702129D01*
X74930161Y-33704345D01*
X75017819Y-33704345D01*
X75103792Y-33687244D01*
X75121216Y-33680027D01*
X75111701Y-33702998D01*
X75094600Y-33788971D01*
X75094600Y-33876629D01*
X75111701Y-33962602D01*
X75145246Y-34043586D01*
X75193946Y-34116471D01*
X75255929Y-34178454D01*
X75328814Y-34227154D01*
X75409798Y-34260699D01*
X75495771Y-34277800D01*
X75583429Y-34277800D01*
X75669402Y-34260699D01*
X75750386Y-34227154D01*
X75823271Y-34178454D01*
X75823925Y-34177800D01*
X76030662Y-34177800D01*
X76047600Y-34179468D01*
X76064538Y-34177800D01*
X76064546Y-34177800D01*
X76115232Y-34172808D01*
X76180264Y-34153080D01*
X76240199Y-34121045D01*
X76292732Y-34077932D01*
X76303538Y-34064765D01*
X78962374Y-31405929D01*
X79259733Y-31405929D01*
X79276671Y-31407597D01*
X79293609Y-31405929D01*
X79293617Y-31405929D01*
X79344303Y-31400937D01*
X79409335Y-31381209D01*
X79469270Y-31349174D01*
X79521803Y-31306061D01*
X79532609Y-31292894D01*
X80249974Y-30575530D01*
X80263130Y-30564733D01*
X80273928Y-30551576D01*
X80273933Y-30551571D01*
X80289280Y-30532870D01*
X80306244Y-30512200D01*
X80338279Y-30452265D01*
X80358007Y-30387233D01*
X80362999Y-30336547D01*
X80362999Y-30336538D01*
X80364667Y-30319602D01*
X80362999Y-30302666D01*
X80362999Y-28739956D01*
X80364194Y-28740754D01*
X80445178Y-28774299D01*
X80531151Y-28791400D01*
X80618809Y-28791400D01*
X80704782Y-28774299D01*
X80785766Y-28740754D01*
X80840000Y-28704516D01*
X80840001Y-32230076D01*
X80801671Y-32191746D01*
X80728786Y-32143046D01*
X80647802Y-32109501D01*
X80561829Y-32092400D01*
X80474171Y-32092400D01*
X80388198Y-32109501D01*
X80307214Y-32143046D01*
X80234329Y-32191746D01*
X80172346Y-32253729D01*
X80123646Y-32326614D01*
X80090101Y-32407598D01*
X80073000Y-32493571D01*
X80073000Y-32529851D01*
X79385625Y-33217227D01*
X79371099Y-33144198D01*
X79337554Y-33063214D01*
X79288854Y-32990329D01*
X79226871Y-32928346D01*
X79153986Y-32879646D01*
X79073002Y-32846101D01*
X78987029Y-32829000D01*
X78899371Y-32829000D01*
X78813398Y-32846101D01*
X78732414Y-32879646D01*
X78659529Y-32928346D01*
X78597546Y-32990329D01*
X78548846Y-33063214D01*
X78515301Y-33144198D01*
X78498200Y-33230171D01*
X78498200Y-33317829D01*
X78515301Y-33403802D01*
X78548846Y-33484786D01*
X78597546Y-33557671D01*
X78659529Y-33619654D01*
X78732414Y-33668354D01*
X78813398Y-33701899D01*
X78886427Y-33716425D01*
X77947053Y-34655800D01*
X75798125Y-34655800D01*
X75772471Y-34630146D01*
X75699586Y-34581446D01*
X75618602Y-34547901D01*
X75532629Y-34530800D01*
X75444971Y-34530800D01*
X75358998Y-34547901D01*
X75278014Y-34581446D01*
X75205129Y-34630146D01*
X75143146Y-34692129D01*
X75094446Y-34765014D01*
X75060901Y-34845998D01*
X75043800Y-34931971D01*
X75043800Y-35019629D01*
X75060901Y-35105602D01*
X75094446Y-35186586D01*
X75143146Y-35259471D01*
X75205129Y-35321454D01*
X75278014Y-35370154D01*
X75358998Y-35403699D01*
X75444971Y-35420800D01*
X75532629Y-35420800D01*
X75618602Y-35403699D01*
X75699586Y-35370154D01*
X75772471Y-35321454D01*
X75798125Y-35295800D01*
X78063887Y-35295800D01*
X78079600Y-35297348D01*
X78095313Y-35295800D01*
X78095318Y-35295800D01*
X78142331Y-35291170D01*
X78202651Y-35272872D01*
X78258242Y-35243157D01*
X78306969Y-35203169D01*
X78316995Y-35190953D01*
X80525549Y-32982400D01*
X80561829Y-32982400D01*
X80647802Y-32965299D01*
X80728786Y-32931754D01*
X80801671Y-32883054D01*
X80840001Y-32844724D01*
X80840001Y-38840000D01*
X79111925Y-38840000D01*
X79143956Y-38807969D01*
X79192656Y-38735084D01*
X79226201Y-38654100D01*
X79243302Y-38568127D01*
X79243302Y-38480469D01*
X79226201Y-38394496D01*
X79192656Y-38313512D01*
X79143956Y-38240627D01*
X79081973Y-38178644D01*
X79009088Y-38129944D01*
X78928104Y-38096399D01*
X78842131Y-38079298D01*
X78754473Y-38079298D01*
X78668500Y-38096399D01*
X78587516Y-38129944D01*
X78514631Y-38178644D01*
X78452648Y-38240627D01*
X78403948Y-38313512D01*
X78370403Y-38394496D01*
X78353302Y-38480469D01*
X78353302Y-38568127D01*
X78370403Y-38654100D01*
X78403948Y-38735084D01*
X78452648Y-38807969D01*
X78484679Y-38840000D01*
X73600125Y-38840000D01*
X73650054Y-38790071D01*
X73698754Y-38717186D01*
X73732299Y-38636202D01*
X73749400Y-38550229D01*
X73749400Y-38462571D01*
X73732299Y-38376598D01*
X73698754Y-38295614D01*
X73650054Y-38222729D01*
X73609327Y-38182002D01*
X73627434Y-38191680D01*
X73692466Y-38211408D01*
X73743152Y-38216400D01*
X73743161Y-38216400D01*
X73760097Y-38218068D01*
X73777033Y-38216400D01*
X75204477Y-38216400D01*
X75205131Y-38217054D01*
X75278016Y-38265754D01*
X75359000Y-38299299D01*
X75444973Y-38316400D01*
X75532631Y-38316400D01*
X75618604Y-38299299D01*
X75699588Y-38265754D01*
X75772473Y-38217054D01*
X75834456Y-38155071D01*
X75883156Y-38082186D01*
X75916701Y-38001202D01*
X75933802Y-37915229D01*
X75933802Y-37827571D01*
X75916701Y-37741598D01*
X75883156Y-37660614D01*
X75834456Y-37587729D01*
X75772473Y-37525746D01*
X75699588Y-37477046D01*
X75675976Y-37467266D01*
X75683865Y-37448220D01*
X75700966Y-37362247D01*
X75700966Y-37274589D01*
X75683865Y-37188616D01*
X75650320Y-37107632D01*
X75617405Y-37058370D01*
X75629154Y-37040786D01*
X75662699Y-36959802D01*
X75679800Y-36873829D01*
X75679800Y-36786171D01*
X75662699Y-36700198D01*
X75629154Y-36619214D01*
X75580454Y-36546329D01*
X75518471Y-36484346D01*
X75445586Y-36435646D01*
X75364602Y-36402101D01*
X75278629Y-36385000D01*
X75190971Y-36385000D01*
X75104998Y-36402101D01*
X75024014Y-36435646D01*
X74951129Y-36484346D01*
X74889146Y-36546329D01*
X74840446Y-36619214D01*
X74806901Y-36700198D01*
X74789800Y-36786171D01*
X74789800Y-36873829D01*
X74806901Y-36959802D01*
X74840446Y-37040786D01*
X74873361Y-37090048D01*
X74861612Y-37107632D01*
X74828067Y-37188616D01*
X74810966Y-37274589D01*
X74810966Y-37362247D01*
X74828067Y-37448220D01*
X74860451Y-37526400D01*
X73903002Y-37526400D01*
X72563602Y-36187001D01*
X77206132Y-36187001D01*
X79223130Y-38203999D01*
X79223130Y-38204925D01*
X79240231Y-38290898D01*
X79273776Y-38371882D01*
X79322476Y-38444767D01*
X79384459Y-38506750D01*
X79457344Y-38555450D01*
X79538328Y-38588995D01*
X79624301Y-38606096D01*
X79711959Y-38606096D01*
X79797932Y-38588995D01*
X79878916Y-38555450D01*
X79951801Y-38506750D01*
X80013784Y-38444767D01*
X80062484Y-38371882D01*
X80096029Y-38290898D01*
X80113130Y-38204925D01*
X80113130Y-38117267D01*
X80096029Y-38031294D01*
X80062484Y-37950310D01*
X80013784Y-37877425D01*
X79951801Y-37815442D01*
X79878916Y-37766742D01*
X79797932Y-37733197D01*
X79711959Y-37716096D01*
X79711033Y-37716096D01*
X77604973Y-35610036D01*
X77594167Y-35596869D01*
X77541634Y-35553756D01*
X77481699Y-35521721D01*
X77416667Y-35501993D01*
X77365981Y-35497001D01*
X77365973Y-35497001D01*
X77349035Y-35495333D01*
X77332097Y-35497001D01*
X72641399Y-35497001D01*
X72641399Y-34148661D01*
X72666598Y-34159099D01*
X72752571Y-34176200D01*
X72840229Y-34176200D01*
X72926202Y-34159099D01*
X73007186Y-34125554D01*
X73080071Y-34076854D01*
X73142054Y-34014871D01*
X73190754Y-33941986D01*
X73224299Y-33861002D01*
X73241400Y-33775029D01*
X73241400Y-33687371D01*
X73224299Y-33601398D01*
X73190754Y-33520414D01*
X73142054Y-33447529D01*
X73080071Y-33385546D01*
X73007186Y-33336846D01*
X72926202Y-33303301D01*
X72840229Y-33286200D01*
X72784200Y-33286200D01*
X72784200Y-33280971D01*
X72767099Y-33194998D01*
X72733554Y-33114014D01*
X72684854Y-33041129D01*
X72622871Y-32979146D01*
X72549986Y-32930446D01*
X72469002Y-32896901D01*
X72383029Y-32879800D01*
X72295371Y-32879800D01*
X72209398Y-32896901D01*
X72128414Y-32930446D01*
X72055529Y-32979146D01*
X71993546Y-33041129D01*
X71944846Y-33114014D01*
X71911301Y-33194998D01*
X71894200Y-33280971D01*
X71894200Y-33367321D01*
X71857363Y-33352062D01*
X71771390Y-33334961D01*
X71683732Y-33334961D01*
X71597759Y-33352062D01*
X71516775Y-33385607D01*
X71443890Y-33434307D01*
X71381907Y-33496290D01*
X71333207Y-33569175D01*
X71299662Y-33650159D01*
X71282561Y-33736132D01*
X71282561Y-33823790D01*
X71299662Y-33909763D01*
X71333207Y-33990747D01*
X71381907Y-34063632D01*
X71382562Y-34064287D01*
X71382561Y-35821925D01*
X71380893Y-35838863D01*
X71382561Y-35855801D01*
X71382561Y-35855808D01*
X71387553Y-35906494D01*
X71407281Y-35971526D01*
X71439316Y-36031461D01*
X71482429Y-36083994D01*
X71495591Y-36094796D01*
X73504165Y-38103371D01*
X73509275Y-38109598D01*
X73434202Y-38078501D01*
X73348229Y-38061400D01*
X73260571Y-38061400D01*
X73174598Y-38078501D01*
X73093614Y-38112046D01*
X73020729Y-38160746D01*
X72958746Y-38222729D01*
X72910046Y-38295614D01*
X72876501Y-38376598D01*
X72859400Y-38462571D01*
X72859400Y-38550229D01*
X72876501Y-38636202D01*
X72910046Y-38717186D01*
X72958746Y-38790071D01*
X73008675Y-38840000D01*
X69160000Y-38840000D01*
X69160000Y-37687174D01*
X70938501Y-37687174D01*
X70938501Y-37814228D01*
X70963288Y-37938841D01*
X71011909Y-38056223D01*
X71082497Y-38161865D01*
X71172337Y-38251705D01*
X71277979Y-38322293D01*
X71395361Y-38370914D01*
X71519974Y-38395701D01*
X71647028Y-38395701D01*
X71771641Y-38370914D01*
X71889023Y-38322293D01*
X71994665Y-38251705D01*
X72084505Y-38161865D01*
X72155093Y-38056223D01*
X72203714Y-37938841D01*
X72228501Y-37814228D01*
X72228501Y-37687174D01*
X72203714Y-37562561D01*
X72155093Y-37445179D01*
X72084505Y-37339537D01*
X71994665Y-37249697D01*
X71889023Y-37179109D01*
X71771641Y-37130488D01*
X71647028Y-37105701D01*
X71519974Y-37105701D01*
X71395361Y-37130488D01*
X71277979Y-37179109D01*
X71172337Y-37249697D01*
X71082497Y-37339537D01*
X71011909Y-37445179D01*
X70963288Y-37562561D01*
X70938501Y-37687174D01*
X69160000Y-37687174D01*
X69160000Y-32245229D01*
X69214214Y-32281453D01*
X69295198Y-32314998D01*
X69381171Y-32332099D01*
X69468829Y-32332099D01*
X69554802Y-32314998D01*
X69635786Y-32281453D01*
X69708671Y-32232753D01*
X69770654Y-32170770D01*
X69819354Y-32097885D01*
X69852899Y-32016901D01*
X69870000Y-31930928D01*
X69870000Y-31843270D01*
X69852899Y-31757297D01*
X69819354Y-31676313D01*
X69770654Y-31603428D01*
X69708671Y-31541445D01*
X69651091Y-31502971D01*
X71792600Y-31502971D01*
X71792600Y-31590629D01*
X71809701Y-31676602D01*
X71843246Y-31757586D01*
X71891946Y-31830471D01*
X71953929Y-31892454D01*
X72026814Y-31941154D01*
X72107798Y-31974699D01*
X72193771Y-31991800D01*
X72281429Y-31991800D01*
X72367402Y-31974699D01*
X72448386Y-31941154D01*
X72521271Y-31892454D01*
X72583254Y-31830471D01*
X72631954Y-31757586D01*
X72665499Y-31676602D01*
X72682600Y-31590629D01*
X72682600Y-31524571D01*
X72792600Y-31524571D01*
X72792600Y-31612229D01*
X72809701Y-31698202D01*
X72843246Y-31779186D01*
X72891946Y-31852071D01*
X72953929Y-31914054D01*
X73026814Y-31962754D01*
X73107798Y-31996299D01*
X73193771Y-32013400D01*
X73281429Y-32013400D01*
X73367402Y-31996299D01*
X73448386Y-31962754D01*
X73521271Y-31914054D01*
X73583254Y-31852071D01*
X73631954Y-31779186D01*
X73665499Y-31698202D01*
X73682600Y-31612229D01*
X73682600Y-31524571D01*
X73665499Y-31438598D01*
X73631954Y-31357614D01*
X73583254Y-31284729D01*
X73521271Y-31222746D01*
X73448386Y-31174046D01*
X73367402Y-31140501D01*
X73281429Y-31123400D01*
X73193771Y-31123400D01*
X73107798Y-31140501D01*
X73026814Y-31174046D01*
X72953929Y-31222746D01*
X72891946Y-31284729D01*
X72843246Y-31357614D01*
X72809701Y-31438598D01*
X72792600Y-31524571D01*
X72682600Y-31524571D01*
X72682600Y-31502971D01*
X72665499Y-31416998D01*
X72631954Y-31336014D01*
X72583254Y-31263129D01*
X72521271Y-31201146D01*
X72448386Y-31152446D01*
X72367402Y-31118901D01*
X72281429Y-31101800D01*
X72193771Y-31101800D01*
X72107798Y-31118901D01*
X72026814Y-31152446D01*
X71953929Y-31201146D01*
X71891946Y-31263129D01*
X71843246Y-31336014D01*
X71809701Y-31416998D01*
X71792600Y-31502971D01*
X69651091Y-31502971D01*
X69635786Y-31492745D01*
X69554802Y-31459200D01*
X69468829Y-31442099D01*
X69381171Y-31442099D01*
X69295198Y-31459200D01*
X69214214Y-31492745D01*
X69160000Y-31528969D01*
X69160000Y-30685730D01*
X69214214Y-30721954D01*
X69295198Y-30755499D01*
X69381171Y-30772600D01*
X69468829Y-30772600D01*
X69554802Y-30755499D01*
X69635786Y-30721954D01*
X69708671Y-30673254D01*
X69770654Y-30611271D01*
X69819354Y-30538386D01*
X69825076Y-30524571D01*
X71792600Y-30524571D01*
X71792600Y-30612229D01*
X71809701Y-30698202D01*
X71843246Y-30779186D01*
X71891946Y-30852071D01*
X71953929Y-30914054D01*
X72026814Y-30962754D01*
X72107798Y-30996299D01*
X72193771Y-31013400D01*
X72281429Y-31013400D01*
X72367402Y-30996299D01*
X72448386Y-30962754D01*
X72521271Y-30914054D01*
X72583254Y-30852071D01*
X72631954Y-30779186D01*
X72665499Y-30698202D01*
X72682600Y-30612229D01*
X72682600Y-30524571D01*
X72665499Y-30438598D01*
X72631954Y-30357614D01*
X72583254Y-30284729D01*
X72521271Y-30222746D01*
X72448386Y-30174046D01*
X72367402Y-30140501D01*
X72281429Y-30123400D01*
X72193771Y-30123400D01*
X72107798Y-30140501D01*
X72026814Y-30174046D01*
X71953929Y-30222746D01*
X71891946Y-30284729D01*
X71843246Y-30357614D01*
X71809701Y-30438598D01*
X71792600Y-30524571D01*
X69825076Y-30524571D01*
X69852899Y-30457402D01*
X69870000Y-30371429D01*
X69870000Y-30283771D01*
X69852899Y-30197798D01*
X69819354Y-30116814D01*
X69770654Y-30043929D01*
X69708671Y-29981946D01*
X69635786Y-29933246D01*
X69554802Y-29899701D01*
X69468829Y-29882600D01*
X69381171Y-29882600D01*
X69295198Y-29899701D01*
X69214214Y-29933246D01*
X69160000Y-29969470D01*
X69160000Y-29524571D01*
X71792600Y-29524571D01*
X71792600Y-29612229D01*
X71809701Y-29698202D01*
X71843246Y-29779186D01*
X71891946Y-29852071D01*
X71953929Y-29914054D01*
X72026814Y-29962754D01*
X72107798Y-29996299D01*
X72193771Y-30013400D01*
X72281429Y-30013400D01*
X72367402Y-29996299D01*
X72448386Y-29962754D01*
X72521271Y-29914054D01*
X72583254Y-29852071D01*
X72631954Y-29779186D01*
X72665499Y-29698202D01*
X72682600Y-29612229D01*
X72682600Y-29524571D01*
X72665499Y-29438598D01*
X72631954Y-29357614D01*
X72583254Y-29284729D01*
X72521271Y-29222746D01*
X72448386Y-29174046D01*
X72367402Y-29140501D01*
X72281429Y-29123400D01*
X72193771Y-29123400D01*
X72107798Y-29140501D01*
X72026814Y-29174046D01*
X71953929Y-29222746D01*
X71891946Y-29284729D01*
X71843246Y-29357614D01*
X71809701Y-29438598D01*
X71792600Y-29524571D01*
X69160000Y-29524571D01*
X69160000Y-28365078D01*
X69212198Y-28386699D01*
X69298171Y-28403800D01*
X69385829Y-28403800D01*
X69471802Y-28386699D01*
X69552786Y-28353154D01*
X69625671Y-28304454D01*
X69687654Y-28242471D01*
X69736354Y-28169586D01*
X69769899Y-28088602D01*
X69787000Y-28002629D01*
X69787000Y-27914971D01*
X69769899Y-27828998D01*
X69736354Y-27748014D01*
X69687654Y-27675129D01*
X69625671Y-27613146D01*
X69552786Y-27564446D01*
X69471802Y-27530901D01*
X69385829Y-27513800D01*
X69298171Y-27513800D01*
X69212198Y-27530901D01*
X69160000Y-27552522D01*
X69160000Y-27365078D01*
X69212198Y-27386699D01*
X69298171Y-27403800D01*
X69385829Y-27403800D01*
X69471802Y-27386699D01*
X69552786Y-27353154D01*
X69625671Y-27304454D01*
X69687654Y-27242471D01*
X69736354Y-27169586D01*
X69769899Y-27088602D01*
X69787000Y-27002629D01*
X69787000Y-26914971D01*
X69769899Y-26828998D01*
X69736354Y-26748014D01*
X69687654Y-26675129D01*
X69625671Y-26613146D01*
X69622759Y-26611200D01*
X69625671Y-26609254D01*
X69687654Y-26547271D01*
X69702821Y-26524571D01*
X71792600Y-26524571D01*
X71792600Y-26612229D01*
X71809701Y-26698202D01*
X71843246Y-26779186D01*
X71891946Y-26852071D01*
X71953929Y-26914054D01*
X72026814Y-26962754D01*
X72107798Y-26996299D01*
X72193771Y-27013400D01*
X72281429Y-27013400D01*
X72367402Y-26996299D01*
X72448386Y-26962754D01*
X72521271Y-26914054D01*
X72583254Y-26852071D01*
X72631954Y-26779186D01*
X72665499Y-26698202D01*
X72682600Y-26612229D01*
X72682600Y-26524571D01*
X72792600Y-26524571D01*
X72792600Y-26612229D01*
X72809701Y-26698202D01*
X72843246Y-26779186D01*
X72891946Y-26852071D01*
X72953929Y-26914054D01*
X73026814Y-26962754D01*
X73107798Y-26996299D01*
X73193771Y-27013400D01*
X73281429Y-27013400D01*
X73367402Y-26996299D01*
X73448386Y-26962754D01*
X73521271Y-26914054D01*
X73583254Y-26852071D01*
X73631954Y-26779186D01*
X73665499Y-26698202D01*
X73682600Y-26612229D01*
X73682600Y-26524571D01*
X73792600Y-26524571D01*
X73792600Y-26612229D01*
X73809701Y-26698202D01*
X73843246Y-26779186D01*
X73891946Y-26852071D01*
X73953929Y-26914054D01*
X74026814Y-26962754D01*
X74107798Y-26996299D01*
X74193771Y-27013400D01*
X74281429Y-27013400D01*
X74367402Y-26996299D01*
X74448386Y-26962754D01*
X74521271Y-26914054D01*
X74583254Y-26852071D01*
X74631954Y-26779186D01*
X74665499Y-26698202D01*
X74682600Y-26612229D01*
X74682600Y-26524571D01*
X74792600Y-26524571D01*
X74792600Y-26612229D01*
X74809701Y-26698202D01*
X74843246Y-26779186D01*
X74891946Y-26852071D01*
X74953929Y-26914054D01*
X75026814Y-26962754D01*
X75107798Y-26996299D01*
X75193771Y-27013400D01*
X75281429Y-27013400D01*
X75367402Y-26996299D01*
X75448386Y-26962754D01*
X75521271Y-26914054D01*
X75583254Y-26852071D01*
X75631954Y-26779186D01*
X75665499Y-26698202D01*
X75682600Y-26612229D01*
X75682600Y-26524571D01*
X75665499Y-26438598D01*
X75631954Y-26357614D01*
X75583254Y-26284729D01*
X75521271Y-26222746D01*
X75448386Y-26174046D01*
X75367402Y-26140501D01*
X75281429Y-26123400D01*
X75193771Y-26123400D01*
X75107798Y-26140501D01*
X75026814Y-26174046D01*
X74953929Y-26222746D01*
X74891946Y-26284729D01*
X74843246Y-26357614D01*
X74809701Y-26438598D01*
X74792600Y-26524571D01*
X74682600Y-26524571D01*
X74665499Y-26438598D01*
X74631954Y-26357614D01*
X74583254Y-26284729D01*
X74521271Y-26222746D01*
X74448386Y-26174046D01*
X74367402Y-26140501D01*
X74281429Y-26123400D01*
X74193771Y-26123400D01*
X74107798Y-26140501D01*
X74026814Y-26174046D01*
X73953929Y-26222746D01*
X73891946Y-26284729D01*
X73843246Y-26357614D01*
X73809701Y-26438598D01*
X73792600Y-26524571D01*
X73682600Y-26524571D01*
X73665499Y-26438598D01*
X73631954Y-26357614D01*
X73583254Y-26284729D01*
X73521271Y-26222746D01*
X73448386Y-26174046D01*
X73367402Y-26140501D01*
X73281429Y-26123400D01*
X73193771Y-26123400D01*
X73107798Y-26140501D01*
X73026814Y-26174046D01*
X72953929Y-26222746D01*
X72891946Y-26284729D01*
X72843246Y-26357614D01*
X72809701Y-26438598D01*
X72792600Y-26524571D01*
X72682600Y-26524571D01*
X72665499Y-26438598D01*
X72631954Y-26357614D01*
X72583254Y-26284729D01*
X72521271Y-26222746D01*
X72448386Y-26174046D01*
X72367402Y-26140501D01*
X72281429Y-26123400D01*
X72193771Y-26123400D01*
X72107798Y-26140501D01*
X72026814Y-26174046D01*
X71953929Y-26222746D01*
X71891946Y-26284729D01*
X71843246Y-26357614D01*
X71809701Y-26438598D01*
X71792600Y-26524571D01*
X69702821Y-26524571D01*
X69736354Y-26474386D01*
X69769899Y-26393402D01*
X69787000Y-26307429D01*
X69787000Y-26219771D01*
X69769899Y-26133798D01*
X69736354Y-26052814D01*
X69687654Y-25979929D01*
X69625671Y-25917946D01*
X69552786Y-25869246D01*
X69471802Y-25835701D01*
X69385829Y-25818600D01*
X69298171Y-25818600D01*
X69212198Y-25835701D01*
X69160000Y-25857322D01*
X69160000Y-25711771D01*
X70471800Y-25711771D01*
X70471800Y-25799429D01*
X70488901Y-25885402D01*
X70522446Y-25966386D01*
X70571146Y-26039271D01*
X70633129Y-26101254D01*
X70706014Y-26149954D01*
X70786998Y-26183499D01*
X70872971Y-26200600D01*
X70960629Y-26200600D01*
X71046602Y-26183499D01*
X71127586Y-26149954D01*
X71200471Y-26101254D01*
X71262454Y-26039271D01*
X71311154Y-25966386D01*
X71344699Y-25885402D01*
X71361800Y-25799429D01*
X71361800Y-25711771D01*
X71344699Y-25625798D01*
X71311154Y-25544814D01*
X71262454Y-25471929D01*
X71200471Y-25409946D01*
X71127586Y-25361246D01*
X71046602Y-25327701D01*
X70960629Y-25310600D01*
X70872971Y-25310600D01*
X70786998Y-25327701D01*
X70706014Y-25361246D01*
X70633129Y-25409946D01*
X70571146Y-25471929D01*
X70522446Y-25544814D01*
X70488901Y-25625798D01*
X70471800Y-25711771D01*
X69160000Y-25711771D01*
X69160000Y-23977478D01*
X69212198Y-23999099D01*
X69298171Y-24016200D01*
X69385829Y-24016200D01*
X69471802Y-23999099D01*
X69552786Y-23965554D01*
X69625671Y-23916854D01*
X69687654Y-23854871D01*
X69736354Y-23781986D01*
X69769899Y-23701002D01*
X69787000Y-23615029D01*
X69787000Y-23527371D01*
X69769899Y-23441398D01*
X69736354Y-23360414D01*
X69687654Y-23287529D01*
X69625671Y-23225546D01*
X69610786Y-23215600D01*
X69625671Y-23205654D01*
X69687654Y-23143671D01*
X69736354Y-23070786D01*
X69769899Y-22989802D01*
X69787000Y-22903829D01*
X69787000Y-22816171D01*
X69846200Y-22816171D01*
X69846200Y-22903829D01*
X69863301Y-22989802D01*
X69896846Y-23070786D01*
X69945546Y-23143671D01*
X70007529Y-23205654D01*
X70080414Y-23254354D01*
X70161398Y-23287899D01*
X70247371Y-23305000D01*
X70335029Y-23305000D01*
X70421002Y-23287899D01*
X70501986Y-23254354D01*
X70574871Y-23205654D01*
X70636854Y-23143671D01*
X70685554Y-23070786D01*
X70705600Y-23022391D01*
X70725646Y-23070786D01*
X70774346Y-23143671D01*
X70836329Y-23205654D01*
X70909214Y-23254354D01*
X70990198Y-23287899D01*
X71076171Y-23305000D01*
X71163829Y-23305000D01*
X71249802Y-23287899D01*
X71330786Y-23254354D01*
X71403671Y-23205654D01*
X71465654Y-23143671D01*
X71514354Y-23070786D01*
X71547899Y-22989802D01*
X71565000Y-22903829D01*
X71565000Y-22816171D01*
X72046600Y-22816171D01*
X72046600Y-22903829D01*
X72063701Y-22989802D01*
X72097246Y-23070786D01*
X72145946Y-23143671D01*
X72207929Y-23205654D01*
X72280814Y-23254354D01*
X72361798Y-23287899D01*
X72447771Y-23305000D01*
X72535429Y-23305000D01*
X72621402Y-23287899D01*
X72702386Y-23254354D01*
X72775271Y-23205654D01*
X72837254Y-23143671D01*
X72885954Y-23070786D01*
X72919499Y-22989802D01*
X72936600Y-22903829D01*
X72936600Y-22816171D01*
X72919499Y-22730198D01*
X72885954Y-22649214D01*
X72837254Y-22576329D01*
X72775271Y-22514346D01*
X72702386Y-22465646D01*
X72621402Y-22432101D01*
X72535429Y-22415000D01*
X72447771Y-22415000D01*
X72361798Y-22432101D01*
X72280814Y-22465646D01*
X72207929Y-22514346D01*
X72145946Y-22576329D01*
X72097246Y-22649214D01*
X72063701Y-22730198D01*
X72046600Y-22816171D01*
X71565000Y-22816171D01*
X71547899Y-22730198D01*
X71514354Y-22649214D01*
X71465654Y-22576329D01*
X71403671Y-22514346D01*
X71330786Y-22465646D01*
X71249802Y-22432101D01*
X71163829Y-22415000D01*
X71076171Y-22415000D01*
X70990198Y-22432101D01*
X70909214Y-22465646D01*
X70836329Y-22514346D01*
X70774346Y-22576329D01*
X70725646Y-22649214D01*
X70705600Y-22697609D01*
X70685554Y-22649214D01*
X70636854Y-22576329D01*
X70574871Y-22514346D01*
X70501986Y-22465646D01*
X70421002Y-22432101D01*
X70335029Y-22415000D01*
X70247371Y-22415000D01*
X70161398Y-22432101D01*
X70080414Y-22465646D01*
X70007529Y-22514346D01*
X69945546Y-22576329D01*
X69896846Y-22649214D01*
X69863301Y-22730198D01*
X69846200Y-22816171D01*
X69787000Y-22816171D01*
X69769899Y-22730198D01*
X69736354Y-22649214D01*
X69687654Y-22576329D01*
X69625671Y-22514346D01*
X69552786Y-22465646D01*
X69471802Y-22432101D01*
X69385829Y-22415000D01*
X69298171Y-22415000D01*
X69212198Y-22432101D01*
X69160000Y-22453722D01*
X69160000Y-22097878D01*
X69212198Y-22119499D01*
X69298171Y-22136600D01*
X69385829Y-22136600D01*
X69471802Y-22119499D01*
X69552786Y-22085954D01*
X69625671Y-22037254D01*
X69687654Y-21975271D01*
X69736354Y-21902386D01*
X69769899Y-21821402D01*
X69787000Y-21735429D01*
X69787000Y-21647771D01*
X69769899Y-21561798D01*
X69758136Y-21533400D01*
X70859064Y-21533400D01*
X70847301Y-21561798D01*
X70830200Y-21647771D01*
X70830200Y-21735429D01*
X70847301Y-21821402D01*
X70880846Y-21902386D01*
X70929546Y-21975271D01*
X70991529Y-22037254D01*
X71064414Y-22085954D01*
X71145398Y-22119499D01*
X71231371Y-22136600D01*
X71319029Y-22136600D01*
X71405002Y-22119499D01*
X71485986Y-22085954D01*
X71558871Y-22037254D01*
X71620854Y-21975271D01*
X71669554Y-21902386D01*
X71703099Y-21821402D01*
X71720200Y-21735429D01*
X71720200Y-21647771D01*
X71703099Y-21561798D01*
X71691336Y-21533400D01*
X71859064Y-21533400D01*
X71847301Y-21561798D01*
X71830200Y-21647771D01*
X71830200Y-21735429D01*
X71847301Y-21821402D01*
X71880846Y-21902386D01*
X71929546Y-21975271D01*
X71991529Y-22037254D01*
X72064414Y-22085954D01*
X72145398Y-22119499D01*
X72231371Y-22136600D01*
X72319029Y-22136600D01*
X72405002Y-22119499D01*
X72485986Y-22085954D01*
X72558871Y-22037254D01*
X72620854Y-21975271D01*
X72669554Y-21902386D01*
X72703099Y-21821402D01*
X72720200Y-21735429D01*
X72720200Y-21647771D01*
X72703099Y-21561798D01*
X72691336Y-21533400D01*
X72859064Y-21533400D01*
X72847301Y-21561798D01*
X72830200Y-21647771D01*
X72830200Y-21735429D01*
X72847301Y-21821402D01*
X72880846Y-21902386D01*
X72929546Y-21975271D01*
X72991529Y-22037254D01*
X73064414Y-22085954D01*
X73145398Y-22119499D01*
X73231371Y-22136600D01*
X73319029Y-22136600D01*
X73405002Y-22119499D01*
X73485986Y-22085954D01*
X73558871Y-22037254D01*
X73620854Y-21975271D01*
X73669554Y-21902386D01*
X73703099Y-21821402D01*
X73720200Y-21735429D01*
X73720200Y-21647771D01*
X73703099Y-21561798D01*
X73691336Y-21533400D01*
X73859064Y-21533400D01*
X73847301Y-21561798D01*
X73830200Y-21647771D01*
X73830200Y-21735429D01*
X73847301Y-21821402D01*
X73880846Y-21902386D01*
X73929546Y-21975271D01*
X73950675Y-21996400D01*
X73929546Y-22017529D01*
X73880846Y-22090414D01*
X73847301Y-22171398D01*
X73830200Y-22257371D01*
X73830200Y-22345029D01*
X73847301Y-22431002D01*
X73880846Y-22511986D01*
X73929546Y-22584871D01*
X73991529Y-22646854D01*
X74064414Y-22695554D01*
X74145398Y-22729099D01*
X74231371Y-22746200D01*
X74319029Y-22746200D01*
X74389000Y-22732282D01*
X74389000Y-22751429D01*
X74406101Y-22837402D01*
X74439646Y-22918386D01*
X74488346Y-22991271D01*
X74550329Y-23053254D01*
X74623214Y-23101954D01*
X74704198Y-23135499D01*
X74790171Y-23152600D01*
X74877829Y-23152600D01*
X74963802Y-23135499D01*
X75044786Y-23101954D01*
X75117671Y-23053254D01*
X75179654Y-22991271D01*
X75228354Y-22918386D01*
X75261899Y-22837402D01*
X75279000Y-22751429D01*
X75279000Y-22663771D01*
X75261899Y-22577798D01*
X75228354Y-22496814D01*
X75179654Y-22423929D01*
X75117671Y-22361946D01*
X75044786Y-22313246D01*
X74963802Y-22279701D01*
X74877829Y-22262600D01*
X74790171Y-22262600D01*
X74720200Y-22276518D01*
X74720200Y-22257371D01*
X74703099Y-22171398D01*
X74669554Y-22090414D01*
X74620854Y-22017529D01*
X74599725Y-21996400D01*
X74620854Y-21975271D01*
X74669554Y-21902386D01*
X74703099Y-21821402D01*
X74720200Y-21735429D01*
X74720200Y-21647771D01*
X74703099Y-21561798D01*
X74691336Y-21533400D01*
X74859064Y-21533400D01*
X74847301Y-21561798D01*
X74830200Y-21647771D01*
X74830200Y-21735429D01*
X74847301Y-21821402D01*
X74880846Y-21902386D01*
X74929546Y-21975271D01*
X74991529Y-22037254D01*
X75064414Y-22085954D01*
X75145398Y-22119499D01*
X75231371Y-22136600D01*
X75319029Y-22136600D01*
X75405002Y-22119499D01*
X75485986Y-22085954D01*
X75558871Y-22037254D01*
X75620854Y-21975271D01*
X75669554Y-21902386D01*
X75703099Y-21821402D01*
X75720200Y-21735429D01*
X75720200Y-21647771D01*
X75703099Y-21561798D01*
X75669554Y-21480814D01*
X75620854Y-21407929D01*
X75558871Y-21345946D01*
X75485986Y-21297246D01*
X75405002Y-21263701D01*
X75319029Y-21246600D01*
X75231371Y-21246600D01*
X75145398Y-21263701D01*
X75100059Y-21282481D01*
X75094815Y-20726521D01*
X75107798Y-20731899D01*
X75193771Y-20749000D01*
X75281429Y-20749000D01*
X75367402Y-20731899D01*
X75448386Y-20698354D01*
X75521271Y-20649654D01*
X75583254Y-20587671D01*
X75631954Y-20514786D01*
X75665499Y-20433802D01*
X75682600Y-20347829D01*
X75682600Y-20260171D01*
X75675678Y-20225371D01*
X79768200Y-20225371D01*
X79768200Y-20313029D01*
X79785301Y-20399002D01*
X79818846Y-20479986D01*
X79867546Y-20552871D01*
X79929529Y-20614854D01*
X80002414Y-20663554D01*
X80083398Y-20697099D01*
X80169371Y-20714200D01*
X80257029Y-20714200D01*
X80343002Y-20697099D01*
X80423986Y-20663554D01*
X80496871Y-20614854D01*
X80558854Y-20552871D01*
X80607554Y-20479986D01*
X80641099Y-20399002D01*
X80658200Y-20313029D01*
X80658200Y-20225371D01*
X80641099Y-20139398D01*
X80607554Y-20058414D01*
X80558854Y-19985529D01*
X80496871Y-19923546D01*
X80423986Y-19874846D01*
X80343002Y-19841301D01*
X80257029Y-19824200D01*
X80169371Y-19824200D01*
X80083398Y-19841301D01*
X80002414Y-19874846D01*
X79929529Y-19923546D01*
X79867546Y-19985529D01*
X79818846Y-20058414D01*
X79785301Y-20139398D01*
X79768200Y-20225371D01*
X75675678Y-20225371D01*
X75665499Y-20174198D01*
X75631954Y-20093214D01*
X75583254Y-20020329D01*
X75521271Y-19958346D01*
X75448386Y-19909646D01*
X75367402Y-19876101D01*
X75281429Y-19859000D01*
X75193771Y-19859000D01*
X75107798Y-19876101D01*
X75086874Y-19884768D01*
X75085344Y-19722598D01*
X75107798Y-19731899D01*
X75193771Y-19749000D01*
X75281429Y-19749000D01*
X75367402Y-19731899D01*
X75448386Y-19698354D01*
X75521271Y-19649654D01*
X75583254Y-19587671D01*
X75631954Y-19514786D01*
X75665499Y-19433802D01*
X75682600Y-19347829D01*
X75682600Y-19260171D01*
X75665499Y-19174198D01*
X75659618Y-19160000D01*
X75815582Y-19160000D01*
X75809701Y-19174198D01*
%TA.AperFunction,Conductor*%
D15*
G36*
X75809701Y-19174198D02*
G01*
X75792600Y-19260171D01*
X75792600Y-19347829D01*
X75809701Y-19433802D01*
X75843246Y-19514786D01*
X75891946Y-19587671D01*
X75953929Y-19649654D01*
X76026814Y-19698354D01*
X76107798Y-19731899D01*
X76193771Y-19749000D01*
X76281429Y-19749000D01*
X76367402Y-19731899D01*
X76448386Y-19698354D01*
X76521271Y-19649654D01*
X76583254Y-19587671D01*
X76631954Y-19514786D01*
X76665499Y-19433802D01*
X76682600Y-19347829D01*
X76682600Y-19260171D01*
X76665499Y-19174198D01*
X76659618Y-19160000D01*
X76815582Y-19160000D01*
X76809701Y-19174198D01*
X76792600Y-19260171D01*
X76792600Y-19347829D01*
X76809701Y-19433802D01*
X76843246Y-19514786D01*
X76891946Y-19587671D01*
X76953929Y-19649654D01*
X77026814Y-19698354D01*
X77107798Y-19731899D01*
X77193771Y-19749000D01*
X77281429Y-19749000D01*
X77367402Y-19731899D01*
X77448386Y-19698354D01*
X77521271Y-19649654D01*
X77583254Y-19587671D01*
X77631954Y-19514786D01*
X77665499Y-19433802D01*
X77682600Y-19347829D01*
X77682600Y-19260171D01*
X77665499Y-19174198D01*
X77659618Y-19160000D01*
X80840000Y-19160000D01*
X80840000Y-23543276D01*
X80801670Y-23504946D01*
X80728785Y-23456246D01*
X80647801Y-23422701D01*
X80561828Y-23405600D01*
X80474700Y-23405600D01*
X80479460Y-23394108D01*
X80496561Y-23308135D01*
X80496561Y-23220477D01*
X80479460Y-23134504D01*
X80445915Y-23053520D01*
X80397215Y-22980635D01*
X80335232Y-22918652D01*
X80262347Y-22869952D01*
X80181363Y-22836407D01*
X80095390Y-22819306D01*
X80007732Y-22819306D01*
X79921759Y-22836407D01*
X79840775Y-22869952D01*
X79767890Y-22918652D01*
X79705907Y-22980635D01*
X79657207Y-23053520D01*
X79623662Y-23134504D01*
X79621470Y-23145524D01*
X79553188Y-23131942D01*
X79493900Y-23131942D01*
X79479449Y-23059293D01*
X79445904Y-22978309D01*
X79397204Y-22905424D01*
X79335221Y-22843441D01*
X79262336Y-22794741D01*
X79181352Y-22761196D01*
X79095379Y-22744095D01*
X79007721Y-22744095D01*
X78921748Y-22761196D01*
X78840764Y-22794741D01*
X78767879Y-22843441D01*
X78705896Y-22905424D01*
X78657196Y-22978309D01*
X78623651Y-23059293D01*
X78606550Y-23145266D01*
X78606550Y-23147868D01*
X78537830Y-23134199D01*
X78450172Y-23134199D01*
X78364199Y-23151300D01*
X78283215Y-23184845D01*
X78210330Y-23233545D01*
X78148347Y-23295528D01*
X78105152Y-23360174D01*
X78101099Y-23339798D01*
X78067554Y-23258814D01*
X78018854Y-23185929D01*
X77956871Y-23123946D01*
X77883986Y-23075246D01*
X77803002Y-23041701D01*
X77717029Y-23024600D01*
X77629371Y-23024600D01*
X77543398Y-23041701D01*
X77462414Y-23075246D01*
X77462343Y-23075293D01*
X77462343Y-21785554D01*
X77487997Y-21759900D01*
X77536697Y-21687015D01*
X77570242Y-21606031D01*
X77587343Y-21520058D01*
X77587343Y-21432400D01*
X77570242Y-21346427D01*
X77536697Y-21265443D01*
X77487997Y-21192558D01*
X77426014Y-21130575D01*
X77353129Y-21081875D01*
X77272145Y-21048330D01*
X77186172Y-21031229D01*
X77098514Y-21031229D01*
X77012541Y-21048330D01*
X76931557Y-21081875D01*
X76858672Y-21130575D01*
X76796689Y-21192558D01*
X76747989Y-21265443D01*
X76714444Y-21346427D01*
X76703981Y-21399030D01*
X76703829Y-21399000D01*
X76616171Y-21399000D01*
X76530198Y-21416101D01*
X76449214Y-21449646D01*
X76376329Y-21498346D01*
X76314346Y-21560329D01*
X76265646Y-21633214D01*
X76232101Y-21714198D01*
X76215000Y-21800171D01*
X76215000Y-21887829D01*
X76232101Y-21973802D01*
X76265646Y-22054786D01*
X76314346Y-22127671D01*
X76376329Y-22189654D01*
X76449214Y-22238354D01*
X76476895Y-22249820D01*
X76446414Y-22262446D01*
X76373529Y-22311146D01*
X76311546Y-22373129D01*
X76262846Y-22446014D01*
X76229301Y-22526998D01*
X76212200Y-22612971D01*
X76212200Y-22700629D01*
X76229301Y-22786602D01*
X76262846Y-22867586D01*
X76311546Y-22940471D01*
X76373529Y-23002454D01*
X76446414Y-23051154D01*
X76475495Y-23063200D01*
X76446414Y-23075246D01*
X76373529Y-23123946D01*
X76311546Y-23185929D01*
X76262846Y-23258814D01*
X76229301Y-23339798D01*
X76212200Y-23425771D01*
X76212200Y-23513429D01*
X76229301Y-23599402D01*
X76262846Y-23680386D01*
X76311546Y-23753271D01*
X76373529Y-23815254D01*
X76446414Y-23863954D01*
X76527398Y-23897499D01*
X76613371Y-23914600D01*
X76701029Y-23914600D01*
X76787002Y-23897499D01*
X76822343Y-23882860D01*
X76822343Y-24058429D01*
X76820795Y-24074142D01*
X76822343Y-24089855D01*
X76822343Y-24089859D01*
X76826973Y-24136872D01*
X76845271Y-24197192D01*
X76845272Y-24197193D01*
X76874986Y-24252784D01*
X76888661Y-24269447D01*
X76914974Y-24301511D01*
X76927190Y-24311536D01*
X76944752Y-24329098D01*
X76902034Y-24346793D01*
X76829149Y-24395493D01*
X76810664Y-24413978D01*
X76796495Y-24399809D01*
X76723610Y-24351109D01*
X76642626Y-24317564D01*
X76556653Y-24300463D01*
X76468995Y-24300463D01*
X76383022Y-24317564D01*
X76302038Y-24351109D01*
X76229153Y-24399809D01*
X76167170Y-24461792D01*
X76149280Y-24488567D01*
X76137803Y-24480898D01*
X76056819Y-24447353D01*
X75970846Y-24430252D01*
X75883188Y-24430252D01*
X75797215Y-24447353D01*
X75716231Y-24480898D01*
X75643346Y-24529598D01*
X75581363Y-24591581D01*
X75532663Y-24664466D01*
X75499118Y-24745450D01*
X75482017Y-24831423D01*
X75482017Y-24919081D01*
X75499118Y-25005054D01*
X75532663Y-25086038D01*
X75581363Y-25158923D01*
X75643346Y-25220906D01*
X75716231Y-25269606D01*
X75797215Y-25303151D01*
X75883188Y-25320252D01*
X75970846Y-25320252D01*
X76056819Y-25303151D01*
X76137803Y-25269606D01*
X76210688Y-25220906D01*
X76272671Y-25158923D01*
X76290561Y-25132148D01*
X76302038Y-25139817D01*
X76383022Y-25173362D01*
X76468995Y-25190463D01*
X76556653Y-25190463D01*
X76642626Y-25173362D01*
X76723610Y-25139817D01*
X76796495Y-25091117D01*
X76814980Y-25072632D01*
X76829149Y-25086801D01*
X76902034Y-25135501D01*
X76983018Y-25169046D01*
X77068991Y-25186147D01*
X77156649Y-25186147D01*
X77242622Y-25169046D01*
X77252495Y-25164956D01*
X76547442Y-25870011D01*
X76535231Y-25880032D01*
X76525211Y-25892242D01*
X76495242Y-25928759D01*
X76475130Y-25966386D01*
X76465528Y-25984350D01*
X76447230Y-26044670D01*
X76444053Y-26076925D01*
X76441051Y-26107401D01*
X76442600Y-26123124D01*
X76442600Y-26171649D01*
X76367402Y-26140501D01*
X76281429Y-26123400D01*
X76193771Y-26123400D01*
X76107798Y-26140501D01*
X76026814Y-26174046D01*
X75953929Y-26222746D01*
X75891946Y-26284729D01*
X75843246Y-26357614D01*
X75809701Y-26438598D01*
X75792600Y-26524571D01*
X75792600Y-26612229D01*
X75809701Y-26698202D01*
X75843246Y-26779186D01*
X75891946Y-26852071D01*
X75953929Y-26914054D01*
X76026814Y-26962754D01*
X76107798Y-26996299D01*
X76109763Y-26996690D01*
X75333054Y-27773399D01*
X72634351Y-27773399D01*
X72665499Y-27698202D01*
X72682600Y-27612229D01*
X72682600Y-27524571D01*
X72665499Y-27438598D01*
X72631954Y-27357614D01*
X72583254Y-27284729D01*
X72521271Y-27222746D01*
X72448386Y-27174046D01*
X72367402Y-27140501D01*
X72281429Y-27123400D01*
X72193771Y-27123400D01*
X72107798Y-27140501D01*
X72026814Y-27174046D01*
X71953929Y-27222746D01*
X71891946Y-27284729D01*
X71843246Y-27357614D01*
X71809701Y-27438598D01*
X71792600Y-27524571D01*
X71792600Y-27612229D01*
X71809701Y-27698202D01*
X71840849Y-27773399D01*
X70491717Y-27773399D01*
X70476001Y-27771851D01*
X70460285Y-27773399D01*
X70460283Y-27773399D01*
X70413270Y-27778029D01*
X70366988Y-27792068D01*
X70352949Y-27796327D01*
X70297358Y-27826042D01*
X70272036Y-27846823D01*
X70248632Y-27866030D01*
X70247015Y-27868000D01*
X70212571Y-27868000D01*
X70126598Y-27885101D01*
X70045614Y-27918646D01*
X69972729Y-27967346D01*
X69910746Y-28029329D01*
X69862046Y-28102214D01*
X69828501Y-28183198D01*
X69811400Y-28269171D01*
X69811400Y-28356829D01*
X69828501Y-28442802D01*
X69862046Y-28523786D01*
X69910746Y-28596671D01*
X69972729Y-28658654D01*
X70045614Y-28707354D01*
X70126598Y-28740899D01*
X70212571Y-28758000D01*
X70300229Y-28758000D01*
X70386202Y-28740899D01*
X70467186Y-28707354D01*
X70540071Y-28658654D01*
X70602054Y-28596671D01*
X70650754Y-28523786D01*
X70684299Y-28442802D01*
X70690148Y-28413399D01*
X71820139Y-28413399D01*
X71809701Y-28438598D01*
X71792600Y-28524571D01*
X71792600Y-28612229D01*
X71809701Y-28698202D01*
X71843246Y-28779186D01*
X71891946Y-28852071D01*
X71953929Y-28914054D01*
X72026814Y-28962754D01*
X72107798Y-28996299D01*
X72193771Y-29013400D01*
X72281429Y-29013400D01*
X72367402Y-28996299D01*
X72448386Y-28962754D01*
X72521271Y-28914054D01*
X72583254Y-28852071D01*
X72631954Y-28779186D01*
X72665499Y-28698202D01*
X72682600Y-28612229D01*
X72682600Y-28524571D01*
X72665499Y-28438598D01*
X72655061Y-28413399D01*
X75449888Y-28413399D01*
X75465601Y-28414947D01*
X75481314Y-28413399D01*
X75481319Y-28413399D01*
X75528332Y-28408769D01*
X75588652Y-28390471D01*
X75644243Y-28360756D01*
X75692970Y-28320768D01*
X75702996Y-28308551D01*
X76486976Y-27524571D01*
X76792600Y-27524571D01*
X76792600Y-27612229D01*
X76809701Y-27698202D01*
X76843246Y-27779186D01*
X76891946Y-27852071D01*
X76953929Y-27914054D01*
X77026814Y-27962754D01*
X77107798Y-27996299D01*
X77193771Y-28013400D01*
X77281429Y-28013400D01*
X77367402Y-27996299D01*
X77448386Y-27962754D01*
X77521271Y-27914054D01*
X77583254Y-27852071D01*
X77631954Y-27779186D01*
X77665499Y-27698202D01*
X77682600Y-27612229D01*
X77682600Y-27524571D01*
X77665499Y-27438598D01*
X77631954Y-27357614D01*
X77583254Y-27284729D01*
X77521271Y-27222746D01*
X77448386Y-27174046D01*
X77367402Y-27140501D01*
X77281429Y-27123400D01*
X77193771Y-27123400D01*
X77107798Y-27140501D01*
X77026814Y-27174046D01*
X76953929Y-27222746D01*
X76891946Y-27284729D01*
X76843246Y-27357614D01*
X76809701Y-27438598D01*
X76792600Y-27524571D01*
X76486976Y-27524571D01*
X76977758Y-27033790D01*
X76989968Y-27023770D01*
X77012512Y-26996299D01*
X77029956Y-26975044D01*
X77034765Y-26966047D01*
X77107798Y-26996299D01*
X77193771Y-27013400D01*
X77281429Y-27013400D01*
X77367402Y-26996299D01*
X77448386Y-26962754D01*
X77521271Y-26914054D01*
X77583254Y-26852071D01*
X77631954Y-26779186D01*
X77665499Y-26698202D01*
X77682600Y-26612229D01*
X77682600Y-26524571D01*
X77665499Y-26438598D01*
X77631954Y-26357614D01*
X77583254Y-26284729D01*
X77521271Y-26222746D01*
X77448386Y-26174046D01*
X77367402Y-26140501D01*
X77281429Y-26123400D01*
X77199147Y-26123400D01*
X77572969Y-25749580D01*
X77599647Y-25813986D01*
X77648347Y-25886871D01*
X77710330Y-25948854D01*
X77783215Y-25997554D01*
X77864199Y-26031099D01*
X77950172Y-26048200D01*
X78037830Y-26048200D01*
X78123803Y-26031099D01*
X78149001Y-26020661D01*
X78149002Y-28856425D01*
X77624932Y-29380495D01*
X77631954Y-29369986D01*
X77665499Y-29289002D01*
X77682600Y-29203029D01*
X77682600Y-29115371D01*
X77665499Y-29029398D01*
X77631954Y-28948414D01*
X77583254Y-28875529D01*
X77521271Y-28813546D01*
X77448386Y-28764846D01*
X77367402Y-28731301D01*
X77281429Y-28714200D01*
X77193771Y-28714200D01*
X77107798Y-28731301D01*
X77026814Y-28764846D01*
X76953929Y-28813546D01*
X76891946Y-28875529D01*
X76843246Y-28948414D01*
X76809701Y-29029398D01*
X76792600Y-29115371D01*
X76792600Y-29203029D01*
X76809701Y-29289002D01*
X76843246Y-29369986D01*
X76891946Y-29442871D01*
X76953929Y-29504854D01*
X77026814Y-29553554D01*
X77107798Y-29587099D01*
X77193771Y-29604200D01*
X77281429Y-29604200D01*
X77367402Y-29587099D01*
X77448386Y-29553554D01*
X77458895Y-29546532D01*
X75498492Y-31506936D01*
X75484899Y-31438598D01*
X75451354Y-31357614D01*
X75402654Y-31284729D01*
X75340671Y-31222746D01*
X75267786Y-31174046D01*
X75186802Y-31140501D01*
X75100829Y-31123400D01*
X75013171Y-31123400D01*
X74927198Y-31140501D01*
X74846214Y-31174046D01*
X74773329Y-31222746D01*
X74711346Y-31284729D01*
X74662646Y-31357614D01*
X74647300Y-31394662D01*
X74631954Y-31357614D01*
X74583254Y-31284729D01*
X74521271Y-31222746D01*
X74448386Y-31174046D01*
X74367402Y-31140501D01*
X74281429Y-31123400D01*
X74193771Y-31123400D01*
X74107798Y-31140501D01*
X74026814Y-31174046D01*
X73953929Y-31222746D01*
X73891946Y-31284729D01*
X73843246Y-31357614D01*
X73809701Y-31438598D01*
X73792600Y-31524571D01*
X73792600Y-31612229D01*
X73809701Y-31698202D01*
X73843246Y-31779186D01*
X73891946Y-31852071D01*
X73953929Y-31914054D01*
X74026814Y-31962754D01*
X74107798Y-31996299D01*
X74193771Y-32013400D01*
X74281429Y-32013400D01*
X74367402Y-31996299D01*
X74448386Y-31962754D01*
X74521271Y-31914054D01*
X74583254Y-31852071D01*
X74631954Y-31779186D01*
X74647300Y-31742138D01*
X74662646Y-31779186D01*
X74711346Y-31852071D01*
X74773329Y-31914054D01*
X74846214Y-31962754D01*
X74927198Y-31996299D01*
X74995536Y-32009892D01*
X74242018Y-32763409D01*
X74228856Y-32774212D01*
X74185743Y-32826745D01*
X74153708Y-32886680D01*
X74133980Y-32951712D01*
X74133893Y-32952598D01*
X74056722Y-32920632D01*
X73970749Y-32903531D01*
X73883091Y-32903531D01*
X73797118Y-32920632D01*
X73716134Y-32954177D01*
X73643249Y-33002877D01*
X73581266Y-33064860D01*
X73532566Y-33137745D01*
X73499021Y-33218729D01*
X73481920Y-33304702D01*
X73481920Y-33392360D01*
X73499021Y-33478333D01*
X73532566Y-33559317D01*
X73581266Y-33632202D01*
X73643249Y-33694185D01*
X73716134Y-33742885D01*
X73797118Y-33776430D01*
X73883091Y-33793531D01*
X73970749Y-33793531D01*
X74040293Y-33779698D01*
X74046122Y-33809004D01*
X74079667Y-33889988D01*
X74128367Y-33962873D01*
X74190350Y-34024856D01*
X74263235Y-34073556D01*
X74344219Y-34107101D01*
X74430192Y-34124202D01*
X74517850Y-34124202D01*
X74603823Y-34107101D01*
X74684807Y-34073556D01*
X74757692Y-34024856D01*
X74819675Y-33962873D01*
X74868375Y-33889988D01*
X74901920Y-33809004D01*
X74919021Y-33723031D01*
X74919021Y-33702129D01*
X74930161Y-33704345D01*
X75017819Y-33704345D01*
X75103792Y-33687244D01*
X75121216Y-33680027D01*
X75111701Y-33702998D01*
X75094600Y-33788971D01*
X75094600Y-33876629D01*
X75111701Y-33962602D01*
X75145246Y-34043586D01*
X75193946Y-34116471D01*
X75255929Y-34178454D01*
X75328814Y-34227154D01*
X75409798Y-34260699D01*
X75495771Y-34277800D01*
X75583429Y-34277800D01*
X75669402Y-34260699D01*
X75750386Y-34227154D01*
X75823271Y-34178454D01*
X75823925Y-34177800D01*
X76030662Y-34177800D01*
X76047600Y-34179468D01*
X76064538Y-34177800D01*
X76064546Y-34177800D01*
X76115232Y-34172808D01*
X76180264Y-34153080D01*
X76240199Y-34121045D01*
X76292732Y-34077932D01*
X76303538Y-34064765D01*
X78962374Y-31405929D01*
X79259733Y-31405929D01*
X79276671Y-31407597D01*
X79293609Y-31405929D01*
X79293617Y-31405929D01*
X79344303Y-31400937D01*
X79409335Y-31381209D01*
X79469270Y-31349174D01*
X79521803Y-31306061D01*
X79532609Y-31292894D01*
X80249974Y-30575530D01*
X80263130Y-30564733D01*
X80273928Y-30551576D01*
X80273933Y-30551571D01*
X80289280Y-30532870D01*
X80306244Y-30512200D01*
X80338279Y-30452265D01*
X80358007Y-30387233D01*
X80362999Y-30336547D01*
X80362999Y-30336538D01*
X80364667Y-30319602D01*
X80362999Y-30302666D01*
X80362999Y-28739956D01*
X80364194Y-28740754D01*
X80445178Y-28774299D01*
X80531151Y-28791400D01*
X80618809Y-28791400D01*
X80704782Y-28774299D01*
X80785766Y-28740754D01*
X80840000Y-28704516D01*
X80840001Y-32230076D01*
X80801671Y-32191746D01*
X80728786Y-32143046D01*
X80647802Y-32109501D01*
X80561829Y-32092400D01*
X80474171Y-32092400D01*
X80388198Y-32109501D01*
X80307214Y-32143046D01*
X80234329Y-32191746D01*
X80172346Y-32253729D01*
X80123646Y-32326614D01*
X80090101Y-32407598D01*
X80073000Y-32493571D01*
X80073000Y-32529851D01*
X79385625Y-33217227D01*
X79371099Y-33144198D01*
X79337554Y-33063214D01*
X79288854Y-32990329D01*
X79226871Y-32928346D01*
X79153986Y-32879646D01*
X79073002Y-32846101D01*
X78987029Y-32829000D01*
X78899371Y-32829000D01*
X78813398Y-32846101D01*
X78732414Y-32879646D01*
X78659529Y-32928346D01*
X78597546Y-32990329D01*
X78548846Y-33063214D01*
X78515301Y-33144198D01*
X78498200Y-33230171D01*
X78498200Y-33317829D01*
X78515301Y-33403802D01*
X78548846Y-33484786D01*
X78597546Y-33557671D01*
X78659529Y-33619654D01*
X78732414Y-33668354D01*
X78813398Y-33701899D01*
X78886427Y-33716425D01*
X77947053Y-34655800D01*
X75798125Y-34655800D01*
X75772471Y-34630146D01*
X75699586Y-34581446D01*
X75618602Y-34547901D01*
X75532629Y-34530800D01*
X75444971Y-34530800D01*
X75358998Y-34547901D01*
X75278014Y-34581446D01*
X75205129Y-34630146D01*
X75143146Y-34692129D01*
X75094446Y-34765014D01*
X75060901Y-34845998D01*
X75043800Y-34931971D01*
X75043800Y-35019629D01*
X75060901Y-35105602D01*
X75094446Y-35186586D01*
X75143146Y-35259471D01*
X75205129Y-35321454D01*
X75278014Y-35370154D01*
X75358998Y-35403699D01*
X75444971Y-35420800D01*
X75532629Y-35420800D01*
X75618602Y-35403699D01*
X75699586Y-35370154D01*
X75772471Y-35321454D01*
X75798125Y-35295800D01*
X78063887Y-35295800D01*
X78079600Y-35297348D01*
X78095313Y-35295800D01*
X78095318Y-35295800D01*
X78142331Y-35291170D01*
X78202651Y-35272872D01*
X78258242Y-35243157D01*
X78306969Y-35203169D01*
X78316995Y-35190953D01*
X80525549Y-32982400D01*
X80561829Y-32982400D01*
X80647802Y-32965299D01*
X80728786Y-32931754D01*
X80801671Y-32883054D01*
X80840001Y-32844724D01*
X80840001Y-38840000D01*
X79111925Y-38840000D01*
X79143956Y-38807969D01*
X79192656Y-38735084D01*
X79226201Y-38654100D01*
X79243302Y-38568127D01*
X79243302Y-38480469D01*
X79226201Y-38394496D01*
X79192656Y-38313512D01*
X79143956Y-38240627D01*
X79081973Y-38178644D01*
X79009088Y-38129944D01*
X78928104Y-38096399D01*
X78842131Y-38079298D01*
X78754473Y-38079298D01*
X78668500Y-38096399D01*
X78587516Y-38129944D01*
X78514631Y-38178644D01*
X78452648Y-38240627D01*
X78403948Y-38313512D01*
X78370403Y-38394496D01*
X78353302Y-38480469D01*
X78353302Y-38568127D01*
X78370403Y-38654100D01*
X78403948Y-38735084D01*
X78452648Y-38807969D01*
X78484679Y-38840000D01*
X73600125Y-38840000D01*
X73650054Y-38790071D01*
X73698754Y-38717186D01*
X73732299Y-38636202D01*
X73749400Y-38550229D01*
X73749400Y-38462571D01*
X73732299Y-38376598D01*
X73698754Y-38295614D01*
X73650054Y-38222729D01*
X73609327Y-38182002D01*
X73627434Y-38191680D01*
X73692466Y-38211408D01*
X73743152Y-38216400D01*
X73743161Y-38216400D01*
X73760097Y-38218068D01*
X73777033Y-38216400D01*
X75204477Y-38216400D01*
X75205131Y-38217054D01*
X75278016Y-38265754D01*
X75359000Y-38299299D01*
X75444973Y-38316400D01*
X75532631Y-38316400D01*
X75618604Y-38299299D01*
X75699588Y-38265754D01*
X75772473Y-38217054D01*
X75834456Y-38155071D01*
X75883156Y-38082186D01*
X75916701Y-38001202D01*
X75933802Y-37915229D01*
X75933802Y-37827571D01*
X75916701Y-37741598D01*
X75883156Y-37660614D01*
X75834456Y-37587729D01*
X75772473Y-37525746D01*
X75699588Y-37477046D01*
X75675976Y-37467266D01*
X75683865Y-37448220D01*
X75700966Y-37362247D01*
X75700966Y-37274589D01*
X75683865Y-37188616D01*
X75650320Y-37107632D01*
X75617405Y-37058370D01*
X75629154Y-37040786D01*
X75662699Y-36959802D01*
X75679800Y-36873829D01*
X75679800Y-36786171D01*
X75662699Y-36700198D01*
X75629154Y-36619214D01*
X75580454Y-36546329D01*
X75518471Y-36484346D01*
X75445586Y-36435646D01*
X75364602Y-36402101D01*
X75278629Y-36385000D01*
X75190971Y-36385000D01*
X75104998Y-36402101D01*
X75024014Y-36435646D01*
X74951129Y-36484346D01*
X74889146Y-36546329D01*
X74840446Y-36619214D01*
X74806901Y-36700198D01*
X74789800Y-36786171D01*
X74789800Y-36873829D01*
X74806901Y-36959802D01*
X74840446Y-37040786D01*
X74873361Y-37090048D01*
X74861612Y-37107632D01*
X74828067Y-37188616D01*
X74810966Y-37274589D01*
X74810966Y-37362247D01*
X74828067Y-37448220D01*
X74860451Y-37526400D01*
X73903002Y-37526400D01*
X72563602Y-36187001D01*
X77206132Y-36187001D01*
X79223130Y-38203999D01*
X79223130Y-38204925D01*
X79240231Y-38290898D01*
X79273776Y-38371882D01*
X79322476Y-38444767D01*
X79384459Y-38506750D01*
X79457344Y-38555450D01*
X79538328Y-38588995D01*
X79624301Y-38606096D01*
X79711959Y-38606096D01*
X79797932Y-38588995D01*
X79878916Y-38555450D01*
X79951801Y-38506750D01*
X80013784Y-38444767D01*
X80062484Y-38371882D01*
X80096029Y-38290898D01*
X80113130Y-38204925D01*
X80113130Y-38117267D01*
X80096029Y-38031294D01*
X80062484Y-37950310D01*
X80013784Y-37877425D01*
X79951801Y-37815442D01*
X79878916Y-37766742D01*
X79797932Y-37733197D01*
X79711959Y-37716096D01*
X79711033Y-37716096D01*
X77604973Y-35610036D01*
X77594167Y-35596869D01*
X77541634Y-35553756D01*
X77481699Y-35521721D01*
X77416667Y-35501993D01*
X77365981Y-35497001D01*
X77365973Y-35497001D01*
X77349035Y-35495333D01*
X77332097Y-35497001D01*
X72641399Y-35497001D01*
X72641399Y-34148661D01*
X72666598Y-34159099D01*
X72752571Y-34176200D01*
X72840229Y-34176200D01*
X72926202Y-34159099D01*
X73007186Y-34125554D01*
X73080071Y-34076854D01*
X73142054Y-34014871D01*
X73190754Y-33941986D01*
X73224299Y-33861002D01*
X73241400Y-33775029D01*
X73241400Y-33687371D01*
X73224299Y-33601398D01*
X73190754Y-33520414D01*
X73142054Y-33447529D01*
X73080071Y-33385546D01*
X73007186Y-33336846D01*
X72926202Y-33303301D01*
X72840229Y-33286200D01*
X72784200Y-33286200D01*
X72784200Y-33280971D01*
X72767099Y-33194998D01*
X72733554Y-33114014D01*
X72684854Y-33041129D01*
X72622871Y-32979146D01*
X72549986Y-32930446D01*
X72469002Y-32896901D01*
X72383029Y-32879800D01*
X72295371Y-32879800D01*
X72209398Y-32896901D01*
X72128414Y-32930446D01*
X72055529Y-32979146D01*
X71993546Y-33041129D01*
X71944846Y-33114014D01*
X71911301Y-33194998D01*
X71894200Y-33280971D01*
X71894200Y-33367321D01*
X71857363Y-33352062D01*
X71771390Y-33334961D01*
X71683732Y-33334961D01*
X71597759Y-33352062D01*
X71516775Y-33385607D01*
X71443890Y-33434307D01*
X71381907Y-33496290D01*
X71333207Y-33569175D01*
X71299662Y-33650159D01*
X71282561Y-33736132D01*
X71282561Y-33823790D01*
X71299662Y-33909763D01*
X71333207Y-33990747D01*
X71381907Y-34063632D01*
X71382562Y-34064287D01*
X71382561Y-35821925D01*
X71380893Y-35838863D01*
X71382561Y-35855801D01*
X71382561Y-35855808D01*
X71387553Y-35906494D01*
X71407281Y-35971526D01*
X71439316Y-36031461D01*
X71482429Y-36083994D01*
X71495591Y-36094796D01*
X73504165Y-38103371D01*
X73509275Y-38109598D01*
X73434202Y-38078501D01*
X73348229Y-38061400D01*
X73260571Y-38061400D01*
X73174598Y-38078501D01*
X73093614Y-38112046D01*
X73020729Y-38160746D01*
X72958746Y-38222729D01*
X72910046Y-38295614D01*
X72876501Y-38376598D01*
X72859400Y-38462571D01*
X72859400Y-38550229D01*
X72876501Y-38636202D01*
X72910046Y-38717186D01*
X72958746Y-38790071D01*
X73008675Y-38840000D01*
X69160000Y-38840000D01*
X69160000Y-37687174D01*
X70938501Y-37687174D01*
X70938501Y-37814228D01*
X70963288Y-37938841D01*
X71011909Y-38056223D01*
X71082497Y-38161865D01*
X71172337Y-38251705D01*
X71277979Y-38322293D01*
X71395361Y-38370914D01*
X71519974Y-38395701D01*
X71647028Y-38395701D01*
X71771641Y-38370914D01*
X71889023Y-38322293D01*
X71994665Y-38251705D01*
X72084505Y-38161865D01*
X72155093Y-38056223D01*
X72203714Y-37938841D01*
X72228501Y-37814228D01*
X72228501Y-37687174D01*
X72203714Y-37562561D01*
X72155093Y-37445179D01*
X72084505Y-37339537D01*
X71994665Y-37249697D01*
X71889023Y-37179109D01*
X71771641Y-37130488D01*
X71647028Y-37105701D01*
X71519974Y-37105701D01*
X71395361Y-37130488D01*
X71277979Y-37179109D01*
X71172337Y-37249697D01*
X71082497Y-37339537D01*
X71011909Y-37445179D01*
X70963288Y-37562561D01*
X70938501Y-37687174D01*
X69160000Y-37687174D01*
X69160000Y-32245229D01*
X69214214Y-32281453D01*
X69295198Y-32314998D01*
X69381171Y-32332099D01*
X69468829Y-32332099D01*
X69554802Y-32314998D01*
X69635786Y-32281453D01*
X69708671Y-32232753D01*
X69770654Y-32170770D01*
X69819354Y-32097885D01*
X69852899Y-32016901D01*
X69870000Y-31930928D01*
X69870000Y-31843270D01*
X69852899Y-31757297D01*
X69819354Y-31676313D01*
X69770654Y-31603428D01*
X69708671Y-31541445D01*
X69651091Y-31502971D01*
X71792600Y-31502971D01*
X71792600Y-31590629D01*
X71809701Y-31676602D01*
X71843246Y-31757586D01*
X71891946Y-31830471D01*
X71953929Y-31892454D01*
X72026814Y-31941154D01*
X72107798Y-31974699D01*
X72193771Y-31991800D01*
X72281429Y-31991800D01*
X72367402Y-31974699D01*
X72448386Y-31941154D01*
X72521271Y-31892454D01*
X72583254Y-31830471D01*
X72631954Y-31757586D01*
X72665499Y-31676602D01*
X72682600Y-31590629D01*
X72682600Y-31524571D01*
X72792600Y-31524571D01*
X72792600Y-31612229D01*
X72809701Y-31698202D01*
X72843246Y-31779186D01*
X72891946Y-31852071D01*
X72953929Y-31914054D01*
X73026814Y-31962754D01*
X73107798Y-31996299D01*
X73193771Y-32013400D01*
X73281429Y-32013400D01*
X73367402Y-31996299D01*
X73448386Y-31962754D01*
X73521271Y-31914054D01*
X73583254Y-31852071D01*
X73631954Y-31779186D01*
X73665499Y-31698202D01*
X73682600Y-31612229D01*
X73682600Y-31524571D01*
X73665499Y-31438598D01*
X73631954Y-31357614D01*
X73583254Y-31284729D01*
X73521271Y-31222746D01*
X73448386Y-31174046D01*
X73367402Y-31140501D01*
X73281429Y-31123400D01*
X73193771Y-31123400D01*
X73107798Y-31140501D01*
X73026814Y-31174046D01*
X72953929Y-31222746D01*
X72891946Y-31284729D01*
X72843246Y-31357614D01*
X72809701Y-31438598D01*
X72792600Y-31524571D01*
X72682600Y-31524571D01*
X72682600Y-31502971D01*
X72665499Y-31416998D01*
X72631954Y-31336014D01*
X72583254Y-31263129D01*
X72521271Y-31201146D01*
X72448386Y-31152446D01*
X72367402Y-31118901D01*
X72281429Y-31101800D01*
X72193771Y-31101800D01*
X72107798Y-31118901D01*
X72026814Y-31152446D01*
X71953929Y-31201146D01*
X71891946Y-31263129D01*
X71843246Y-31336014D01*
X71809701Y-31416998D01*
X71792600Y-31502971D01*
X69651091Y-31502971D01*
X69635786Y-31492745D01*
X69554802Y-31459200D01*
X69468829Y-31442099D01*
X69381171Y-31442099D01*
X69295198Y-31459200D01*
X69214214Y-31492745D01*
X69160000Y-31528969D01*
X69160000Y-30685730D01*
X69214214Y-30721954D01*
X69295198Y-30755499D01*
X69381171Y-30772600D01*
X69468829Y-30772600D01*
X69554802Y-30755499D01*
X69635786Y-30721954D01*
X69708671Y-30673254D01*
X69770654Y-30611271D01*
X69819354Y-30538386D01*
X69825076Y-30524571D01*
X71792600Y-30524571D01*
X71792600Y-30612229D01*
X71809701Y-30698202D01*
X71843246Y-30779186D01*
X71891946Y-30852071D01*
X71953929Y-30914054D01*
X72026814Y-30962754D01*
X72107798Y-30996299D01*
X72193771Y-31013400D01*
X72281429Y-31013400D01*
X72367402Y-30996299D01*
X72448386Y-30962754D01*
X72521271Y-30914054D01*
X72583254Y-30852071D01*
X72631954Y-30779186D01*
X72665499Y-30698202D01*
X72682600Y-30612229D01*
X72682600Y-30524571D01*
X72665499Y-30438598D01*
X72631954Y-30357614D01*
X72583254Y-30284729D01*
X72521271Y-30222746D01*
X72448386Y-30174046D01*
X72367402Y-30140501D01*
X72281429Y-30123400D01*
X72193771Y-30123400D01*
X72107798Y-30140501D01*
X72026814Y-30174046D01*
X71953929Y-30222746D01*
X71891946Y-30284729D01*
X71843246Y-30357614D01*
X71809701Y-30438598D01*
X71792600Y-30524571D01*
X69825076Y-30524571D01*
X69852899Y-30457402D01*
X69870000Y-30371429D01*
X69870000Y-30283771D01*
X69852899Y-30197798D01*
X69819354Y-30116814D01*
X69770654Y-30043929D01*
X69708671Y-29981946D01*
X69635786Y-29933246D01*
X69554802Y-29899701D01*
X69468829Y-29882600D01*
X69381171Y-29882600D01*
X69295198Y-29899701D01*
X69214214Y-29933246D01*
X69160000Y-29969470D01*
X69160000Y-29524571D01*
X71792600Y-29524571D01*
X71792600Y-29612229D01*
X71809701Y-29698202D01*
X71843246Y-29779186D01*
X71891946Y-29852071D01*
X71953929Y-29914054D01*
X72026814Y-29962754D01*
X72107798Y-29996299D01*
X72193771Y-30013400D01*
X72281429Y-30013400D01*
X72367402Y-29996299D01*
X72448386Y-29962754D01*
X72521271Y-29914054D01*
X72583254Y-29852071D01*
X72631954Y-29779186D01*
X72665499Y-29698202D01*
X72682600Y-29612229D01*
X72682600Y-29524571D01*
X72665499Y-29438598D01*
X72631954Y-29357614D01*
X72583254Y-29284729D01*
X72521271Y-29222746D01*
X72448386Y-29174046D01*
X72367402Y-29140501D01*
X72281429Y-29123400D01*
X72193771Y-29123400D01*
X72107798Y-29140501D01*
X72026814Y-29174046D01*
X71953929Y-29222746D01*
X71891946Y-29284729D01*
X71843246Y-29357614D01*
X71809701Y-29438598D01*
X71792600Y-29524571D01*
X69160000Y-29524571D01*
X69160000Y-28365078D01*
X69212198Y-28386699D01*
X69298171Y-28403800D01*
X69385829Y-28403800D01*
X69471802Y-28386699D01*
X69552786Y-28353154D01*
X69625671Y-28304454D01*
X69687654Y-28242471D01*
X69736354Y-28169586D01*
X69769899Y-28088602D01*
X69787000Y-28002629D01*
X69787000Y-27914971D01*
X69769899Y-27828998D01*
X69736354Y-27748014D01*
X69687654Y-27675129D01*
X69625671Y-27613146D01*
X69552786Y-27564446D01*
X69471802Y-27530901D01*
X69385829Y-27513800D01*
X69298171Y-27513800D01*
X69212198Y-27530901D01*
X69160000Y-27552522D01*
X69160000Y-27365078D01*
X69212198Y-27386699D01*
X69298171Y-27403800D01*
X69385829Y-27403800D01*
X69471802Y-27386699D01*
X69552786Y-27353154D01*
X69625671Y-27304454D01*
X69687654Y-27242471D01*
X69736354Y-27169586D01*
X69769899Y-27088602D01*
X69787000Y-27002629D01*
X69787000Y-26914971D01*
X69769899Y-26828998D01*
X69736354Y-26748014D01*
X69687654Y-26675129D01*
X69625671Y-26613146D01*
X69622759Y-26611200D01*
X69625671Y-26609254D01*
X69687654Y-26547271D01*
X69702821Y-26524571D01*
X71792600Y-26524571D01*
X71792600Y-26612229D01*
X71809701Y-26698202D01*
X71843246Y-26779186D01*
X71891946Y-26852071D01*
X71953929Y-26914054D01*
X72026814Y-26962754D01*
X72107798Y-26996299D01*
X72193771Y-27013400D01*
X72281429Y-27013400D01*
X72367402Y-26996299D01*
X72448386Y-26962754D01*
X72521271Y-26914054D01*
X72583254Y-26852071D01*
X72631954Y-26779186D01*
X72665499Y-26698202D01*
X72682600Y-26612229D01*
X72682600Y-26524571D01*
X72792600Y-26524571D01*
X72792600Y-26612229D01*
X72809701Y-26698202D01*
X72843246Y-26779186D01*
X72891946Y-26852071D01*
X72953929Y-26914054D01*
X73026814Y-26962754D01*
X73107798Y-26996299D01*
X73193771Y-27013400D01*
X73281429Y-27013400D01*
X73367402Y-26996299D01*
X73448386Y-26962754D01*
X73521271Y-26914054D01*
X73583254Y-26852071D01*
X73631954Y-26779186D01*
X73665499Y-26698202D01*
X73682600Y-26612229D01*
X73682600Y-26524571D01*
X73792600Y-26524571D01*
X73792600Y-26612229D01*
X73809701Y-26698202D01*
X73843246Y-26779186D01*
X73891946Y-26852071D01*
X73953929Y-26914054D01*
X74026814Y-26962754D01*
X74107798Y-26996299D01*
X74193771Y-27013400D01*
X74281429Y-27013400D01*
X74367402Y-26996299D01*
X74448386Y-26962754D01*
X74521271Y-26914054D01*
X74583254Y-26852071D01*
X74631954Y-26779186D01*
X74665499Y-26698202D01*
X74682600Y-26612229D01*
X74682600Y-26524571D01*
X74792600Y-26524571D01*
X74792600Y-26612229D01*
X74809701Y-26698202D01*
X74843246Y-26779186D01*
X74891946Y-26852071D01*
X74953929Y-26914054D01*
X75026814Y-26962754D01*
X75107798Y-26996299D01*
X75193771Y-27013400D01*
X75281429Y-27013400D01*
X75367402Y-26996299D01*
X75448386Y-26962754D01*
X75521271Y-26914054D01*
X75583254Y-26852071D01*
X75631954Y-26779186D01*
X75665499Y-26698202D01*
X75682600Y-26612229D01*
X75682600Y-26524571D01*
X75665499Y-26438598D01*
X75631954Y-26357614D01*
X75583254Y-26284729D01*
X75521271Y-26222746D01*
X75448386Y-26174046D01*
X75367402Y-26140501D01*
X75281429Y-26123400D01*
X75193771Y-26123400D01*
X75107798Y-26140501D01*
X75026814Y-26174046D01*
X74953929Y-26222746D01*
X74891946Y-26284729D01*
X74843246Y-26357614D01*
X74809701Y-26438598D01*
X74792600Y-26524571D01*
X74682600Y-26524571D01*
X74665499Y-26438598D01*
X74631954Y-26357614D01*
X74583254Y-26284729D01*
X74521271Y-26222746D01*
X74448386Y-26174046D01*
X74367402Y-26140501D01*
X74281429Y-26123400D01*
X74193771Y-26123400D01*
X74107798Y-26140501D01*
X74026814Y-26174046D01*
X73953929Y-26222746D01*
X73891946Y-26284729D01*
X73843246Y-26357614D01*
X73809701Y-26438598D01*
X73792600Y-26524571D01*
X73682600Y-26524571D01*
X73665499Y-26438598D01*
X73631954Y-26357614D01*
X73583254Y-26284729D01*
X73521271Y-26222746D01*
X73448386Y-26174046D01*
X73367402Y-26140501D01*
X73281429Y-26123400D01*
X73193771Y-26123400D01*
X73107798Y-26140501D01*
X73026814Y-26174046D01*
X72953929Y-26222746D01*
X72891946Y-26284729D01*
X72843246Y-26357614D01*
X72809701Y-26438598D01*
X72792600Y-26524571D01*
X72682600Y-26524571D01*
X72665499Y-26438598D01*
X72631954Y-26357614D01*
X72583254Y-26284729D01*
X72521271Y-26222746D01*
X72448386Y-26174046D01*
X72367402Y-26140501D01*
X72281429Y-26123400D01*
X72193771Y-26123400D01*
X72107798Y-26140501D01*
X72026814Y-26174046D01*
X71953929Y-26222746D01*
X71891946Y-26284729D01*
X71843246Y-26357614D01*
X71809701Y-26438598D01*
X71792600Y-26524571D01*
X69702821Y-26524571D01*
X69736354Y-26474386D01*
X69769899Y-26393402D01*
X69787000Y-26307429D01*
X69787000Y-26219771D01*
X69769899Y-26133798D01*
X69736354Y-26052814D01*
X69687654Y-25979929D01*
X69625671Y-25917946D01*
X69552786Y-25869246D01*
X69471802Y-25835701D01*
X69385829Y-25818600D01*
X69298171Y-25818600D01*
X69212198Y-25835701D01*
X69160000Y-25857322D01*
X69160000Y-25711771D01*
X70471800Y-25711771D01*
X70471800Y-25799429D01*
X70488901Y-25885402D01*
X70522446Y-25966386D01*
X70571146Y-26039271D01*
X70633129Y-26101254D01*
X70706014Y-26149954D01*
X70786998Y-26183499D01*
X70872971Y-26200600D01*
X70960629Y-26200600D01*
X71046602Y-26183499D01*
X71127586Y-26149954D01*
X71200471Y-26101254D01*
X71262454Y-26039271D01*
X71311154Y-25966386D01*
X71344699Y-25885402D01*
X71361800Y-25799429D01*
X71361800Y-25711771D01*
X71344699Y-25625798D01*
X71311154Y-25544814D01*
X71262454Y-25471929D01*
X71200471Y-25409946D01*
X71127586Y-25361246D01*
X71046602Y-25327701D01*
X70960629Y-25310600D01*
X70872971Y-25310600D01*
X70786998Y-25327701D01*
X70706014Y-25361246D01*
X70633129Y-25409946D01*
X70571146Y-25471929D01*
X70522446Y-25544814D01*
X70488901Y-25625798D01*
X70471800Y-25711771D01*
X69160000Y-25711771D01*
X69160000Y-23977478D01*
X69212198Y-23999099D01*
X69298171Y-24016200D01*
X69385829Y-24016200D01*
X69471802Y-23999099D01*
X69552786Y-23965554D01*
X69625671Y-23916854D01*
X69687654Y-23854871D01*
X69736354Y-23781986D01*
X69769899Y-23701002D01*
X69787000Y-23615029D01*
X69787000Y-23527371D01*
X69769899Y-23441398D01*
X69736354Y-23360414D01*
X69687654Y-23287529D01*
X69625671Y-23225546D01*
X69610786Y-23215600D01*
X69625671Y-23205654D01*
X69687654Y-23143671D01*
X69736354Y-23070786D01*
X69769899Y-22989802D01*
X69787000Y-22903829D01*
X69787000Y-22816171D01*
X69846200Y-22816171D01*
X69846200Y-22903829D01*
X69863301Y-22989802D01*
X69896846Y-23070786D01*
X69945546Y-23143671D01*
X70007529Y-23205654D01*
X70080414Y-23254354D01*
X70161398Y-23287899D01*
X70247371Y-23305000D01*
X70335029Y-23305000D01*
X70421002Y-23287899D01*
X70501986Y-23254354D01*
X70574871Y-23205654D01*
X70636854Y-23143671D01*
X70685554Y-23070786D01*
X70705600Y-23022391D01*
X70725646Y-23070786D01*
X70774346Y-23143671D01*
X70836329Y-23205654D01*
X70909214Y-23254354D01*
X70990198Y-23287899D01*
X71076171Y-23305000D01*
X71163829Y-23305000D01*
X71249802Y-23287899D01*
X71330786Y-23254354D01*
X71403671Y-23205654D01*
X71465654Y-23143671D01*
X71514354Y-23070786D01*
X71547899Y-22989802D01*
X71565000Y-22903829D01*
X71565000Y-22816171D01*
X72046600Y-22816171D01*
X72046600Y-22903829D01*
X72063701Y-22989802D01*
X72097246Y-23070786D01*
X72145946Y-23143671D01*
X72207929Y-23205654D01*
X72280814Y-23254354D01*
X72361798Y-23287899D01*
X72447771Y-23305000D01*
X72535429Y-23305000D01*
X72621402Y-23287899D01*
X72702386Y-23254354D01*
X72775271Y-23205654D01*
X72837254Y-23143671D01*
X72885954Y-23070786D01*
X72919499Y-22989802D01*
X72936600Y-22903829D01*
X72936600Y-22816171D01*
X72919499Y-22730198D01*
X72885954Y-22649214D01*
X72837254Y-22576329D01*
X72775271Y-22514346D01*
X72702386Y-22465646D01*
X72621402Y-22432101D01*
X72535429Y-22415000D01*
X72447771Y-22415000D01*
X72361798Y-22432101D01*
X72280814Y-22465646D01*
X72207929Y-22514346D01*
X72145946Y-22576329D01*
X72097246Y-22649214D01*
X72063701Y-22730198D01*
X72046600Y-22816171D01*
X71565000Y-22816171D01*
X71547899Y-22730198D01*
X71514354Y-22649214D01*
X71465654Y-22576329D01*
X71403671Y-22514346D01*
X71330786Y-22465646D01*
X71249802Y-22432101D01*
X71163829Y-22415000D01*
X71076171Y-22415000D01*
X70990198Y-22432101D01*
X70909214Y-22465646D01*
X70836329Y-22514346D01*
X70774346Y-22576329D01*
X70725646Y-22649214D01*
X70705600Y-22697609D01*
X70685554Y-22649214D01*
X70636854Y-22576329D01*
X70574871Y-22514346D01*
X70501986Y-22465646D01*
X70421002Y-22432101D01*
X70335029Y-22415000D01*
X70247371Y-22415000D01*
X70161398Y-22432101D01*
X70080414Y-22465646D01*
X70007529Y-22514346D01*
X69945546Y-22576329D01*
X69896846Y-22649214D01*
X69863301Y-22730198D01*
X69846200Y-22816171D01*
X69787000Y-22816171D01*
X69769899Y-22730198D01*
X69736354Y-22649214D01*
X69687654Y-22576329D01*
X69625671Y-22514346D01*
X69552786Y-22465646D01*
X69471802Y-22432101D01*
X69385829Y-22415000D01*
X69298171Y-22415000D01*
X69212198Y-22432101D01*
X69160000Y-22453722D01*
X69160000Y-22097878D01*
X69212198Y-22119499D01*
X69298171Y-22136600D01*
X69385829Y-22136600D01*
X69471802Y-22119499D01*
X69552786Y-22085954D01*
X69625671Y-22037254D01*
X69687654Y-21975271D01*
X69736354Y-21902386D01*
X69769899Y-21821402D01*
X69787000Y-21735429D01*
X69787000Y-21647771D01*
X69769899Y-21561798D01*
X69758136Y-21533400D01*
X70859064Y-21533400D01*
X70847301Y-21561798D01*
X70830200Y-21647771D01*
X70830200Y-21735429D01*
X70847301Y-21821402D01*
X70880846Y-21902386D01*
X70929546Y-21975271D01*
X70991529Y-22037254D01*
X71064414Y-22085954D01*
X71145398Y-22119499D01*
X71231371Y-22136600D01*
X71319029Y-22136600D01*
X71405002Y-22119499D01*
X71485986Y-22085954D01*
X71558871Y-22037254D01*
X71620854Y-21975271D01*
X71669554Y-21902386D01*
X71703099Y-21821402D01*
X71720200Y-21735429D01*
X71720200Y-21647771D01*
X71703099Y-21561798D01*
X71691336Y-21533400D01*
X71859064Y-21533400D01*
X71847301Y-21561798D01*
X71830200Y-21647771D01*
X71830200Y-21735429D01*
X71847301Y-21821402D01*
X71880846Y-21902386D01*
X71929546Y-21975271D01*
X71991529Y-22037254D01*
X72064414Y-22085954D01*
X72145398Y-22119499D01*
X72231371Y-22136600D01*
X72319029Y-22136600D01*
X72405002Y-22119499D01*
X72485986Y-22085954D01*
X72558871Y-22037254D01*
X72620854Y-21975271D01*
X72669554Y-21902386D01*
X72703099Y-21821402D01*
X72720200Y-21735429D01*
X72720200Y-21647771D01*
X72703099Y-21561798D01*
X72691336Y-21533400D01*
X72859064Y-21533400D01*
X72847301Y-21561798D01*
X72830200Y-21647771D01*
X72830200Y-21735429D01*
X72847301Y-21821402D01*
X72880846Y-21902386D01*
X72929546Y-21975271D01*
X72991529Y-22037254D01*
X73064414Y-22085954D01*
X73145398Y-22119499D01*
X73231371Y-22136600D01*
X73319029Y-22136600D01*
X73405002Y-22119499D01*
X73485986Y-22085954D01*
X73558871Y-22037254D01*
X73620854Y-21975271D01*
X73669554Y-21902386D01*
X73703099Y-21821402D01*
X73720200Y-21735429D01*
X73720200Y-21647771D01*
X73703099Y-21561798D01*
X73691336Y-21533400D01*
X73859064Y-21533400D01*
X73847301Y-21561798D01*
X73830200Y-21647771D01*
X73830200Y-21735429D01*
X73847301Y-21821402D01*
X73880846Y-21902386D01*
X73929546Y-21975271D01*
X73950675Y-21996400D01*
X73929546Y-22017529D01*
X73880846Y-22090414D01*
X73847301Y-22171398D01*
X73830200Y-22257371D01*
X73830200Y-22345029D01*
X73847301Y-22431002D01*
X73880846Y-22511986D01*
X73929546Y-22584871D01*
X73991529Y-22646854D01*
X74064414Y-22695554D01*
X74145398Y-22729099D01*
X74231371Y-22746200D01*
X74319029Y-22746200D01*
X74389000Y-22732282D01*
X74389000Y-22751429D01*
X74406101Y-22837402D01*
X74439646Y-22918386D01*
X74488346Y-22991271D01*
X74550329Y-23053254D01*
X74623214Y-23101954D01*
X74704198Y-23135499D01*
X74790171Y-23152600D01*
X74877829Y-23152600D01*
X74963802Y-23135499D01*
X75044786Y-23101954D01*
X75117671Y-23053254D01*
X75179654Y-22991271D01*
X75228354Y-22918386D01*
X75261899Y-22837402D01*
X75279000Y-22751429D01*
X75279000Y-22663771D01*
X75261899Y-22577798D01*
X75228354Y-22496814D01*
X75179654Y-22423929D01*
X75117671Y-22361946D01*
X75044786Y-22313246D01*
X74963802Y-22279701D01*
X74877829Y-22262600D01*
X74790171Y-22262600D01*
X74720200Y-22276518D01*
X74720200Y-22257371D01*
X74703099Y-22171398D01*
X74669554Y-22090414D01*
X74620854Y-22017529D01*
X74599725Y-21996400D01*
X74620854Y-21975271D01*
X74669554Y-21902386D01*
X74703099Y-21821402D01*
X74720200Y-21735429D01*
X74720200Y-21647771D01*
X74703099Y-21561798D01*
X74691336Y-21533400D01*
X74859064Y-21533400D01*
X74847301Y-21561798D01*
X74830200Y-21647771D01*
X74830200Y-21735429D01*
X74847301Y-21821402D01*
X74880846Y-21902386D01*
X74929546Y-21975271D01*
X74991529Y-22037254D01*
X75064414Y-22085954D01*
X75145398Y-22119499D01*
X75231371Y-22136600D01*
X75319029Y-22136600D01*
X75405002Y-22119499D01*
X75485986Y-22085954D01*
X75558871Y-22037254D01*
X75620854Y-21975271D01*
X75669554Y-21902386D01*
X75703099Y-21821402D01*
X75720200Y-21735429D01*
X75720200Y-21647771D01*
X75703099Y-21561798D01*
X75669554Y-21480814D01*
X75620854Y-21407929D01*
X75558871Y-21345946D01*
X75485986Y-21297246D01*
X75405002Y-21263701D01*
X75319029Y-21246600D01*
X75231371Y-21246600D01*
X75145398Y-21263701D01*
X75100059Y-21282481D01*
X75094815Y-20726521D01*
X75107798Y-20731899D01*
X75193771Y-20749000D01*
X75281429Y-20749000D01*
X75367402Y-20731899D01*
X75448386Y-20698354D01*
X75521271Y-20649654D01*
X75583254Y-20587671D01*
X75631954Y-20514786D01*
X75665499Y-20433802D01*
X75682600Y-20347829D01*
X75682600Y-20260171D01*
X75675678Y-20225371D01*
X79768200Y-20225371D01*
X79768200Y-20313029D01*
X79785301Y-20399002D01*
X79818846Y-20479986D01*
X79867546Y-20552871D01*
X79929529Y-20614854D01*
X80002414Y-20663554D01*
X80083398Y-20697099D01*
X80169371Y-20714200D01*
X80257029Y-20714200D01*
X80343002Y-20697099D01*
X80423986Y-20663554D01*
X80496871Y-20614854D01*
X80558854Y-20552871D01*
X80607554Y-20479986D01*
X80641099Y-20399002D01*
X80658200Y-20313029D01*
X80658200Y-20225371D01*
X80641099Y-20139398D01*
X80607554Y-20058414D01*
X80558854Y-19985529D01*
X80496871Y-19923546D01*
X80423986Y-19874846D01*
X80343002Y-19841301D01*
X80257029Y-19824200D01*
X80169371Y-19824200D01*
X80083398Y-19841301D01*
X80002414Y-19874846D01*
X79929529Y-19923546D01*
X79867546Y-19985529D01*
X79818846Y-20058414D01*
X79785301Y-20139398D01*
X79768200Y-20225371D01*
X75675678Y-20225371D01*
X75665499Y-20174198D01*
X75631954Y-20093214D01*
X75583254Y-20020329D01*
X75521271Y-19958346D01*
X75448386Y-19909646D01*
X75367402Y-19876101D01*
X75281429Y-19859000D01*
X75193771Y-19859000D01*
X75107798Y-19876101D01*
X75086874Y-19884768D01*
X75085344Y-19722598D01*
X75107798Y-19731899D01*
X75193771Y-19749000D01*
X75281429Y-19749000D01*
X75367402Y-19731899D01*
X75448386Y-19698354D01*
X75521271Y-19649654D01*
X75583254Y-19587671D01*
X75631954Y-19514786D01*
X75665499Y-19433802D01*
X75682600Y-19347829D01*
X75682600Y-19260171D01*
X75665499Y-19174198D01*
X75659618Y-19160000D01*
X75815582Y-19160000D01*
X75809701Y-19174198D01*
G37*
%TD.AperFunction*%
D14*
X80840000Y-27988284D02*
X80785766Y-27952046D01*
X80704782Y-27918501D01*
X80618809Y-27901400D01*
X80531151Y-27901400D01*
X80445178Y-27918501D01*
X80364194Y-27952046D01*
X80362999Y-27952844D01*
X80362999Y-25849998D01*
X80388197Y-25860435D01*
X80474170Y-25877536D01*
X80561828Y-25877536D01*
X80647801Y-25860435D01*
X80728785Y-25826890D01*
X80801670Y-25778190D01*
X80840000Y-25739860D01*
X80840000Y-27988284D01*
%TA.AperFunction,Conductor*%
D15*
G36*
X80840000Y-27988284D02*
G01*
X80785766Y-27952046D01*
X80704782Y-27918501D01*
X80618809Y-27901400D01*
X80531151Y-27901400D01*
X80445178Y-27918501D01*
X80364194Y-27952046D01*
X80362999Y-27952844D01*
X80362999Y-25849998D01*
X80388197Y-25860435D01*
X80474170Y-25877536D01*
X80561828Y-25877536D01*
X80647801Y-25860435D01*
X80728785Y-25826890D01*
X80801670Y-25778190D01*
X80840000Y-25739860D01*
X80840000Y-27988284D01*
G37*
%TD.AperFunction*%
D14*
X78066102Y-23709001D02*
X78099647Y-23789985D01*
X78148347Y-23862870D01*
X78149001Y-23863524D01*
X78149001Y-25185739D01*
X78123803Y-25175301D01*
X78044221Y-25159471D01*
X78045548Y-25146001D01*
X78044000Y-25130288D01*
X78044000Y-24671511D01*
X78045548Y-24655798D01*
X78044000Y-24640081D01*
X78039370Y-24593068D01*
X78021072Y-24532748D01*
X78007240Y-24506871D01*
X77991357Y-24477156D01*
X77961388Y-24440638D01*
X77961385Y-24440635D01*
X77951369Y-24428430D01*
X77939163Y-24418413D01*
X77462343Y-23941595D01*
X77462343Y-23863907D01*
X77462414Y-23863954D01*
X77543398Y-23897499D01*
X77629371Y-23914600D01*
X77717029Y-23914600D01*
X77803002Y-23897499D01*
X77883986Y-23863954D01*
X77956871Y-23815254D01*
X78018854Y-23753271D01*
X78062049Y-23688625D01*
X78066102Y-23709001D01*
%TA.AperFunction,Conductor*%
D15*
G36*
X78066102Y-23709001D02*
G01*
X78099647Y-23789985D01*
X78148347Y-23862870D01*
X78149001Y-23863524D01*
X78149001Y-25185739D01*
X78123803Y-25175301D01*
X78044221Y-25159471D01*
X78045548Y-25146001D01*
X78044000Y-25130288D01*
X78044000Y-24671511D01*
X78045548Y-24655798D01*
X78044000Y-24640081D01*
X78039370Y-24593068D01*
X78021072Y-24532748D01*
X78007240Y-24506871D01*
X77991357Y-24477156D01*
X77961388Y-24440638D01*
X77961385Y-24440635D01*
X77951369Y-24428430D01*
X77939163Y-24418413D01*
X77462343Y-23941595D01*
X77462343Y-23863907D01*
X77462414Y-23863954D01*
X77543398Y-23897499D01*
X77629371Y-23914600D01*
X77717029Y-23914600D01*
X77803002Y-23897499D01*
X77883986Y-23863954D01*
X77956871Y-23815254D01*
X78018854Y-23753271D01*
X78062049Y-23688625D01*
X78066102Y-23709001D01*
G37*
%TD.AperFunction*%
%TD*%
D14*
%TO.N,/RAD_PLANE*%
X74222460Y-19767000D02*
X69160000Y-19767000D01*
X69160000Y-19160000D01*
X74222460Y-19160000D01*
X74222460Y-19767000D01*
%TA.AperFunction,Conductor*%
D15*
G36*
X74222460Y-19767000D02*
G01*
X69160000Y-19767000D01*
X69160000Y-19160000D01*
X74222460Y-19160000D01*
X74222460Y-19767000D01*
G37*
%TD.AperFunction*%
%TD*%
M02*
