%TF.GenerationSoftware,KiCad,Pcbnew,5.1.9-73d0e3b20d~88~ubuntu20.04.1*%
%TF.CreationDate,2022-04-15T22:34:28-04:00*%
%TF.ProjectId,ring,72696e67-2e6b-4696-9361-645f70636258,rev?*%
%TF.SameCoordinates,Original*%
%TF.FileFunction,Legend,Top*%
%TF.FilePolarity,Positive*%
%FSLAX46Y46*%
G04 Gerber Fmt 4.6, Leading zero omitted, Abs format (unit mm)*
G04 Created by KiCad (PCBNEW 5.1.9-73d0e3b20d~88~ubuntu20.04.1) date 2022-04-15 22:34:28*
%MOMM*%
%LPD*%
G01*
G04 APERTURE LIST*
%ADD10C,0.120000*%
%ADD11C,0.150000*%
%ADD12C,0.050000*%
%ADD13C,0.060000*%
G04 APERTURE END LIST*
D10*
X80389428Y-33446485D02*
X80560857Y-33010771D01*
X80732285Y-33489342D01*
X80618000Y-32760771D02*
X80618000Y-32475057D01*
X80789428Y-32839342D02*
X80189428Y-32564342D01*
X80789428Y-32439342D01*
X80789428Y-31953628D02*
X80789428Y-32239342D01*
X80189428Y-32164342D01*
X80789428Y-31753628D02*
X80189428Y-31678628D01*
X80189428Y-31450057D01*
X80218000Y-31396485D01*
X80246571Y-31371485D01*
X80303714Y-31350057D01*
X80389428Y-31360771D01*
X80446571Y-31396485D01*
X80475142Y-31428628D01*
X80503714Y-31489342D01*
X80503714Y-31717914D01*
X80789428Y-31153628D02*
X80189428Y-31078628D01*
X80189428Y-30935771D01*
X80218000Y-30853628D01*
X80275142Y-30803628D01*
X80332285Y-30782200D01*
X80446571Y-30767914D01*
X80532285Y-30778628D01*
X80646571Y-30821485D01*
X80703714Y-30857200D01*
X80760857Y-30921485D01*
X80789428Y-31010771D01*
X80789428Y-31153628D01*
X80760857Y-30578628D02*
X80789428Y-30496485D01*
X80789428Y-30353628D01*
X80760857Y-30292914D01*
X80732285Y-30260771D01*
X80675142Y-30225057D01*
X80618000Y-30217914D01*
X80560857Y-30239342D01*
X80532285Y-30264342D01*
X80503714Y-30317914D01*
X80475142Y-30428628D01*
X80446571Y-30482200D01*
X80418000Y-30507200D01*
X80360857Y-30528628D01*
X80303714Y-30521485D01*
X80246571Y-30485771D01*
X80218000Y-30453628D01*
X80189428Y-30392914D01*
X80189428Y-30250057D01*
X80218000Y-30167914D01*
X80618000Y-29989342D02*
X80618000Y-29703628D01*
X80789428Y-30067914D02*
X80189428Y-29792914D01*
X80789428Y-29667914D01*
X80389428Y-28960771D02*
X80560857Y-29439342D01*
X80732285Y-29003628D01*
D11*
X70059504Y-37089930D02*
X69678552Y-37308977D01*
X70059504Y-37547073D02*
X69259504Y-37447073D01*
X69259504Y-37142311D01*
X69297600Y-37070882D01*
X69335695Y-37037549D01*
X69411885Y-37008977D01*
X69526171Y-37023263D01*
X69602361Y-37070882D01*
X69640457Y-37113739D01*
X69678552Y-37194692D01*
X69678552Y-37499454D01*
X70059504Y-36747073D02*
X69259504Y-36647073D01*
X70059504Y-36366120D02*
X69259504Y-36266120D01*
X70059504Y-35908977D01*
X69259504Y-35808977D01*
X69297600Y-35013739D02*
X69259504Y-35085168D01*
X69259504Y-35199454D01*
X69297600Y-35318501D01*
X69373790Y-35404216D01*
X69449980Y-35451835D01*
X69602361Y-35508977D01*
X69716647Y-35523263D01*
X69869028Y-35504216D01*
X69945219Y-35475644D01*
X70021409Y-35408977D01*
X70059504Y-35299454D01*
X70059504Y-35223263D01*
X70021409Y-35104216D01*
X69983314Y-35061358D01*
X69716647Y-35028025D01*
X69716647Y-35180406D01*
X69259504Y-34132787D02*
X70059504Y-33966120D01*
X69259504Y-33599454D01*
X69259504Y-33180406D02*
X69259504Y-33104216D01*
X69297600Y-33032787D01*
X69335695Y-32999454D01*
X69411885Y-32970882D01*
X69564266Y-32951835D01*
X69754742Y-32975644D01*
X69907123Y-33032787D01*
X69983314Y-33080406D01*
X70021409Y-33123263D01*
X70059504Y-33204216D01*
X70059504Y-33280406D01*
X70021409Y-33351835D01*
X69983314Y-33385168D01*
X69907123Y-33413739D01*
X69754742Y-33432787D01*
X69564266Y-33408977D01*
X69411885Y-33351835D01*
X69335695Y-33304216D01*
X69297600Y-33261358D01*
X69259504Y-33180406D01*
X69983314Y-32661358D02*
X70021409Y-32628025D01*
X70059504Y-32670882D01*
X70021409Y-32704216D01*
X69983314Y-32661358D01*
X70059504Y-32670882D01*
X69259504Y-32037549D02*
X69259504Y-31961358D01*
X69297600Y-31889930D01*
X69335695Y-31856597D01*
X69411885Y-31828025D01*
X69564266Y-31808977D01*
X69754742Y-31832787D01*
X69907123Y-31889930D01*
X69983314Y-31937549D01*
X70021409Y-31980406D01*
X70059504Y-32061358D01*
X70059504Y-32137549D01*
X70021409Y-32208977D01*
X69983314Y-32242311D01*
X69907123Y-32270882D01*
X69754742Y-32289930D01*
X69564266Y-32266120D01*
X69411885Y-32208977D01*
X69335695Y-32161358D01*
X69297600Y-32118501D01*
X69259504Y-32037549D01*
D10*
%TO.C,C13*%
X70337000Y-30968836D02*
X70337000Y-30753164D01*
X69617000Y-30968836D02*
X69617000Y-30753164D01*
D12*
%TO.C,Q1*%
X70912800Y-38680080D02*
X69762800Y-38680080D01*
X70912800Y-37530080D02*
X69762800Y-37530080D01*
D10*
X71012800Y-38680080D02*
G75*
G03*
X71012800Y-38680080I-100000J0D01*
G01*
D12*
X69762800Y-38680080D02*
X69762800Y-37530080D01*
X70912800Y-38680080D02*
X70912800Y-37530080D01*
D10*
%TO.C,R4*%
X79020400Y-26671241D02*
X79020400Y-26363959D01*
X79780400Y-26671241D02*
X79780400Y-26363959D01*
%TO.C,R3*%
X80796400Y-26363959D02*
X80796400Y-26671241D01*
X80036400Y-26363959D02*
X80036400Y-26671241D01*
%TO.C,C12*%
X73401600Y-36341164D02*
X73401600Y-36556836D01*
X74121600Y-36341164D02*
X74121600Y-36556836D01*
%TO.C,R2*%
X71779159Y-34316400D02*
X72086441Y-34316400D01*
X71779159Y-35076400D02*
X72086441Y-35076400D01*
%TO.C,R1*%
X74090559Y-34621200D02*
X74397841Y-34621200D01*
X74090559Y-35381200D02*
X74397841Y-35381200D01*
%TO.C,C4*%
X78085836Y-35158000D02*
X77870164Y-35158000D01*
X78085836Y-34438000D02*
X77870164Y-34438000D01*
%TO.C,U5*%
X77312955Y-38519100D02*
X77627045Y-38519100D01*
X77627045Y-36156900D02*
X77312955Y-36156900D01*
X76032360Y-36661829D02*
G75*
G02*
X76032360Y-36514171I-18860J73829D01*
G01*
%TO.C,L3*%
X79450000Y-36478242D02*
X79450000Y-35657758D01*
X80570000Y-36478242D02*
X80570000Y-35657758D01*
%TO.C,C3*%
X74377436Y-38333000D02*
X74161764Y-38333000D01*
X74377436Y-37613000D02*
X74161764Y-37613000D01*
%TO.C,U4*%
X71214000Y-37146600D02*
X72764000Y-37146600D01*
X71064000Y-35446600D02*
X72764000Y-35446600D01*
%TO.C,C11*%
X79101836Y-19918000D02*
X78886164Y-19918000D01*
X79101836Y-19198000D02*
X78886164Y-19198000D01*
%TO.C,C10*%
X76348000Y-20427836D02*
X76348000Y-20212164D01*
X77068000Y-20427836D02*
X77068000Y-20212164D01*
%TO.C,C6*%
X74824000Y-23983836D02*
X74824000Y-23768164D01*
X75544000Y-23983836D02*
X75544000Y-23768164D01*
%TO.C,C5*%
X77870164Y-33396600D02*
X78085836Y-33396600D01*
X77870164Y-34116600D02*
X78085836Y-34116600D01*
%TO.C,C1*%
X79785800Y-32175564D02*
X79785800Y-32391236D01*
X79065800Y-32175564D02*
X79065800Y-32391236D01*
%TO.C,U2*%
G36*
X77038200Y-22030500D02*
G01*
X77038200Y-21649499D01*
X77292200Y-21649499D01*
X77292200Y-22030500D01*
X77038200Y-22030500D01*
G37*
X77038200Y-22030500D02*
X77038200Y-21649499D01*
X77292200Y-21649499D01*
X77292200Y-22030500D01*
X77038200Y-22030500D01*
X79951013Y-23012400D02*
X80670400Y-23012400D01*
X77317600Y-22797015D02*
X77317600Y-23012400D01*
X78036987Y-20167600D02*
X77317600Y-20167600D01*
X80670400Y-20382985D02*
X80670400Y-20167600D01*
X80670400Y-23012400D02*
X80670400Y-22797015D01*
X77317600Y-23012400D02*
X78036987Y-23012400D01*
X77317600Y-20167600D02*
X77317600Y-20382985D01*
X80670400Y-20167600D02*
X79951013Y-20167600D01*
%TO.C,Y1*%
X69204800Y-25539600D02*
G75*
G03*
X69204800Y-25539600I-50000J0D01*
G01*
%TO.C,AE1*%
X73035660Y-23078791D02*
G75*
G02*
X73035660Y-22991209I-62360J43791D01*
G01*
%TO.C,U1*%
X78274000Y-32600000D02*
X78274000Y-32255000D01*
X78274000Y-25500000D02*
X78274000Y-25845000D01*
X71174000Y-32600000D02*
X71174000Y-32255000D01*
X71174000Y-25500000D02*
X71174000Y-25845000D01*
X78274000Y-32600000D02*
X77929000Y-32600000D01*
X78274000Y-25500000D02*
X77929000Y-25500000D01*
X71174000Y-32600000D02*
X71519000Y-32600000D01*
X71174000Y-25500000D02*
X71519000Y-25500000D01*
X79319000Y-31800000D02*
G75*
G03*
X79319000Y-31800000I-100000J0D01*
G01*
%TO.C,C13*%
D13*
X69726600Y-29690600D02*
X69709933Y-29707266D01*
X69659933Y-29723933D01*
X69626600Y-29723933D01*
X69576600Y-29707266D01*
X69543266Y-29673933D01*
X69526600Y-29640600D01*
X69509933Y-29573933D01*
X69509933Y-29523933D01*
X69526600Y-29457266D01*
X69543266Y-29423933D01*
X69576600Y-29390600D01*
X69626600Y-29373933D01*
X69659933Y-29373933D01*
X69709933Y-29390600D01*
X69726600Y-29407266D01*
X70059933Y-29723933D02*
X69859933Y-29723933D01*
X69959933Y-29723933D02*
X69959933Y-29373933D01*
X69926600Y-29423933D01*
X69893266Y-29457266D01*
X69859933Y-29473933D01*
X70176600Y-29373933D02*
X70393266Y-29373933D01*
X70276600Y-29507266D01*
X70326600Y-29507266D01*
X70359933Y-29523933D01*
X70376600Y-29540600D01*
X70393266Y-29573933D01*
X70393266Y-29657266D01*
X70376600Y-29690600D01*
X70359933Y-29707266D01*
X70326600Y-29723933D01*
X70226600Y-29723933D01*
X70193266Y-29707266D01*
X70176600Y-29690600D01*
%TO.C,C2*%
X71448200Y-23477133D02*
X71464866Y-23493800D01*
X71481533Y-23543800D01*
X71481533Y-23577133D01*
X71464866Y-23627133D01*
X71431533Y-23660466D01*
X71398200Y-23677133D01*
X71331533Y-23693800D01*
X71281533Y-23693800D01*
X71214866Y-23677133D01*
X71181533Y-23660466D01*
X71148200Y-23627133D01*
X71131533Y-23577133D01*
X71131533Y-23543800D01*
X71148200Y-23493800D01*
X71164866Y-23477133D01*
X71164866Y-23343800D02*
X71148200Y-23327133D01*
X71131533Y-23293800D01*
X71131533Y-23210466D01*
X71148200Y-23177133D01*
X71164866Y-23160466D01*
X71198200Y-23143800D01*
X71231533Y-23143800D01*
X71281533Y-23160466D01*
X71481533Y-23360466D01*
X71481533Y-23143800D01*
%TO.C,C7*%
X72484066Y-23442200D02*
X72467400Y-23458866D01*
X72417400Y-23475533D01*
X72384066Y-23475533D01*
X72334066Y-23458866D01*
X72300733Y-23425533D01*
X72284066Y-23392200D01*
X72267400Y-23325533D01*
X72267400Y-23275533D01*
X72284066Y-23208866D01*
X72300733Y-23175533D01*
X72334066Y-23142200D01*
X72384066Y-23125533D01*
X72417400Y-23125533D01*
X72467400Y-23142200D01*
X72484066Y-23158866D01*
X72600733Y-23125533D02*
X72834066Y-23125533D01*
X72684066Y-23475533D01*
%TO.C,Q1*%
X69635266Y-38438133D02*
X69618600Y-38471466D01*
X69585266Y-38504800D01*
X69535266Y-38554800D01*
X69518600Y-38588133D01*
X69518600Y-38621466D01*
X69601933Y-38604800D02*
X69585266Y-38638133D01*
X69551933Y-38671466D01*
X69485266Y-38688133D01*
X69368600Y-38688133D01*
X69301933Y-38671466D01*
X69268600Y-38638133D01*
X69251933Y-38604800D01*
X69251933Y-38538133D01*
X69268600Y-38504800D01*
X69301933Y-38471466D01*
X69368600Y-38454800D01*
X69485266Y-38454800D01*
X69551933Y-38471466D01*
X69585266Y-38504800D01*
X69601933Y-38538133D01*
X69601933Y-38604800D01*
X69601933Y-38121466D02*
X69601933Y-38321466D01*
X69601933Y-38221466D02*
X69251933Y-38221466D01*
X69301933Y-38254800D01*
X69335266Y-38288133D01*
X69351933Y-38321466D01*
%TO.C,R4*%
X79138866Y-27945933D02*
X79022200Y-27779266D01*
X78938866Y-27945933D02*
X78938866Y-27595933D01*
X79072200Y-27595933D01*
X79105533Y-27612600D01*
X79122200Y-27629266D01*
X79138866Y-27662600D01*
X79138866Y-27712600D01*
X79122200Y-27745933D01*
X79105533Y-27762600D01*
X79072200Y-27779266D01*
X78938866Y-27779266D01*
X79438866Y-27712600D02*
X79438866Y-27945933D01*
X79355533Y-27579266D02*
X79272200Y-27829266D01*
X79488866Y-27829266D01*
%TO.C,R3*%
X79951666Y-27945933D02*
X79835000Y-27779266D01*
X79751666Y-27945933D02*
X79751666Y-27595933D01*
X79885000Y-27595933D01*
X79918333Y-27612600D01*
X79935000Y-27629266D01*
X79951666Y-27662600D01*
X79951666Y-27712600D01*
X79935000Y-27745933D01*
X79918333Y-27762600D01*
X79885000Y-27779266D01*
X79751666Y-27779266D01*
X80068333Y-27595933D02*
X80285000Y-27595933D01*
X80168333Y-27729266D01*
X80218333Y-27729266D01*
X80251666Y-27745933D01*
X80268333Y-27762600D01*
X80285000Y-27795933D01*
X80285000Y-27879266D01*
X80268333Y-27912600D01*
X80251666Y-27929266D01*
X80218333Y-27945933D01*
X80118333Y-27945933D01*
X80085000Y-27929266D01*
X80068333Y-27912600D01*
%TO.C,U3*%
X71005733Y-21093533D02*
X71005733Y-21376866D01*
X71022400Y-21410200D01*
X71039066Y-21426866D01*
X71072400Y-21443533D01*
X71139066Y-21443533D01*
X71172400Y-21426866D01*
X71189066Y-21410200D01*
X71205733Y-21376866D01*
X71205733Y-21093533D01*
X71339066Y-21093533D02*
X71555733Y-21093533D01*
X71439066Y-21226866D01*
X71489066Y-21226866D01*
X71522400Y-21243533D01*
X71539066Y-21260200D01*
X71555733Y-21293533D01*
X71555733Y-21376866D01*
X71539066Y-21410200D01*
X71522400Y-21426866D01*
X71489066Y-21443533D01*
X71389066Y-21443533D01*
X71355733Y-21426866D01*
X71339066Y-21410200D01*
%TO.C,C12*%
X75046600Y-36674000D02*
X75063266Y-36690666D01*
X75079933Y-36740666D01*
X75079933Y-36774000D01*
X75063266Y-36824000D01*
X75029933Y-36857333D01*
X74996600Y-36874000D01*
X74929933Y-36890666D01*
X74879933Y-36890666D01*
X74813266Y-36874000D01*
X74779933Y-36857333D01*
X74746600Y-36824000D01*
X74729933Y-36774000D01*
X74729933Y-36740666D01*
X74746600Y-36690666D01*
X74763266Y-36674000D01*
X75079933Y-36340666D02*
X75079933Y-36540666D01*
X75079933Y-36440666D02*
X74729933Y-36440666D01*
X74779933Y-36474000D01*
X74813266Y-36507333D01*
X74829933Y-36540666D01*
X74763266Y-36207333D02*
X74746600Y-36190666D01*
X74729933Y-36157333D01*
X74729933Y-36074000D01*
X74746600Y-36040666D01*
X74763266Y-36024000D01*
X74796600Y-36007333D01*
X74829933Y-36007333D01*
X74879933Y-36024000D01*
X75079933Y-36224000D01*
X75079933Y-36007333D01*
%TO.C,R2*%
X73259533Y-34551533D02*
X73092866Y-34668200D01*
X73259533Y-34751533D02*
X72909533Y-34751533D01*
X72909533Y-34618200D01*
X72926200Y-34584866D01*
X72942866Y-34568200D01*
X72976200Y-34551533D01*
X73026200Y-34551533D01*
X73059533Y-34568200D01*
X73076200Y-34584866D01*
X73092866Y-34618200D01*
X73092866Y-34751533D01*
X72942866Y-34418200D02*
X72926200Y-34401533D01*
X72909533Y-34368200D01*
X72909533Y-34284866D01*
X72926200Y-34251533D01*
X72942866Y-34234866D01*
X72976200Y-34218200D01*
X73009533Y-34218200D01*
X73059533Y-34234866D01*
X73259533Y-34434866D01*
X73259533Y-34218200D01*
%TO.C,R1*%
X74871666Y-34448333D02*
X74755000Y-34281666D01*
X74671666Y-34448333D02*
X74671666Y-34098333D01*
X74805000Y-34098333D01*
X74838333Y-34115000D01*
X74855000Y-34131666D01*
X74871666Y-34165000D01*
X74871666Y-34215000D01*
X74855000Y-34248333D01*
X74838333Y-34265000D01*
X74805000Y-34281666D01*
X74671666Y-34281666D01*
X75205000Y-34448333D02*
X75005000Y-34448333D01*
X75105000Y-34448333D02*
X75105000Y-34098333D01*
X75071666Y-34148333D01*
X75038333Y-34181666D01*
X75005000Y-34198333D01*
%TO.C,C4*%
X76833000Y-34856333D02*
X76849666Y-34873000D01*
X76866333Y-34923000D01*
X76866333Y-34956333D01*
X76849666Y-35006333D01*
X76816333Y-35039666D01*
X76783000Y-35056333D01*
X76716333Y-35073000D01*
X76666333Y-35073000D01*
X76599666Y-35056333D01*
X76566333Y-35039666D01*
X76533000Y-35006333D01*
X76516333Y-34956333D01*
X76516333Y-34923000D01*
X76533000Y-34873000D01*
X76549666Y-34856333D01*
X76633000Y-34556333D02*
X76866333Y-34556333D01*
X76499666Y-34639666D02*
X76749666Y-34723000D01*
X76749666Y-34506333D01*
%TO.C,U5*%
X77152533Y-35622333D02*
X77152533Y-35905666D01*
X77169200Y-35939000D01*
X77185866Y-35955666D01*
X77219200Y-35972333D01*
X77285866Y-35972333D01*
X77319200Y-35955666D01*
X77335866Y-35939000D01*
X77352533Y-35905666D01*
X77352533Y-35622333D01*
X77685866Y-35622333D02*
X77519200Y-35622333D01*
X77502533Y-35789000D01*
X77519200Y-35772333D01*
X77552533Y-35755666D01*
X77635866Y-35755666D01*
X77669200Y-35772333D01*
X77685866Y-35789000D01*
X77702533Y-35822333D01*
X77702533Y-35905666D01*
X77685866Y-35939000D01*
X77669200Y-35955666D01*
X77635866Y-35972333D01*
X77552533Y-35972333D01*
X77519200Y-35955666D01*
X77502533Y-35939000D01*
%TO.C,L3*%
X79342066Y-34041933D02*
X79175400Y-34041933D01*
X79175400Y-33691933D01*
X79425400Y-33691933D02*
X79642066Y-33691933D01*
X79525400Y-33825266D01*
X79575400Y-33825266D01*
X79608733Y-33841933D01*
X79625400Y-33858600D01*
X79642066Y-33891933D01*
X79642066Y-33975266D01*
X79625400Y-34008600D01*
X79608733Y-34025266D01*
X79575400Y-34041933D01*
X79475400Y-34041933D01*
X79442066Y-34025266D01*
X79425400Y-34008600D01*
%TO.C,C3*%
X73531000Y-37167733D02*
X73547666Y-37184400D01*
X73564333Y-37234400D01*
X73564333Y-37267733D01*
X73547666Y-37317733D01*
X73514333Y-37351066D01*
X73481000Y-37367733D01*
X73414333Y-37384400D01*
X73364333Y-37384400D01*
X73297666Y-37367733D01*
X73264333Y-37351066D01*
X73231000Y-37317733D01*
X73214333Y-37267733D01*
X73214333Y-37234400D01*
X73231000Y-37184400D01*
X73247666Y-37167733D01*
X73214333Y-37051066D02*
X73214333Y-36834400D01*
X73347666Y-36951066D01*
X73347666Y-36901066D01*
X73364333Y-36867733D01*
X73381000Y-36851066D01*
X73414333Y-36834400D01*
X73497666Y-36834400D01*
X73531000Y-36851066D01*
X73547666Y-36867733D01*
X73564333Y-36901066D01*
X73564333Y-37001066D01*
X73547666Y-37034400D01*
X73531000Y-37051066D01*
%TO.C,U4*%
X70521933Y-35928266D02*
X70805266Y-35928266D01*
X70838600Y-35911600D01*
X70855266Y-35894933D01*
X70871933Y-35861600D01*
X70871933Y-35794933D01*
X70855266Y-35761600D01*
X70838600Y-35744933D01*
X70805266Y-35728266D01*
X70521933Y-35728266D01*
X70638600Y-35411600D02*
X70871933Y-35411600D01*
X70505266Y-35494933D02*
X70755266Y-35578266D01*
X70755266Y-35361600D01*
%TO.C,C11*%
X78769000Y-20843000D02*
X78752333Y-20859666D01*
X78702333Y-20876333D01*
X78669000Y-20876333D01*
X78619000Y-20859666D01*
X78585666Y-20826333D01*
X78569000Y-20793000D01*
X78552333Y-20726333D01*
X78552333Y-20676333D01*
X78569000Y-20609666D01*
X78585666Y-20576333D01*
X78619000Y-20543000D01*
X78669000Y-20526333D01*
X78702333Y-20526333D01*
X78752333Y-20543000D01*
X78769000Y-20559666D01*
X79102333Y-20876333D02*
X78902333Y-20876333D01*
X79002333Y-20876333D02*
X79002333Y-20526333D01*
X78969000Y-20576333D01*
X78935666Y-20609666D01*
X78902333Y-20626333D01*
X79435666Y-20876333D02*
X79235666Y-20876333D01*
X79335666Y-20876333D02*
X79335666Y-20526333D01*
X79302333Y-20576333D01*
X79269000Y-20609666D01*
X79235666Y-20626333D01*
%TO.C,C10*%
X76025800Y-21562600D02*
X76009133Y-21579266D01*
X75959133Y-21595933D01*
X75925800Y-21595933D01*
X75875800Y-21579266D01*
X75842466Y-21545933D01*
X75825800Y-21512600D01*
X75809133Y-21445933D01*
X75809133Y-21395933D01*
X75825800Y-21329266D01*
X75842466Y-21295933D01*
X75875800Y-21262600D01*
X75925800Y-21245933D01*
X75959133Y-21245933D01*
X76009133Y-21262600D01*
X76025800Y-21279266D01*
X76359133Y-21595933D02*
X76159133Y-21595933D01*
X76259133Y-21595933D02*
X76259133Y-21245933D01*
X76225800Y-21295933D01*
X76192466Y-21329266D01*
X76159133Y-21345933D01*
X76575800Y-21245933D02*
X76609133Y-21245933D01*
X76642466Y-21262600D01*
X76659133Y-21279266D01*
X76675800Y-21312600D01*
X76692466Y-21379266D01*
X76692466Y-21462600D01*
X76675800Y-21529266D01*
X76659133Y-21562600D01*
X76642466Y-21579266D01*
X76609133Y-21595933D01*
X76575800Y-21595933D01*
X76542466Y-21579266D01*
X76525800Y-21562600D01*
X76509133Y-21529266D01*
X76492466Y-21462600D01*
X76492466Y-21379266D01*
X76509133Y-21312600D01*
X76525800Y-21279266D01*
X76542466Y-21262600D01*
X76575800Y-21245933D01*
%TO.C,C6*%
X75125666Y-22832600D02*
X75109000Y-22849266D01*
X75059000Y-22865933D01*
X75025666Y-22865933D01*
X74975666Y-22849266D01*
X74942333Y-22815933D01*
X74925666Y-22782600D01*
X74909000Y-22715933D01*
X74909000Y-22665933D01*
X74925666Y-22599266D01*
X74942333Y-22565933D01*
X74975666Y-22532600D01*
X75025666Y-22515933D01*
X75059000Y-22515933D01*
X75109000Y-22532600D01*
X75125666Y-22549266D01*
X75425666Y-22515933D02*
X75359000Y-22515933D01*
X75325666Y-22532600D01*
X75309000Y-22549266D01*
X75275666Y-22599266D01*
X75259000Y-22665933D01*
X75259000Y-22799266D01*
X75275666Y-22832600D01*
X75292333Y-22849266D01*
X75325666Y-22865933D01*
X75392333Y-22865933D01*
X75425666Y-22849266D01*
X75442333Y-22832600D01*
X75459000Y-22799266D01*
X75459000Y-22715933D01*
X75442333Y-22682600D01*
X75425666Y-22665933D01*
X75392333Y-22649266D01*
X75325666Y-22649266D01*
X75292333Y-22665933D01*
X75275666Y-22682600D01*
X75259000Y-22715933D01*
%TO.C,C5*%
X76833000Y-33789533D02*
X76849666Y-33806200D01*
X76866333Y-33856200D01*
X76866333Y-33889533D01*
X76849666Y-33939533D01*
X76816333Y-33972866D01*
X76783000Y-33989533D01*
X76716333Y-34006200D01*
X76666333Y-34006200D01*
X76599666Y-33989533D01*
X76566333Y-33972866D01*
X76533000Y-33939533D01*
X76516333Y-33889533D01*
X76516333Y-33856200D01*
X76533000Y-33806200D01*
X76549666Y-33789533D01*
X76516333Y-33472866D02*
X76516333Y-33639533D01*
X76683000Y-33656200D01*
X76666333Y-33639533D01*
X76649666Y-33606200D01*
X76649666Y-33522866D01*
X76666333Y-33489533D01*
X76683000Y-33472866D01*
X76716333Y-33456200D01*
X76799666Y-33456200D01*
X76833000Y-33472866D01*
X76849666Y-33489533D01*
X76866333Y-33522866D01*
X76866333Y-33606200D01*
X76849666Y-33639533D01*
X76833000Y-33656200D01*
%TO.C,C1*%
X79367466Y-31163800D02*
X79350800Y-31180466D01*
X79300800Y-31197133D01*
X79267466Y-31197133D01*
X79217466Y-31180466D01*
X79184133Y-31147133D01*
X79167466Y-31113800D01*
X79150800Y-31047133D01*
X79150800Y-30997133D01*
X79167466Y-30930466D01*
X79184133Y-30897133D01*
X79217466Y-30863800D01*
X79267466Y-30847133D01*
X79300800Y-30847133D01*
X79350800Y-30863800D01*
X79367466Y-30880466D01*
X79700800Y-31197133D02*
X79500800Y-31197133D01*
X79600800Y-31197133D02*
X79600800Y-30847133D01*
X79567466Y-30897133D01*
X79534133Y-30930466D01*
X79500800Y-30947133D01*
%TO.C,U2*%
X76770333Y-23126666D02*
X77053666Y-23126666D01*
X77087000Y-23110000D01*
X77103666Y-23093333D01*
X77120333Y-23060000D01*
X77120333Y-22993333D01*
X77103666Y-22960000D01*
X77087000Y-22943333D01*
X77053666Y-22926666D01*
X76770333Y-22926666D01*
X76803666Y-22776666D02*
X76787000Y-22760000D01*
X76770333Y-22726666D01*
X76770333Y-22643333D01*
X76787000Y-22610000D01*
X76803666Y-22593333D01*
X76837000Y-22576666D01*
X76870333Y-22576666D01*
X76920333Y-22593333D01*
X77120333Y-22793333D01*
X77120333Y-22576666D01*
X81076800Y-22398333D02*
X81076800Y-22481666D01*
X80993466Y-22448333D02*
X81076800Y-22481666D01*
X81160133Y-22448333D01*
X81026800Y-22548333D02*
X81076800Y-22481666D01*
X81126800Y-22548333D01*
X81076800Y-22398333D02*
X81076800Y-22481666D01*
X80993466Y-22448333D02*
X81076800Y-22481666D01*
X81160133Y-22448333D01*
X81026800Y-22548333D02*
X81076800Y-22481666D01*
X81126800Y-22548333D01*
%TO.C,Y1*%
X70138246Y-23580418D02*
X70138246Y-23747085D01*
X70021579Y-23397085D02*
X70138246Y-23580418D01*
X70254913Y-23397085D01*
X70554913Y-23747085D02*
X70354913Y-23747085D01*
X70454913Y-23747085D02*
X70454913Y-23397085D01*
X70421579Y-23447085D01*
X70388246Y-23480418D01*
X70354913Y-23497085D01*
%TO.C,U1*%
X79056333Y-25539666D02*
X79339666Y-25539666D01*
X79373000Y-25523000D01*
X79389666Y-25506333D01*
X79406333Y-25473000D01*
X79406333Y-25406333D01*
X79389666Y-25373000D01*
X79373000Y-25356333D01*
X79339666Y-25339666D01*
X79056333Y-25339666D01*
X79406333Y-24989666D02*
X79406333Y-25189666D01*
X79406333Y-25089666D02*
X79056333Y-25089666D01*
X79106333Y-25123000D01*
X79139666Y-25156333D01*
X79156333Y-25189666D01*
%TD*%
M02*
