%TF.GenerationSoftware,KiCad,Pcbnew,5.1.9-73d0e3b20d~88~ubuntu20.04.1*%
%TF.CreationDate,2022-04-15T22:34:28-04:00*%
%TF.ProjectId,ring,72696e67-2e6b-4696-9361-645f70636258,rev?*%
%TF.SameCoordinates,Original*%
%TF.FileFunction,Copper,L2,Inr*%
%TF.FilePolarity,Positive*%
%FSLAX46Y46*%
G04 Gerber Fmt 4.6, Leading zero omitted, Abs format (unit mm)*
G04 Created by KiCad (PCBNEW 5.1.9-73d0e3b20d~88~ubuntu20.04.1) date 2022-04-15 22:34:28*
%MOMM*%
%LPD*%
G01*
G04 APERTURE LIST*
%TA.AperFunction,ViaPad*%
%ADD10C,0.400000*%
%TD*%
%TA.AperFunction,ViaPad*%
%ADD11C,0.800000*%
%TD*%
%TA.AperFunction,Conductor*%
%ADD12C,0.150000*%
%TD*%
%TA.AperFunction,Conductor*%
%ADD13C,0.090000*%
%TD*%
%TA.AperFunction,Conductor*%
%ADD14C,0.100000*%
%TD*%
G04 APERTURE END LIST*
D10*
%TO.N,*%
X76657200Y-23469600D03*
%TO.N,GND*%
X74275200Y-22301200D03*
X74834000Y-22707600D03*
X69342000Y-26263600D03*
X69342000Y-26958800D03*
X69342000Y-27958800D03*
X80619600Y-24841200D03*
X76657200Y-22656800D03*
X76660000Y-21844000D03*
X77673200Y-23469600D03*
X69342000Y-23571200D03*
X69342000Y-21691600D03*
X71275200Y-21691600D03*
X75237600Y-19304000D03*
X78943200Y-33274000D03*
X69342000Y-22860000D03*
X70291200Y-22860000D03*
X72491600Y-22860000D03*
X75237600Y-20304000D03*
X69425000Y-30327600D03*
X72275200Y-21691600D03*
X73275200Y-21691600D03*
X74275200Y-21691600D03*
X75275200Y-21691600D03*
X70916800Y-25755600D03*
X76237600Y-19304000D03*
X77237600Y-19304000D03*
X73237600Y-26568400D03*
X74237600Y-26568400D03*
X75237600Y-26568400D03*
X76237600Y-26568400D03*
X77237600Y-26568400D03*
X72237600Y-27568400D03*
X72237600Y-28568400D03*
X72237600Y-29568400D03*
X72237600Y-30568400D03*
X72237600Y-31546800D03*
X72237600Y-26568400D03*
X73237600Y-31568400D03*
X74237600Y-31568400D03*
X75057000Y-31568400D03*
X77237600Y-27568400D03*
X77237600Y-29159200D03*
X73304400Y-38506400D03*
X78798302Y-38524298D03*
X71120000Y-22860000D03*
X69425000Y-31887099D03*
%TO.N,+BATT*%
X80517999Y-25432536D03*
X75488800Y-34975800D03*
X80518000Y-32537400D03*
X75234800Y-36830000D03*
X75255966Y-37318418D03*
%TO.N,/LSM_INT1*%
X80213200Y-20269200D03*
X80517999Y-23850600D03*
%TO.N,/LSM_INT2*%
X70256400Y-28313000D03*
X77142343Y-21476229D03*
%TO.N,/CS*%
X78494001Y-23579199D03*
X74474021Y-33679202D03*
%TO.N,/SCK*%
X79051550Y-23189095D03*
X74973990Y-33259345D03*
%TO.N,/MISO*%
X80051561Y-23264306D03*
X75539600Y-33832800D03*
%TO.N,/MOSI*%
X79509359Y-23576942D03*
X75985067Y-33188212D03*
%TO.N,/SWDIO*%
X72796400Y-33731200D03*
%TO.N,/SWCLK*%
X73926920Y-33348531D03*
%TO.N,/BOOT0*%
X79029961Y-30560928D03*
%TO.N,+1V8*%
X80264000Y-19558000D03*
X75946000Y-20828000D03*
X75806259Y-24244259D03*
X69646800Y-28549600D03*
X73474010Y-33742088D03*
X80122261Y-31836861D03*
D11*
X80365600Y-33883600D03*
D10*
X76809600Y-33782000D03*
X80574978Y-27746389D03*
X77927198Y-24180798D03*
X71170800Y-32766000D03*
X71956363Y-24602240D03*
%TO.N,/TPS_MODE*%
X75488802Y-37871400D03*
X71727561Y-33779961D03*
%TO.N,/TPS_STOP*%
X72339200Y-33324800D03*
X79668130Y-38161096D03*
D11*
%TO.N,/CELL-*%
X71583501Y-37750701D03*
D10*
%TO.N,/NRST*%
X80574980Y-28346400D03*
%TO.N,/RAD_PLANE*%
X69392800Y-19405600D03*
X73964800Y-19405600D03*
%TO.N,/LED_1*%
X79508632Y-30080232D03*
%TO.N,/BTN_0*%
X77994001Y-25603200D03*
%TO.N,/BTN_1*%
X77112820Y-24741147D03*
%TO.N,/BTN_2*%
X76512824Y-24745463D03*
%TO.N,/BTN_3*%
X75927017Y-24875252D03*
%TD*%
D12*
%TO.N,+BATT*%
X80597262Y-32458138D02*
X80518000Y-32537400D01*
X80597262Y-31608860D02*
X80597262Y-32458138D01*
X80099977Y-31111575D02*
X80597262Y-31608860D01*
X80099977Y-25850558D02*
X80099977Y-31111575D01*
X80517999Y-25432536D02*
X80099977Y-25850558D01*
%TD*%
D13*
%TO.N,GND*%
X80053214Y-19163646D02*
X79980329Y-19212346D01*
X79918346Y-19274329D01*
X79869646Y-19347214D01*
X79836101Y-19428198D01*
X79819000Y-19514171D01*
X79819000Y-19601829D01*
X79836101Y-19687802D01*
X79869646Y-19768786D01*
X79918346Y-19841671D01*
X79971906Y-19895231D01*
X79929529Y-19923546D01*
X79867546Y-19985529D01*
X79818846Y-20058414D01*
X79785301Y-20139398D01*
X79768200Y-20225371D01*
X79768200Y-20313029D01*
X79785301Y-20399002D01*
X79818846Y-20479986D01*
X79867546Y-20552871D01*
X79929529Y-20614854D01*
X80002414Y-20663554D01*
X80083398Y-20697099D01*
X80169371Y-20714200D01*
X80257029Y-20714200D01*
X80343002Y-20697099D01*
X80423986Y-20663554D01*
X80496871Y-20614854D01*
X80558854Y-20552871D01*
X80607554Y-20479986D01*
X80641099Y-20399002D01*
X80658200Y-20313029D01*
X80658200Y-20225371D01*
X80641099Y-20139398D01*
X80607554Y-20058414D01*
X80558854Y-19985529D01*
X80505294Y-19931969D01*
X80547671Y-19903654D01*
X80609654Y-19841671D01*
X80658354Y-19768786D01*
X80691899Y-19687802D01*
X80709000Y-19601829D01*
X80709000Y-19514171D01*
X80691899Y-19428198D01*
X80658354Y-19347214D01*
X80609654Y-19274329D01*
X80547671Y-19212346D01*
X80474786Y-19163646D01*
X80465984Y-19160000D01*
X80840000Y-19160000D01*
X80840000Y-23543276D01*
X80801670Y-23504946D01*
X80728785Y-23456246D01*
X80647801Y-23422701D01*
X80561828Y-23405600D01*
X80474700Y-23405600D01*
X80479460Y-23394108D01*
X80496561Y-23308135D01*
X80496561Y-23220477D01*
X80479460Y-23134504D01*
X80445915Y-23053520D01*
X80397215Y-22980635D01*
X80335232Y-22918652D01*
X80262347Y-22869952D01*
X80181363Y-22836407D01*
X80095390Y-22819306D01*
X80007732Y-22819306D01*
X79921759Y-22836407D01*
X79840775Y-22869952D01*
X79767890Y-22918652D01*
X79705907Y-22980635D01*
X79657207Y-23053520D01*
X79623662Y-23134504D01*
X79621470Y-23145524D01*
X79553188Y-23131942D01*
X79493900Y-23131942D01*
X79479449Y-23059293D01*
X79445904Y-22978309D01*
X79397204Y-22905424D01*
X79335221Y-22843441D01*
X79262336Y-22794741D01*
X79181352Y-22761196D01*
X79095379Y-22744095D01*
X79007721Y-22744095D01*
X78921748Y-22761196D01*
X78840764Y-22794741D01*
X78767879Y-22843441D01*
X78705896Y-22905424D01*
X78657196Y-22978309D01*
X78623651Y-23059293D01*
X78606550Y-23145266D01*
X78606550Y-23147868D01*
X78537830Y-23134199D01*
X78450172Y-23134199D01*
X78364199Y-23151300D01*
X78283215Y-23184845D01*
X78210330Y-23233545D01*
X78148347Y-23295528D01*
X78099647Y-23368413D01*
X78066102Y-23449397D01*
X78049001Y-23535370D01*
X78049001Y-23623028D01*
X78066102Y-23709001D01*
X78089936Y-23766542D01*
X78057000Y-23752899D01*
X77971027Y-23735798D01*
X77883369Y-23735798D01*
X77797396Y-23752899D01*
X77716412Y-23786444D01*
X77643527Y-23835144D01*
X77581544Y-23897127D01*
X77532844Y-23970012D01*
X77499299Y-24050996D01*
X77482198Y-24136969D01*
X77482198Y-24224627D01*
X77499299Y-24310600D01*
X77532844Y-24391584D01*
X77581544Y-24464469D01*
X77643527Y-24526452D01*
X77716412Y-24575152D01*
X77797396Y-24608697D01*
X77883369Y-24625798D01*
X77971027Y-24625798D01*
X78057000Y-24608697D01*
X78137984Y-24575152D01*
X78210869Y-24526452D01*
X78272852Y-24464469D01*
X78321552Y-24391584D01*
X78355097Y-24310600D01*
X78372198Y-24224627D01*
X78372198Y-24136969D01*
X78355097Y-24050996D01*
X78331263Y-23993455D01*
X78364199Y-24007098D01*
X78450172Y-24024199D01*
X78537830Y-24024199D01*
X78623803Y-24007098D01*
X78704787Y-23973553D01*
X78777672Y-23924853D01*
X78839655Y-23862870D01*
X78888355Y-23789985D01*
X78921900Y-23709001D01*
X78939001Y-23623028D01*
X78939001Y-23620426D01*
X79007721Y-23634095D01*
X79067009Y-23634095D01*
X79081460Y-23706744D01*
X79115005Y-23787728D01*
X79163705Y-23860613D01*
X79225688Y-23922596D01*
X79298573Y-23971296D01*
X79379557Y-24004841D01*
X79465530Y-24021942D01*
X79553188Y-24021942D01*
X79639161Y-24004841D01*
X79720145Y-23971296D01*
X79793030Y-23922596D01*
X79855013Y-23860613D01*
X79903713Y-23787728D01*
X79937258Y-23706744D01*
X79939450Y-23695724D01*
X80007732Y-23709306D01*
X80094860Y-23709306D01*
X80090100Y-23720798D01*
X80072999Y-23806771D01*
X80072999Y-23894429D01*
X80090100Y-23980402D01*
X80123645Y-24061386D01*
X80172345Y-24134271D01*
X80234328Y-24196254D01*
X80307213Y-24244954D01*
X80388197Y-24278499D01*
X80474170Y-24295600D01*
X80561828Y-24295600D01*
X80647801Y-24278499D01*
X80728785Y-24244954D01*
X80801670Y-24196254D01*
X80840000Y-24157924D01*
X80840000Y-25125212D01*
X80801670Y-25086882D01*
X80728785Y-25038182D01*
X80647801Y-25004637D01*
X80561828Y-24987536D01*
X80474170Y-24987536D01*
X80388197Y-25004637D01*
X80307213Y-25038182D01*
X80234328Y-25086882D01*
X80172345Y-25148865D01*
X80123645Y-25221750D01*
X80090100Y-25302734D01*
X80072999Y-25388707D01*
X80072999Y-25424988D01*
X79884824Y-25613164D01*
X79872608Y-25623189D01*
X79853044Y-25647029D01*
X79832620Y-25671916D01*
X79816737Y-25701631D01*
X79802905Y-25727508D01*
X79784607Y-25787828D01*
X79779977Y-25834840D01*
X79778429Y-25850558D01*
X79779977Y-25866271D01*
X79779978Y-29726343D01*
X79719418Y-29685878D01*
X79638434Y-29652333D01*
X79552461Y-29635232D01*
X79464803Y-29635232D01*
X79378830Y-29652333D01*
X79297846Y-29685878D01*
X79224961Y-29734578D01*
X79162978Y-29796561D01*
X79114278Y-29869446D01*
X79080733Y-29950430D01*
X79063632Y-30036403D01*
X79063632Y-30115928D01*
X78986132Y-30115928D01*
X78900159Y-30133029D01*
X78819175Y-30166574D01*
X78746290Y-30215274D01*
X78684307Y-30277257D01*
X78635607Y-30350142D01*
X78602062Y-30431126D01*
X78584961Y-30517099D01*
X78584961Y-30604757D01*
X78602062Y-30690730D01*
X78635607Y-30771714D01*
X78684307Y-30844599D01*
X78746290Y-30906582D01*
X78819175Y-30955282D01*
X78900159Y-30988827D01*
X78986132Y-31005928D01*
X79073790Y-31005928D01*
X79159763Y-30988827D01*
X79240747Y-30955282D01*
X79313632Y-30906582D01*
X79375615Y-30844599D01*
X79424315Y-30771714D01*
X79457860Y-30690730D01*
X79474961Y-30604757D01*
X79474961Y-30525232D01*
X79552461Y-30525232D01*
X79638434Y-30508131D01*
X79719418Y-30474586D01*
X79779978Y-30434121D01*
X79779978Y-31095852D01*
X79778429Y-31111575D01*
X79781431Y-31142051D01*
X79784608Y-31174306D01*
X79802906Y-31234626D01*
X79832620Y-31290217D01*
X79850323Y-31311788D01*
X79872609Y-31338944D01*
X79884820Y-31348965D01*
X79958771Y-31422916D01*
X79911475Y-31442507D01*
X79838590Y-31491207D01*
X79776607Y-31553190D01*
X79727907Y-31626075D01*
X79694362Y-31707059D01*
X79677261Y-31793032D01*
X79677261Y-31880690D01*
X79694362Y-31966663D01*
X79727907Y-32047647D01*
X79776607Y-32120532D01*
X79838590Y-32182515D01*
X79911475Y-32231215D01*
X79992459Y-32264760D01*
X80078432Y-32281861D01*
X80153549Y-32281861D01*
X80123646Y-32326614D01*
X80090101Y-32407598D01*
X80073000Y-32493571D01*
X80073000Y-32581229D01*
X80090101Y-32667202D01*
X80123646Y-32748186D01*
X80172346Y-32821071D01*
X80234329Y-32883054D01*
X80307214Y-32931754D01*
X80388198Y-32965299D01*
X80474171Y-32982400D01*
X80561829Y-32982400D01*
X80647802Y-32965299D01*
X80728786Y-32931754D01*
X80801671Y-32883054D01*
X80840001Y-32844724D01*
X80840001Y-33445833D01*
X80776764Y-33382596D01*
X80671122Y-33312008D01*
X80553740Y-33263387D01*
X80429127Y-33238600D01*
X80302073Y-33238600D01*
X80177460Y-33263387D01*
X80060078Y-33312008D01*
X79954436Y-33382596D01*
X79864596Y-33472436D01*
X79794008Y-33578078D01*
X79745387Y-33695460D01*
X79720600Y-33820073D01*
X79720600Y-33947127D01*
X79745387Y-34071740D01*
X79794008Y-34189122D01*
X79864596Y-34294764D01*
X79954436Y-34384604D01*
X80060078Y-34455192D01*
X80177460Y-34503813D01*
X80302073Y-34528600D01*
X80429127Y-34528600D01*
X80553740Y-34503813D01*
X80671122Y-34455192D01*
X80776764Y-34384604D01*
X80840001Y-34321367D01*
X80840001Y-38840000D01*
X69160000Y-38840000D01*
X69160000Y-37687174D01*
X70938501Y-37687174D01*
X70938501Y-37814228D01*
X70963288Y-37938841D01*
X71011909Y-38056223D01*
X71082497Y-38161865D01*
X71172337Y-38251705D01*
X71277979Y-38322293D01*
X71395361Y-38370914D01*
X71519974Y-38395701D01*
X71647028Y-38395701D01*
X71771641Y-38370914D01*
X71889023Y-38322293D01*
X71994665Y-38251705D01*
X72084505Y-38161865D01*
X72155093Y-38056223D01*
X72203714Y-37938841D01*
X72228501Y-37814228D01*
X72228501Y-37687174D01*
X72203714Y-37562561D01*
X72155093Y-37445179D01*
X72084505Y-37339537D01*
X71994665Y-37249697D01*
X71889023Y-37179109D01*
X71771641Y-37130488D01*
X71647028Y-37105701D01*
X71519974Y-37105701D01*
X71395361Y-37130488D01*
X71277979Y-37179109D01*
X71172337Y-37249697D01*
X71082497Y-37339537D01*
X71011909Y-37445179D01*
X70963288Y-37562561D01*
X70938501Y-37687174D01*
X69160000Y-37687174D01*
X69160000Y-36786171D01*
X74789800Y-36786171D01*
X74789800Y-36873829D01*
X74806901Y-36959802D01*
X74840446Y-37040786D01*
X74873361Y-37090048D01*
X74861612Y-37107632D01*
X74828067Y-37188616D01*
X74810966Y-37274589D01*
X74810966Y-37362247D01*
X74828067Y-37448220D01*
X74861612Y-37529204D01*
X74910312Y-37602089D01*
X74972295Y-37664072D01*
X75045180Y-37712772D01*
X75068792Y-37722552D01*
X75060903Y-37741598D01*
X75043802Y-37827571D01*
X75043802Y-37915229D01*
X75060903Y-38001202D01*
X75094448Y-38082186D01*
X75143148Y-38155071D01*
X75205131Y-38217054D01*
X75278016Y-38265754D01*
X75359000Y-38299299D01*
X75444973Y-38316400D01*
X75532631Y-38316400D01*
X75618604Y-38299299D01*
X75699588Y-38265754D01*
X75772473Y-38217054D01*
X75834456Y-38155071D01*
X75859715Y-38117267D01*
X79223130Y-38117267D01*
X79223130Y-38204925D01*
X79240231Y-38290898D01*
X79273776Y-38371882D01*
X79322476Y-38444767D01*
X79384459Y-38506750D01*
X79457344Y-38555450D01*
X79538328Y-38588995D01*
X79624301Y-38606096D01*
X79711959Y-38606096D01*
X79797932Y-38588995D01*
X79878916Y-38555450D01*
X79951801Y-38506750D01*
X80013784Y-38444767D01*
X80062484Y-38371882D01*
X80096029Y-38290898D01*
X80113130Y-38204925D01*
X80113130Y-38117267D01*
X80096029Y-38031294D01*
X80062484Y-37950310D01*
X80013784Y-37877425D01*
X79951801Y-37815442D01*
X79878916Y-37766742D01*
X79797932Y-37733197D01*
X79711959Y-37716096D01*
X79624301Y-37716096D01*
X79538328Y-37733197D01*
X79457344Y-37766742D01*
X79384459Y-37815442D01*
X79322476Y-37877425D01*
X79273776Y-37950310D01*
X79240231Y-38031294D01*
X79223130Y-38117267D01*
X75859715Y-38117267D01*
X75883156Y-38082186D01*
X75916701Y-38001202D01*
X75933802Y-37915229D01*
X75933802Y-37827571D01*
X75916701Y-37741598D01*
X75883156Y-37660614D01*
X75834456Y-37587729D01*
X75772473Y-37525746D01*
X75699588Y-37477046D01*
X75675976Y-37467266D01*
X75683865Y-37448220D01*
X75700966Y-37362247D01*
X75700966Y-37274589D01*
X75683865Y-37188616D01*
X75650320Y-37107632D01*
X75617405Y-37058370D01*
X75629154Y-37040786D01*
X75662699Y-36959802D01*
X75679800Y-36873829D01*
X75679800Y-36786171D01*
X75662699Y-36700198D01*
X75629154Y-36619214D01*
X75580454Y-36546329D01*
X75518471Y-36484346D01*
X75445586Y-36435646D01*
X75364602Y-36402101D01*
X75278629Y-36385000D01*
X75190971Y-36385000D01*
X75104998Y-36402101D01*
X75024014Y-36435646D01*
X74951129Y-36484346D01*
X74889146Y-36546329D01*
X74840446Y-36619214D01*
X74806901Y-36700198D01*
X74789800Y-36786171D01*
X69160000Y-36786171D01*
X69160000Y-34931971D01*
X75043800Y-34931971D01*
X75043800Y-35019629D01*
X75060901Y-35105602D01*
X75094446Y-35186586D01*
X75143146Y-35259471D01*
X75205129Y-35321454D01*
X75278014Y-35370154D01*
X75358998Y-35403699D01*
X75444971Y-35420800D01*
X75532629Y-35420800D01*
X75618602Y-35403699D01*
X75699586Y-35370154D01*
X75772471Y-35321454D01*
X75834454Y-35259471D01*
X75883154Y-35186586D01*
X75916699Y-35105602D01*
X75933800Y-35019629D01*
X75933800Y-34931971D01*
X75916699Y-34845998D01*
X75883154Y-34765014D01*
X75834454Y-34692129D01*
X75772471Y-34630146D01*
X75699586Y-34581446D01*
X75618602Y-34547901D01*
X75532629Y-34530800D01*
X75444971Y-34530800D01*
X75358998Y-34547901D01*
X75278014Y-34581446D01*
X75205129Y-34630146D01*
X75143146Y-34692129D01*
X75094446Y-34765014D01*
X75060901Y-34845998D01*
X75043800Y-34931971D01*
X69160000Y-34931971D01*
X69160000Y-33736132D01*
X71282561Y-33736132D01*
X71282561Y-33823790D01*
X71299662Y-33909763D01*
X71333207Y-33990747D01*
X71381907Y-34063632D01*
X71443890Y-34125615D01*
X71516775Y-34174315D01*
X71597759Y-34207860D01*
X71683732Y-34224961D01*
X71771390Y-34224961D01*
X71857363Y-34207860D01*
X71938347Y-34174315D01*
X72011232Y-34125615D01*
X72073215Y-34063632D01*
X72121915Y-33990747D01*
X72155460Y-33909763D01*
X72172561Y-33823790D01*
X72172561Y-33737440D01*
X72209398Y-33752699D01*
X72295371Y-33769800D01*
X72351400Y-33769800D01*
X72351400Y-33775029D01*
X72368501Y-33861002D01*
X72402046Y-33941986D01*
X72450746Y-34014871D01*
X72512729Y-34076854D01*
X72585614Y-34125554D01*
X72666598Y-34159099D01*
X72752571Y-34176200D01*
X72840229Y-34176200D01*
X72926202Y-34159099D01*
X73007186Y-34125554D01*
X73080071Y-34076854D01*
X73129761Y-34027164D01*
X73190339Y-34087742D01*
X73263224Y-34136442D01*
X73344208Y-34169987D01*
X73430181Y-34187088D01*
X73517839Y-34187088D01*
X73603812Y-34169987D01*
X73684796Y-34136442D01*
X73757681Y-34087742D01*
X73819664Y-34025759D01*
X73868364Y-33952874D01*
X73901909Y-33871890D01*
X73917495Y-33793531D01*
X73970749Y-33793531D01*
X74040293Y-33779698D01*
X74046122Y-33809004D01*
X74079667Y-33889988D01*
X74128367Y-33962873D01*
X74190350Y-34024856D01*
X74263235Y-34073556D01*
X74344219Y-34107101D01*
X74430192Y-34124202D01*
X74517850Y-34124202D01*
X74603823Y-34107101D01*
X74684807Y-34073556D01*
X74757692Y-34024856D01*
X74819675Y-33962873D01*
X74868375Y-33889988D01*
X74901920Y-33809004D01*
X74919021Y-33723031D01*
X74919021Y-33702129D01*
X74930161Y-33704345D01*
X75017819Y-33704345D01*
X75103792Y-33687244D01*
X75121216Y-33680027D01*
X75111701Y-33702998D01*
X75094600Y-33788971D01*
X75094600Y-33876629D01*
X75111701Y-33962602D01*
X75145246Y-34043586D01*
X75193946Y-34116471D01*
X75255929Y-34178454D01*
X75328814Y-34227154D01*
X75409798Y-34260699D01*
X75495771Y-34277800D01*
X75583429Y-34277800D01*
X75669402Y-34260699D01*
X75750386Y-34227154D01*
X75823271Y-34178454D01*
X75885254Y-34116471D01*
X75933954Y-34043586D01*
X75967499Y-33962602D01*
X75984600Y-33876629D01*
X75984600Y-33788971D01*
X75974496Y-33738171D01*
X76364600Y-33738171D01*
X76364600Y-33825829D01*
X76381701Y-33911802D01*
X76415246Y-33992786D01*
X76463946Y-34065671D01*
X76525929Y-34127654D01*
X76598814Y-34176354D01*
X76679798Y-34209899D01*
X76765771Y-34227000D01*
X76853429Y-34227000D01*
X76939402Y-34209899D01*
X77020386Y-34176354D01*
X77093271Y-34127654D01*
X77155254Y-34065671D01*
X77203954Y-33992786D01*
X77237499Y-33911802D01*
X77254600Y-33825829D01*
X77254600Y-33738171D01*
X77237499Y-33652198D01*
X77203954Y-33571214D01*
X77155254Y-33498329D01*
X77093271Y-33436346D01*
X77020386Y-33387646D01*
X76939402Y-33354101D01*
X76853429Y-33337000D01*
X76765771Y-33337000D01*
X76679798Y-33354101D01*
X76598814Y-33387646D01*
X76525929Y-33436346D01*
X76463946Y-33498329D01*
X76415246Y-33571214D01*
X76381701Y-33652198D01*
X76364600Y-33738171D01*
X75974496Y-33738171D01*
X75967499Y-33702998D01*
X75938355Y-33632639D01*
X75941238Y-33633212D01*
X76028896Y-33633212D01*
X76114869Y-33616111D01*
X76195853Y-33582566D01*
X76268738Y-33533866D01*
X76330721Y-33471883D01*
X76379421Y-33398998D01*
X76412966Y-33318014D01*
X76430067Y-33232041D01*
X76430067Y-33144383D01*
X76412966Y-33058410D01*
X76379421Y-32977426D01*
X76330721Y-32904541D01*
X76268738Y-32842558D01*
X76195853Y-32793858D01*
X76114869Y-32760313D01*
X76028896Y-32743212D01*
X75941238Y-32743212D01*
X75855265Y-32760313D01*
X75774281Y-32793858D01*
X75701396Y-32842558D01*
X75639413Y-32904541D01*
X75590713Y-32977426D01*
X75557168Y-33058410D01*
X75540067Y-33144383D01*
X75540067Y-33232041D01*
X75557168Y-33318014D01*
X75586312Y-33388373D01*
X75583429Y-33387800D01*
X75495771Y-33387800D01*
X75409798Y-33404901D01*
X75392374Y-33412118D01*
X75401889Y-33389147D01*
X75418990Y-33303174D01*
X75418990Y-33215516D01*
X75401889Y-33129543D01*
X75368344Y-33048559D01*
X75319644Y-32975674D01*
X75257661Y-32913691D01*
X75184776Y-32864991D01*
X75103792Y-32831446D01*
X75017819Y-32814345D01*
X74930161Y-32814345D01*
X74844188Y-32831446D01*
X74763204Y-32864991D01*
X74690319Y-32913691D01*
X74628336Y-32975674D01*
X74579636Y-33048559D01*
X74546091Y-33129543D01*
X74528990Y-33215516D01*
X74528990Y-33236418D01*
X74517850Y-33234202D01*
X74430192Y-33234202D01*
X74360648Y-33248035D01*
X74354819Y-33218729D01*
X74321274Y-33137745D01*
X74272574Y-33064860D01*
X74210591Y-33002877D01*
X74137706Y-32954177D01*
X74056722Y-32920632D01*
X73970749Y-32903531D01*
X73883091Y-32903531D01*
X73797118Y-32920632D01*
X73716134Y-32954177D01*
X73643249Y-33002877D01*
X73581266Y-33064860D01*
X73532566Y-33137745D01*
X73499021Y-33218729D01*
X73483435Y-33297088D01*
X73430181Y-33297088D01*
X73344208Y-33314189D01*
X73263224Y-33347734D01*
X73190339Y-33396434D01*
X73140649Y-33446124D01*
X73080071Y-33385546D01*
X73007186Y-33336846D01*
X72926202Y-33303301D01*
X72840229Y-33286200D01*
X72784200Y-33286200D01*
X72784200Y-33280971D01*
X72767099Y-33194998D01*
X72733554Y-33114014D01*
X72684854Y-33041129D01*
X72622871Y-32979146D01*
X72549986Y-32930446D01*
X72469002Y-32896901D01*
X72383029Y-32879800D01*
X72295371Y-32879800D01*
X72209398Y-32896901D01*
X72128414Y-32930446D01*
X72055529Y-32979146D01*
X71993546Y-33041129D01*
X71944846Y-33114014D01*
X71911301Y-33194998D01*
X71894200Y-33280971D01*
X71894200Y-33367321D01*
X71857363Y-33352062D01*
X71771390Y-33334961D01*
X71683732Y-33334961D01*
X71597759Y-33352062D01*
X71516775Y-33385607D01*
X71443890Y-33434307D01*
X71381907Y-33496290D01*
X71333207Y-33569175D01*
X71299662Y-33650159D01*
X71282561Y-33736132D01*
X69160000Y-33736132D01*
X69160000Y-32722171D01*
X70725800Y-32722171D01*
X70725800Y-32809829D01*
X70742901Y-32895802D01*
X70776446Y-32976786D01*
X70825146Y-33049671D01*
X70887129Y-33111654D01*
X70960014Y-33160354D01*
X71040998Y-33193899D01*
X71126971Y-33211000D01*
X71214629Y-33211000D01*
X71300602Y-33193899D01*
X71381586Y-33160354D01*
X71454471Y-33111654D01*
X71516454Y-33049671D01*
X71565154Y-32976786D01*
X71598699Y-32895802D01*
X71615800Y-32809829D01*
X71615800Y-32722171D01*
X71598699Y-32636198D01*
X71565154Y-32555214D01*
X71516454Y-32482329D01*
X71454471Y-32420346D01*
X71381586Y-32371646D01*
X71300602Y-32338101D01*
X71214629Y-32321000D01*
X71126971Y-32321000D01*
X71040998Y-32338101D01*
X70960014Y-32371646D01*
X70887129Y-32420346D01*
X70825146Y-32482329D01*
X70776446Y-32555214D01*
X70742901Y-32636198D01*
X70725800Y-32722171D01*
X69160000Y-32722171D01*
X69160000Y-28505771D01*
X69201800Y-28505771D01*
X69201800Y-28593429D01*
X69218901Y-28679402D01*
X69252446Y-28760386D01*
X69301146Y-28833271D01*
X69363129Y-28895254D01*
X69436014Y-28943954D01*
X69516998Y-28977499D01*
X69602971Y-28994600D01*
X69690629Y-28994600D01*
X69776602Y-28977499D01*
X69857586Y-28943954D01*
X69930471Y-28895254D01*
X69992454Y-28833271D01*
X70041154Y-28760386D01*
X70060557Y-28713544D01*
X70126598Y-28740899D01*
X70212571Y-28758000D01*
X70300229Y-28758000D01*
X70386202Y-28740899D01*
X70467186Y-28707354D01*
X70540071Y-28658654D01*
X70602054Y-28596671D01*
X70650754Y-28523786D01*
X70684299Y-28442802D01*
X70701400Y-28356829D01*
X70701400Y-28269171D01*
X70684299Y-28183198D01*
X70650754Y-28102214D01*
X70602054Y-28029329D01*
X70540071Y-27967346D01*
X70467186Y-27918646D01*
X70386202Y-27885101D01*
X70300229Y-27868000D01*
X70212571Y-27868000D01*
X70126598Y-27885101D01*
X70045614Y-27918646D01*
X69972729Y-27967346D01*
X69910746Y-28029329D01*
X69862046Y-28102214D01*
X69842643Y-28149056D01*
X69776602Y-28121701D01*
X69690629Y-28104600D01*
X69602971Y-28104600D01*
X69516998Y-28121701D01*
X69436014Y-28155246D01*
X69363129Y-28203946D01*
X69301146Y-28265929D01*
X69252446Y-28338814D01*
X69218901Y-28419798D01*
X69201800Y-28505771D01*
X69160000Y-28505771D01*
X69160000Y-25559371D01*
X77549001Y-25559371D01*
X77549001Y-25647029D01*
X77566102Y-25733002D01*
X77599647Y-25813986D01*
X77648347Y-25886871D01*
X77710330Y-25948854D01*
X77783215Y-25997554D01*
X77864199Y-26031099D01*
X77950172Y-26048200D01*
X78037830Y-26048200D01*
X78123803Y-26031099D01*
X78204787Y-25997554D01*
X78277672Y-25948854D01*
X78339655Y-25886871D01*
X78388355Y-25813986D01*
X78421900Y-25733002D01*
X78439001Y-25647029D01*
X78439001Y-25559371D01*
X78421900Y-25473398D01*
X78388355Y-25392414D01*
X78339655Y-25319529D01*
X78277672Y-25257546D01*
X78204787Y-25208846D01*
X78123803Y-25175301D01*
X78037830Y-25158200D01*
X77950172Y-25158200D01*
X77864199Y-25175301D01*
X77783215Y-25208846D01*
X77710330Y-25257546D01*
X77648347Y-25319529D01*
X77599647Y-25392414D01*
X77566102Y-25473398D01*
X77549001Y-25559371D01*
X69160000Y-25559371D01*
X69160000Y-24558411D01*
X71511363Y-24558411D01*
X71511363Y-24646069D01*
X71528464Y-24732042D01*
X71562009Y-24813026D01*
X71610709Y-24885911D01*
X71672692Y-24947894D01*
X71745577Y-24996594D01*
X71826561Y-25030139D01*
X71912534Y-25047240D01*
X72000192Y-25047240D01*
X72086165Y-25030139D01*
X72167149Y-24996594D01*
X72240034Y-24947894D01*
X72302017Y-24885911D01*
X72350717Y-24813026D01*
X72384262Y-24732042D01*
X72401363Y-24646069D01*
X72401363Y-24558411D01*
X72384262Y-24472438D01*
X72350717Y-24391454D01*
X72302017Y-24318569D01*
X72240034Y-24256586D01*
X72167149Y-24207886D01*
X72149149Y-24200430D01*
X75361259Y-24200430D01*
X75361259Y-24288088D01*
X75378360Y-24374061D01*
X75411905Y-24455045D01*
X75460605Y-24527930D01*
X75522588Y-24589913D01*
X75563992Y-24617578D01*
X75532663Y-24664466D01*
X75499118Y-24745450D01*
X75482017Y-24831423D01*
X75482017Y-24919081D01*
X75499118Y-25005054D01*
X75532663Y-25086038D01*
X75581363Y-25158923D01*
X75643346Y-25220906D01*
X75716231Y-25269606D01*
X75797215Y-25303151D01*
X75883188Y-25320252D01*
X75970846Y-25320252D01*
X76056819Y-25303151D01*
X76137803Y-25269606D01*
X76210688Y-25220906D01*
X76272671Y-25158923D01*
X76290561Y-25132148D01*
X76302038Y-25139817D01*
X76383022Y-25173362D01*
X76468995Y-25190463D01*
X76556653Y-25190463D01*
X76642626Y-25173362D01*
X76723610Y-25139817D01*
X76796495Y-25091117D01*
X76814980Y-25072632D01*
X76829149Y-25086801D01*
X76902034Y-25135501D01*
X76983018Y-25169046D01*
X77068991Y-25186147D01*
X77156649Y-25186147D01*
X77242622Y-25169046D01*
X77323606Y-25135501D01*
X77396491Y-25086801D01*
X77458474Y-25024818D01*
X77507174Y-24951933D01*
X77540719Y-24870949D01*
X77557820Y-24784976D01*
X77557820Y-24697318D01*
X77540719Y-24611345D01*
X77507174Y-24530361D01*
X77458474Y-24457476D01*
X77396491Y-24395493D01*
X77323606Y-24346793D01*
X77242622Y-24313248D01*
X77156649Y-24296147D01*
X77068991Y-24296147D01*
X76983018Y-24313248D01*
X76902034Y-24346793D01*
X76829149Y-24395493D01*
X76810664Y-24413978D01*
X76796495Y-24399809D01*
X76723610Y-24351109D01*
X76642626Y-24317564D01*
X76556653Y-24300463D01*
X76468995Y-24300463D01*
X76383022Y-24317564D01*
X76302038Y-24351109D01*
X76229153Y-24399809D01*
X76219490Y-24409472D01*
X76234158Y-24374061D01*
X76251259Y-24288088D01*
X76251259Y-24200430D01*
X76234158Y-24114457D01*
X76200613Y-24033473D01*
X76151913Y-23960588D01*
X76089930Y-23898605D01*
X76017045Y-23849905D01*
X75936061Y-23816360D01*
X75850088Y-23799259D01*
X75762430Y-23799259D01*
X75676457Y-23816360D01*
X75595473Y-23849905D01*
X75522588Y-23898605D01*
X75460605Y-23960588D01*
X75411905Y-24033473D01*
X75378360Y-24114457D01*
X75361259Y-24200430D01*
X72149149Y-24200430D01*
X72086165Y-24174341D01*
X72000192Y-24157240D01*
X71912534Y-24157240D01*
X71826561Y-24174341D01*
X71745577Y-24207886D01*
X71672692Y-24256586D01*
X71610709Y-24318569D01*
X71562009Y-24391454D01*
X71528464Y-24472438D01*
X71511363Y-24558411D01*
X69160000Y-24558411D01*
X69160000Y-23425771D01*
X76212200Y-23425771D01*
X76212200Y-23513429D01*
X76229301Y-23599402D01*
X76262846Y-23680386D01*
X76311546Y-23753271D01*
X76373529Y-23815254D01*
X76446414Y-23863954D01*
X76527398Y-23897499D01*
X76613371Y-23914600D01*
X76701029Y-23914600D01*
X76787002Y-23897499D01*
X76867986Y-23863954D01*
X76940871Y-23815254D01*
X77002854Y-23753271D01*
X77051554Y-23680386D01*
X77085099Y-23599402D01*
X77102200Y-23513429D01*
X77102200Y-23425771D01*
X77085099Y-23339798D01*
X77051554Y-23258814D01*
X77002854Y-23185929D01*
X76940871Y-23123946D01*
X76867986Y-23075246D01*
X76787002Y-23041701D01*
X76701029Y-23024600D01*
X76613371Y-23024600D01*
X76527398Y-23041701D01*
X76446414Y-23075246D01*
X76373529Y-23123946D01*
X76311546Y-23185929D01*
X76262846Y-23258814D01*
X76229301Y-23339798D01*
X76212200Y-23425771D01*
X69160000Y-23425771D01*
X69160000Y-21533400D01*
X75031600Y-21533400D01*
X75040379Y-21532535D01*
X75048821Y-21529975D01*
X75056601Y-21525816D01*
X75063420Y-21520220D01*
X75069016Y-21513401D01*
X75073175Y-21505621D01*
X75075735Y-21497179D01*
X75076598Y-21488825D01*
X75077130Y-21432400D01*
X76697343Y-21432400D01*
X76697343Y-21520058D01*
X76714444Y-21606031D01*
X76747989Y-21687015D01*
X76796689Y-21759900D01*
X76858672Y-21821883D01*
X76931557Y-21870583D01*
X77012541Y-21904128D01*
X77098514Y-21921229D01*
X77186172Y-21921229D01*
X77272145Y-21904128D01*
X77353129Y-21870583D01*
X77426014Y-21821883D01*
X77487997Y-21759900D01*
X77536697Y-21687015D01*
X77570242Y-21606031D01*
X77587343Y-21520058D01*
X77587343Y-21432400D01*
X77570242Y-21346427D01*
X77536697Y-21265443D01*
X77487997Y-21192558D01*
X77426014Y-21130575D01*
X77353129Y-21081875D01*
X77272145Y-21048330D01*
X77186172Y-21031229D01*
X77098514Y-21031229D01*
X77012541Y-21048330D01*
X76931557Y-21081875D01*
X76858672Y-21130575D01*
X76796689Y-21192558D01*
X76747989Y-21265443D01*
X76714444Y-21346427D01*
X76697343Y-21432400D01*
X75077130Y-21432400D01*
X75083245Y-20784171D01*
X75501000Y-20784171D01*
X75501000Y-20871829D01*
X75518101Y-20957802D01*
X75551646Y-21038786D01*
X75600346Y-21111671D01*
X75662329Y-21173654D01*
X75735214Y-21222354D01*
X75816198Y-21255899D01*
X75902171Y-21273000D01*
X75989829Y-21273000D01*
X76075802Y-21255899D01*
X76156786Y-21222354D01*
X76229671Y-21173654D01*
X76291654Y-21111671D01*
X76340354Y-21038786D01*
X76373899Y-20957802D01*
X76391000Y-20871829D01*
X76391000Y-20784171D01*
X76373899Y-20698198D01*
X76340354Y-20617214D01*
X76291654Y-20544329D01*
X76229671Y-20482346D01*
X76156786Y-20433646D01*
X76075802Y-20400101D01*
X75989829Y-20383000D01*
X75902171Y-20383000D01*
X75816198Y-20400101D01*
X75735214Y-20433646D01*
X75662329Y-20482346D01*
X75600346Y-20544329D01*
X75551646Y-20617214D01*
X75518101Y-20698198D01*
X75501000Y-20784171D01*
X75083245Y-20784171D01*
X75098568Y-19160000D01*
X80062016Y-19160000D01*
X80053214Y-19163646D01*
%TA.AperFunction,Conductor*%
D14*
G36*
X80053214Y-19163646D02*
G01*
X79980329Y-19212346D01*
X79918346Y-19274329D01*
X79869646Y-19347214D01*
X79836101Y-19428198D01*
X79819000Y-19514171D01*
X79819000Y-19601829D01*
X79836101Y-19687802D01*
X79869646Y-19768786D01*
X79918346Y-19841671D01*
X79971906Y-19895231D01*
X79929529Y-19923546D01*
X79867546Y-19985529D01*
X79818846Y-20058414D01*
X79785301Y-20139398D01*
X79768200Y-20225371D01*
X79768200Y-20313029D01*
X79785301Y-20399002D01*
X79818846Y-20479986D01*
X79867546Y-20552871D01*
X79929529Y-20614854D01*
X80002414Y-20663554D01*
X80083398Y-20697099D01*
X80169371Y-20714200D01*
X80257029Y-20714200D01*
X80343002Y-20697099D01*
X80423986Y-20663554D01*
X80496871Y-20614854D01*
X80558854Y-20552871D01*
X80607554Y-20479986D01*
X80641099Y-20399002D01*
X80658200Y-20313029D01*
X80658200Y-20225371D01*
X80641099Y-20139398D01*
X80607554Y-20058414D01*
X80558854Y-19985529D01*
X80505294Y-19931969D01*
X80547671Y-19903654D01*
X80609654Y-19841671D01*
X80658354Y-19768786D01*
X80691899Y-19687802D01*
X80709000Y-19601829D01*
X80709000Y-19514171D01*
X80691899Y-19428198D01*
X80658354Y-19347214D01*
X80609654Y-19274329D01*
X80547671Y-19212346D01*
X80474786Y-19163646D01*
X80465984Y-19160000D01*
X80840000Y-19160000D01*
X80840000Y-23543276D01*
X80801670Y-23504946D01*
X80728785Y-23456246D01*
X80647801Y-23422701D01*
X80561828Y-23405600D01*
X80474700Y-23405600D01*
X80479460Y-23394108D01*
X80496561Y-23308135D01*
X80496561Y-23220477D01*
X80479460Y-23134504D01*
X80445915Y-23053520D01*
X80397215Y-22980635D01*
X80335232Y-22918652D01*
X80262347Y-22869952D01*
X80181363Y-22836407D01*
X80095390Y-22819306D01*
X80007732Y-22819306D01*
X79921759Y-22836407D01*
X79840775Y-22869952D01*
X79767890Y-22918652D01*
X79705907Y-22980635D01*
X79657207Y-23053520D01*
X79623662Y-23134504D01*
X79621470Y-23145524D01*
X79553188Y-23131942D01*
X79493900Y-23131942D01*
X79479449Y-23059293D01*
X79445904Y-22978309D01*
X79397204Y-22905424D01*
X79335221Y-22843441D01*
X79262336Y-22794741D01*
X79181352Y-22761196D01*
X79095379Y-22744095D01*
X79007721Y-22744095D01*
X78921748Y-22761196D01*
X78840764Y-22794741D01*
X78767879Y-22843441D01*
X78705896Y-22905424D01*
X78657196Y-22978309D01*
X78623651Y-23059293D01*
X78606550Y-23145266D01*
X78606550Y-23147868D01*
X78537830Y-23134199D01*
X78450172Y-23134199D01*
X78364199Y-23151300D01*
X78283215Y-23184845D01*
X78210330Y-23233545D01*
X78148347Y-23295528D01*
X78099647Y-23368413D01*
X78066102Y-23449397D01*
X78049001Y-23535370D01*
X78049001Y-23623028D01*
X78066102Y-23709001D01*
X78089936Y-23766542D01*
X78057000Y-23752899D01*
X77971027Y-23735798D01*
X77883369Y-23735798D01*
X77797396Y-23752899D01*
X77716412Y-23786444D01*
X77643527Y-23835144D01*
X77581544Y-23897127D01*
X77532844Y-23970012D01*
X77499299Y-24050996D01*
X77482198Y-24136969D01*
X77482198Y-24224627D01*
X77499299Y-24310600D01*
X77532844Y-24391584D01*
X77581544Y-24464469D01*
X77643527Y-24526452D01*
X77716412Y-24575152D01*
X77797396Y-24608697D01*
X77883369Y-24625798D01*
X77971027Y-24625798D01*
X78057000Y-24608697D01*
X78137984Y-24575152D01*
X78210869Y-24526452D01*
X78272852Y-24464469D01*
X78321552Y-24391584D01*
X78355097Y-24310600D01*
X78372198Y-24224627D01*
X78372198Y-24136969D01*
X78355097Y-24050996D01*
X78331263Y-23993455D01*
X78364199Y-24007098D01*
X78450172Y-24024199D01*
X78537830Y-24024199D01*
X78623803Y-24007098D01*
X78704787Y-23973553D01*
X78777672Y-23924853D01*
X78839655Y-23862870D01*
X78888355Y-23789985D01*
X78921900Y-23709001D01*
X78939001Y-23623028D01*
X78939001Y-23620426D01*
X79007721Y-23634095D01*
X79067009Y-23634095D01*
X79081460Y-23706744D01*
X79115005Y-23787728D01*
X79163705Y-23860613D01*
X79225688Y-23922596D01*
X79298573Y-23971296D01*
X79379557Y-24004841D01*
X79465530Y-24021942D01*
X79553188Y-24021942D01*
X79639161Y-24004841D01*
X79720145Y-23971296D01*
X79793030Y-23922596D01*
X79855013Y-23860613D01*
X79903713Y-23787728D01*
X79937258Y-23706744D01*
X79939450Y-23695724D01*
X80007732Y-23709306D01*
X80094860Y-23709306D01*
X80090100Y-23720798D01*
X80072999Y-23806771D01*
X80072999Y-23894429D01*
X80090100Y-23980402D01*
X80123645Y-24061386D01*
X80172345Y-24134271D01*
X80234328Y-24196254D01*
X80307213Y-24244954D01*
X80388197Y-24278499D01*
X80474170Y-24295600D01*
X80561828Y-24295600D01*
X80647801Y-24278499D01*
X80728785Y-24244954D01*
X80801670Y-24196254D01*
X80840000Y-24157924D01*
X80840000Y-25125212D01*
X80801670Y-25086882D01*
X80728785Y-25038182D01*
X80647801Y-25004637D01*
X80561828Y-24987536D01*
X80474170Y-24987536D01*
X80388197Y-25004637D01*
X80307213Y-25038182D01*
X80234328Y-25086882D01*
X80172345Y-25148865D01*
X80123645Y-25221750D01*
X80090100Y-25302734D01*
X80072999Y-25388707D01*
X80072999Y-25424988D01*
X79884824Y-25613164D01*
X79872608Y-25623189D01*
X79853044Y-25647029D01*
X79832620Y-25671916D01*
X79816737Y-25701631D01*
X79802905Y-25727508D01*
X79784607Y-25787828D01*
X79779977Y-25834840D01*
X79778429Y-25850558D01*
X79779977Y-25866271D01*
X79779978Y-29726343D01*
X79719418Y-29685878D01*
X79638434Y-29652333D01*
X79552461Y-29635232D01*
X79464803Y-29635232D01*
X79378830Y-29652333D01*
X79297846Y-29685878D01*
X79224961Y-29734578D01*
X79162978Y-29796561D01*
X79114278Y-29869446D01*
X79080733Y-29950430D01*
X79063632Y-30036403D01*
X79063632Y-30115928D01*
X78986132Y-30115928D01*
X78900159Y-30133029D01*
X78819175Y-30166574D01*
X78746290Y-30215274D01*
X78684307Y-30277257D01*
X78635607Y-30350142D01*
X78602062Y-30431126D01*
X78584961Y-30517099D01*
X78584961Y-30604757D01*
X78602062Y-30690730D01*
X78635607Y-30771714D01*
X78684307Y-30844599D01*
X78746290Y-30906582D01*
X78819175Y-30955282D01*
X78900159Y-30988827D01*
X78986132Y-31005928D01*
X79073790Y-31005928D01*
X79159763Y-30988827D01*
X79240747Y-30955282D01*
X79313632Y-30906582D01*
X79375615Y-30844599D01*
X79424315Y-30771714D01*
X79457860Y-30690730D01*
X79474961Y-30604757D01*
X79474961Y-30525232D01*
X79552461Y-30525232D01*
X79638434Y-30508131D01*
X79719418Y-30474586D01*
X79779978Y-30434121D01*
X79779978Y-31095852D01*
X79778429Y-31111575D01*
X79781431Y-31142051D01*
X79784608Y-31174306D01*
X79802906Y-31234626D01*
X79832620Y-31290217D01*
X79850323Y-31311788D01*
X79872609Y-31338944D01*
X79884820Y-31348965D01*
X79958771Y-31422916D01*
X79911475Y-31442507D01*
X79838590Y-31491207D01*
X79776607Y-31553190D01*
X79727907Y-31626075D01*
X79694362Y-31707059D01*
X79677261Y-31793032D01*
X79677261Y-31880690D01*
X79694362Y-31966663D01*
X79727907Y-32047647D01*
X79776607Y-32120532D01*
X79838590Y-32182515D01*
X79911475Y-32231215D01*
X79992459Y-32264760D01*
X80078432Y-32281861D01*
X80153549Y-32281861D01*
X80123646Y-32326614D01*
X80090101Y-32407598D01*
X80073000Y-32493571D01*
X80073000Y-32581229D01*
X80090101Y-32667202D01*
X80123646Y-32748186D01*
X80172346Y-32821071D01*
X80234329Y-32883054D01*
X80307214Y-32931754D01*
X80388198Y-32965299D01*
X80474171Y-32982400D01*
X80561829Y-32982400D01*
X80647802Y-32965299D01*
X80728786Y-32931754D01*
X80801671Y-32883054D01*
X80840001Y-32844724D01*
X80840001Y-33445833D01*
X80776764Y-33382596D01*
X80671122Y-33312008D01*
X80553740Y-33263387D01*
X80429127Y-33238600D01*
X80302073Y-33238600D01*
X80177460Y-33263387D01*
X80060078Y-33312008D01*
X79954436Y-33382596D01*
X79864596Y-33472436D01*
X79794008Y-33578078D01*
X79745387Y-33695460D01*
X79720600Y-33820073D01*
X79720600Y-33947127D01*
X79745387Y-34071740D01*
X79794008Y-34189122D01*
X79864596Y-34294764D01*
X79954436Y-34384604D01*
X80060078Y-34455192D01*
X80177460Y-34503813D01*
X80302073Y-34528600D01*
X80429127Y-34528600D01*
X80553740Y-34503813D01*
X80671122Y-34455192D01*
X80776764Y-34384604D01*
X80840001Y-34321367D01*
X80840001Y-38840000D01*
X69160000Y-38840000D01*
X69160000Y-37687174D01*
X70938501Y-37687174D01*
X70938501Y-37814228D01*
X70963288Y-37938841D01*
X71011909Y-38056223D01*
X71082497Y-38161865D01*
X71172337Y-38251705D01*
X71277979Y-38322293D01*
X71395361Y-38370914D01*
X71519974Y-38395701D01*
X71647028Y-38395701D01*
X71771641Y-38370914D01*
X71889023Y-38322293D01*
X71994665Y-38251705D01*
X72084505Y-38161865D01*
X72155093Y-38056223D01*
X72203714Y-37938841D01*
X72228501Y-37814228D01*
X72228501Y-37687174D01*
X72203714Y-37562561D01*
X72155093Y-37445179D01*
X72084505Y-37339537D01*
X71994665Y-37249697D01*
X71889023Y-37179109D01*
X71771641Y-37130488D01*
X71647028Y-37105701D01*
X71519974Y-37105701D01*
X71395361Y-37130488D01*
X71277979Y-37179109D01*
X71172337Y-37249697D01*
X71082497Y-37339537D01*
X71011909Y-37445179D01*
X70963288Y-37562561D01*
X70938501Y-37687174D01*
X69160000Y-37687174D01*
X69160000Y-36786171D01*
X74789800Y-36786171D01*
X74789800Y-36873829D01*
X74806901Y-36959802D01*
X74840446Y-37040786D01*
X74873361Y-37090048D01*
X74861612Y-37107632D01*
X74828067Y-37188616D01*
X74810966Y-37274589D01*
X74810966Y-37362247D01*
X74828067Y-37448220D01*
X74861612Y-37529204D01*
X74910312Y-37602089D01*
X74972295Y-37664072D01*
X75045180Y-37712772D01*
X75068792Y-37722552D01*
X75060903Y-37741598D01*
X75043802Y-37827571D01*
X75043802Y-37915229D01*
X75060903Y-38001202D01*
X75094448Y-38082186D01*
X75143148Y-38155071D01*
X75205131Y-38217054D01*
X75278016Y-38265754D01*
X75359000Y-38299299D01*
X75444973Y-38316400D01*
X75532631Y-38316400D01*
X75618604Y-38299299D01*
X75699588Y-38265754D01*
X75772473Y-38217054D01*
X75834456Y-38155071D01*
X75859715Y-38117267D01*
X79223130Y-38117267D01*
X79223130Y-38204925D01*
X79240231Y-38290898D01*
X79273776Y-38371882D01*
X79322476Y-38444767D01*
X79384459Y-38506750D01*
X79457344Y-38555450D01*
X79538328Y-38588995D01*
X79624301Y-38606096D01*
X79711959Y-38606096D01*
X79797932Y-38588995D01*
X79878916Y-38555450D01*
X79951801Y-38506750D01*
X80013784Y-38444767D01*
X80062484Y-38371882D01*
X80096029Y-38290898D01*
X80113130Y-38204925D01*
X80113130Y-38117267D01*
X80096029Y-38031294D01*
X80062484Y-37950310D01*
X80013784Y-37877425D01*
X79951801Y-37815442D01*
X79878916Y-37766742D01*
X79797932Y-37733197D01*
X79711959Y-37716096D01*
X79624301Y-37716096D01*
X79538328Y-37733197D01*
X79457344Y-37766742D01*
X79384459Y-37815442D01*
X79322476Y-37877425D01*
X79273776Y-37950310D01*
X79240231Y-38031294D01*
X79223130Y-38117267D01*
X75859715Y-38117267D01*
X75883156Y-38082186D01*
X75916701Y-38001202D01*
X75933802Y-37915229D01*
X75933802Y-37827571D01*
X75916701Y-37741598D01*
X75883156Y-37660614D01*
X75834456Y-37587729D01*
X75772473Y-37525746D01*
X75699588Y-37477046D01*
X75675976Y-37467266D01*
X75683865Y-37448220D01*
X75700966Y-37362247D01*
X75700966Y-37274589D01*
X75683865Y-37188616D01*
X75650320Y-37107632D01*
X75617405Y-37058370D01*
X75629154Y-37040786D01*
X75662699Y-36959802D01*
X75679800Y-36873829D01*
X75679800Y-36786171D01*
X75662699Y-36700198D01*
X75629154Y-36619214D01*
X75580454Y-36546329D01*
X75518471Y-36484346D01*
X75445586Y-36435646D01*
X75364602Y-36402101D01*
X75278629Y-36385000D01*
X75190971Y-36385000D01*
X75104998Y-36402101D01*
X75024014Y-36435646D01*
X74951129Y-36484346D01*
X74889146Y-36546329D01*
X74840446Y-36619214D01*
X74806901Y-36700198D01*
X74789800Y-36786171D01*
X69160000Y-36786171D01*
X69160000Y-34931971D01*
X75043800Y-34931971D01*
X75043800Y-35019629D01*
X75060901Y-35105602D01*
X75094446Y-35186586D01*
X75143146Y-35259471D01*
X75205129Y-35321454D01*
X75278014Y-35370154D01*
X75358998Y-35403699D01*
X75444971Y-35420800D01*
X75532629Y-35420800D01*
X75618602Y-35403699D01*
X75699586Y-35370154D01*
X75772471Y-35321454D01*
X75834454Y-35259471D01*
X75883154Y-35186586D01*
X75916699Y-35105602D01*
X75933800Y-35019629D01*
X75933800Y-34931971D01*
X75916699Y-34845998D01*
X75883154Y-34765014D01*
X75834454Y-34692129D01*
X75772471Y-34630146D01*
X75699586Y-34581446D01*
X75618602Y-34547901D01*
X75532629Y-34530800D01*
X75444971Y-34530800D01*
X75358998Y-34547901D01*
X75278014Y-34581446D01*
X75205129Y-34630146D01*
X75143146Y-34692129D01*
X75094446Y-34765014D01*
X75060901Y-34845998D01*
X75043800Y-34931971D01*
X69160000Y-34931971D01*
X69160000Y-33736132D01*
X71282561Y-33736132D01*
X71282561Y-33823790D01*
X71299662Y-33909763D01*
X71333207Y-33990747D01*
X71381907Y-34063632D01*
X71443890Y-34125615D01*
X71516775Y-34174315D01*
X71597759Y-34207860D01*
X71683732Y-34224961D01*
X71771390Y-34224961D01*
X71857363Y-34207860D01*
X71938347Y-34174315D01*
X72011232Y-34125615D01*
X72073215Y-34063632D01*
X72121915Y-33990747D01*
X72155460Y-33909763D01*
X72172561Y-33823790D01*
X72172561Y-33737440D01*
X72209398Y-33752699D01*
X72295371Y-33769800D01*
X72351400Y-33769800D01*
X72351400Y-33775029D01*
X72368501Y-33861002D01*
X72402046Y-33941986D01*
X72450746Y-34014871D01*
X72512729Y-34076854D01*
X72585614Y-34125554D01*
X72666598Y-34159099D01*
X72752571Y-34176200D01*
X72840229Y-34176200D01*
X72926202Y-34159099D01*
X73007186Y-34125554D01*
X73080071Y-34076854D01*
X73129761Y-34027164D01*
X73190339Y-34087742D01*
X73263224Y-34136442D01*
X73344208Y-34169987D01*
X73430181Y-34187088D01*
X73517839Y-34187088D01*
X73603812Y-34169987D01*
X73684796Y-34136442D01*
X73757681Y-34087742D01*
X73819664Y-34025759D01*
X73868364Y-33952874D01*
X73901909Y-33871890D01*
X73917495Y-33793531D01*
X73970749Y-33793531D01*
X74040293Y-33779698D01*
X74046122Y-33809004D01*
X74079667Y-33889988D01*
X74128367Y-33962873D01*
X74190350Y-34024856D01*
X74263235Y-34073556D01*
X74344219Y-34107101D01*
X74430192Y-34124202D01*
X74517850Y-34124202D01*
X74603823Y-34107101D01*
X74684807Y-34073556D01*
X74757692Y-34024856D01*
X74819675Y-33962873D01*
X74868375Y-33889988D01*
X74901920Y-33809004D01*
X74919021Y-33723031D01*
X74919021Y-33702129D01*
X74930161Y-33704345D01*
X75017819Y-33704345D01*
X75103792Y-33687244D01*
X75121216Y-33680027D01*
X75111701Y-33702998D01*
X75094600Y-33788971D01*
X75094600Y-33876629D01*
X75111701Y-33962602D01*
X75145246Y-34043586D01*
X75193946Y-34116471D01*
X75255929Y-34178454D01*
X75328814Y-34227154D01*
X75409798Y-34260699D01*
X75495771Y-34277800D01*
X75583429Y-34277800D01*
X75669402Y-34260699D01*
X75750386Y-34227154D01*
X75823271Y-34178454D01*
X75885254Y-34116471D01*
X75933954Y-34043586D01*
X75967499Y-33962602D01*
X75984600Y-33876629D01*
X75984600Y-33788971D01*
X75974496Y-33738171D01*
X76364600Y-33738171D01*
X76364600Y-33825829D01*
X76381701Y-33911802D01*
X76415246Y-33992786D01*
X76463946Y-34065671D01*
X76525929Y-34127654D01*
X76598814Y-34176354D01*
X76679798Y-34209899D01*
X76765771Y-34227000D01*
X76853429Y-34227000D01*
X76939402Y-34209899D01*
X77020386Y-34176354D01*
X77093271Y-34127654D01*
X77155254Y-34065671D01*
X77203954Y-33992786D01*
X77237499Y-33911802D01*
X77254600Y-33825829D01*
X77254600Y-33738171D01*
X77237499Y-33652198D01*
X77203954Y-33571214D01*
X77155254Y-33498329D01*
X77093271Y-33436346D01*
X77020386Y-33387646D01*
X76939402Y-33354101D01*
X76853429Y-33337000D01*
X76765771Y-33337000D01*
X76679798Y-33354101D01*
X76598814Y-33387646D01*
X76525929Y-33436346D01*
X76463946Y-33498329D01*
X76415246Y-33571214D01*
X76381701Y-33652198D01*
X76364600Y-33738171D01*
X75974496Y-33738171D01*
X75967499Y-33702998D01*
X75938355Y-33632639D01*
X75941238Y-33633212D01*
X76028896Y-33633212D01*
X76114869Y-33616111D01*
X76195853Y-33582566D01*
X76268738Y-33533866D01*
X76330721Y-33471883D01*
X76379421Y-33398998D01*
X76412966Y-33318014D01*
X76430067Y-33232041D01*
X76430067Y-33144383D01*
X76412966Y-33058410D01*
X76379421Y-32977426D01*
X76330721Y-32904541D01*
X76268738Y-32842558D01*
X76195853Y-32793858D01*
X76114869Y-32760313D01*
X76028896Y-32743212D01*
X75941238Y-32743212D01*
X75855265Y-32760313D01*
X75774281Y-32793858D01*
X75701396Y-32842558D01*
X75639413Y-32904541D01*
X75590713Y-32977426D01*
X75557168Y-33058410D01*
X75540067Y-33144383D01*
X75540067Y-33232041D01*
X75557168Y-33318014D01*
X75586312Y-33388373D01*
X75583429Y-33387800D01*
X75495771Y-33387800D01*
X75409798Y-33404901D01*
X75392374Y-33412118D01*
X75401889Y-33389147D01*
X75418990Y-33303174D01*
X75418990Y-33215516D01*
X75401889Y-33129543D01*
X75368344Y-33048559D01*
X75319644Y-32975674D01*
X75257661Y-32913691D01*
X75184776Y-32864991D01*
X75103792Y-32831446D01*
X75017819Y-32814345D01*
X74930161Y-32814345D01*
X74844188Y-32831446D01*
X74763204Y-32864991D01*
X74690319Y-32913691D01*
X74628336Y-32975674D01*
X74579636Y-33048559D01*
X74546091Y-33129543D01*
X74528990Y-33215516D01*
X74528990Y-33236418D01*
X74517850Y-33234202D01*
X74430192Y-33234202D01*
X74360648Y-33248035D01*
X74354819Y-33218729D01*
X74321274Y-33137745D01*
X74272574Y-33064860D01*
X74210591Y-33002877D01*
X74137706Y-32954177D01*
X74056722Y-32920632D01*
X73970749Y-32903531D01*
X73883091Y-32903531D01*
X73797118Y-32920632D01*
X73716134Y-32954177D01*
X73643249Y-33002877D01*
X73581266Y-33064860D01*
X73532566Y-33137745D01*
X73499021Y-33218729D01*
X73483435Y-33297088D01*
X73430181Y-33297088D01*
X73344208Y-33314189D01*
X73263224Y-33347734D01*
X73190339Y-33396434D01*
X73140649Y-33446124D01*
X73080071Y-33385546D01*
X73007186Y-33336846D01*
X72926202Y-33303301D01*
X72840229Y-33286200D01*
X72784200Y-33286200D01*
X72784200Y-33280971D01*
X72767099Y-33194998D01*
X72733554Y-33114014D01*
X72684854Y-33041129D01*
X72622871Y-32979146D01*
X72549986Y-32930446D01*
X72469002Y-32896901D01*
X72383029Y-32879800D01*
X72295371Y-32879800D01*
X72209398Y-32896901D01*
X72128414Y-32930446D01*
X72055529Y-32979146D01*
X71993546Y-33041129D01*
X71944846Y-33114014D01*
X71911301Y-33194998D01*
X71894200Y-33280971D01*
X71894200Y-33367321D01*
X71857363Y-33352062D01*
X71771390Y-33334961D01*
X71683732Y-33334961D01*
X71597759Y-33352062D01*
X71516775Y-33385607D01*
X71443890Y-33434307D01*
X71381907Y-33496290D01*
X71333207Y-33569175D01*
X71299662Y-33650159D01*
X71282561Y-33736132D01*
X69160000Y-33736132D01*
X69160000Y-32722171D01*
X70725800Y-32722171D01*
X70725800Y-32809829D01*
X70742901Y-32895802D01*
X70776446Y-32976786D01*
X70825146Y-33049671D01*
X70887129Y-33111654D01*
X70960014Y-33160354D01*
X71040998Y-33193899D01*
X71126971Y-33211000D01*
X71214629Y-33211000D01*
X71300602Y-33193899D01*
X71381586Y-33160354D01*
X71454471Y-33111654D01*
X71516454Y-33049671D01*
X71565154Y-32976786D01*
X71598699Y-32895802D01*
X71615800Y-32809829D01*
X71615800Y-32722171D01*
X71598699Y-32636198D01*
X71565154Y-32555214D01*
X71516454Y-32482329D01*
X71454471Y-32420346D01*
X71381586Y-32371646D01*
X71300602Y-32338101D01*
X71214629Y-32321000D01*
X71126971Y-32321000D01*
X71040998Y-32338101D01*
X70960014Y-32371646D01*
X70887129Y-32420346D01*
X70825146Y-32482329D01*
X70776446Y-32555214D01*
X70742901Y-32636198D01*
X70725800Y-32722171D01*
X69160000Y-32722171D01*
X69160000Y-28505771D01*
X69201800Y-28505771D01*
X69201800Y-28593429D01*
X69218901Y-28679402D01*
X69252446Y-28760386D01*
X69301146Y-28833271D01*
X69363129Y-28895254D01*
X69436014Y-28943954D01*
X69516998Y-28977499D01*
X69602971Y-28994600D01*
X69690629Y-28994600D01*
X69776602Y-28977499D01*
X69857586Y-28943954D01*
X69930471Y-28895254D01*
X69992454Y-28833271D01*
X70041154Y-28760386D01*
X70060557Y-28713544D01*
X70126598Y-28740899D01*
X70212571Y-28758000D01*
X70300229Y-28758000D01*
X70386202Y-28740899D01*
X70467186Y-28707354D01*
X70540071Y-28658654D01*
X70602054Y-28596671D01*
X70650754Y-28523786D01*
X70684299Y-28442802D01*
X70701400Y-28356829D01*
X70701400Y-28269171D01*
X70684299Y-28183198D01*
X70650754Y-28102214D01*
X70602054Y-28029329D01*
X70540071Y-27967346D01*
X70467186Y-27918646D01*
X70386202Y-27885101D01*
X70300229Y-27868000D01*
X70212571Y-27868000D01*
X70126598Y-27885101D01*
X70045614Y-27918646D01*
X69972729Y-27967346D01*
X69910746Y-28029329D01*
X69862046Y-28102214D01*
X69842643Y-28149056D01*
X69776602Y-28121701D01*
X69690629Y-28104600D01*
X69602971Y-28104600D01*
X69516998Y-28121701D01*
X69436014Y-28155246D01*
X69363129Y-28203946D01*
X69301146Y-28265929D01*
X69252446Y-28338814D01*
X69218901Y-28419798D01*
X69201800Y-28505771D01*
X69160000Y-28505771D01*
X69160000Y-25559371D01*
X77549001Y-25559371D01*
X77549001Y-25647029D01*
X77566102Y-25733002D01*
X77599647Y-25813986D01*
X77648347Y-25886871D01*
X77710330Y-25948854D01*
X77783215Y-25997554D01*
X77864199Y-26031099D01*
X77950172Y-26048200D01*
X78037830Y-26048200D01*
X78123803Y-26031099D01*
X78204787Y-25997554D01*
X78277672Y-25948854D01*
X78339655Y-25886871D01*
X78388355Y-25813986D01*
X78421900Y-25733002D01*
X78439001Y-25647029D01*
X78439001Y-25559371D01*
X78421900Y-25473398D01*
X78388355Y-25392414D01*
X78339655Y-25319529D01*
X78277672Y-25257546D01*
X78204787Y-25208846D01*
X78123803Y-25175301D01*
X78037830Y-25158200D01*
X77950172Y-25158200D01*
X77864199Y-25175301D01*
X77783215Y-25208846D01*
X77710330Y-25257546D01*
X77648347Y-25319529D01*
X77599647Y-25392414D01*
X77566102Y-25473398D01*
X77549001Y-25559371D01*
X69160000Y-25559371D01*
X69160000Y-24558411D01*
X71511363Y-24558411D01*
X71511363Y-24646069D01*
X71528464Y-24732042D01*
X71562009Y-24813026D01*
X71610709Y-24885911D01*
X71672692Y-24947894D01*
X71745577Y-24996594D01*
X71826561Y-25030139D01*
X71912534Y-25047240D01*
X72000192Y-25047240D01*
X72086165Y-25030139D01*
X72167149Y-24996594D01*
X72240034Y-24947894D01*
X72302017Y-24885911D01*
X72350717Y-24813026D01*
X72384262Y-24732042D01*
X72401363Y-24646069D01*
X72401363Y-24558411D01*
X72384262Y-24472438D01*
X72350717Y-24391454D01*
X72302017Y-24318569D01*
X72240034Y-24256586D01*
X72167149Y-24207886D01*
X72149149Y-24200430D01*
X75361259Y-24200430D01*
X75361259Y-24288088D01*
X75378360Y-24374061D01*
X75411905Y-24455045D01*
X75460605Y-24527930D01*
X75522588Y-24589913D01*
X75563992Y-24617578D01*
X75532663Y-24664466D01*
X75499118Y-24745450D01*
X75482017Y-24831423D01*
X75482017Y-24919081D01*
X75499118Y-25005054D01*
X75532663Y-25086038D01*
X75581363Y-25158923D01*
X75643346Y-25220906D01*
X75716231Y-25269606D01*
X75797215Y-25303151D01*
X75883188Y-25320252D01*
X75970846Y-25320252D01*
X76056819Y-25303151D01*
X76137803Y-25269606D01*
X76210688Y-25220906D01*
X76272671Y-25158923D01*
X76290561Y-25132148D01*
X76302038Y-25139817D01*
X76383022Y-25173362D01*
X76468995Y-25190463D01*
X76556653Y-25190463D01*
X76642626Y-25173362D01*
X76723610Y-25139817D01*
X76796495Y-25091117D01*
X76814980Y-25072632D01*
X76829149Y-25086801D01*
X76902034Y-25135501D01*
X76983018Y-25169046D01*
X77068991Y-25186147D01*
X77156649Y-25186147D01*
X77242622Y-25169046D01*
X77323606Y-25135501D01*
X77396491Y-25086801D01*
X77458474Y-25024818D01*
X77507174Y-24951933D01*
X77540719Y-24870949D01*
X77557820Y-24784976D01*
X77557820Y-24697318D01*
X77540719Y-24611345D01*
X77507174Y-24530361D01*
X77458474Y-24457476D01*
X77396491Y-24395493D01*
X77323606Y-24346793D01*
X77242622Y-24313248D01*
X77156649Y-24296147D01*
X77068991Y-24296147D01*
X76983018Y-24313248D01*
X76902034Y-24346793D01*
X76829149Y-24395493D01*
X76810664Y-24413978D01*
X76796495Y-24399809D01*
X76723610Y-24351109D01*
X76642626Y-24317564D01*
X76556653Y-24300463D01*
X76468995Y-24300463D01*
X76383022Y-24317564D01*
X76302038Y-24351109D01*
X76229153Y-24399809D01*
X76219490Y-24409472D01*
X76234158Y-24374061D01*
X76251259Y-24288088D01*
X76251259Y-24200430D01*
X76234158Y-24114457D01*
X76200613Y-24033473D01*
X76151913Y-23960588D01*
X76089930Y-23898605D01*
X76017045Y-23849905D01*
X75936061Y-23816360D01*
X75850088Y-23799259D01*
X75762430Y-23799259D01*
X75676457Y-23816360D01*
X75595473Y-23849905D01*
X75522588Y-23898605D01*
X75460605Y-23960588D01*
X75411905Y-24033473D01*
X75378360Y-24114457D01*
X75361259Y-24200430D01*
X72149149Y-24200430D01*
X72086165Y-24174341D01*
X72000192Y-24157240D01*
X71912534Y-24157240D01*
X71826561Y-24174341D01*
X71745577Y-24207886D01*
X71672692Y-24256586D01*
X71610709Y-24318569D01*
X71562009Y-24391454D01*
X71528464Y-24472438D01*
X71511363Y-24558411D01*
X69160000Y-24558411D01*
X69160000Y-23425771D01*
X76212200Y-23425771D01*
X76212200Y-23513429D01*
X76229301Y-23599402D01*
X76262846Y-23680386D01*
X76311546Y-23753271D01*
X76373529Y-23815254D01*
X76446414Y-23863954D01*
X76527398Y-23897499D01*
X76613371Y-23914600D01*
X76701029Y-23914600D01*
X76787002Y-23897499D01*
X76867986Y-23863954D01*
X76940871Y-23815254D01*
X77002854Y-23753271D01*
X77051554Y-23680386D01*
X77085099Y-23599402D01*
X77102200Y-23513429D01*
X77102200Y-23425771D01*
X77085099Y-23339798D01*
X77051554Y-23258814D01*
X77002854Y-23185929D01*
X76940871Y-23123946D01*
X76867986Y-23075246D01*
X76787002Y-23041701D01*
X76701029Y-23024600D01*
X76613371Y-23024600D01*
X76527398Y-23041701D01*
X76446414Y-23075246D01*
X76373529Y-23123946D01*
X76311546Y-23185929D01*
X76262846Y-23258814D01*
X76229301Y-23339798D01*
X76212200Y-23425771D01*
X69160000Y-23425771D01*
X69160000Y-21533400D01*
X75031600Y-21533400D01*
X75040379Y-21532535D01*
X75048821Y-21529975D01*
X75056601Y-21525816D01*
X75063420Y-21520220D01*
X75069016Y-21513401D01*
X75073175Y-21505621D01*
X75075735Y-21497179D01*
X75076598Y-21488825D01*
X75077130Y-21432400D01*
X76697343Y-21432400D01*
X76697343Y-21520058D01*
X76714444Y-21606031D01*
X76747989Y-21687015D01*
X76796689Y-21759900D01*
X76858672Y-21821883D01*
X76931557Y-21870583D01*
X77012541Y-21904128D01*
X77098514Y-21921229D01*
X77186172Y-21921229D01*
X77272145Y-21904128D01*
X77353129Y-21870583D01*
X77426014Y-21821883D01*
X77487997Y-21759900D01*
X77536697Y-21687015D01*
X77570242Y-21606031D01*
X77587343Y-21520058D01*
X77587343Y-21432400D01*
X77570242Y-21346427D01*
X77536697Y-21265443D01*
X77487997Y-21192558D01*
X77426014Y-21130575D01*
X77353129Y-21081875D01*
X77272145Y-21048330D01*
X77186172Y-21031229D01*
X77098514Y-21031229D01*
X77012541Y-21048330D01*
X76931557Y-21081875D01*
X76858672Y-21130575D01*
X76796689Y-21192558D01*
X76747989Y-21265443D01*
X76714444Y-21346427D01*
X76697343Y-21432400D01*
X75077130Y-21432400D01*
X75083245Y-20784171D01*
X75501000Y-20784171D01*
X75501000Y-20871829D01*
X75518101Y-20957802D01*
X75551646Y-21038786D01*
X75600346Y-21111671D01*
X75662329Y-21173654D01*
X75735214Y-21222354D01*
X75816198Y-21255899D01*
X75902171Y-21273000D01*
X75989829Y-21273000D01*
X76075802Y-21255899D01*
X76156786Y-21222354D01*
X76229671Y-21173654D01*
X76291654Y-21111671D01*
X76340354Y-21038786D01*
X76373899Y-20957802D01*
X76391000Y-20871829D01*
X76391000Y-20784171D01*
X76373899Y-20698198D01*
X76340354Y-20617214D01*
X76291654Y-20544329D01*
X76229671Y-20482346D01*
X76156786Y-20433646D01*
X76075802Y-20400101D01*
X75989829Y-20383000D01*
X75902171Y-20383000D01*
X75816198Y-20400101D01*
X75735214Y-20433646D01*
X75662329Y-20482346D01*
X75600346Y-20544329D01*
X75551646Y-20617214D01*
X75518101Y-20698198D01*
X75501000Y-20784171D01*
X75083245Y-20784171D01*
X75098568Y-19160000D01*
X80062016Y-19160000D01*
X80053214Y-19163646D01*
G37*
%TD.AperFunction*%
%TD*%
D13*
%TO.N,/RAD_PLANE*%
X74224600Y-19767000D02*
X69160000Y-19767000D01*
X69160000Y-19160000D01*
X74224600Y-19160000D01*
X74224600Y-19767000D01*
%TA.AperFunction,Conductor*%
D14*
G36*
X74224600Y-19767000D02*
G01*
X69160000Y-19767000D01*
X69160000Y-19160000D01*
X74224600Y-19160000D01*
X74224600Y-19767000D01*
G37*
%TD.AperFunction*%
%TD*%
M02*
