M48
; DRILL file {KiCad 5.1.9-73d0e3b20d~88~ubuntu20.04.1} date Fri Apr 15 22:34:31 2022
; FORMAT={-:-/ absolute / inch / decimal}
; #@! TF.CreationDate,2022-04-15T22:34:31-04:00
; #@! TF.GenerationSoftware,Kicad,Pcbnew,5.1.9-73d0e3b20d~88~ubuntu20.04.1
; #@! TF.FileFunction,Plated,1,4,PTH
FMAT,2
INCH
T1C0.0079
T2C0.0157
%
G90
G05
T1
X2.73Y-0.854
X2.73Y-0.9
X2.73Y-0.928
X2.73Y-1.034
X2.73Y-1.0614
X2.73Y-1.1007
X2.732Y-0.764
X2.7333Y-1.194
X2.7333Y-1.2554
X2.742Y-1.124
X2.766Y-1.1147
X2.7674Y-0.9
X2.792Y-1.014
X2.8Y-0.9
X2.802Y-1.29
X2.8061Y-0.854
X2.8239Y-1.3299
X2.8329Y-0.9686
X2.844Y-1.046
X2.844Y-1.0854
X2.844Y-1.1247
X2.844Y-1.1641
X2.844Y-1.2035
X2.844Y-1.242
X2.8455Y-0.854
X2.848Y-1.312
X2.854Y-0.9
X2.866Y-1.328
X2.8834Y-1.046
X2.8834Y-1.2429
X2.8849Y-0.854
X2.886Y-1.516
X2.8927Y-1.3284
X2.9105Y-1.3129
X2.912Y-0.764
X2.9227Y-1.046
X2.9227Y-1.2429
X2.9242Y-0.854
X2.9242Y-0.878
X2.932Y-1.326
X2.9462Y-0.894
X2.9517Y-1.3094
X2.955Y-1.2429
X2.962Y-1.45
X2.9621Y-0.76
X2.9621Y-0.7994
X2.9621Y-1.046
X2.9628Y-1.4692
X2.9636Y-0.854
X2.972Y-1.377
X2.972Y-1.491
X2.974Y-1.332
X2.9845Y-0.9545
X2.9893Y-0.9793
X2.99Y-0.82
X2.9915Y-1.3066
X3.0015Y-0.76
X3.0015Y-1.046
X3.0123Y-0.9742
X3.018Y-0.892
X3.018Y-0.924
X3.0181Y-0.86
X3.024Y-1.33
X3.0359Y-0.9741
X3.0371Y-0.8455
X3.0409Y-0.76
X3.0409Y-1.046
X3.0409Y-1.0854
X3.0409Y-1.148
X3.058Y-0.924
X3.068Y-0.952
X3.0706Y-1.008
X3.0903Y-0.9283
X3.1023Y-1.5167
X3.108Y-1.31
X3.1114Y-1.2032
X3.1123Y-0.913
X3.1303Y-1.1843
X3.1303Y-0.9282
X3.1365Y-1.5024
X3.1516Y-0.9159
X3.1544Y-1.2534
X3.158Y-0.798
X3.16Y-0.77
X3.17Y-0.939
X3.17Y-1.0013
X3.17Y-1.281
X3.1722Y-1.0924
X3.1722Y-1.116
X3.174Y-0.978
T2
X2.8182Y-1.4862
X3.164Y-1.334
T0
M30
